/* XPM */
static char *_c2fbf7f53a34b4dfe528fdcc360bf62yYw7npa6GcARJrhz[] = {
/* columns rows colors chars-per-pixel */
"64 64 235 2 ",
"   c #0C0C03",
".  c #0E0202",
"X  c #140C02",
"o  c #0E1204",
"O  c #1D1402",
"+  c #151508",
"@  c #1E1F11",
"#  c #201401",
"$  c #341C01",
"%  c #20190C",
"&  c #1B2709",
"*  c #242C0B",
"=  c #382504",
"-  c #2A380D",
";  c #222514",
":  c #293714",
">  c #26053C",
",  c #320E3E",
"<  c #3E3C23",
"1  c #532D04",
"2  c #573301",
"3  c #4B3008",
"4  c #633A04",
"5  c #413D22",
"6  c #692631",
"7  c #2D4C02",
"8  c #2B440A",
"9  c #314F08",
"0  c #2F5105",
"q  c #335305",
"w  c #35540A",
"e  c #3A560B",
"r  c #3C5B0D",
"t  c #385907",
"y  c #2E4314",
"u  c #364917",
"i  c #3B5613",
"p  c #3D5C12",
"a  c #3E5D19",
"s  c #385317",
"d  c #3E610D",
"f  c #3E6116",
"g  c #3F5323",
"h  c #415E0E",
"j  c #425E13",
"k  c #425E1B",
"l  c #4A5D1B",
"z  c #495E14",
"x  c #525E1C",
"c  c #5C4217",
"v  c #774605",
"b  c #41620E",
"n  c #446314",
"m  c #496517",
"M  c #466815",
"N  c #496B16",
"B  c #45641A",
"V  c #4A661B",
"C  c #46691A",
"Z  c #4B6B1C",
"A  c #52641E",
"S  c #516D1E",
"D  c #4E711D",
"F  c #4E7114",
"G  c #52731E",
"H  c #547819",
"J  c #57482A",
"K  c #455A27",
"L  c #58532C",
"P  c #615834",
"I  c #456421",
"U  c #4A6622",
"Y  c #4D6C22",
"T  c #4E6D29",
"R  c #466A22",
"E  c #516D23",
"W  c #5A6D26",
"Q  c #536D2A",
"!  c #576828",
"~  c #4E7122",
"^  c #557525",
"/  c #537224",
"(  c #587426",
")  c #567924",
"_  c #597A26",
"`  c #55742A",
"'  c #5A752B",
"]  c #567929",
"[  c #5B7A2C",
"{  c #567331",
"}  c #5D7C32",
"|  c #5B6F30",
" . c #61752E",
".. c #607C2F",
"X. c #627E32",
"o. c #637735",
"O. c #70663A",
"+. c #2A0747",
"@. c #360D4B",
"#. c #370B4C",
"$. c #331349",
"%. c #3C0354",
"&. c #3D035A",
"*. c #3A0758",
"=. c #3C1754",
"-. c #2E0C49",
";. c #3C0062",
":. c #4C1246",
">. c #43045C",
",. c #430A5C",
"<. c #440858",
"1. c #4B1352",
"2. c #712B54",
"3. c #6C2456",
"4. c #430364",
"5. c #490867",
"6. c #510B6C",
"7. c #56146A",
"8. c #4C0876",
"9. c #550B75",
"0. c #590B76",
"q. c #550A78",
"w. c #5B1376",
"e. c #5D137C",
"r. c #581774",
"t. c #4A1665",
"y. c #641A78",
"u. c #681D6D",
"i. c #6B277B",
"p. c #682168",
"a. c #47255B",
"s. c #893936",
"d. c #8A3931",
"f. c #915405",
"g. c #AA6304",
"h. c #B76B04",
"j. c #B17014",
"k. c #914835",
"l. c #934D2C",
"z. c #AB572E",
"x. c #B46D2B",
"c. c #926626",
"v. c #C16F06",
"b. c #C77406",
"n. c #D27B03",
"m. c #C17913",
"M. c #C16729",
"N. c #8D3948",
"B. c #9B454B",
"V. c #9D5158",
"C. c #A44A4C",
"Z. c #AA6778",
"A. c #5E8133",
"S. c #5E802C",
"D. c #61822D",
"F. c #65882A",
"G. c #638334",
"H. c #678837",
"J. c #6A863A",
"K. c #6B8A3D",
"L. c #678538",
"P. c #72833C",
"I. c #759243",
"U. c #708B44",
"Y. c #BF8C33",
"T. c #DC8303",
"R. c #D6861B",
"E. c #E88703",
"W. c #F3991C",
"Q. c #F19108",
"!. c #D38E2E",
"~. c #F79C22",
"^. c #F2A52F",
"/. c #F7A01F",
"(. c #B49044",
"). c #BAAD66",
"_. c #939057",
"`. c #D39251",
"'. c #DCA753",
"]. c #EDB554",
"[. c #FBBD57",
"{. c #FBB648",
"}. c #CAB466",
"|. c #E2A16B",
" X c #FFDA4F",
".X c #FDC55A",
"XX c #FED752",
"oX c #FEC245",
"OX c #FAC761",
"+X c #F1D676",
"@X c #FEF479",
"#X c #FDEC7B",
"$X c #D6CA73",
"%X c #651B83",
"&X c #6A2787",
"*X c #722C8B",
"=X c #753692",
"-X c #7D4696",
";X c #833AA6",
":X c #844A9B",
">X c #8E558B",
",X c #AF6C82",
"<X c #9053B0",
"1X c #9564AA",
"2X c #9874AD",
"3X c #A47DB3",
"4X c #8E759C",
"5X c #A56BC5",
"6X c #BE9788",
"7X c #9984A8",
"8X c #A883B9",
"9X c #B28CBF",
"0X c #C89F85",
"qX c #D3B08A",
"wX c #F9DB83",
"eX c #FFE783",
"rX c #B690C8",
"tX c #C49DD6",
"yX c #C6A7D3",
"uX c #CDB6D8",
"iX c #CEB5D8",
"pX c #D6BAE8",
"aX c #CFB1E3",
"sX c #D6C4DE",
"dX c #DAC6E8",
"fX c #DFD1EB",
"gX c #E4CEEE",
"hX c #E8D8F3",
"jX c #E5D5EF",
"kX c #EDE2F2",
"lX c #F5EDFB",
"zX c #F3E8F7",
"xX c #FEFDFF",
"cX c #FAF4FC",
"vX c #EEE4EF",
/* pixels */
"j Q ( Y j V ' V E E L.[ [ m ^ Y z x V V V / Z ] n C n n n D n B Z C f n Y Z n C Y / Z C f N D ] C Z n V U ` p V n B U U U ` T T ",
"E V E W Z Z j V A E [ } E Z S.[ Y Y Q m E m Z [ M N N / D M d Z V ^ Z N Z R ` n ~ Z U D p r ] T j p f V n ` n p a U p p T ` { n ",
"E Z Q ..( ' A ..X.A G N n A ] [ h V G.' ( / Z N D Z m C Z / Z C C ^ B p N T R m C Y Z F C r V n V p B T U ' / i 7 k a I U I I a ",
"E V A ' / ' ..X.Z m Y / N N Z q ' K.( S m Z G.D n Z D D m D ^ ` N ~ ~ Z ] ] n B d / C M m f f f R f C Z B Y ` p w a p T T I f f ",
"Q Z m E E ( ..' / .. .m b N Z n ( X.P.X.G / Z ] D M D ^ D ~ ] [ ) Z C Z T V n T d ^ F Z r w f ` ~ Z U ` R E ( E E B 0 p s s p T ",
"G E / / S S G Z N H ..N m Z h S ( S j L.I.[ M N Z d N ~ ~ Z ~ / F Z n Z B f T V ] ) ~ D r p n B f ^ N Z Z ^ S ( / Y Y T V w r p ",
"A ( [ G N N A G m S h m S h Z S A S _ m Z D.G D.D Z ) ) ^ ~ ] / n D Z Y V R } f Z b M G / ` ' R Z A.] D / G.M N Y / ] B V f f w ",
"Z H _ r b M S [ ( G h S S m ..S N n S [ / b G [ D C C f Z ~ R B D D C f p Y [ R N M ) ) D n B R G ) ) N G _ t b N Z S.] ` ~ T f ",
"Z / / t n N M ^ P.b ^ M h ..../ d d ] G t t ) G D ~ ^ D C C ~ ~ _ / D f V ~ T ~ D n N N G n B Y _ N ) G / G t M M N _ F.A m B Y ",
"D.} Y n V Y B } Z N [ j V ` U } d f d M t F._ r ` ~ ~ V D d f C ) r ^ ~ Z p } Z i ] ' E K U U.o.Z ] D } } n Z U F b _ n / ] V U ",
"[ Y Y ` ' T ` ` ' j N n T X.` p f D D F _ H.S./ r C V ~ Z t C D G G L.n [ q / Z V Y V V E ` U V Z / ~ T E ` ` ` N ..F.b r E V Q ",
"r n Y U [ } J.B h m Y B U T U U ) D D M G G F M Z R f f R C ~ ) m n Z / m B Z T Y } k E | Q E i H ) ^ / i X./ ' L._ N b ( Y l Q ",
"N [ B n p X.J.U n n Z B r B { U C [ ) C G Z r ^ C Y ` B C } Z ^ M t D.B ^ B Z j / ' m Y V j E E D.D [ ` Y ` | G._ / t n m Y k U ",
"[ m t - n p U.A.[ Y m n p Y { K C ) K.A.N F ) ] Z m B w p { ~ ] n G.K.[ } [ Y Z Z p [ } ` Y j Y ) D Z } B Z ~ ] _ / N / V E Q | ",
"[ Z 7 p p i r B Y [ Z B B R T ` ~ [ H.Z D M D Z Z B f V ~ ` T p d ~ Z / ` m [ / m r / B p B ' ' G C ) Z B q Y m G./ E Z E l Y K ",
"Z m d ] B B p n Z Z ` Q a U { { [ C Z M D F G n / T R ~ B r T I [ Z Z Z ^ n [ / n ` E ~ n m K.` d C Z ) n Z / Z ` K.[ T V ] U B ",
"[ n n / p V / ' m } } ` V T I { B p r Z ) G b Z n p I f a y + @ o X + y V V m A Z ~ m [ ` V N n t M F ~ n Z Z N ` ` T B L.E B T ",
"N M ( / Z E p w B / A.Y n s a Y B j t Z D n [ H.R B y y y u J L 3 1 3 - - y s m f ~ [ H.A.~ r B n D ~ V n G./ E j p { X.J.Q j i ",
"e N / Q p U B ~ n E } ` T Y Y K Q p ~ m M F F f f y @ ; @ c [.OX^.E.n.1 O O # - w Y } ` ] } ] ~ Z M M t Z / ` U E ' ` ` | X.E U ",
"n G ] Y B n Z Y p 7 r Y p s U a Q ` ` R N d R & o < ).$X}.'.~.W.Q.Q.E.b.h.v.g.$ + ; ` Y Z Z ^ f M / M C ^ m _ Z T ` Q R ` Q j e ",
"Y ] B Y n Y V ` Z B Z q 9 9 w 8 a V r q / r & O._.}.#XXX`.V.s.s.N.N.N.N.x.E.Q.f.v v & s f p Y V r [ ~ / G M / E p Q } I E U n j ",
"[ ^ Z U ` B n i t j m 7 T I w T K p w T d & P +X@XOX`.z.6 *.;.8.=X1X<X&X3.l.x.b.T.h.3 - a R R B B } ` [ / Z Y ' { T I I Q V m G.",
"r Y / } U E B ` Y t N Z L.` k { Y Y { I : P +X+X^.z.1.+.$.*.8.%X5XhXaX-X8.e.p.z.n.b.b.2 * a B T B B n N _ Z r Y U o.o.T h E ..K.",
"[ Y B i B ' ` Y m p B B U T R w U Q Y & O.+X+X^.l.:.+.+.=.6.i.rXpXrX-X&X%Xq.8.u.z.T.b.h.4 & I ` R ~ Y ~ G.[ Z Z Y I k w l S S S ",
"B Z Q n w / T Y n [ n m Y V p i s Q { o _.eX^.l.:.-.t.=X&X*X9XvXpX<Xq.9.y.y.6.4.p.z.n.E.v   T I n } ~ C ^ ] E Z { s l i ' e A ..",
"m / ^ B U t p / Y Y L.~ } f V f s 8 - 5 ).OXz.:.*.*.%X-X%X-XkXlXtX<Xq.5.q.q.0.8.8.u.z.j.f.= g U T / d ~ Z ^ Y m A W x ! !  .! W ",
"j Z Y m n r n 7 i r ` ~ ` Z T [ I y ; }.#X`.1.+.;.%X&X*X%X1XkXlXaX5X&X&X&X*X*Xy.6.5.u.l.b.g.+ g j j f C f D C m W  .x x x o.! | ",
"~ N Y [ m r Z e f r r i n B Z ` s y @ $XXXx.*.+.&.-XuXaXuXsXkXzXgXpXaXuXuXdXuX:X5.4.e.l.b.g.X s U p V C ~ ] T V E  .A x x | ! U ",
"/ B Z } N i ] Y [ [ d w p r / p w g + (.M.2.<.&.-XuXcXcXcXlXzXzXlXcXcXxXxXlX9X&X<.4.7.2.l.f.  K ` m Y Z V ] R p j x e ! ! x ! ! ",
"n / Z Z M / [ t Z ] n p 7 0 t 0 g u 4 b.d.*.>.w.1XpXdXjXhXgXpXpXpXdXpXyXyX8X7.<.<.<.<.8.N.f.= : u V B E C ~ / Z X. .z l l k U T ",
"^ C M _ [ M M M ~ / ~ ) d D p Z + J ].~.d.*.;.w.&X=X5XgXcXpX5X5X5X5X5X=Xr.t.<.<.4.<.;.8.N.h.g.= + ' V ' U [ X.' W Q l m l l Q Q ",
"F / S.M M M Z / D Z n n f n n N + J OX~.d.&.4.r.9.6.=XpXxXyX*X%X*X*X%Xy.4.%.<.<.=.$.&.%XB.n.h.$   X.~ ~ ^ [ Y m m E / Z B m n i ",
"F M S.M b n ~ D.D [ ^ m E q ..S + J [.~.k.5.5.r.%X9.i.uXxXrX%X6.0.e.e.0.t.<.<.<.#.$.<.q.B.E.g.=   E / Z / D.N j / ( L.[ ^ ^ Y B ",
"G / G h t M C _ H.[ Z Z m ..G.( X P OX~.N.8.,.7.w.9.&XuXxXyXy.9.%X%X7.<.>.>.<.<.@.$.*.q.B.E.h.=   [ [ m _ S q Z Z r D.G.D Z Z b ",
"m [ / t M D M / G.Z / h e ....N % J ].~.B.8.>.,.r.9.&XuXxXyX&X9.e.0.,.<.7.y.t.#.$.$.>.8.B.E.g.$ o M G _ _ S r Z M ^ G.] b [ q N ",
"D./ Z N / N / ] [ d ( S m W ( A - : c m.C.8.>.<.6.0.&XuXxXyX&X0.7.,.>.4.1X8X7.+.-.$.4.8.C.h.3 u i ) F ..N G S G N / [ Z b S t _ ",
"n N ( ( ] A G./ m Z [ / A S  .z / i . h.M.2.7.,.7.0.&XpXxXtXw.6.5.>.>.:XgXdXa.+.$.%.7.>X`.h.. k N ] F S b _ ..' H.] D f _ Z Z S ",
"n L.' ( V r d r B Z m ..( z z A T u # h.n.l.w.4.t.9.&XyXcXiX:X=X:X:X:XdXvX7X1.> #.4.e.qX Xv.X 8 n D / Z m [ ` ' A.A.d f Z Y j j ",
"' ..A ( E n n Y n Z E Q ( W z l j u # g.n.l.u.5.<.5.y.<XaXvXfXfXgXdXfXhX7X$., -.#.4.i.qXXXg.O u ^ C ] [ ( l j ' ] f w R j E z V ",
" .' W _ ] / / Z Y m A ' o.W A W l k K = Y.`.k.7.5.<.5.r.<XpXcXcXlXcXvX7X=.> -.$.&.i.0XwX(.= 8 m ~ C ~ ] m j l E } s 9 f a K l j ",
"S G G ' ..h z K./ ' A E  .W P.o.{ X.!   c.oX!.k.7.5.%.%.7.-X3X8X2X7X4X=.> #.#.;.i.0XeXXXc.  h Z C ~ Y / e k ] s a T f I a s T { ",
" .( S A e ( K./ N W E A ( E P.I.| V l & 2 !..X!.k.p.5.5.4.*.%.<.#.#., $.%.&.4.i.6X#X.Xm.4 + T U b b G / m m Y r f T ~ f H.` ` N ",
"G N G S b / P.L. .( ' Q  .W E ( W W W l * 2 R.oX!.l.y.w.7.&.&.&.>.#.%.%.7.e.i.0XeX.XR.1 * E V E ) H N D n ` f f f r r T G.` ~ B ",
"h h  .S A W S n L.X.L.' n E E A W A A W z * 2 !.oX`.l.l.2.8.8.8.6.8.8.8.>XqXqXwXXXR.1 : k h k V D C n r ^ ` Z V f w 0 0 G.[ ] ~ ",
"h S G.S m A S S A [ E ..Y m m } W  . .W W l : 2 c.Y.n.T.M.C.B.Z.,XZ.Z.,X|. XXX(.c.2 * l R E ` Y N M D d H.V R f a d r i a ~ ` Z ",
"E ( Z A Z n m ) Z n m Y e V ` p X. .U m ] h m ; o = g.h.h.v.T.{.[.[..X|.!.h.g.= + * ' U j [ r n N G N / ^ f V f B U B R V V r a ",
"E ..m S A S S m m E A 7 E ' j m A S A j m h W ' V u # # O 3 g.m.j.m.j.3 + O X y k B ' r i Z Z M _ S.D [ ~ B R ` V ~ Z w ~ B f ` ",
"h W / j h m E W m e Z E K.' j } m j E P.J.E / [ ( h y u y & $ $ $ $ $ & 8 K K E ` ' B Z C ~ Z C ) Z Z C V w r B f R ` R 7 C ` A.",
"' ( ( m S / E / ' h m X.Y / / n V A m A [ / n S j [ j ` V u o X X     u U t Q m Z n ~ ` ^ ] M Z D d R Z ] U w n B B ] B B ~ ~ R ",
"S A [ ( n ( A S j Z n m ( Z Z m V m B V n Z b Z ^ D e / ' V E E V n j A h / T T B p Z d Z n F Z Z ] ~ B / Z d a r p w w T r B Z ",
"z Q ( A A S Z ' ( W [ ^ [ B ^ Z j p p Z S Y Z [ G Z / N E U B ` Y A E ( U  .` E ` n 7 M ~ D F D ] ` Y C Y Z p i R Z f I A.V T / ",
"r E [ Z j j E m n m [ ^ H./ / ` n A ( m N m / / m q / / Y m j B m M E / ` ] E ` } i ` U N C Z N ^ d p Z R ~ C C B R n B R a n V ",
"] j Y } Q n N E ( / X...N Z } [ A E E A S n Z [ r Y B m R Y n V m m ~ ` ` T R [ } m R m m / b N [ r f V B ~ n a n T B ` ` } R r ",
"V Y ~ / ` [ / } m E Z m m E E / V ( ( / ^ S / G d Z d [ ` m d i M D ) Z ^ B C ^ Y p r } E Z [ Z Y f V Z B [ ` f p ~ T ] B T Y B ",
"E B Y / Y [ / J.( A ( m m Z m 7 ( I.L.S h / [ / C ^ B n ] m p ' d D ) M Z B B B w n ` Y Z t Z G / B n T f Z B r ] T a B a f R R ",
"' Z ~ Y Z L.X.Z S [ G.S A m S ' A ....J.D./ Z G m R S.~ ` } } Y M Z H D D R V B E ` G.Z q S / ( ~ / f ' R / ` ~ V B p B p 0 i p ",
"Z / ` / ` B V Z Z / G N z A b S ` S j [ J.[ / n [ C Z G.[ Y V Y F N F D ~ Z n R k m [ n E Z / Z B H.U n r Z / n f p p B U w I a ",
"G S D.M n M ~ ) S N t S G h G S B Z / Y E ] / } ` ` m E ^ m e E S.F F D d R p n F b n N D E E Q } [ ` Z B T p j M D M M m C C i ",
"F S S n t M f ) _ H N N b / X.G R r ] } Y e N L.[ / N ' n 0 E m F F.F.D ^ B n S.) b M M G X.n k ] ` [ Z C / p m M N _ D.[ ` B p ",
"S _ [ 7 Z Z ` ~ G.Z Z M z X...W t n ^ d q q L.d / / ../ n h E N F H.F N R 0 A.} / h q / / q q ` / B ^ [ / T t Z M Z D...e ~ i T ",
"M N Z m ` R B ~ ^ t m n b / j j F t D D n F ~ Z N m ^ N B m n N H b G.n ~ f ` T e D.Z / Z U { ` M ( m L.} B / Y Z Z ( n m ` n I ",
"Z M / / T C C V B R ] B m E k k t D N C M ] M d Z n p Z N r ~ E Z / ~ ] { p ` U Y Y n B Y ` Y U / / / Z B [ ` ^ G G./ Z m ` n ` ",
"~ ~ G.R R C ~ f V ~ ~ r B V B B N D D D D G.q H C D Z M Y ~ ~ ] N d Y / p I R Y E ` Z T ' E V p [ Z } B n G.E [ L.[ n q ` V I I ",
"C C Z A.C C f w ` ~ U Z ~ Y U T D D d F ~ ~ Z ^ r ^ Y r B G.B ` Z 0 U.U ` Y Y p { } V B n w ` ] _ [ Z G.` Z [ [ Z S r N Z B n U "
};
