/* XPM */
static char *_2de402766b34090919766fd6922ec68E5LgpT53h0nletk0[] = {
/* columns rows colors chars-per-pixel */
"64 65 243 2 ",
"   c #010101",
".  c #0B0302",
"X  c #0C0A04",
"o  c #01050C",
"O  c #080A0A",
"+  c #130301",
"@  c #1B0302",
"#  c #130B05",
"$  c #1B0E0A",
"%  c #190D07",
"&  c #0D1304",
"*  c #0C100C",
"=  c #131406",
"-  c #1B1104",
";  c #1C120A",
":  c #141A09",
">  c #020B15",
",  c #181817",
"<  c #080F18",
"1  c #2B0203",
"2  c #260903",
"3  c #370503",
"4  c #2C1104",
"5  c #22130B",
"6  c #2A170B",
"7  c #361808",
"8  c #291913",
"9  c #381F12",
"0  c #1A230B",
"q  c #1D2A0C",
"w  c #1A2805",
"e  c #132A0B",
"r  c #262809",
"t  c #392806",
"y  c #23330D",
"u  c #27390A",
"i  c #3B3306",
"p  c #252A15",
"a  c #3A2518",
"s  c #2C3D13",
"d  c #273411",
"f  c #343914",
"g  c #021326",
"h  c #0F1B2D",
"j  c #292727",
"k  c #2E302E",
"l  c #393123",
"z  c #363739",
"x  c #2F2C33",
"c  c #440202",
"v  c #4E0905",
"b  c #5B0705",
"n  c #481807",
"m  c #4D1E0E",
"M  c #680603",
"N  c #7B0A05",
"B  c #681B0A",
"V  c #44270B",
"C  c #592908",
"Z  c #583505",
"A  c #4A2A1B",
"S  c #452616",
"D  c #542E1C",
"F  c #5B331E",
"G  c #54341B",
"H  c #4C361F",
"J  c #6A2807",
"K  c #67341A",
"L  c #752E0E",
"P  c #5A3923",
"I  c #493824",
"U  c #683C24",
"Y  c #763C22",
"T  c #2E4D03",
"R  c #2B440A",
"E  c #324C0D",
"W  c #334C06",
"Q  c #345404",
"!  c #365804",
"~  c #3A5A06",
"^  c #35540B",
"/  c #3B560B",
"(  c #3C5B0C",
")  c #385809",
"_  c #2E4214",
"`  c #334415",
"'  c #374918",
"]  c #365212",
"[  c #3B5513",
"{  c #3D5C13",
"}  c #3D551C",
"|  c #3D5D19",
" . c #355019",
".. c #3E610D",
"X. c #3E6215",
"o. c #1F5D14",
"O. c #564604",
"+. c #415E0E",
"@. c #425E13",
"#. c #435F1C",
"$. c #485C19",
"%. c #4D4804",
"&. c #685206",
"*. c #42630E",
"=. c #41680F",
"-. c #446314",
";. c #496516",
":. c #466915",
">. c #4A6B16",
",. c #45641A",
"<. c #4A661B",
"1. c #46691A",
"2. c #4B6B1C",
"3. c #51641E",
"4. c #516D1E",
"5. c #4E711D",
"6. c #4E7114",
"7. c #51721E",
"8. c #547819",
"9. c #676302",
"0. c #786403",
"q. c #797301",
"w. c #455B26",
"e. c #41403D",
"r. c #56422A",
"t. c #78472A",
"y. c #7B5A3A",
"u. c #674B31",
"i. c #456321",
"p. c #4A6622",
"a. c #4D6C22",
"s. c #4E6C2A",
"d. c #4B6329",
"f. c #526D23",
"g. c #5A6D26",
"h. c #536D2A",
"j. c #576828",
"k. c #4F7021",
"l. c #4F7029",
"z. c #557525",
"x. c #537224",
"c. c #597426",
"v. c #567924",
"b. c #597A25",
"n. c #55742A",
"m. c #5A752A",
"M. c #577929",
"N. c #5B7A2C",
"B. c #5B6E31",
"V. c #5D7C32",
"C. c #587431",
"Z. c #607C2E",
"A. c #60742C",
"S. c #627D32",
"D. c #637736",
"F. c #606F2A",
"G. c #062748",
"H. c #01396C",
"J. c #595958",
"K. c #4A4A4B",
"L. c #60605E",
"P. c #696868",
"I. c #757677",
"U. c #9A0704",
"Y. c #861B09",
"T. c #880E05",
"R. c #AE1106",
"E. c #972B0B",
"W. c #90320C",
"Q. c #AA2E0B",
"!. c #943B24",
"~. c #C93411",
"^. c #95480F",
"/. c #A65908",
"(. c #B65806",
"). c #BC5311",
"_. c #9A6907",
"`. c #B86807",
"'. c #AF7306",
"]. c #84482C",
"[. c #874F34",
"{. c #915532",
"}. c #85653F",
"|. c #A5623D",
" X c #B2673F",
".X c #B85E3B",
"XX c #CC700C",
"oX c #D94912",
"OX c #997148",
"+X c #916645",
"@X c #A77E56",
"#X c #AF7448",
"$X c #E25C41",
"%X c #D86E4A",
"&X c #E87652",
"*X c #0DAB18",
"=X c #5E8132",
"-X c #5C802A",
";X c #61822D",
":X c #65882A",
">X c #638334",
",X c #678936",
"<X c #64833A",
"1X c #6A863A",
"2X c #6C8A3D",
"3X c #698736",
"4X c #72833C",
"5X c #759243",
"6X c #708B44",
"7X c #A59A02",
"8X c #D29009",
"9X c #C8A601",
"0X c #DCBF03",
"qX c #E9B504",
"wX c #EEAE04",
"eX c #E38509",
"rX c #F6D504",
"tX c #FFF305",
"yX c #B38356",
"uX c #BF8E65",
"iX c #F3905E",
"pX c #CA9462",
"aX c #ECAF74",
"sX c #E58F62",
"dX c #FCC07A",
"fX c #7C7F82",
"gX c #9A9B9A",
"hX c #8C8B8D",
"jX c #9CA0A1",
"kX c #A5A5A6",
"lX c #B4B0B1",
"zX c #C0B7B2",
"xX c #C2C1BF",
"cX c #C3BFC0",
"vX c #C4C4C3",
"bX c #CBCACB",
"nX c #DDDDDC",
"mX c #D5D5D5",
"MX c #D2CFCD",
"NX c #EBEAE9",
"BX c #FDFDFD",
"VX c #F5F5F5",
"CX c #EBECF0",
/* pixels */
"@.h.c.a.@.<.c.<.f.f.3XM.N.,.z.a.@.3.<.;.2.h.a.z.-.,.-.-.:.2.-.:.a.,.-.-.a.1.-.1.a.l.2.1.-.2.k.M.1.2.-.1.2.n.{ 2.,.,.<.p.a.l.n.a.",
"f.<.f.g.<.f.@.<.3.f.N.;Xx.2.Z.N.a.f.h.;.4.;.>.N.>.>.>.z.5.:...2.2.x.1.>.2.a.n.-.k.2.2.2.X.^ N.a.{ { { 2.,.n.,.] { p.[ | s.n.C.X.",
"f.3.h.Z.x.m.f.A.S.4.4.<.*.4.c.M.( 3.S.m.c.x.>.>.2.2.-.2.2.z.2.1.,.x.1.{ 1.s.a.,.1.2.2.5.1.( 1.,.2.{ ,.a.p.n.h.{ T #.| ,.i.i.i.| ",
"f.<.3.m.x.m.Z.>X<.<.2.z.<.2.<.! m.4Xm.4.:.a.>Xk.:.2.5.5.-.k.v.z.>.x.a.2.N.M.X.,.-.x.:.:.:.-.{ | a.X.,.a.<.a.x.{ ^ | { s.s.i.| i.",
"x.2.;.f.f.x.Z.m.g.Z.Z.;.*.<.2.-.c.S.2XS.7.z.2.x.2.:.5.x.5.k.M.M.v.5.1.p.s.,.-.a...z.2.:.( ) ,.n.a.p.p.x.a.a.m.f.l.,.E | [ E | s.",
"x.f.x.z.7.4.7.3.>.8.Z.;.;.2.*.7.m.4.@.3X5XN.:.:.2.X.1.k.k.2.x.l.5.2.-.1.,.X.s.1.z.z.7.7.( { X.,.:.k.2.2.2.x.2.z.k.2.a.a.1.( { { ",
"2.c.b.4.<.>.4.7.;.4.+.;.>.+.4.4.3.4.b.;.>.>Xz.:X5.5.k.v.v.k.n.x.=.>.1.l.,.p.V.-.5.=.:.5.k.M.n.p.1.=Xz.5.x.>X>.>.2.x.N.,.1.X.X.^ ",
"2.7.b.+.*.;.4.b.c.7.+.4.4.;.Z.4.>.-.3.N.7.-.7.b.5.:.1.:.k.k.a.X.5.5.1.X.{ a.N.a.>.:.v.b.2.-.,.p.v.v.v.>.7.b.~ ..:.7.-XN.k.n.a.{ ",
"2.z.7.) -.;.:.z.3X;.c.>.+.S.S.f...=.v.7.) ! v.x.5.5.v.2.5.X.a.v.M.x.2.:.,.s.a.x.5.-.>.>.2.-.,.s.b.2.v.7.x.7.) >.-.>.b.;X4.;.,.a.",
">XN.f.,.<.a.,.V.;.>.M.@.;.n.a.V...X...:.~ >Xb.( M.k.l.1.1.X...1.b.( z.2.2.@.N.a.( m.m.f.p.p.6XV.2.v.5.V.V.,.>.2.6.:.b.*.4.N.<.p.",
"M.a.a.n.m.s.n.n.N.( 2.-.x.V.n.| X.5.5.>.b.,XN.x.+.,.1.l.5.) X.8.x.4.3X:.N.Q n.1.,.a.<.,.f.h.d.#.1.x.l.a.f.h.n.n.:.Z.;X:.( f.<.j.",
"( -.a.p.V.N.1X1.+.;.a.,.p.a.d.d.M.5.5.:.8.7.6.:.2.s.X.X.1.i.k.M.-.-.2.x.1.<.<.f.a.V.$.f.C.g.f.@.v.b.x.x.{ S.n.n.3Xb.>.*.c.f.#.h.",
">.N.,.,.{ S.1Xp.-.-.2.1.( ,.C.s.1.-XM.:.8.>...z.:.f.n.,.,.=X1.v.>.) >Xp.z.:.2.X.x.N.;.f.<.@.f.f.-X5.N.x.a.n.N.S.N.7.) -.;.f.$.p.",
"N.;.) u ,.@.1X<XN.a.,.-.{ p.C.| 1.v.2X=X:.2.v.M.>.,.,.^ { N.5.n.-.n.w.$ p n.a.a.2.{ N.N.n.p.-.2.b.5.2.=X,.2.a.m.b.x.;.x.<.f.h.h.",
"N.>.T { { ^ ( ,.a.M.2.,.,.p.s.h.x.N.,X2.5.:.5.2.>.1.{ p.s.x.p.' E 7 8 W.E.a w.p.;.{ x.,.{ ,.N.m.5.:.x.2.,.^ a.>.>Xx.f.2.f.,.s.,.",
"2.-.-.v.,.,.{ ,.2.2.n.w.R d.C.C.N.-.2.:.5.5.x.-.a.l.1.l.<.{ } n D #X].* n B   ` @.n.f.k.:.,.2Xh...2.5.v.@.2.x.2.n.2XV.a.<.m.d.#.",
"N.-.:.h.{ ,.x.m.2.V.w.%.O.s i.C.p.( ( 5.7.7.=.2.-.{ ,.,.X.,.: !.%XS A . X :   _ 2.l.,.V.z.1.2.-.~ :.2.k.-.2.2.;.n.n.s.,.<Xh.,.d.",
"<.;.b.n.p.x.{ ^ ,.x.: 9XtX9.y s.,.X.) a.7.-.N.<X2.,.p.1.,.w.P t.A .   y W { s [ -.5.N.,X=Xl.( 1.-.5.5.2.-.>Xx.f.-.@.n.<X2Xf.@.@.",
"( >.c.f.{ <.1.f.-.a.p 7XqXrX_.q h.{ a.,.>.2.5.:.1.2.X.2.n.p yXOX#   E X.;.s.2.-.X.x.M.M.z.N.M.5.2.1.:.) 2.x.v.p.s.n.n.h.C.D.f.<.",
"-.7.N.2.,.,.1.a.( e 9.9X`.8X%.y s.n.n.k.>...8.=.1.M.a.l.' u.%XY & & z.0 0 0 w 0 ,.v.N.a.a.2.n.X.:.x.:.-.z.>.n.<.a.n.n.p.n.x.@.[ ",
"2.M.,.a.-.a.,.m._ 9.qX`.`.t R E w.,.( ^ x...:.z.x.>Xk.n.q @XiXn X . &     9 F + X a.1.{ X.( a.2.( N.k.x.x.:.x.f.{ n.V.i.f.p.-.@.",
"N.z.2.a.n.,.-.u 9.qX`.`.i  .^ d.` w ^ 5.>.Q ,Xb.-XN.>.v.y [.sX9 # A 8 = % $ 5 8 a = ,.s.l.1.i.X.,.V.v.N.x.2.f.N.C.s.i.p.g.,.;.>X",
"+.a.h.N.p.s._ 9.qX`.8X0.w.h.,.w.9.7X= ` x.5.:.:Xv.8.2.4.p P sXD ; Y a 5 $ 9 # ; S ; X ,.1.,.,.l.,.,.X.1.v.4.( a.,.6XD.p.@.f.N.5X",
"N.a.<.^ ,.} 9.qX/._.8X`.2 } <.R V tX0._ 5.8.*.=.>.b.x.=.r K aX|.S S a 7 # 6 $ X a 6 . O }  .} s.a.k.a.k.>XM.<.2.i.} #.] ,.3.4.>.",
":.<.n.@.^ r rX8XV : &.8X(.2 R u q.rX&.f 2.5.6.b.v.6...=.s b &X$XY $ $ . o   % A A F . .     S f | V.x.:.x.v.x.p.s.s ` ] M.+.3.Z.",
",.n.x.<.a.Q r 9.] 4.' C XX(.t Z wX`.t } =Xa.2.-X=...=.@.0   b .XV   $ . . X D ].# t.% . D P ].H q ' -.a.a.n.2.2.s t 7 ' j.D.p.j.",
"( a.s.:.-.( ^ w ( { n.` n /.XX(.W.r ' W 1.-.>.b.*.6.>.u - # o $ J.B $ 6   6  XY 6 t.; P U P     Z 7 q @.X.5.1.$.r J V ` $.D.B.F.",
"k.2.5.n.-.( a.( X.( ^ ( # L XX8X7Xr d.a.,.2.7.5.=.4.;.u D 9     iX~.o o   P K 6 K 5   D   + 8 ].XXXXr X.k.M.a.: . B 4 ' 3.F.j.w.",
"x.:.<.>X-.( v.5.N.N.-.u Z (.`.Z XXXXt w q i.2.x.z.5.5.u 6 X 8 . 1 1 a U U % A |.a   t.  5 H L ).5 t ; : r q :   1 Y.n ' j.j.j.3.",
"-.a.5.2.;.x.N.) 1.x.-.O 8X8Xr w C eX`._.t } >Xk.N.N.2.u X . 9 t.u.6 V D U U [.U .   a # 6 G ).3     + .   . 1 c b T.4 ' $.$.d.j.",
"v.>.>.v.N.>.-.:.x.k.k.,.w r X 2.f &.XXwXq.,.>.2.M.n.( `   t.U {.].pXuX|.P ; %         # a J Q.  . c b 3   . 3 b M T.1 ` <.$.j.j.",
"5.z.N.1.:.:.x.2.5.2.-.1.( ^ { ;.[ %.rX9XZ ] s.N.x.2.) a.r OX+XY |.A ; 8 I uX@Xa * . S # 6 K ^.  . N 3 b b 1 . 3 c W.V ' <.,.,.( ",
"5.:.;X:.-.*.5.=X7.=Xz.;.x.Q Z.4.W = : = J 4 ` <Xa.,.a.1.u * t.t.#   j gXnXlXNXMXlXx p j . S J     b 1 N U.N @   @ @ } A.m.n.a.,.",
"7.z.7.( ! 1.>.N.3XM.2.>.;.Z.S.c.-.~ b.M.y # # w.{ ^ ,.v.<.0     o J.vXbXhXP.gXcXhXjXcXjX8 + n 4   1 @ M U.R.J c .   } 3X4.>.2.*.",
"-.b.x./ -.5.:.x.>X2.x.*.+.A.Z.>.~ ;.>.1.Q q % X R R ,.n.y   . + , jX    x nXMXbXvXhXI.* I.x 4 4     . 1 R.oX/.E.V - w.z.*.-X! >.",
";Xv.2.>.x.>.z.M.N.( z.3.;.g.F.3.+.-.:.:.x.=X` .   e.p.2.0   c v .   + > . P.BXmXvXcXI.  * J.. @       @ oXB     1 n y -.*.3.( c.",
"*.>.c.b.x.4.>X7.-.a.m.x.>.4.A.;.7.x.:.c.7.=X5.* kXgX& V E.E.N c 1 @ # 1 . k bXBXmXbXvXfX    2 m c     2 ~.  u.OX7 . . [ v.5.2.4.",
"$.3Xm.c.2.( ( { 1.2.;.S.F.+.$.3.x.x.V.-.2.:.:._ I.,   4 Q.Y.3 @ + + @ c @   K.mXvXvXNXVXI.    . W.M     n - yXdXOX    : p.a.-.@.",
"m.A.;.g.f.-.-.a.-.2.f.h.g.g.+.$.-.f.M.x.2.2.2.b._   5 ;   a , . +   . . 0 y O I.nXnXvXVXBXI., < X W.N .   8 OXy.@XS #   X.3.$.<.",
"A.b.g.Z.m.x.x.2.a.;.3.m.D.F.3.g.,.a.N.f.M.-.6.7.:.` + u.l }.r.  M + &  .i.` n a k MXCXbXBXBXJ., z * E.N   l @Xa y.u.I   X.w.$.+.",
"4.c.c.v.Z.+.@.2Xc.m.2.x.A.g.4XD.C.V.N.2.4.<.5.:.7.| I aXpXy.:   Q.3 : n.i.| p J + fXCXnXbXVXP.  ,   # W.N * , . . OXy.  | { h.h.",
"c.c.4.2./ c.2Xg.<.h.3.3.c.f.4X5XB.3.3.3.;.4.4.;.,.$.I aXdXpX5   @ # [ x.x.,.y L C O I.mXNXCXNXI.      = W.N       ; % . 1Xl.x.;.",
"c.>.7.4.+.c.2X3XN.g.A.f.A.g.f.c.g.F.g.3.3.<.4.m.>.f.R = +Xu.  j * . p.1Xx.a.,.q W.B   J.lXvXBXBXP.    > ; ^.Y.2   2 @ X >Xn.x.,.",
"+.+.A.3.4.x.4.$.1XS.1Xm.<.f.3.f.g.3.3.f.3.+.f.c.>.-.( x. .& e , L.j & s.N.,.x.x.r E.n     K.nXkXnXI.,   o % ^.W.N Y.4 u <XN.N.5.",
"+.4.>X4.;.3.3.4.4.Z.3.N.<.<.<.N.g.A.A.g.c.3.Z.+.x.( @.3X2.( ;.d L.bX  : N.f.,.x.x.d K V 7 I j   P.BXhX  o o o - ^.~.7 R { x.x.1.",
"f.m.;.3.;.;.<.c.<.-.>.f.^ <.g./ S.Z.3.;.c.+.;.4.2.2.x.4.X.-.{ a.  P.@ 4 #.@.W V.m.x.d J m       . P.bXe.  h g o       ` ,.p.{ X.",
"f.Z.;.4.4.4.4.;.<.f.2.W h.m.@.<.3.f.3.$.;.@.c.S.z.x.>X<.;.>.n.@.u p 3 R.2 ' V.2.2.a.N.w   < G.h >   P.MXe.G.H.< = d d E k.,.X.x.",
"+.g.c.@.( ;.3.c.;.! <.f.2XN.@.S.<.@.f.1X1Xf.x.Z.x.+.:.c.a.^ a.@.a.x.q N R.2 B.a.n.N.-.a.p o g g g     P.z > h 3 y a.n.1.T ,.M.>X",
"m.c.c.;.4.f.4.x.m.+.;.S.2.z.f.-.<.<.$.2.N.x.-.2.*.N.;.N.f.2.m.<.f.m.( y 3 0 e  .,.-.k.z.v.s n R.1 o o   `   U.Q.q ;.n.,.,.a.l.1.",
"f.4.N.g.;.c.4.4.@.;.;.,.m.2.2.:.<.<.;.3.-.<.*.2.x.4.) z.m.<.f.f.3.@.@.} > *Xo.` ,.X.2.X.2.E 4 v d w.} ] l.` 4 4 0 | ( ^ a.{ p.2.",
"$.f.c.3.3.f.2.m.c.g.N.z.N.,.n.2.@.( +.2.f.4.2.N.x.2.x.;.a.2.;.h.f.2.a.f.s e ` p.z.-.T ,.k.>.-.-.n.z.2.1.1.k.^ E ,.,.-.i.V.a.k.a.",
"( f.N.2.@.@.f.>.-.<.M.c.1Xx.x.z.;.3.h.;.<.>.x.x.-.Q n.x.a.<.-.,.-.;.x.x.x.x.x.n.V.{ x.2.2.2.>.:.z.{ ,.1.2.l.p.p.,.2.X.i.1.{ ,.1.",
"m.@.>.V.x.$.<.4.c.f.N.S.1.2.N.N.f.f.f.3.4.-.4.M.( 5.-.>.a.a.-.<.:.:.x.z.N.l.a.C.V.,.<.,.-.v.X.5.b.( { 1.-.a.,.{ X.l.i.l.n.N.p.( ",
"2.2.x.l.n.N.f.;X2.x.4.;.>.f.h.x.;.c.c.x.z.2.z.4.X.2.-.M.n.,.{ ( ;.2.b.2.k.,.1.x.f.{ { V.f.2.N.2.s.X.,.a.1.N.x.{ ( n.a.N.p.a.s.i.",
"f.-.s.x.a.N.x.<Xc.2.m.;.;.3.;.T c.5X3X3.*.x.N.x.1.x.1.X.n.,.-.n...5.b.,.2.,.,.,.Q ,.x.a.2.( <.n.x.,.-.l.,.2.,.{ V.l.{ X.| i.i.i.",
"m.a.k.a.a.<X>X2.3.N.3X3.;.;.4.b.3.Z.Z.1X>Xx.7.2.-.2.=Xk.x.V.V.p...>.v.>.2.a.1.p.s.n.S.2.Q 4.z.z.k.x.-.n.a.k.x.l.1.-.| X.X.T ( X.",
"2.x.n.x.x.,.2.2.2.f.7.<.*.3.*.4.n.2.@.N.1Xb.x.-.N.2.2.<Xm.a.<.2.8.>.>.5.k.1.,.1.@.;.N.-.f.2.f.2.1.<Xp.,.( a.x.-.{ { { ,.1.{ ,.| ",
"7.4.;X;.-.1.k.v.4.>.! 4.8.+.c.4.2.a.n.f.f.m.x.V.n.x.>.2.x.<.( f.-X6.6.5.:.1.{ X.>.:.-.>.7.f.f.f.V.N.n.2.,.a.{ -.:.5.>.>.,.,.,.( ",
"6.4.7.-.( :.:.k.b.8.>.:.*.7.S.4.1.^ N.N.a.) 2.3XN.x.>.m.;.W f.;.6.:X:X8.x.,.,.=Xv.*.:.:.7.>X-.-.M.z.N.2.1.x.( ,.:.-.b.N.M.n.,.| ",
"4.b.m.T 1.2.n.l.>X2.4.>.@.S.Z.g.) :.k.X.Q Q <X..f.x.Z.z.-.( a.>.6.,X6.>.p.T V.V.x.@.Q x.f.Q ^ h.a.;.n.N.x.a./ 2.>.a.;X>X( a.] s.",
">.>.2.:.M.a.X.k.l.! :.-.;.h.+.@.1.) 5.5.-.5.5.2.>.:.z.>.:.-.-.>.b...,XX.k.X.l.l.) ;X2.f.<.p.n.n.>.m.:.<XV.,.x.a.a.>.b.-.:.n.,.<.",
"<.>.x.s.l.1.1.i.1.a.N.,.;.f.$.,.! 8.>.>.:.v.:...a.-.{ 2.1.( f.x.:.k.k.N.C.{ n.a.2.s.-.;.s.n.a.p.x.x.x.2.,.m.n.z.4.>Xz.<.;.n.,.h.",
"k.k.<X2.a.X.k.{ 1.l.l.( 1.p.,.,.6.5.5.5.5.;X! x.1.2.>.,.a.x.k.M.>.=.k.k.{ i.p.a.s.x.2.a.M.f.p.{ -X2.V.,.-.<Xx.N.3XN.-.Q n.<.,.i.",
"1.1.1.=X1.1.X.^ x.k.1.p.a.a.p.p.5.5...>.x.k.2.v.( x.x.( ,.>X,.n.2.T 6Xp.n.a.p.X.m.V.<.,.,.^ n.m.b.Z.<.>Xx.a.N.M.4.2./ >.2.,.,.p.",
"5.X.X.1.X.X.k.k.k.l.-X=Xi.i.1.l.X.X.v.5.5.v.,Xv.a.1...X.X.n.l.a.X.=X<XN.=Xn.s.p.2.{ n.n.n.,.,.f.x.7.2.N.,.-.p.x.M.z.;.x.;.a.,.{ "
};
