/* XPM */
static char *_0c4dd4616e04d87f1faf47eb892a448FLqyyvm3nZBKQBBx[] = {
/* columns rows colors chars-per-pixel */
"64 64 244 2 ",
"   c #020101",
".  c #0B0402",
"X  c #0C0B05",
"o  c #01040A",
"O  c #0B0B0B",
"+  c #040908",
"@  c #120301",
"#  c #1B0201",
"$  c #130A04",
"%  c #140C09",
"&  c #1C0C07",
"*  c #0D1307",
"=  c #141C05",
"-  c #161508",
";  c #040A15",
":  c #091213",
">  c #191818",
",  c #230302",
"<  c #270803",
"1  c #380602",
"2  c #23120C",
"3  c #29180B",
"4  c #311C0D",
"5  c #361708",
"6  c #2A1A12",
"7  c #341D12",
"8  c #1A250C",
"9  c #192708",
"0  c #102D0E",
"q  c #24280B",
"w  c #24330D",
"e  c #283708",
"r  c #363405",
"t  c #292614",
"y  c #3D2215",
"u  c #382717",
"i  c #2A3B12",
"p  c #283513",
"a  c #343B15",
"s  c #372806",
"d  c #03172B",
"f  c #031B37",
"g  c #08233E",
"h  c #28282A",
"j  c #343331",
"k  c #4B0402",
"l  c #440805",
"z  c #560302",
"x  c #4A1905",
"c  c #571A06",
"v  c #680402",
"b  c #790504",
"n  c #711A0B",
"m  c #47240A",
"M  c #572506",
"N  c #453504",
"B  c #4B2A1A",
"V  c #462717",
"C  c #592D1A",
"Z  c #47311D",
"A  c #58321C",
"S  c #573208",
"D  c #682A0A",
"F  c #7B250A",
"G  c #653215",
"H  c #543D27",
"J  c #42352C",
"K  c #6A3C24",
"L  c #723F26",
"P  c #2D4C02",
"I  c #2C4309",
"U  c #294507",
"Y  c #324C0B",
"T  c #314C06",
"R  c #345404",
"E  c #3A5A06",
"W  c #35540B",
"Q  c #3A560B",
"!  c #37590B",
"~  c #3C5B0C",
"^  c #375704",
"/  c #2E4314",
"(  c #324415",
")  c #344C13",
"_  c #384918",
"`  c #365211",
"'  c #3B5415",
"]  c #3D5C13",
"[  c #3D541C",
"{  c #3E5B1A",
"}  c #2F5105",
"|  c #3E610C",
" . c #3F6112",
".. c #3E6218",
"X. c #3D5223",
"o. c #464902",
"O. c #415E0E",
"+. c #425E13",
"@. c #425C1C",
"#. c #465A18",
"$. c #585709",
"%. c #6D4805",
"&. c #41630D",
"*. c #46690F",
"=. c #446314",
"-. c #496516",
";. c #466815",
":. c #496B16",
">. c #45641A",
",. c #4A661B",
"<. c #46691A",
"1. c #4B6B1C",
"2. c #51651E",
"3. c #516D1E",
"4. c #4E711D",
"5. c #4E7114",
"6. c #51721E",
"7. c #547819",
"8. c #475A24",
"9. c #4F422B",
"0. c #774629",
"q. c #675235",
"w. c #6D4D32",
"e. c #466322",
"r. c #4B6622",
"t. c #4D6C22",
"y. c #4D6C29",
"u. c #526D23",
"i. c #5A6D26",
"p. c #536D2A",
"a. c #566829",
"s. c #4F7022",
"d. c #4E7228",
"f. c #557525",
"g. c #537224",
"h. c #597426",
"j. c #567823",
"k. c #597B26",
"l. c #55742A",
"z. c #5A752B",
"x. c #567929",
"c. c #5B7A2C",
"v. c #5D7C32",
"b. c #577431",
"n. c #586E30",
"m. c #607C2E",
"M. c #60742C",
"N. c #627D32",
"B. c #647835",
"V. c #606D28",
"C. c #082848",
"Z. c #062B58",
"A. c #494A4A",
"S. c #4F5255",
"D. c #5F5F61",
"F. c #605E61",
"G. c #666766",
"H. c #777778",
"J. c #707273",
"K. c #8A0B04",
"L. c #B80E06",
"P. c #94260B",
"I. c #892F0A",
"U. c #A8240B",
"Y. c #A9350C",
"T. c #AE2F14",
"R. c #863C26",
"E. c #AA3A26",
"W. c #C8210B",
"Q. c #8B4711",
"!. c #905509",
"~. c #A54B09",
"^. c #B2550B",
"/. c #967603",
"(. c #B96C08",
"). c #BE7608",
"_. c #AD6B0D",
"`. c #885636",
"'. c #995935",
"]. c #864E32",
"[. c #A75B37",
"{. c #AE442C",
"}. c #91623B",
"|. c #AA643D",
" X c #C65C0A",
".X c #C57808",
"XX c #C8690B",
"oX c #E54922",
"OX c #89664A",
"+X c #A47A53",
"@X c #A66C4A",
"#X c #847F79",
"$X c #E87F5E",
"%X c #D85C42",
"&X c #099510",
"*X c #5E8132",
"=X c #5E802C",
"-X c #61822D",
";X c #65882A",
":X c #638334",
">X c #688437",
",X c #658339",
"<X c #6A863A",
"1X c #6C8A3D",
"2X c #688936",
"3X c #72833C",
"4X c #759243",
"5X c #708B43",
"6X c #9D9001",
"7X c #A98B05",
"8X c #D99906",
"9X c #D68B07",
"0X c #D5B303",
"qX c #CDB402",
"wX c #F2B805",
"eX c #DEC105",
"rX c #F5C905",
"tX c #FBF203",
"yX c #B5895B",
"uX c #D28F5B",
"iX c #CB9263",
"pX c #EF9769",
"aX c #EEB275",
"sX c #F5985B",
"dX c #7E858F",
"fX c #868788",
"gX c #979899",
"hX c #A8A7A7",
"jX c #BBBBBB",
"kX c #AFB1B0",
"lX c #C6B4A0",
"zX c #C1C1BF",
"xX c #ECCEB6",
"cX c #B7BFC1",
"vX c #C8C8C8",
"bX c #D5D6D6",
"nX c #CFCFD1",
"mX c #E0DFDD",
"MX c #F0EDD5",
"NX c #DDDEE0",
"BX c #E7E6E6",
"VX c #F0EFEE",
"CX c #F9F8F9",
"ZX c #EFF1EE",
/* pixels */
"+.p.h.t.+.,.z.,.t.t.2Xc.c.>.f.1.#.2.,.-.,.p.1.j.=.<.=.=.;.1.=.>.1.<.=.=.1.<.=.<.t.g.r.<.=.1.4.x.>.1. .<.1.l.{ ,.>.>.>.t.r.l.d.y.",
"u.,.u.i.,.t.+.1.2.i.c.c.g.1.N.c.t.u.u.,.3.-.1.k.:.:.<.g.s.;.| 1.1.g.<.1.1.t.l.>.s.<.1.1. .! c.y.=.] ] 1.>.l.+.] ] r.] { d.p.b.>.",
"u.1.p.m.h.h.3.M.m.2.u.1.=.t.f.c.] ,.:Xz.h.g.1.1.4.1.=.1.1.g.1.<.<.g.<.] :.d.1.>.<.4.1.4.<.] >.>.r. .>.y.,.l.l.] P @.{ e.r.e.e.{ ",
"u.,.2.z.g.z.m.:X:.,.t.g.:.:.:.^ c.3Xh.3.;.1.:Xs.=.1.4.4.=.4.j.l.:.s.s.1.l.l...>.=.s.;.;.;. . .] t. .>.1.,.y.g.! W ] ] d.y.e.{ ..",
"p.1.,.u.u.g.m.z.6.m.M.-.+.,.:.-.h.:X<Xm.4.g.1.j.4.;.4.g.4.s.l.c.j.1.<.<.d.1.=.r.] g.4.:.E ! >.l.t.<.t.d.r.s.z.p.l.>.Y ] ` ` ] y.",
"g.u.g.g.3.3.3.3.,.h.-X-.-.:.O.u.z.2.+.>X4Xc.;.:.1.| <.s.4.1.g.g.4.1.=.1.>.{ y.<.j.j.4.4.! ] ..>.>.g.:.1.1.f.3.g.u.1.t.y.<.! ` ] ",
"3.h.k.3.:.:.3.u.-.3.O.-.2.O.:.u.,.3.k.;.1.-X6.-X4.:.x.j.j.s.x.d.=.:.<.y.>.t.v.=.1.*.;.6.f.l.l.<.1.*Xj.s.g.:X;.:.1.g.l.<.>.>.<.W ",
":.6.k.O.&.-.3.k.6.6.O.5.6.-.N.3.2.-.3.k.g.=.6.c.4.<.:...t.s.t. .4.4.<...] t.c.t.:.;.j.k.1.>.r.r.4.k.j.:.6.k.E O.:.4.=Xk.s.d.s.] ",
"1.j.6.^ &.,.;.j.3X*.j.-.O.N.m.3.| | j.s.^ E j.6.4.4.g.1.<.<.1.f.k.g.1.>.<.y.u.g.4.=.;.:.1.>.>.r.k.5.j.6.j.6.^ ;.=.:.k.-X3.,.;.t.",
"v.c.g.>.,.t.>.v.,.1.c.O.,.h.y.v. . .| :.E 2Xk.~ l.d.s.<.<. ...<.j.| j.1.1.] k.t.~ l.c.u.,.r.5Xv.1.l.4.v.v.>.1.t.5.*.k.&.u.z.,.r.",
"c.t.t.l.z.y.l.l.k.+.1.=.u.v.p.{ ..4.<.:.k.2X=Xg.O.:.:.s.4.| ;.4.6.t.>X>.c.R p.1.,.t.,.@.u.p.u.@.<.g.d.t.y.p.l.g.=.m.-X*.~ u.,.a.",
"~ =.y.r.c.v.<X>.~ :.1.>.1.y.r.y.x.7.4.;.4.4.5.;.1.y.......<.s.x.;.;.1.f.,.>.:.s.t.c.@.u.b.i.r.+.j.j.g.g.~ N.l.l.2Xk.:.=.h.t.@.p.",
":.c.>.>.] N.<Xr.=.=.>.>.! >.n.y.<.=Xj.:.4.:.| l.;.u.g.>.>.v.4.j.<.E v.] p.+.- + e.m.>.t.,.#.u.r.-X4.k.l.y.h.z.:Xc.6.E =.:.u.@.r.",
"k.,.^ e =.] 1X,Xc.r.9 ) { 1.b.{ <.l.1X*X:.1.j.x.,.>.<.` ~ c.4.d.=.*Xa.i p e     @.~ v.v.h.1.>.u.k.4.1.v.>.1.t.l.k.g.-.p.,.u.p.p.",
"c.:.P  .{ W ~ >.{ o.6Xs ) y.y.d.d.k.2X1.4.:.4.4.1.r.] t.d.p.t.Y 9 9 3 u n T.# o ' O.f.>.! >.c.z.4.:.s.s.>.^ t.:.-Xg.t.1.y.,.p.@.",
"1.=.=.l.>.>.=.=.a $.tXeXr X.b.n.v.;.<.;.4.5.4.=.s.t.>.d.>.] @.1 {.@X'.0.C n a X.' h.1.g.>.>.<Xg.| 1.4.g.+.1.g.t.l.1Xv.u.,.z.r.>.",
"c.=.=.h.] r.g.l.) o.rXwXeXN / b.>.] ! 4.6.j.=.:.=.] r.>...' 7 [.R.].L 6   p ,.1.:.d.=.c.l.1.1.=.E ;.4.s.+.1.1.,.g.h.l.>.N.p.>.t.",
":.;.f.g.,.d.+.I r 0X(..X/.q _ p.>.>.~ 1.g.| =X,X1.>.<.<.) Z [.H .   .   q >.f.,.=.s.=X2X*Xg.! =. .4.g.<.=.:Xg.g.=.{ b.v.5Xy.+.' ",
"~ ,.h.g.+.:.{ e 0X.X(.!.e e.y.@.d...u.>.;.:.5.<.1.>.>.y.[ K pX7   9 ' Y ;.1.t.=. .l.c.j.x.c.j.t.1.1.=.E 1.g.f.1.d.l.z.l.b.N.u.,.",
"=.6.c.1.,.' r 0X).(.!.w O.' e.8 _ l.h.t.1.| j. .<.l.1.{ J uXE.t   Y [ = = * * * >.x.l.s.y.1.d...;.s.;.=.f.;.l.,.t.p.l.r.i.g.+.' ",
"1.c.>.t.` e 0XXX.X7Xe T } } 8 6X$.X Y W 7.| :.j.j.*Xg.X.C xXL . X + .     H B . O t.<.] ..] t.<.! c.g.g.g.;.g.p.] l.v.r.p.,.+.+.",
"c.h.1.' r 0X(._.8X.Xx 9 p.r.8 6XtXN U d.<.R 2Xk.-Xk.:.[ x sX].  7 C 2 & & % & 4 y * >.t.t.t.t...>.v.l.k.g.1.t.c.v.e.e.r.l.>.,.:X",
"| t.p.q qX8X%.$ N 8X^.x ( y.9 6XrXN 8.t.g.4.*.-X6.j.:.#.4 uX'.O B K 2 & & 7 . 4 V - * @.>...>.d.<.>. .<.j.1.~ t.e.v.B.y.+.u.k.4X",
"c.t.:.W r 7Xq 1.I N .X XM X /.8X(.3 { 1.7.6.*.| :.h.g.) 1 uXuXB V B u 2 % 7 % % 7 3   X { { { y.t.s.t.s.:Xc.1.1.r.e.@.Y ,.,.3.3.",
">.1.d.+.I 8 p.y.| [ 5 ~.).~.Y.~.s 8.B.*X1.5.4.j.j.5.E Y 1 %X$XP.7 $ 2       3 V B C .       & t ' v.d.>.6.c.p.1.b.` #.' z.o.t.c.",
";.p.l.;.t.Q ~ s.p.t.8.1  X.X9X$.e P ' y.v.y.:.=X*.| =.)   l %X'.2 X %   $ $ C K & 0.$ % 7 B L `.* 8.~ 4.t.s.4.,.3.i.2.i.i.B.r.a.",
"] :.t.;.=.~ ] P ~ T a M XX!.(.9XS i ) U >.;.;.k.&.6.W . @   6 j j < & $   V [.K 6 ].% y K ].    2 5 = { ..1.;.,.i.B.#.a #.8.V.n.",
"t.1.g.z.;.] 1.~ =.e %.wX).q < ^.9XD r X ' 1.g.4.&.1.' 6 C     OXpXv   X   G L 6 C 3   0..   2 B _.XXM 0 s.c.t.#._ 8.# @ 5 @ a.r.",
"g.>.<.c.>.E l.s.k.8.r 7Xm U ' N (.XXwXo.,.u.s.g.7.4.@.3 4 @ . 1 K.1 6 7 u 4 B L V . B   X B C {.%.M %.= Y [ / & , , k F  X- a.r.",
"=.6.4.1.<.f.c.^ 1.g.Y 9 = e R 9 6XwXwXo.=.g.:Xs.*Xc.` .   & K u O < C ].0.y '.`.    ].X 3 V Q.U.o     o     . 1 v b z I.1 - r.p.",
"j.1.:.x.k.:.;.;.g.g.d.f.| t.~ = $.6X%.D p 1.1.1.c.g.I   7 B K @X[.+X`.0.V s 7 .       . y m  X@   # l 1     , k v v v b . ,.a.p.",
"1.g.=X:.<.,.4.s.1.:.=.=.| =.=.( e w w c 2 e y.z.d.:.Y 8 w.uXx [.@X+X`.G 5 A 4       V $ V m ^.    z K.k # , . < z z z D q @.=.] ",
"1.;.-X;.&.=.g.=Xg.c.f.;.g.R -X2.:.=.s._ O $ w :Xt.>.t.' u OX'.'.y o   S.kXMXxXyXG.  < . 2 s !.    z K.< b K.l   # F x p z.h.t.,.",
"6.j.g.E ^ <.;.c.2Xc.:.,.,.k.>X6.&.O.g.k.( X % p w ~ =.e.    H @     #XCXjXfXNXnXhXJ.J.  . 5 c .   , , k L.L.K.o . m $ >X1.;.3.&.",
";.k.g.~ ;.1.;.g.:X1.g.+.Q m.;X2.E =.1.,.W e .   G.w ,.8   # #   .   A.mXj D.cXcXgXkXG.H.o . 5 M   . . < k z <   @ @   8 Q m.R ;.",
"-Xh.1.:.g.:.g.j.c.~ h.3.-.i.V.2.&.=.;.;.g.-XO kXgX  s T.Y.U.1 # # .   h fXD.cXnXzXh D.vXo   . <       < K.~.^.I.& # ,   Y :.O.k.",
"&.2.h.k.g.3.:Xg.=.t.c.g.3.2.m.+.6.p.;.h.4.=X_ S.>   . F n 1 , # # # @   A.o cXVXnXH.h -     X 1       x oXY.M 5 M < # . f.1.1.1.",
"-.N.z.h.1.~ !  .<.1.,.m.i.O.#.2.h.g.c.>.4.=.;.I   % 7   6 u   # @ . < , o   jXZXnXvXfXG.h   . 5 v ,   I.Y.# -   1 < # . - r.+.=.",
"z.c.-.h.t.;.>.1.=.2.t.i.h.V.#.#.] d.z.6.4.1.:.k.' + u w.u yX  k z   . .     J.jXvXvXBXCXhX+     x P.. F P.+ +XyX4   , # . @.+.2.",
"M.M.h.k.z.g.g.1.t.,.,.z.N.V.2.i.r.t.c.g.k.=.4.6.=.t iXiX+X-   F U.  p [ [ - o fXnXbXvXBXCXhXj >   m U.z # H iXaXq.. # <   #.8.' ",
"3.h.i.h.m.~ -.5Xi.z.1.u.V.V.3XB.l.*Xz.t.1.:.1.:.>.6 aXaXaXH   $ < p  .l.<.= D 4 > nXZXvXVXCXfX* A.: M U.# q.w.OXOXZ $ # . Y a.n.",
"h.h.3.:.~ h.3Xu.:.i.u.t.i.u.3X4XM.r.2.2.-.3.2.-.:.[ > q.yXX > >   i ] h.g.{ - D # fXBXNXnXBXgX  O     D x OXq.q.Z }.u .   r.g.<.",
"h.-.h.3.=.h.1X>Xm.g.z.p.c.h.3.i.i.V.i.2.2.2.u.c.:.3.] ) -   % A.j + / :Xl.t.= I.m O H.nXbXBXVXgXO       D G $ @   yXZ   y.l.g.>.",
"O.O.k.2.3.u.3.=.>XN.>Xz.#.p.u.3.i.2.2.i.3.Q 3.h.:.>.E g.g.=.( j zXD.  X.c.<.d.q Y.x o S.jXvXZXCXfXO   ; + S T.z $ 5 l . n.c.x.1.",
"O.3.N.3.-.:.u.3.2.c.u.N.2.,.,.v.i.k.M.i.h.2.m.E g.E =.:X1.~ ,.i H.J.  ( z.g.>.p.7 Y.<   > h mXvXvXhX>   o o M ~.Q.~.W.< ` g.g.<.",
"u.h.2.3.-.#.2.h.2.=.,.1.Q ,.p.~ B.m.2.2.h.+.2.u.3.:.g.u.=.] +./ -   b v i ] W c.x.% Q.. + j A.  D.NXnX>   :         +   [ 1.] ] ",
"u.m.-.3.3.3.3.-.-.1.1.P 3.z.+.,.2.i.,.#.,.+.g.N.g.g.:X,.:.1.g.=.>.( l L.z i N.r.1.. I.O f o     + G.gXA.dXG.o o ; ;     e.>. .l.",
"~ h.u.#.O.-.3.u.,.Q 1.u.1Xc.O.N.,.~ u.<X>Xu.f.m.f.~ -.z.t.W 1.+.1.p.e l b # X.r.l.q M o C.C.d o o   . G.bXfX% o Z.f #   U >.l.,X",
"z.h.h.-.2.g.3.u.z.O.,.m.u.g.u.=.,.,.-.1.z.h.=.3.O.c.;.c.u.1.z.,.u.h.O.8 : &X0 ) <.=.9   d C.g   o + o     o   ;   # L.1 ] y.u.1.",
"u.2.z.h.-.i.3.3.+.1.-.>.f.1.1.;.,.,.#.3.=.:.=.1.g.3.~ g.z.,.u.p.2.] #.i 0 &X0 >.>.] t.+ C.C.C.;   q 8 8 8 8 8 9 = < P.2 >.] <.1.",
"=.p.h.2.3.u.:.h.h.i.c.g.c.;.l.1.+.~ +.,.u.1.1.k.s.1.g.=.t.1.,.p.u.1.u.f./ w g.y.f.=.P   d d d O _ l.s.<.1.t.] ! t.i 8 8 l.1.y.y.",
"Q u.c.3.=.+.u.,.+.:.c.f.>Xg.f.l.-.2.p.;.1.,.g.g.=.R g.h.1.1.+.>.=.;.s.f.l.l.p.l.v.] p.8 # F l - x. .] <.t.t.t.<.,.,.>.>.e.] >.1.",
"z.+.1.v.g.+.1.u.g.h.m.m.<.1.c.c.2.u.u.2.3.=.1.c.! d.=.>.t.t.>.,.-.;.g.g.c.t.t.v.v.,.,.>.& P.k I x.! =.>.>.1.>.]  .d.>.l.d.b.1.` ",
"1.1.g.g.h.v.t.v.2.u.1.,.,.u.g.g.,.h.h.g.f.1.g.3.=.1.=.c.l.=.] Q =.4.c.t.s.r.<.l.t.] ] v.1.t.k.t.y.=.>.t.<.c.l.=.] d.t.l.r.d.y.<.",
"u.=.y.g.t.v.g.2Xh.:.h.-.,.,.,.P h.4X>X2.=.6.c.j.<.s.>. .c.>.=.l.| 5.7.<.:.>.>.>.R >.l.t.1.Q 1.6.g.>.>.d.>.1.>.! v.d.] >. .>.<.,.",
"c.r.s.t.r.:X:X1.2.c.N.3.3.-.2.k.3.m.m.<X:Xg.t.4.;.1.:X4.d.v.c.t.| 1.j.1.1.t.<.>.p.g.:X1.^ t.j.h.s.g. .l.r.s.l.d.>.>.] >.{ } ` { ",
"1.u.l.g.p.>.1.1.1.g.g.:.+.2.&.2.l.3.+.c.<Xk.g.=.c.<.4.:Xz.t.1.1.7.:.:.4.s.<.>.<.=.,.z.=.u.1.g.1.<.,Xr.>.] 1.l.=.] ] +.>.<.] >.' ",
"6.6.-X,.=.;.g.j.3.:.^ 6.6.O.6.3.<.r.g.t.p.z.g.v.z.g.<.2.f.,.Q 3.=X5.5.4.;.<.] ..:.*.=.;.1.g.y.p.v.c.g.1.>.t.] +.;.1.;.;.>.>.>.] ",
"5.3.6.=.E ;.=.s.j.7.:.;.&.3.>X3.1.! c.c.t.~ :.>Xc.d.1.z.=.T u.,.5.;X;X4.g.<.=.*Xf.=.:.=.6.:X=.+.x.l.c.1.<.g.] ;.;.*.k.-Xl.l.>.] ",
"3.k.z.P <.1.l.g.:X1.3.:.-.:Xm.i.! ;.s...R R :X| g.g.c.j.=.O.t.1.5.2X5.:.r.P v.v.g.O.R g.g.R W i.6.>.l.c.g.t.Q 1.;.g.m.N.~ d.' d.",
";.;.3.>.l.<.>.d.g.^ ;.=.O.u.+.+.4.! 4.:.=.4.s.:.;.-.f.:.;.=.=.:.7.| :X=.s...l.s.~ c.1.6.1.>.l.g.:.z.;.:Xv.>.g.4.t.:.l.=.;.l.@.r.",
"1.;.g.g.d.<.>.<.<.r.c.>.,.u.@.>.R 7.:.:.;.j.;.| 1.=.+.1.<.~ u.u.:.g.g.x.b.] d.t.t.t.=.,.y.l.y.y.g.g.g.r.>.z.l.l.u.N.j.1.;.h.>.d.",
"s.d.:Xt.t...d.] <.d.s.~ >.>.>.>.5.4.4.4.4.*XR j.<.4.1.;.t.g.s.c.1.| s.d.] >.r.y.y.f.1.y.c.p.r.' -X1.v.>.=.:Xu.v.>Xc.=.^ l.,.>.r.",
"<.<.<.*X<.<. .! g.d.r.<.g.y.,.y.4.:.| 4.s.6.4.g.~ g.t.~ <.*X>.g.1.} 5Xr.l.y.r. .z.v.,.=.>.R h.f.k.c.1.:Xl.1.c.k.1.4.Q :.1.<.+.r."
};
