/* XPM */
static char *_ee3ed3e82ca4f4ebb0da5aeb5c7735c5f3N0We8HXai7kgi[] = {
/* columns rows colors chars-per-pixel */
"64 65 241 2 ",
"   c #020101",
".  c #0B0302",
"X  c #0C0B04",
"o  c #0A0805",
"O  c #140302",
"+  c #1C0201",
"@  c #130C05",
"#  c #1A0C04",
"$  c #1A0E09",
"%  c #160B0A",
"&  c #0E1405",
"*  c #0D1606",
"=  c #1D120B",
"-  c #171908",
";  c #0E0F12",
":  c #240202",
">  c #2C0202",
",  c #260A02",
"<  c #340203",
"1  c #3B0202",
"2  c #390C05",
"3  c #2B1305",
"4  c #23140D",
"5  c #29180A",
"6  c #3C1A0B",
"7  c #371808",
"8  c #2D1A11",
"9  c #261915",
"0  c #321C11",
"q  c #3A1D11",
"w  c #1B2305",
"e  c #1D2A0A",
"r  c #1A2309",
"t  c #0B2A0E",
"y  c #232C0C",
"u  c #292809",
"i  c #3C2605",
"p  c #27380B",
"a  c #353508",
"s  c #212815",
"d  c #3C2214",
"f  c #3A2618",
"g  c #2B3D12",
"h  c #283312",
"j  c #343915",
"k  c #030923",
"l  c #302E31",
"z  c #440303",
"x  c #4B0403",
"c  c #4A0B05",
"v  c #430908",
"b  c #530403",
"n  c #5C0202",
"m  c #530C05",
"M  c #560C08",
"N  c #481907",
"B  c #5A1706",
"V  c #670602",
"C  c #661808",
"Z  c #791E0B",
"A  c #492707",
"S  c #5A2706",
"D  c #553606",
"F  c #432414",
"G  c #4B2A19",
"H  c #482A18",
"J  c #552C19",
"K  c #57341E",
"L  c #483402",
"P  c #6B250B",
"I  c #682609",
"U  c #76280A",
"Y  c #7D330C",
"T  c #793709",
"R  c #6A381E",
"E  c #6B2D17",
"W  c #5A3622",
"Q  c #483223",
"!  c #663823",
"~  c #723F28",
"^  c #2D4C02",
"/  c #2B4308",
"(  c #324B08",
")  c #2E5108",
"_  c #335304",
"`  c #35540B",
"'  c #3A560B",
"]  c #3C5B0D",
"[  c #375907",
"{  c #2F4313",
"}  c #354B13",
"|  c #3A4C15",
" . c #374716",
".. c #355212",
"X. c #3B5513",
"o. c #3D5C12",
"O. c #3B521A",
"+. c #3E5C1A",
"@. c #3F600E",
"#. c #3F6115",
"$. c #3E611A",
"%. c #3D5321",
"&. c #0F5B15",
"*. c #425E0D",
"=. c #454512",
"-. c #425E13",
";. c #415E1B",
":. c #4B5D1B",
">. c #425419",
",. c #525E1C",
"<. c #50430D",
"1. c #6B4607",
"2. c #774E08",
"3. c #41630E",
"4. c #436314",
"5. c #486516",
"6. c #466915",
"7. c #4A6B16",
"8. c #45641A",
"9. c #4A661B",
"0. c #46691A",
"q. c #4B6B1C",
"w. c #52631D",
"e. c #516C1E",
"r. c #4E711D",
"t. c #4C7117",
"y. c #51721E",
"u. c #547818",
"i. c #465C25",
"p. c #584D2A",
"a. c #794529",
"s. c #6E4B31",
"d. c #456420",
"f. c #4A6622",
"g. c #4D6C22",
"h. c #4D6C29",
"j. c #476823",
"k. c #526324",
"l. c #516D23",
"z. c #5A6C25",
"x. c #536D2A",
"c. c #596A2B",
"v. c #4F7122",
"b. c #557525",
"n. c #537224",
"m. c #597426",
"M. c #567925",
"N. c #597A25",
"B. c #55742A",
"V. c #5A752B",
"C. c #57782A",
"Z. c #5B7A2C",
"A. c #5D7C31",
"S. c #567531",
"D. c #5B6F30",
"F. c #607D2F",
"G. c #62752E",
"H. c #627D32",
"J. c #637835",
"K. c #001043",
"L. c #3D3E40",
"P. c #4F415B",
"I. c #676868",
"U. c #724741",
"Y. c #890C05",
"T. c #892B0A",
"R. c #86360D",
"E. c #9C3B0E",
"W. c #97390B",
"Q. c #862114",
"!. c #943D10",
"~. c #8D3312",
"^. c #A7310E",
"/. c #B13008",
"(. c #9E3A2A",
"). c #A73A23",
"_. c #C1310E",
"`. c #94490D",
"'. c #97560D",
"]. c #984711",
"[. c #8D4F0B",
"{. c #A34A12",
"}. c #A75714",
"|. c #B85611",
" X c #AD5209",
".X c #957F04",
"XX c #957304",
"oX c #AA6605",
"OX c #B86809",
"+X c #B57109",
"@X c #864B2B",
"#X c #955836",
"$X c #8A5030",
"%X c #AA5634",
"&X c #A3613F",
"*X c #CB560F",
"=X c #C56608",
"-X c #C57906",
";X c #CC730E",
":X c #F67612",
">X c #D6543E",
",X c #886441",
"<X c #99744B",
"1X c #977353",
"2X c #AC7250",
"3X c #D0704A",
"4X c #ED7B57",
"5X c #04990A",
"6X c #5F812D",
"7X c #5E8133",
"8X c #62822D",
"9X c #658929",
"0X c #638334",
"qX c #678837",
"wX c #65843A",
"eX c #6A853A",
"rX c #6B8A3D",
"tX c #6A8836",
"yX c #72833C",
"uX c #6D8944",
"iX c #749343",
"pX c #778F45",
"aX c #9E8D02",
"sX c #A29201",
"dX c #AC8D04",
"fX c #BFAA03",
"gX c #CC8507",
"hX c #D58B09",
"jX c #D69806",
"kX c #CB960C",
"lX c #D1B502",
"zX c #EEBC07",
"xX c #FDDD01",
"cX c #FEC606",
"vX c #FFF704",
"bX c #B38354",
"nX c #D58E5A",
"mX c #CC9860",
"MX c #EB9967",
"NX c #8D8F8D",
"BX c #9D9DA1",
/* pixels */
"-.x.m.k.-.9.m.9.9.l.qXV.Z.8.b.g.-.w.9.4.9.m.r.b.4.6.4.4.4.r.4.5.g.0.4.4.g.0.5.0.g.n.f.0.#.q.v.C.0.7.4.0.0.B.-.9.8.;.d.f.g.B.n.h.",
"l.9.l.n.9.g.-.l.q.n.Z.H.n.q.F.N.q.l.x.q.e.4.f.Z.7.0.7.b.r.0.@.q.0.n.7.0.0.g.B.#.n.0.q.r.o.] C.g.-.o.o.f.8.h.8.o.o.f.o.o.h.B.S.+.",
"l.f.z.H.m.m.l.Z.H.q.l.q.4.q.V.N.' k.H.Z.m.n.0.7.r.q.5.0.7.b.r.0.0.n.8.o.0.v.g.8.6.q.r.q.6.o.9.8.0.o.8.v.f.V.l.o.^ ;.+.d.j.d.d.+.",
"l.9.q.V.n.V.G.0Xw.5.e.y.q.7.7.' V.uXm.e.8.e.qXy.6.7.n.7.4.v.n.B.7.n.v.q.C.V.4.8.4.v.6.6.6.#.#.o.g.#.8.g.9.g.B.o.` -.o.x.h.$.+.d.",
"l.e.9.l.l.m.F.m.n.G.N.7.-.q.q.6.m.0XyXH.y.b.t.b.q.0.r.b.r.v.B.C.n.r.0.q.h.9.$.g.@.n.t.7.] ` $.B.h.0.0.B.g.g.b.l.h.8.( o.X.` +.h.",
"n.l.n.b.e.e.z.7.7.m.H.5.5.7.*. .a y *.qXiXZ.5.t.7.@.6.v.r.0.n.n.r.7.4.f.8.$.g.0.M.M.n.r.@.o.4.0.4.n.0.g.0.b.e.m.n.g.v.v.0.....o.",
"e.m.N.q.7.5.e.y.5.m.*.3.7.*.| <.vXaXh 5.7.H.r.6Xv.q.b.b.b.v.C.n.4.t.0.v.8.g.A.8.7.4.6.r.n.n.B.f.q.8XM.r.n.0X7.q.q.n.C.5.0.$.0.` ",
"7.y.N.*.4.6.7.F.y.e.*.e.e.5.e.a xXxXdXa 9.4.r.6Xr.0.0.6.v.v.q.4.t.r.0.#.o.f.Z.g.t.6.M.N.q.4.0.j.n.M.b.t.y.N.[ *.7.e.Z.C.n.n.v.o.",
"7.n.b.[ 4.7.6.b.tX5.b.7.] H.h sX-XgXjXu _ [ N.n.t.r.C.q.t.6.j.v.Z.n.7.8.9.h.g.v.r.4.6.7.q.5.8.g.N.t.M.y.m.y.[ q.6.7.G.9X7.9.4.f.",
"0XZ.l.8.0.f.9.A.9.q.Z.4.7.s dXjX=X'.w #.[ 9XN.' B.n.h.0.0.#.#.t.M.@.b.v.g.o.A.q.o.V.V.l.i.f.uXJ.q.n.r.A.A.4.q.0.t.3.N.4.n.Z.9.g.",
"V.g.g.x.V.h.B.B.G.] 7.4.y sXjXOXoXy 0.7.6Xj C.n.] 0.0.v.v.[ 6.r.n.e.qX4.Z.[ n.f.9.e.9.8.l.B.f.9.0.n.n.h.g.x.B.B.7.N.8X3.] l.9.x.",
"] 4.g.g.Z.A.wX9.@.6.l.r aXhX=XdX{ q.t.0.g aXp 8.q.g.#.$.0.0.v.C.6.4.7.b.5.5.0.l.g.A.;.l.D.x.l.o.M.N.n.n.o.H.n.C.tXN.7.6.m.k.;.x.",
"q.Z.8.;.o.H.eXf.8.X.e aXjXOXkXgXN | b.7.* lXlXp 8.g.B.8.0.A.q.b.0.' 8X8.b.8.q.4.x.Z.8.l.5.-.k.l.6Xt.Z.B.g.V.A.0XN.n.[ 6.7.g.;.f.",
"N.7.[ / 4.o.uX0XC.r aXzX'.# a hXOXB O.Z.w lXkX- 0.9.0.` o.C.v.B.4.8XrXZ.A.Z.g.q.q.] Z.A.B.g.4.g.N.t.q.A.5.0.f.B.N.y.5.x.9.l.x.c.",
"Z.0.^ o.o.` ] 8.g.f.y aXu f.+.i +X=XA O aXgX[.w g.7.-.0.g.B.g.#.@.n.q.n.B.5.C.n.5.] n.8.o.9.V.B.y.0.n.v.8.` g.5.0Xn.g.g.l.9.x.8.",
"e.5.*.B.8.9.#.8.0.g.B.e X.h.S.%.3  X-X XW.[.h 4.v.g.f.h.8.o.v.q.Z.0.q.q.b.4.Z.b.4.B.l.v.4.5.rXB.@.7.r.n.-.q.n.q.V.rXA.g.9.V.f.;.",
"Z.4.6.n.o.9.n.B.9.A.A.n.f.j.j.S.} > |.gXgXD _ q.5.] 9.8.+.$.n.h.l.g.H.4.q.g.5.7.7.n.8.Z.b.0.q.4.[ 6.t.n.-.0.q.5.B.B.l.9.wXx.8.g.",
"7.6.B.n.9.l.o.` 8.B.A.q.8.X.+.i.p U ;X[.oX-XA %...0.j.0.0.7XwXA.n.-.7.q.] 4.Z.0.4.v.Z.qX7Xn.] 4.4.r.r.0.6.0Xn.n.-.-.S.H.wXx.-.X.",
"' 7.n.n.o.g.8.n.4.l.Z.V.h.g.f.p 1.cXXXe , =X-X1.D { 8.g.V.7XA.A.4.o.8.3.8.r.q.4.#.n.Z.M.C.Z.C.v.q.7.5.] q.n.V.0.n.V.S.B.D.J.l.f.",
"6.e.V.g.9.9.0.0.] ^ ] q.o.o.d.O.a 2.@ +.' A +XhXlXg 0.v.C.V.x.n.7.5.B.5.4.n.v.0.v.C.C.h.g.q.C.#.0.r.6.4.M.5.V.9.j.B.x.j.B.B.-.' ",
"q.V.8.g.-.f.9.V.7.8.0.` _ ( ../ ;.{ p _ b.X lXcX.Xj n.B.e.5.7.e.0.6.A.b.g.B.Z.B.g.C.0.4.#.] g.q.] Z.n.b.r.6.n.l.o.B.A.d.l.f.-.-.",
"Z.n.g.9.B.8.-.o.' -.0.^ h.f.` h.i.o.` v.7./ a a N S / V.q.-.q.7.5.n.m.V.qXB.f.q.` b.f.g.v.j.d.$.8.Z.b.C.n.q.l.S.S.j.i.f.B.9.5.0X",
"] l.h.A.0.h.9.B.g.[ q.7.wXx.8.S.g.f.V.f.M.n.*.n.} 3 @ g *.7.m.7.5.n.n.Z.C.0.9.0.v.C.0.g.0.0.d.n.8.0.8.q.N.q.*.l.9.uXJ.h.-.l.N.pX",
"Z.g.8.o.9.V.V.j.5.o.8.0.f.g.0...f.x.v.7.y.u.3.3.7.O.@ . X i.N.y.q.7.n.6X9.v.C.A.A.8.#.g.j.$.j.h.j.v.g.q.0XC.q.0.f.+.;.' ;.q.e.e.",
"8.0.B.8._ B.h.g.4.C.4.5.g.0.o...} B.J.7X7.v.r.N.N.7.p s BXP...l.N.N.B.C.n.0Xv.Z.A.] #.8.+.j.S.j.8.A.n.0.n.V.n.g.S...-.X.V.>.7.F.",
"5.n.n.8.g.` o.n.q.g.wXB.Z.#.f.4.X.( +.h.H.q.t.N.6.@.p I.BXp.H = } n.n.0.4.r.5.4.n.@.0.0.8.4.7XB.l.l.#.q.0.b.q.5.w.z.,.c.c.G.,.c.",
"-.0.l.5.4.] 4.^ o.] B.n.B.g.g.Z.j.i.+._ 9.4. .>.{ 4.] & H bX<Xf   q.g.q.7.y.v.C.n.M.q.r.0.5.0.B.8.-.8.0.0.0.7.9.z.G.,.,.,.G.D.D.",
"n.7.n.B.5.] q.' o.] ] ] 4.4.h.n.o.f.S.O. .g q K q - / * f Q 7 S <.p ..g.v.q.t.g.@.0.v.b.h.8.9.C.g.] 0.0.v.A.h.9.l.G.w.,.,.D.z.i.",
"n.8.g.A.7.] C.g.Z.A.#.` o.] l.o._ x.O.@     % 8 ,           < ^.*XV + | n.n.y.6.@.^ qX#.B.#.8.A.V.-.0.h.0.C.0.-.-.w.>.w.c.k.c.k.",
"4.v.q.7.5.n.Z.[ 0.b.4.o.^ _ [ ^ S.d.X - C E W ~ 1X<X<X2X=     : n Y.Y.> } r.q.6.4.iX0.n.g.` o.B.l.9.8.n.$.v.B.q.H.G.-.5.:.>.f.l.",
"b.7.7.C.Z.0.6.6.n.n.n.b.@.r.] l.i.X @ Q.4XMXnXMX4X3X2X2X).:       < Z 1 g v.7.r.n.qX6Xv.v.8.] 0.A.V.9.V.g.7XA.V.z.z.:.:.:.9.x.x.",
"7.b.6X6.4.6.q.n.q.q.4.4.#.4.4.X.@ % a.3X>X#X! f q I $ , %X3X&X% . . b : X } #.5.7.0.B.n.h.q.9.8.rXZ.v.l.n.Z.v.4.5.l.l.e.8.5.8.] ",
"t.7.6X7.3.#.v.6Xv.A.b.5.l.( x.@ @ R &X#XE 6 $ o $ = $   f $X3X8 q   + :   { 5.g.9.8.0.8.C.j.f.r.Z.v.n.q.b.Z.0.*.b.V.0XZ.b.B.g.7.",
"y.y.y.] [ 7.6.Z.qXZ.7.7.9.Z.c.$ Q (.).d @ $ $ 4 8     . @ = G $X= o + : x n o } 9.0.9.g.4.#.#.7.0XZ.6X7.N.y.` q.7.] 7XqXy.7.q.*.",
"5.Z.b.] 5.r.6.n.0X7.n.-.' F.k.  s.2XH 5 % = $ 8 d o o 8 8 @ . q E .     < 2 &.t ..9.$.v.4.v.r.v.7.7.t.N.N.e.' e.7.B.0XN.3.Z._ 7.",
"8Xb.0.7.n.7.n.N.Z.] n.e.7.z.:.4 M (.K 4 $ % 9 F 8 . X # 0 8 0 4 Q.$ %   & t 5X&.+.;.0.8.r.q.0XqXt.u.y.Z.t.y.7.y.5.n.Z.0.4.7.] N.",
"3.e.m.m.n.l.0Xn.5.q.Z.n.5.e.k.G ! 9 G G 0 4 F q @ o @ $ % ~ @X@ X 4 = O a ..h 8.9.8.S.q.B.0.Z.M.r.M.t.7.4.N.F.m.qXC.v.6.N.q.q.e.",
"5.H.m.m.q.] ] ] 0.7.5.J.G.-.| G $Xq 4 G G F d 8     @ 4 5 R R   o = = , R.f +.d.j.B.A.B.8.n.7.7.0.r.r.r.q.G.x.Z.7X7X@.#.0.l.-.-.",
"Z.N.9.m.l.4.4.q.4.0.g.z.z.z.>.a q ! 8 . 8 8 4     4 $ 8 ! &Xd   X q   O U Y r ;.h.f.g.C.B.M.7.7.N.r.M.Z.n.4.*.V.C.$.` $.o.l.:.9.",
"G.G.l.F.V.n.n.g.g.w.9.Z.H.z.,.z.- K $X0 @ @ .   8 K J q J a.. X d ! 8 . : 2 C u j.+.g.C.rXC.3.7.v.6.v.B.9.>.:.x.A...` $.+.8.:.>.",
"e.m.e.m.F.] 4.uXn.V.q.l.G.z.yXJ.D.h J @Xd K @X! a.a.a.@XJ @ o = F F 4 . 2 > v N - 9 - e e.N.7.y.6.v.l.n.` :.V.X.+.h.$.d.+.+.h.x.",
"G.e.e.q.*.z.rXm.w.n.l.w.m.l.yXpXD.,.w $ F @X~ G G a.$XJ $ . = 0 0 d   < M x z B E Y !.A a -.V.f.3.@.n.v.7.9.j.] #.v.v.#.qXv.B.0.",
"y.w.y.e.3.m.eXtXG.n.G.x.G.x.e.m.z.V.z.- 9 % .     o %   o , d d $ .   1 M B B M v B P ~.P =.9.5.M.u.t.v.4.n.$.#.$...#.n.wXB.n.8.",
"*.3.Z.e.e.z.e.-.eXH.0XV.9.l.l.w.z.k.w.u BXI.= $ % = % 0 0 $ W 5     + > B Y ;X2.> < 1 z T.'.3 @ | -...( j.B.q.0.#.` ^ ) 0XZ.C.r.",
"*.l.H.e.5.9.e.e.e.G.q.Z.f.9.9.Z.c.V.G.z.e NXl   8 H   a.Q X . $   . > x x B OX`.m x b 1 + C {.^.P 2 7 # - O.O.8.o.#.] o.o.n.B.0.",
"l.m.q.w.9.5.9.m.q.4.5.l.' 9.m.o.J.Z.w.5.B.r   =   3 D 7 S #   O . 1 z b c m ].R.x x V n x b M P T.~.E.!.R.i   #.8.f.$.9.9.0.o.o.",
"e.G.9.e.e.e.e.5.5.l.e.^ l.Z.-.5.w.x.w.5.9.*. .F N T }.I [.`.7     x x x 1 Y {.M z 1 n V x x 1 1 x b n Q.W.[.O n.0.v.0.o.v.8.o.B.",
"-.m.l.-.*.5.e.z.9.' 9.l.rXm.*.F.9.*.l.eX0X{ { + P ,       F R.7 + : > x B }.P 1 x `.].n x x b x < 1 V n n X e $.8.j.B.j.^ 8.B.wX",
"Z.n.m.:.q.n.e.l.Z.*.7.H.g.n.l.4.f.9.9. .H   . + . 7 c + o   `.7   1 < x '.;X].m z }.].n x x b 1 b b x x : * ) 8.8.9.B.$.0.g.v.j.",
"e.e.N.m.:.m.e.e.-.9.5.5.b.g.q.5.8.7.p . + [.c > v x T.C < . 3 . V B > < Y R.B R.I U m n x x v < x n x x X ..o.o...o.X._ v.o.0.0.",
":.l.m.e.e.e.q.m.m.l.G.b.Z.8.b.q.a & f <X6 `.C B {.C m C z :     2 !.P > + > 1 U }.].B m z b z < < 1 x + & g.o.o.v.j.#.8.7Xf.h.l.",
"] l.Z.f.-.-.l.5.-.e.C.b.qXn.n.b.h p.mXmXH '.W.V Z P 1 n < : { &   F E.U > + > 1 M Y ].R.~.P > < < < z o ;.l.9.0.8.0.8.9.0.o.8.0.",
"m.-.f.A.n.4.q.e.m.n.F.F.7.q.A.Z.9.j ,XmXbXE /.C x 1 2 1 O >.4.+.X   , !.E.m + > z z B C OX'.< < < c c X 5.g.6.o.$.n.d.n.V.A.j...",
"q.q.n.v.B.Z.n.A.9.l.e.5.9.l.l.n.9.m.g s.,Xs.6 [., : : O O.8.o.] o.& X , [.*XT., + 1 : n I P z < x b x X 0.S.n.+...n.g.S.d.v.g.0.",
"l.5.v.n.g.A.l.eXm.q.m.5.5.q.5.^ n.pXtXp & w -   + : 5 / B.8.-.V.@.r.9.r * C :XE 7 + : + 1 c b x n V x X 4.g.8.] C.B.o.8.#.;.j.0.",
"V.f.g.v.g.0X0Xq.q.G.0Xw.e.9.e.m.e.H.G.tXH.n.e.e w  .Z.v.l.A.A.h.4.t.v.0.e k =.*X:XI W.S : > z c x n b 2 } v.B.v.0.8.o.9.o.) ] +.",
"0.n.B.n.n.8.7.q.q.n.y.7.-.7.:.e.m.g.-.Z.eXm.n.4.C.8.q.0XC.g.8.g.r.6.7.{ m P.k B T.|._.*X|.B , < z 1 z x O r.n.8.o.o.o.8.0...8.o.",
"y.e.8X5.4.6.n.M.t.7.[ e.y.*.u.e.0.0.B.g.n.V.n.7XC.B.7.e.m.5.] l.6Xu.t.{ B H k     6 > A R ^.^., : > : x 7 h e -.6.r.7.7.8.9.8.o.",
"e.y.y.4.] 6.#.b.N.y.7.7.3.y.H.z.g.] C.C.g.' q.qXZ.n.q.V.5.^ l.5.t.9X9X4. ./ { %.} p       , ^.*X!.U !.U Y 2.O 7.6.6.N.Z.C.B.d.o.",
"e.N.Z.^ 0.0.B.n.0Xq.e.7.4.0XG.l.' 4.n.4._ _ 0X@.n.n.F.n.4.*.l.7.t.9Xt.7.j.^ A.A.n.@.p X.X.p 5 S 6 3 6 3 , A o 7.7.g.F.8X] g.X.n.",
"7.7.7.9.B.0.0.v.n.` 6.4.*.m.-.-.t.] r.7.4.r.r.7.7.5.b.7.5.4.4.7.u.@.0X8.B.+.h.v.' 7Xt.n.7.9.C.B.7.M.5.0XH.5.n.g.q.q.m.4.8.B.8.9.",
"7.5.n.n.B.$.$.j.0.f.Z.4.9.l.;.;.[ y.6.t.6.N.6.@.g.4.o.q.0.] v.v.q.n.r.C.B.+.B.g.f.l.8.8.l.S.g.f.n.n.n.q.8.B.B.B.l.8Xn.q.8.B.8.h.",
"v.b.wXj.0.0.v.] 0.v.n.] 8.f.8.8.t.r.r.r.t.0X_ b.6.v.7.5.g.v.v.Z.7.4.q.n.-.;.d.g.g.B.0.h.A.g.f.X.8X7.Z.8.4.eXq.A.qXN.6.[ B.9.9.d.",
"t.$.t.7Xj.0.#.] B.v.f.7.h.g.f.g.t.t.@.t.v.v.r.n.] n.v.] 9.0X8.n.0.) uXg.B.g.h.o.A.J.9.8.8._ B.B.Z.Z.e.0XC.f.Z.Z.e.l.' 0.7.8.8.f.",
"0.$.#.0.#.$.v.t.v.v.7X7Xj.j.$.v.6.#.b.t.v.b.qXM.r.0.] 8.#.B.v.g.#.A.wXC.7XS.B.f.8.#.B.n.V.8.8.g.n.e.q.Z.9.4.f.n.C.b.7.l.7.g.8.o."
};
