/* XPM */
static char *bb2b46166caa4bbced7485021c808a70YzfAemcdjArNBnft[] = {
/* columns rows colors chars-per-pixel */
"64 64 242 2 ",
"   c #020201",
".  c #0B0302",
"X  c #0C0A05",
"o  c #090809",
"O  c #130302",
"+  c #1C0201",
"@  c #140B05",
"#  c #1A0C05",
"$  c #150D09",
"%  c #1A0E0A",
"&  c #0B1307",
"*  c #141203",
"=  c #1C1205",
"-  c #131C06",
";  c #1C120A",
":  c #171909",
">  c #000618",
",  c #131718",
"<  c #240202",
"1  c #2B0202",
"2  c #240D03",
"3  c #280B05",
"4  c #340302",
"5  c #3C0203",
"6  c #3A0B05",
"7  c #23140B",
"8  c #2C1A0E",
"9  c #261706",
"0  c #371A09",
"q  c #2B1911",
"w  c #221B11",
"e  c #331D12",
"r  c #391E14",
"t  c #1B230B",
"y  c #1B2708",
"u  c #1F2713",
"i  c #113308",
"p  c #232C0B",
"a  c #2A2C0C",
"s  c #252407",
"d  c #362408",
"f  c #23320D",
"g  c #2D3A0D",
"h  c #263708",
"j  c #373B06",
"k  c #242810",
"l  c #3C2114",
"z  c #372619",
"x  c #2B3B15",
"c  c #333810",
"v  c #071928",
"b  c #05142F",
"n  c #2A2C2C",
"m  c #430202",
"M  c #4B0303",
"N  c #4A0A04",
"B  c #520403",
"V  c #5A0303",
"C  c #560E05",
"Z  c #481506",
"A  c #551707",
"S  c #561810",
"D  c #660304",
"F  c #671B09",
"G  c #791007",
"H  c #462708",
"J  c #5D2807",
"K  c #432516",
"L  c #432519",
"P  c #482917",
"I  c #542A19",
"U  c #59321B",
"Y  c #54360A",
"T  c #672608",
"R  c #752B0A",
"E  c #7B2C0C",
"W  c #782607",
"Q  c #7B330A",
"!  c #6A341A",
"~  c #6E2F13",
"^  c #573623",
"/  c #683C24",
"(  c #723724",
")  c #014F04",
"_  c #2D4C02",
"`  c #2C4608",
"'  c #324D0B",
"]  c #354808",
"[  c #2F5107",
"{  c #335304",
"}  c #3A5A06",
"|  c #35540B",
" . c #3C550B",
".. c #3B5B0D",
"X. c #375807",
"o. c #354B15",
"O. c #364716",
"+. c #365311",
"@. c #3B5513",
"#. c #3D5C12",
"$. c #3C541A",
"%. c #3E5D19",
"&. c #2F4612",
"*. c #3E610D",
"=. c #3F6014",
"-. c #3E611A",
";. c #3E5B21",
":. c #425D0E",
">. c #425E13",
",. c #425D1C",
"<. c #4A5E1B",
"1. c #465B18",
"2. c #525E1C",
"3. c #4C4C0C",
"4. c #6E4D06",
"5. c #42620E",
"6. c #406307",
"7. c #446314",
"8. c #496516",
"9. c #466815",
"0. c #496B16",
"q. c #45641A",
"w. c #4A651B",
"e. c #46691A",
"r. c #4B6B1C",
"t. c #52641E",
"y. c #516C1E",
"u. c #4E711D",
"i. c #4D7315",
"p. c #52721E",
"a. c #567B1A",
"s. c #706803",
"d. c #584831",
"f. c #4F5025",
"g. c #734125",
"h. c #794429",
"j. c #6C4F36",
"k. c #456520",
"l. c #4B6522",
"z. c #4D6C22",
"x. c #4E6B29",
"c. c #4B6426",
"v. c #526D23",
"b. c #5A6D25",
"n. c #536D2A",
"m. c #576828",
"M. c #4E7122",
"N. c #557525",
"B. c #537224",
"V. c #597426",
"C. c #567925",
"Z. c #597A25",
"A. c #55742A",
"S. c #5A752B",
"D. c #57782A",
"F. c #5B7A2C",
"G. c #567431",
"H. c #5D7C31",
"J. c #5E7730",
"K. c #5B6F30",
"L. c #62752D",
"P. c #607C2E",
"I. c #627D33",
"U. c #637735",
"Y. c #041E41",
"T. c #062B52",
"R. c #5D3A41",
"E. c #626763",
"W. c #56504B",
"Q. c #8D0405",
"!. c #86380B",
"~. c #943A0C",
"^. c #8D2E0F",
"/. c #A43A0D",
"(. c #A33A19",
"). c #B93811",
"_. c #A62F1C",
"`. c #884B0B",
"'. c #954A0B",
"]. c #9A4712",
"[. c #8E510D",
"{. c #A65812",
"}. c #B65D16",
"|. c #AD500A",
" X c #956306",
".X c #8A7305",
"XX c #B77507",
"oX c #AA6110",
"OX c #B66813",
"+X c #AF6907",
"@X c #895636",
"#X c #975638",
"$X c #8A4E2E",
"%X c #B05135",
"&X c #A56037",
"*X c #C74910",
"=X c #C36909",
"-X c #C97808",
";X c #D17111",
":X c #E47F09",
">X c #CB5238",
",X c #FB5815",
"<X c #AC6D44",
"1X c #9E5B51",
"2X c #E7724F",
"3X c #5D8132",
"4X c #5E802C",
"5X c #62822D",
"6X c #628A2A",
"7X c #638334",
"8X c #678937",
"9X c #658339",
"0X c #6A863A",
"qX c #6B8A3C",
"wX c #6A8835",
"eX c #72833C",
"rX c #07C115",
"tX c #759243",
"yX c #708B44",
"uX c #908302",
"iX c #AF9405",
"pX c #BEA603",
"aX c #CC9806",
"sX c #D69707",
"dX c #DB8F05",
"fX c #E89207",
"gX c #C1AB01",
"hX c #CFB403",
"jX c #F1B207",
"kX c #F0CE03",
"lX c #FFE505",
"zX c #BB8854",
"xX c #B08351",
"cX c #DA8757",
"vX c #C48C5C",
"bX c #DD9B6B",
"nX c #F29362",
"mX c #FAA06E",
"MX c #DBA46C",
"NX c #929090",
"BX c #B9B7BA",
"VX c gray77",
/* pixels */
">.n.V.z.>.w.S.w.v.v.9XF.F.e.N.y.>.w.w.7.t.B.r.V.7.9.7.5.7.r.7.9.r.q.7.7.r.e.7.e.z.N.z.e.=.r.M.D.e.r.7.e.r.A.#.q.q.7.e.l.x.A.A.z.",
"v.w.v.b.w.z.>.w.r.v.F.I.y.r.3XF.z.v.N.w.v.7.r.Z.0.r.e.N.u.9.=.u.e.N.e.r.r.z.A.7.M.e.r.z.*.+.D.z.>.#.#.e.q.n.,.#.#.l.@.@.A.x.G.-.",
"v.w.n.P.N.V.v.P.I.r.v.0.5.y.V.Z...t.H.H.N.N.r.r.u.r.9.r.r.N.r.e.q.N.e.#.e.M.z.q.9.r.r.u.9.#.e.q.r.=.q.z.l.D.v.#.[ ,.%.k.k.k.k.%.",
"v.w.y.S.b.S.P.I.t.8.y.B.r.0.r.' c d O.r.9.z.7Xy.9.r.u.r.7.u.C.A.r.p.z.r.H.D.=.q.7.B.9.9.9.7.#.=.l.-.q.z.w.z.A.#.| >.@.A.x.k.%.-.",
"n.t.w.y.v.N.P.S.N.P.Z.8.5.w.r.y uXlX4.O.y.N.u.B.r.9.u.C.u.M.N.F.B.u.e.z.z.e.q.l.*.N.u.9.} +.q.A.M.r.l.A.r.z.N.B.z.q.| #.@.| @.x.",
"p.B.B.N.y.y.p.0.8.V.P.w.9.y.>.h .XkXlXs.f.N.9.9.r.*.9.M.M.e.M.A.u.e.7.e.q.%.z.e.C.Z.u.u.*.#.7.e.7.B.e.u.r.N.y.N.B.z.z.z.k.....-.",
"r.V.Z.y.r.0.y.y.8.p.:.8.w.:.q.g iXaXsXaXy v.p.6Xu.u.M.C.N.B.N.M.5.u.r.x.e.k.H.q.r.5.9.a.M.A.A.k.r.3XD.r.B.7X0.r.z.B.N.q.e.-.-.| ",
"r.p.Z.:.5.9.r.P.V.B.} y.y.>.g gXdX=XoXp r.7.p.4Xu.9.e.9.z.M.z.7.u.u.e.=.#.z.F.z.e.9.N.Z.r.7.q.l.u.Z.N.i.p.Z.} ..0.r.4XF.M.A.z.=.",
"r.N.B.X.5.r.9.N.wX5.V.0. .g gXdX+X Xa y.} } @.B.r.M.D.e.i.e.e.N.Z.p.r.7.q.n.z.M.u.7.9.0.r.q.q.x.Z.0.N.B.B.B.} 0.0.0.Z.6Xy.w.9.z.",
"5XF.z.q.w.z.q.H.w.y.S...a gXdX+XXXa } 0.} 2.3.h D.B.M.e.e.=.-.i.C.*.N.M.z.>.H.z...S.S.v.w.l.yXJ.r.C.u.H.H.7.r.r.i.5.Z.7.v.S.w.l.",
"F.z.z.A.S.z.A.A.Z.>.q.p pXfX=XjX Xp 0.0.Z.$ kXuXh w.e.M.e.*.-.u.p.p.9X7.Z.{ v.z.w.z.w.q.n.n.c.w.e.B.M.M.z.v.A.A.8.Z.5X5...v.w.n.",
"..7.z.l.H.H.0Xk...w.j hXjX!.Y iXfXW t 5.p.& pXkXs z.=.q.e.e.M.C.9.7.r.C.9.e.l.z.z.H.1.v.S.n.v.@.C.Z.N.A.@.I.A.S.wXZ.y.5.V.z.<.n.",
"r.F.q.q.>.I.0Xl.9.7.j hXsXs O.s XX:X!.- h s.aXdX* l.N.q.q.H.e.C.w.} 5Xq.N.q.w.7.A.S.8.z.w.>.v.v.6Xu.F.N.x.A.F.I.Z.p.} 7.w.z.1.x.",
"Z.8.X.h q.#.qX7XF.z.1.p j 1.G.$.s '.;X`.J XX=XY g q.e.+.#.F.M.A.*.7XqXF.F.F.z.r.r.#.F.H.A.z.>.z.C.r.r.H.q.r.z.N.F.B.w.v.w.z.n.n.",
"Z.r._ =.#.| ..q.r.F.r.@.o.l.x.n.q.w ~.-X=X|.H @.l.r.%.e.A.M.e.=.7.M.r.B.S.7.F.N.r...N.q.#.q.S.S.u.9.B.r.q.{ z.w.5XB.z.z.z.w.x.<.",
"r.7.7.N.q.q.>.q.r.r.A.A.#.x.G.G.Z.y C +X=XaX4.y u.z.k.M.q.#.M.z.F.e.r.r.N.7.F.N.#.N.v.M.7.w.qXN.*.e.u.C.7.r.B.z.N.qXH.v.w.A.l.q.",
"F.7.9.B.#.l.M.N.q.H.H.N.q.x.l.G.x Y |.-XY '.-X`.y y 7.q.,.7.A.z.v.r.I.7.r.z.q.r.r.B.q.F.N.e.r.7.} 9.u.M.>.r.r.w.N.A.x.q.9Xn.q.c.",
"r.8.N.n.w.v.#.| q.B.7Xl.q.@.$.x.y  XjXY ' = +X=X X Xp e.e.H.9XH.z.7.q.r.} 7.F.e.=.M.F.8X3XN...7.7.u.p.e.7.7XB.B.>.>.G.I.0XB.1.#.",
"} 0.N.B.#.l.w.B.>.B.H.N.z.l.x.k.q.y d   #.>.= iXdXhXj z.D.7XH.H.9.>.9.#.q.v.r.7.*.N.F.D.D.F.D.M.r.9.9.} r.B.F.l.M.A.D.A.J.U.v.w.",
"9.v.S.r.q.q.r.r.#._ ..z.#.%.k.%.x.x.k.1.7.:.X hXhXXXs M.D.A.A.M.r.7.N.r.q.B.z.9.M.D.D.z.M.l.A.=.9.B.e.7.N.9.N.w.x.A.n.l.n.N.>.@.",
"r.F.q.z.7.z.q.N.r.q.l.{ ' ' | ` ,.k...} B.*.7.y : 2 R t z.q.q.r.r.9.I.N.B.N.F.N.M.D.e.#.-...M.e...F.M.B.u.9.B.v.@.A.H.k.z.l.>.>.",
"F.N.r.l.A.q.1.#.} >.r._ z.k.+.c.w.@.| z.0.{ 8Xp.D.z.* # : #.0.r.5.p.N.S.9XA.e.z.| N.z.z.z.z.e.-.q.H.C.F.B.r.z.F.H.c.k.l.A.w.7.7X",
"..z.z.H.l.z.q.N.r.X.r.r.9XA.q.G.x.c.G.z.a.p.7.5Xp.C.<.& O   f q.r.v.N.Z.D.r.q.q.M.D.r.z.e.-.k.M.q.e.q.r.Z.r...z.k.9XI.c.>.v.P.qX",
"F.z.q.#.q.J.N.x.w...9.q.r.x.k.#.l.n.B.k.B.a.5.5.r.Z.M.@.& E.NXt 1.q.N.H.e.B.D.H.H.e.=.l.z.-.z.G.k.M.z.r.7XF.r.r.k.k.,.| <.y.p.y.",
"q.r.B.,.| v.v.v.#.F.7.q.z.q.#.+.' n.9XI.r.p.u.a.C.0.*...n VXW.P w a z.V.p.7Xz.F.H...=.q.-.k.G.k.-.H.B.q.N.N.v.z.G.+.1.@.S. .y.P.",
"w.B.N.q.r.| >.M.B.z.0XB.H.=.l.=.+.' @.x.3Xr.r.4X9._  .o.  O <XzX@Xo x r.7.M.9.7.B.5.e.e.q.9.H.A.N.v.=.u.e.C.r.w.m.b.2.m.m.U.m.m.",
"..r.B.7.7.#.#._ #.#.A.M.N.z.z.H.x.,.%.| e.q.+.c.` 3 K 8 @ w j.z = H c o.q.p.B.C.M.C.r.z.e.q.q.N.w.>.q.q.e.e.e.w.b.L.2.2.2.U.m.K.",
"B.r.B.S.9...r...=.....+.7.q.z.N.@.l.G.q.q.$.O o   r P 0         9 ;X/.5 t r.r.u.=.9.M.N.z.q.q.H.z...e.e.M.H.B.w.t.P.t.2.2.K.m.<.",
"B.q.r.F.e...F.z.F.F.=.{ ....M.#.| G.v.q.$.  & 4 0 q L j.d.d.d.I . O Q.Q.V y M.9.*._ 8X*.D.=.q.H.S.>.r.z.u.A.e.#.1.w.3.2.m.m.m.c.",
"7.u.r.r.9.N.F.X.r.N.7.#.[ { X._ F.D.w.O.  O ^.2XbX2XnXmXnXbXcX2X>X,   6 Q.M p #.7.tXe.C.x.X.#.A.v.w.q.z.-.M.A.r.I.U.>.w.<.1.c.n.",
"N.r.e.F.F.e.9.9.M.N.M.N.=.r.*.r.A.H.' X @ g.>X2XvX#Xg.! ^.r 3 ( cX&Xw   + V < %.B.8XH.u.z.7.#.q.F.S.l.D.r.H.H.S.V.b.<.8.<.w.n.n.",
"r.a.Z.0.7.9.r.p.r.r.9.7.=.7.7.r.M.@.o # ^ <X<X_.P O   X r q o $ r $X&XP   .   t e.e.A.A.M.z.w.q.qXF.M.B.N.F.z.7.w.v.v.r.w.1.q.X.",
"u.0.4X0.7.*.M.4XB.Z.N.0.B.{ P.y.8.q , z (.#XP 8 7 % 7 7   X     @ O ^ %XS   m < - -.r.7.D.r.e.z.F.B.B.r.V.4Xe.#.N.V.9XZ.N.N.r.r.",
"u.N.p...X.r.0.F.8XF.r.r.7.P.7Xp.5.k % 1X$X! ; $ $ % 7 r     $ r ;   $ S S   G M , i -.M.9.#.=.0.8XZ.4X0.Z.p.{ r.y...4X8XB.r.u...",
"7.Z.B.} 7.u.9.B.7Xr.n.:.:.P.P.t.} a o %X%Xr % # % # z l #   7 l l e #   : $ + u rXi +.u.q.M.z.B.0.0.u.C.C.r.} y.9.N.7XC.*.4X{ 0.",
"5XV.r.0.B.0.N.Z.F...V.y.7.b.V.t.:.a P B ! L 8 % % e l ; .   % # U $Xe   X $   o ) f q.q.r.r.7X9Xp.p.p.Z.y.p.r.y.9.B.F.r.5.y.} V.",
"5.y.V.V.N.r.7XB.7.r.F.B.y.t.P.8.v.k g.P e l I r e l l $   7 % X P $Xr     q $   O.q.H.x.B.9.Z.C.i.C.u.0.5.P.P.S.3X4Xu.-.C.u.r.y.",
"8.7XV.V.r.......e.r.w.P.b.:.1.t.N.k g.( r 7 L K K l 7     . 7 r / g.#   @ 7   ~ d n.F.A.9.B.r.0.9.u.u.u.w.Z.A.S.3X3X*.=.l.z.>.>.",
"F.Z.8.V.v.7.9.r.7.r.y.n.L.b.:.<.=.l.k = / q % 7 7 ;   o e q q I &X^   $ L r   0 T = k.D.C.N.0.0.Z.u.C.F.V.q.#.S.D.e.+.e.>.x.1.w.",
"L.L.B.L.S.A.v.r.z.w.w.L.U.b.t.b.q.l.G.* / h.K % % % * r U U P L / 7   q I ! = . 5 T = : 9XF.7.0.M.e.M.A.8.3.q.n.H.+.[ -.%.<.<.:.",
"y.V.p.V.P...7.yXv.S.t.v.L.b.eXU.G.H.F.q.: I g.K g.@Xh.h.h.$X$X! # X % 7 P e   2 5 5 R `.9 B.5.p.e.M.M.v. .1.D.@.$.x.-.k.-.#.x.G.",
"V.b.y.r.:.b.qXv.y.n.y.y.b.v.eXtXL.w.t.t.1.: X P ( U l l / $XP 7 . % e 8 P ; 1 B M N 4 4 !.7 S.z.5.*.B.B.q.q.z.....G.M.+.8XA.B.q.",
"p.8.V.y.5.V.eXwXP.V.S.b.S.b.v.b.b.L.b.t.y.7.X w           o   o ; q P 8 .   4 B A J J M 6 R d t.u.p.0.r.#.l.7.=.-.....A.7XA.M.e.",
":.7.V.y.y.v.v.7.0XI.9XS.w.v.v.y.b.t.t.v.t...X BXW.7 % % # % 8 r @ I I     < M M F !.;XT 4 Z OXZ 9 7.0.h = X l.e.-.| [ [ 7XF.D.u.",
"..y.I.y.8.y.y.y.y.P.v.S.w.w.w.H.b.L.L.b.b.y.s n VXn   7 U   ^ $X. $ . o + 5 N B N R OX!.M 1 T ].R t o.Y [.@ z.=.#.=.+.#.%.B.A.r.",
"v.V.t.y.w.1.8.V.r.7.w.w. .r.n. .I.L.w.8.V.>.w.t NXn = X # d 9 0 7   X o < M B M M S ].R N M 4 5 T 0 H W $ & e.=.q.z.7.e.e.k.#.#.",
"v.P.w.y.y.y.y.8.8.y.r._ v.S.>.w.r.b.w.>.w.>.B.I.t : P 3 R OXE '.{.Z .   1 B M M Z !.].B 5 m M m 5 /.|.A f q.x.M.e.M.l.#.M.e.#.A.",
":.V.v.>.:.8.y.b.w. .r.v.qXS.>.H.w.:.b.qX7Xv.N.F.N.6.+ E 9 .     0 `.A X O M M M F {.S m E E M M m B D m t | | 7.-.x.N.k._ q.A.7X",
"F.V.V.7.y.v.v.n.V.:.w.P.y.v.v.7.w.w.w.y.S.V.7.r.] 3.o O 4 6 O     J ~.. . m M Z OX}.Q M OXoXM B m 4 V M f k.[ =.q.e.A.q.e.M.M.e.",
"y.t.L.V.7.N.y.y.>.r.7.w.N.v.r.9.7.w.7.t.7.r.5.O.O 4 J O Z W F 1 . H d 9 m 4 M N '.E !.E E N M M M 4 D M u q.#.=.#.#.+.| x...e.l.",
"7.n.S.r.y.y.y.N.V.V.Z.N.F.q.N.r.>...#.r.v.O.g z ^ 6 }.N ~.F F M 1     l E m < 4 4 m M ].].A N m 5 5 B 1 t q.#...z.e.%.e.H.e.z.M.",
":.v.S.r.1.>.y.w.1.0.F.N.8Xv.A.N.<.y.B.8.r.  j.xXxX3 }.W ^.^.C m 4 O     ~ /.5 O < 5 D N ].!.E F C 5 4 & o.x.q.r.q.e.q.q.k.=.q.l.",
"S.>.r.I.N.1.r.y.V.v.P.P.r.r.F.F.y.v.v.w.N.g j.MXxXj.~.).4 V A m 4 O t : 2 !.~.N < 4 B m N !.R }.{.N 4 y 9.M.q.@.=.M.-.G.D.H.k.+.",
"r.w.z.B.N.F.B.H.r.B.y.8.w.v.B.B.w.b.S.V.N.y.o.d.vXvX( ^.'.< < 4 < * A.w.- O !.*X6 < m 5 m m V `.'.N 4 y q.H.A.7.#.A.M.G.k.B.z.e.",
"v.7.M.A.z.H.B.9XV.w.V.w.8.y.7._ V.tX9Xy.>.p.F.O.z l z   Y 1 + . X =.C.q.p > o -X].+ O A 4 B V C A 5 5 u q.e.q...D.A...q.q.-.k.z.",
"S.l.M.z.z.7X7Xr.r.P.7Xr.t.8.y.V.y.P.P.0XI.N.p.r.' o.k.x   O * o...u.a.r.p b b 8 =X|.[.].Z 4 M B 6 5 V 2 t u A.M.e.-.#.q.#.{ +.#.",
"r.B.N.B.B.q.r.r.t.B.p.0.>.t.5.y.N.v.>.F.0XV.B.9.D.r.r.9X$.O.@.r.u.0.r.&., Y.Y.v s _.,X;X*Xm 1 5 4 m m !.4.@ A.7.#.#.#.q.r.+.q.#.",
"p.y.7X8.7.9.M.N.0.0.} y.p.:.p.y.e.r.N.z.B.S.v.5XF.B.r.r.S.w...v.4Xi.i.a > T.T.v > O 5 0 Z ^.5 4 5 4 m Z 9 X ....9.u.0.9.q.q.q.#.",
"0.p.p.7...9.7.N.Z.a.0.0.5.p.7Xy.r.+.D.F.z.| r.9XD.B.0.V.9._ y.r.i.6X6Xf ^.R.Y.o       >   ~.M 1 1 < A E + . #.w.9.9.Z.5XN.A.q.%.",
"y.Z.F._ q.r.A.M.7Xr.r.r.1.7XP.b.X.9.B.7.{ X.7X*.B.v.P.B.7.>.y.r.i.6Xi.f + $           ;.%.# W *XoX^.Q # y ,.X.r.r.r.5XP...z.#.x.",
"0.0.r.9.D.z.-.M.B.| 9.7.5.V.:.1.i.X.u.e.7.u.M.e.r.9.N.w.e.7.7.0.Z.6.5X-.w.@.k.q.' A.,.B.l.@.# 2 = # s D.G.q.B.r.r.r.V.>.q.A.q.l.",
"r.8.B.B.M.e.e.e.q.r.F.q.w.v.#.,.X.p.9.u.9.C.9.*.r.5.*.r.e...M.v.r.M.B.D.G.#.n.x.z.v.7.q.M.D.l.l.B.N.B.q.r.D.A.N.B.5XN.r.q.N.q.v.",
"M.N.7Xk.M.-.M.*.e.M.z.#.e.k.q.q.0.u.u.u.u.5X{ a.9.z.r.9.r.N.M.F.e.5.z.M.%.q.l.x.z.A.l.M.H.x.l.@.7Xz.H.w.1.9Xy.3X9XZ.7.X.N.q.k.l.",
"e.e.e.3Xk.e.=.+.A.M.r.r.M.z.l.x.u.i.*.u.M.M.r.N.=.B.z...q.7X7.A.r._ yXl.A.x.z.=.H.H.r.q.7._ A.A.Z.Z.r.7XN.r.F.F.r.y.} r.z.q.q.w."
};
