/* XPM */
static char *_41fee6d96904ec1a2152e22b0bc3221sNTHcEbSGuRP2UDl[] = {
/* columns rows colors chars-per-pixel */
"64 64 239 2 ",
"   c #020201",
".  c #0A0302",
"X  c #0C0B05",
"o  c #070807",
"O  c #140202",
"+  c #1D0201",
"@  c #140B06",
"#  c #1B0E06",
"$  c #150C09",
"%  c #1A0E0A",
"&  c #110708",
"*  c #0D1306",
"=  c #031C09",
"-  c #121305",
";  c #1C1206",
":  c #141B05",
">  c #1C110A",
",  c #191B08",
"<  c #010716",
"1  c #141013",
"2  c #230102",
"3  c #2C0302",
"4  c #2C0B03",
"5  c #220D05",
"6  c #330202",
"7  c #3B0203",
"8  c #3C0C04",
"9  c #380907",
"0  c #23140C",
"q  c #2B1A0E",
"w  c #271707",
"e  c #361807",
"r  c #2C1B12",
"t  c #2A1612",
"y  c #321C12",
"u  c #391E13",
"i  c #1B270A",
"p  c #1F2E11",
"a  c #23220A",
"s  c #272907",
"d  c #382507",
"f  c #24340B",
"g  c #283608",
"h  c #353906",
"j  c #3C2213",
"k  c #362516",
"l  c #283412",
"z  c #353A15",
"x  c #011531",
"c  c #07203E",
"v  c #363130",
"b  c #430303",
"n  c #4B0403",
"m  c #430B02",
"M  c #4B0D04",
"N  c #530302",
"B  c #5C0503",
"V  c #530A04",
"C  c #481707",
"Z  c #571807",
"A  c #551C11",
"S  c #630303",
"D  c #690803",
"F  c #760504",
"G  c #651A05",
"H  c #771A07",
"J  c #462707",
"K  c #5C2306",
"L  c #4B3505",
"P  c #5B3905",
"I  c #422415",
"U  c #452C1A",
"Y  c #4B2B1A",
"T  c #472616",
"R  c #572C1A",
"E  c #58331C",
"W  c #672708",
"Q  c #772A0B",
"!  c #7B350C",
"~  c #66331E",
"^  c #793414",
"/  c #712917",
"(  c #453826",
")  c #5D3D29",
"_  c #6C3B23",
"`  c #663C22",
"'  c #005801",
"]  c #2D4D02",
"[  c #2B4407",
"{  c #324D0C",
"}  c #354708",
"|  c #335304",
" . c #3B5A05",
".. c #35540B",
"X. c #3B550B",
"o. c #3B5B0D",
"O. c #365808",
"+. c #2C4313",
"@. c #2B4019",
"#. c #324315",
"$. c #364C14",
"%. c #39491A",
"&. c #365312",
"*. c #3A5513",
"=. c #3D5C13",
"-. c #3B531A",
";. c #3F5D1A",
":. c #2E520C",
">. c #3E610D",
",. c #3F6115",
"<. c #3E611A",
"1. c #3F5524",
"2. c #415E0E",
"3. c #425E14",
"4. c #425C1B",
"5. c #4A5D1A",
"6. c #425618",
"7. c #525E1C",
"8. c #4C4504",
"9. c #6D4604",
"0. c #42620E",
"q. c #446314",
"w. c #496517",
"e. c #466815",
"r. c #4A6A16",
"t. c #45641A",
"y. c #4A661B",
"u. c #46691A",
"i. c #4B6B1C",
"p. c #516C1E",
"a. c #54611D",
"s. c #4E711D",
"d. c #52721E",
"f. c #547819",
"g. c #716C02",
"h. c #455923",
"j. c #56492A",
"k. c #7B4325",
"l. c #7A442B",
"z. c #6F5235",
"x. c #456321",
"c. c #4A6622",
"v. c #4D6C22",
"b. c #4B6B27",
"n. c #516D23",
"m. c #5A6C26",
"M. c #536D2A",
"N. c #5B6B2B",
"B. c #546324",
"V. c #4F7122",
"C. c #557525",
"Z. c #537224",
"A. c #597426",
"S. c #567925",
"D. c #597A25",
"F. c #55742A",
"G. c #5A762A",
"H. c #56782A",
"J. c #5B7A2C",
"K. c #5D7C32",
"L. c #567431",
"P. c #5B6F30",
"I. c #606F2B",
"U. c #607C2F",
"Y. c #62762E",
"T. c #627D32",
"R. c #627735",
"E. c #123155",
"W. c #4D4C48",
"Q. c #757472",
"!. c #860402",
"~. c #900D06",
"^. c #87370B",
"/. c #963A0E",
"(. c #893710",
"). c #943C11",
"_. c #8F280C",
"`. c #A32F18",
"'. c #95440B",
"]. c #9B590A",
"[. c #964511",
"{. c #8C5B09",
"}. c #A6580A",
"|. c #A64812",
" X c #A85814",
".X c #B65713",
"XX c #A24A0B",
"oX c #B86606",
"OX c #BD7706",
"+X c #B66812",
"@X c #A76C09",
"#X c #804C2B",
"$X c #865333",
"%X c #99583A",
"&X c #9E4233",
"*X c #A95835",
"=X c #A6653F",
"-X c #D84610",
";X c #CD4E0F",
":X c #EB5C12",
">X c #C46907",
",X c #CA7708",
"<X c #CF700F",
"1X c #CF5338",
"2X c #B07548",
"3X c #98584F",
"4X c #E57051",
"5X c #08BC12",
"6X c #5D802D",
"7X c #5E8132",
"8X c #62822D",
"9X c #638334",
"0X c #65843A",
"qX c #6A863B",
"wX c #6B8A3D",
"eX c #698737",
"rX c #71893E",
"tX c #728E43",
"yX c #9D8E01",
"uX c #BB9805",
"iX c #B19003",
"pX c #D38808",
"aX c #CF8D0A",
"sX c #C3AC02",
"dX c #D6AF06",
"fX c #EEB507",
"gX c #EA9808",
"hX c #DECB02",
"jX c #EFCE04",
"kX c #BD8D59",
"lX c #DD8759",
"zX c #CA965F",
"xX c #EE905A",
"cX c #D49664",
"vX c #EE9366",
"bX c #E8A46C",
"nX c gray62",
"mX c #AEAEAE",
"MX c #C1BFC0",
/* pixels */
"3.m.F.c.3.y.A.y.c.n.eXG.J.w.F.s.3.p.y.t.y.n.i.S.q.e.q.q.w.i.,.w.c.u.,.w.i.u.q.u.v.V.v.u.q.i.V.H.u.i.q.t.c.F.3.y.q.t.i.c.v.V.F.b.",
"n.y.n.A.y.p.3.i.i.A.J.6Xn.s.J.J.c.p.m.i.p.y.r.J.i.e.r.Z.s.u.>.s.u.Z.i.u.i.v.F.,.V.i.i.i.=.o.H.v.q.o.=.c.t.b.q.=.*.b.;.*.b.F.L.x.",
"B.y.m.K.F.F.p.J.U.p.i.i.q.i.G.J.3.i.T.G.C.F.r.i.s.i.w.r.r.Z.i.u.u.Z.u.=.u.v.i.t.e.i.r.s.e.=.u.q.u.,.t.V.i.H.F.*.] 4.;.x.x.x.x.;.",
"n.y.n.G.m.G.U.9Xy.w.p.Z.i.i.q.s q h.G.n.w.i.eXV.q.r.V.s.w.s.S.F.r.Z.V.i.L.H.q.u.q.Z.u.e.e.,.;.,.c.,.t.v.i.c.F.o...;.=.n.b.x.;.<.",
"Z.i.y.n.n.Z.U.A.m.U.D.w.0.i.i yXjX8.B.T.V.Z.s.Z.V.q.s.C.s.V.H.H.C.v.u.u.F.u.q.b.,.Z.s.r.o.O.q.F.V.i.c.F.i.v.G.Z.Z.t.] ;.=.:.=.b.",
"d.n.Z.Z.d.p.m.r.r.A.T.r.q.p.i yXjXjX9.-.rXJ.e.r.s.,.r.V.s.i.Z.V.s.r.q.v.q.;.v.u.S.S.s.s.o.;.q.t.q.Z.u.s.i.C.p.Z.v.c.Z.v.u.&.=.=.",
"p.A.D.p.i.w.p.d.r.p.2.0.w...g uX,XdXaX, w.9Xf.6Xs.u.S.S.S.V.H.Z.0.s.i.v.t.v.K.q.i.q.e.d.Z.F.F.c.i.7XS.s.Z.9Xr.r.v.Z.H.w.u.<.t...",
"i.d.D.2.0.w.r.U.A.d.2.i.a.g sXpXoX].i J.s.q.d.J.s.e.u.,.v.V.v.,.s.s.u.<.=.v.L.v.r.r.f.S.s.,.t.b.V.S.S.r.d.D.O.2.e.d.J.J.V.F.V.=.",
"d.Z.d.O.0.r.w.C.eX0.A.3.s sXpXoX].s f.Z. .[ H.Z.s.V.H.i.s.e.u.C.D.Z.r.t.u.V.v.V.i.q.r.r.i.q.w.b.D.r.S.d.Z.Z.O.r.q.r.U.8Xi.y.t.c.",
"K.J.n.t.i.c.y.K.r.i.n.g sXpXoX@Xg ,.>.,.[ 8.&. .F.V.V.u.u.,.,.u.S.>.Z.s.i.;.K.v.=.G.G.n.y.c.tXL.i.C.V.K.K.q.i.i.r.r.D.0.d.D.y.n.",
"J.v.v.F.G.b.F.F.G...g sXgX<XdX{.g r.s.r., jXg.&.>.w.i.V.s.O.u.s.V.V.eXq.J.| Z.c.y.c.y.t.M.M.b.5.r.Z.Z.v.c.F.C.F.r.8X8X0. .n.y.M.",
" .q.v.c.K.K.0Xu.2.L dXfX^.9.sX<XW i s.e.* hXfX: u.v.,.<.u.u.V.H.e.w.r.C.w.w.i.v.v.K.3.M.G.M.n.=.S.D.Z.Z.=.T.Z.F.eXf.r.q.G.n.4.M.",
"i.J.t.t.;.K.qXc.w.h hXaXw p d iX<XQ s g g.aXOX* t.v.F.t.t.K.i.V.u. .9Xw.C.q.i.q.C.J.t.c.i.3.M.n.6Xs.J.Z.b.F.L.9XD.d. .q.y.i.3.b.",
"D.y.O.g q.=.wX9XJ.t.h h ..v.6.e }.>X9.K aX>XL %.u.u.u...=.K.V.H.q.9XwXJ.K.J.v.i.i.=.J.K.G.c.q.c.D.s.r.7Xw.i.v.J.J.Z.r.F.y.M.M.M.",
"D.i.] ,.=.&.o.w.n.G.6.&.4.b.M.1.w '.,XoX'.J =.v.c.u.;.u.V.V.v.,.>.V.i.Z.F.w.J.Z.w.o.F.w.o.t.G.H.s.r.Z.v.w.| i.y.9XZ.v.i.M.4.M.4.",
"p.q.q.C.w.w.;.q.i.v.F.Z.;.b.L.M.i G oXaXaX9.g w.V.V.c.v.t.=.v.V.J.u.i.i.C.3.J.Z.q.F.i.Z.w.w.wXZ.>.u.s.H.3.i.F.i.F.wXJ.n.y.G.c.y.",
"J.q.q.Z.=.c.Z.F.y.K.K.F.t.b.x.#.P }.,XJ }.,X9.i f o.<.t.<.t.V.v.n.i.K.q.i.v.w.i.i.Z.e.J.H.i.i.q.O.e.s.V.q.i.i.y.C.F.v.t.0Xn.t.M.",
"i.e.C.m.i.v.=...q.F.K.v.t.*.;.* @XfXL #.4 OXOX].{.g v.u.u.K.qXK.Z.q.u.i.o.q.H.u.,.V.J.0X7XV.o.q.q.s.V.r.q.9XZ.n.3.3.F.0XqXM.6.*.",
"O.r.F.F.=.c.w.V.q.V.J.F.v.b.b.-.s d   q.X.s OXpXsX} q.i.F.9XK.K.q.o.w.,.w.v.i.,.>.C.J.H.H.J.H.s.r.r.e.O.i.Z.D.c.V.F.H.M.J.R.n.y.",
"q.d.A.i.y.t.i.i.o.] o.c.=.=.x.;.c.h.x.c.r.  hXfX@Xi v.v.H.F.v.Z.i.w.F.w.w.Z.V.e.v.H.H.v.v.i.H.<.u.Z.e.q.C.r.F.t.b.F.M.b.M.F.3.o.",
"i.G.t.v.q.c.i.F.i.w.u.....:...[ 4.y.o.O.Z.{ s w e Q i J.v.w.i.y.i.q.U.C.Z.Z.J.F.V.H.i.=.,.o.v.i.*.J.V.Z.s.e.Z.Z.*.M.K.t.M.y.q.3.",
"J.C.v.c.F.t.q.o...q.i.] v.x...b.t.-...Z.r.| J.Z.x.# @ p y.3.r.i.q.d.C.J.9XF.v.i...C.v.v.v.v.u.<.e.J.S.J.Z.s.n.J.L.b.x.b.M.y.w.9X",
"o.v.V.K.c.n.t.F.v...i.i.0XF.t.L.b.c.H.c.d.s.e.8Xd.3.@ @ o l A.r.i.Z.C.J.H.u.u.i.V.H.u.v.u.<.x.V.t.t.t.u.A.i.o.c.i.0XR.b.2.n.D.tX",
"J.v.w.*.t.G.F.b.w.=.w.t.i.b.c.&.c.M.F.i.d.f.0.0.r.S.&.o Q.Q.l r.i.i.Z.J.w.Z.H.L.K.t.,.v.v.<.b.F.v.V.v.v.9XJ.i.i.x.h.;.&.5.p.p.p.",
"t.i.F.3.| F.v.v.q.J.q.w.v.u.;.&.} M.0XK.i.d.r.D.D.r.[ W.MXW.j > z Z.A.J.s.9XV.L.J.o.,.<.q.c.L.x.t.K.Z.u.Z.H.Z.c.L.&.5.*.G.6.p.U.",
"w.Z.F.t.v...;.Z.i.v.qXV.J.<.w.q.*.{ =.b.K.4.3.n.o. .o.X > 2XzXz.o #.V.y.q.i.r.e.Z.q.u.u.t.t.7XF.Z.v.q.V.i.C.i.y.p.A.7.B.m.Y.7.m.",
"=.i.Z.q.q.o.,.] o.o.F.V.F.i.v.J.b.t.$.[ $.% u y - -.*.} z z.k 6 d z 6.y.i.Z.V.D.s.S.i.s.u.t.u.H.t.3.,.u.,.s.i.i.m.Y.7.7.7.P.N.P.",
"d.i.V.G.w.o.c. .q.&.o.o.q.w.v.F.*.1.$ o   u R u O     : +.: q _.<X(.2 f i.i.s.i.,.e.V.Z.v.t.t.L.c.o.x.e.V.J.v.y.B.U.7.7.B.N.N.c.",
"Z.w.i.K.w.o.J.v.J.J.=...o.o.V.o.[ o X 3 q 0 I ) ( j.) r   f g 9 !.~.~.b l v.s.w.>.| 9X,.F.,.t.K.G.q.y.v.i.H.i.3.3.a.6.7.B.B.N.c.",
"q.v.V.r.q.Z.J. .u.F.t.>.] | X.[   o H 4XcX4XvXbXvXbXlX*X+   o 4 b N !.!.2 q.i.e.e.tXu.S.v...,.Z.n.i.t.Z.<.V.V.i.9XI.3.y.5.4.c.M.",
"S.r.e.S.J.u.e.e.V.Z.V.Z.>.v.} @ @ _ 1X4XzX%Xl._ _.T 0 &X1Xt     . 7 S n + f w.i.Z.9X6XV.V.q.*.i.J.G.t.H.v.K.K.G.m.m.5.w.5.y.M.N.",
"i.C.6Xr.e.e.i.V.s.i.e.q.,.&.- $ E 2X2X`.K % o & u t   U xX2Xr & t O 3 3     o.u.i.u.F.F.v.v.y.t.wXK.V.n.C.J.v.q.i.p.Z.c.y.q.q.X.",
"i.r.8Xe.0.q.s.9Xd.6XZ.w.F.a 1 k `.*XY r 0 % 0 0   .   % j l.%Xq %   6 O 2 S s l w.q.i.t.H.u.i.i.J.s.Z.i.C.J.i.=.Z.A.9XJ.F.C.v.i.",
"d.d.d.0.O.u.r.D.eXJ.r.i.q.z > 3X&X^ > O % % % u .   % ; o . $X$X. X 2 . 2 ~.7 = p q.t.V.t.o.,.u.9X6X6Xr.D.d.| i.i.2.7XeXd.i.s. .",
"e.J.d.O.q.s.e.Z.9Xi.Z.2.o.z   &X3XU 0 % > % y j > . 0 j #   / 1X0 . X   %.# p 5X= <.t.v.q.V.V.Z.r.r.s.D.D.i. .p.e.S.7XS.0.J.| r.",
"8XZ.i.i.Z.r.Z.H.J.=.Z.p.5.z U Z / U t % % r I 0 .   ; t Y j 9 A o X X   ;.1.= ' +.;.u.t.i.s.7XqXd.Z.d.D.p.d.i.d.w.Z.J.r.,.d. .A.",
"0.p.d.A.F.i.9XZ.q.i.G.C.i.s _ Y r j R u y I j %   ; > X E ~   > @ r - 4 w v.1.$.e.<.K.v.Z.u.D.S.s.f.s.i.0.U.G.G.0XH.V.e.S.i.p.p.",
"w.9XG.A.i.o.>.o.e.i.w.T.N.a _ l.k 0 I T I I 0     . 0 y ~ R   . @ r o 8 '.q t.t.c.L.K.Z.w.Z.r.r.u.s.V.r.r.D.G.J.6XK.>.=.i.v.3.3.",
"D.Y.r.m.n.q.w.i.3.p.c.F.A.B.a 0 ~ r $ 0 0 0     y q y Y *Xj.    . 0   2 G W - h.b.x.v.H.H.S.e.r.S.s.S.J.A.3.3.G.H.<.O.e.3.M.3.y.",
"I.G.m.U.G.n.Z.i.p.y.i.I.Y.I.7.> k.k.j > @ $ @ y R R T T _ t   0 I ~ > + 2 9 W , * ;.v.H.wXJ.0.s.V.u.V.H.5.2.5.M.7X&.:.<.;.t.5.6.",
"p.A.p.A.U.o.w.wXA.G.y.B.I.A.R.Y.: Y k.j k.$Xk.k.k.l.k._ 0   # q Y j . 2 8 6 m C Q y F.t.u.S.q.s.u.v.V.m.X.5.G.*.;.b.<.x.<.=.b.P.",
"A.A.p.p.2.m.wXm.i.m.n.p.m.n.tXtXN.: @ T k.E j k ~ %XE q   $ r q I 0   b N n b 3 m Z ; , h.e d @ X ; 5 @ g u.v.O.=.F.V.=.0XH.V.w.",
"D.r.n.p.2.A.qXeXU.n.G.m.I.A.n.m.m.N.@ 1 &     . . &   . # q U q @   O b Z Z K 4 2 4 [.Z J +X).(.W C /.'.e z ;.=.<.=.o.V.0XH.V.u.",
"2.2.G.p.p.n.p.w.0X9X0Xm.w.n.n.p.m.c.: mXW.k ; @ $ ; 0 y @ Y E .   O 2 7 Z (.,X/ 6 3 Z (.Q m D Q (.Q S Q ^.j o c.<...] :.K.J.H.V.",
"2.n.T.p.w.y.p.p.p.Y.c.J.y.y.y.J.m.G.U., nXmX< $ E   Y $XO 0 X &   O 6 7 M Q <X! C 3 + n B n n 9 N S S B H >XJ q.=.,.o.=.;.F.Z.i.",
"n.A.y.p.y.w.y.A.p.3.y.n.X.i.m.o.R.Y.a.5.i   @ X # w w e ;   X X O 7 n n n Z [.Q n G Z 6 n n b 7 b n D S D M $ q.t.c.t.u.u.u.=.*.",
"p.U.i.p.p.p.a.w.r.p.v.] n.G.3.y.p.n.y.5.y.i T 4 W +X! [.].C &   2 N n n m ^.[.V n >X+Xn n n 3 7 N B D B B 2 +.Z.u.V.i.*.V.t.,.F.",
"3.m.m.3. .w.p.A.r...i.n.wXG.q.T.5.3.n.M.B.4.O Q e O     e ).C X + 6 b n Z  XK b M Q M n N b 9 7 N D D S 6 X [ ,.<.b.F.x.] t.H.9X",
"G.A.A.3.p.n.n.n.G.2.p.U.p.Z.n.q.c.6.%.    .   O e 4 O     C ).. + 6 7 M  X.X! W (.[.Z n b n n 7 b n D B O +...q.t.t.F.q.u.v.V.c.",
"p.p.U.A.w.A.p.p.3.y.q.y.Z.i.i.w.$.  2 W 7 2 8 3 7 _.G 3   I J 2 S 7 6 b  X^.(.|.'.[.! Q G V 6 7 b n F b - $.=.=.=.=.&...v.=.u.i.",
"5.n.m.p.p.p.i.A.A.n.J.Z.J.w.6.+.0 ) 5 +XG m [.D N D H b 3 : : 7 _.! 7 2 8 7 7 Z 7 Z [.Q .X|.9 6 7 B F 6 +.i.,.o.v.u.<.i.K.u.v.V.",
"o.n.J.i.3.3.p.y.3.p.J.F.eXn.* j.2XzX0  XQ D /.(.b b 7 9 6 h #.  5 |./.7 . + b 6 b 6 3 n [.].n 6 7 N F 6 +.V.u.c.t.u.<.t.c.,.t.c.",
"G.3.c.K.F.q.i.p.A.n.U.T.y.y.h.j.cXzXz.! ;XN N Z b 7 6 O 5 6...*   w (./.M + 2 3 b N 6 n M Z b 7 N S F 7 : ;.t.o.;.F.t.F.H.L.v.o.",
"i.i.Z.V.F.J.n.K.p.n.p.w.y.Z.p.-.( kXcXl._.XX8 2 3 3 O +.h.t.;.$.-   O (.;XQ 3 O 2 7 N b n M b 7 N B B B O z F.,.=.V.v.H.x.V.b.t.",
"c.w.V.Z.i.J.F.eXA.y.G.y.r.y.w.] 6.k U (   P 4 2 2   { q.F.t.3.J.| :   O P -X.XK 3 O n N N N b 7 N b 6 N 2 #.y.*.H.V.o.t.<.,.u.c.",
"J.c.v.V.c.eX9Xi.i.G.T.p.y.r.p.A.n.h.%.h.%.  . O z -.7XZ.Z.K.L.V.0.f   < < m pX:X}.W 2 6 7 6 b 6 b 7 2 6 6 , t.n.x.t.;.u.=.:...<.",
"i.Z.F.Z.F.w.i.i.p.n.d.r.2.w.w.p.C.v.q.U.qX-.$.$.H.i.v.9XJ.c.i.i.d.i 3XW.x < a `.:X XC + 2 Z W M 2 M ).).Q . * q.,.=.=.w.c.=.<.;.",
"d.p.8Xr.,.e.V.S.p.r. .s.d.2.d.p.t.u.Z.c.Z.G.Z.T.G.Z.i.i.F.w.o.p.6Xi v -.i c x 3 m <X;X! Z |.-X;X XZ J e m }.L >.e.s.e.w.q.e.u.&.",
"r.d.p.q.o.e.,.Z.D.f.r.r.2.A.T.m.i.o.H.K.v.X.i.9XJ.n.i.G.q.| n.y.f.f.p.s.a   E.E.< e ~..X+X5 8 e J a h.*., J 5 u.e.q.D.8XJ.F.t.;.",
"p.D.J.] u.i.F.V.9Xi.i.i.2.9XD.m.O.e.V.e.| O.8X0.Z.Z.U.Z.2.2.p.r.r.eXr.r., `.E.x < < . # d [ [ h.*.=.G.J.c.-.[ i.r.i.8X9X .v.=.v.",
"e.r.i.y.F.u.<.V.Z...r.q.w.A.3.3.s.>.s.r.q.s.s.r.r.w.Z.r.q.q.q.i.S.>.0Xq., 4 X     o     * y.L.Z.i.S.w.9XK.y.Z.v.i.i.D.0.w.F.t.x.",
"r.r.Z.Z.H.u.u.v.u.i.J.u.w.c.;.q.| f.e.r.w.S.e.>.i.q.,.i.i.o.Z.v.r.Z.V.H.G.;.F.b.c.n.q.t.v.F.b.b.d.A.Z.i.t.H.F.C.p.9XC.i.t.F.t.M.",
"V.V.7Xv.v.<.V.=.u.V.V.&.w.i.t.t.r.s.s.s.s.8X| C.u.s.r.e.v.Z.V.J.r.,.s.V.;.t.c.b.n.F.i.n.J.v.c.*.6Xr.K.w.4.9Xi.T.eXJ.q.| F.i.t.x.",
"u.u.u.7Xu.<.,.o.F.v.i.c.v.b.c.b.s.s.>.s.V.V.i.C.o.Z.V.o.u.7Xt.Z.i.] tXc.F.v.c.3.G.K.c.t.q...F.F.J.U.i.9XH.i.J.J.p.i.X.i.i.t.q.c."
};
