/* XPM */
static char *a65c3a5a16f74c4fca6747327a753f75AGuRmYqWtpPSiqgR[] = {
/* columns rows colors chars-per-pixel */
"64 65 240 2 ",
"   c #010101",
".  c #0B0202",
"X  c #0C0B04",
"o  c #020209",
"O  c #070A07",
"+  c #130302",
"@  c #1C0302",
"#  c #120A05",
"$  c #1C0B04",
"%  c #130C09",
"&  c #1A0C0C",
"*  c #0C1107",
"=  c #191303",
"-  c #1B120B",
";  c #151806",
":  c #030A13",
">  c #171818",
",  c #0F1219",
"<  c #230302",
"1  c #280804",
"2  c #330101",
"3  c #3B0402",
"4  c #360804",
"5  c #2C150C",
"6  c #271709",
"7  c #381907",
"8  c #2B1A13",
"9  c #391C13",
"0  c #1D2B0B",
"q  c #192608",
"w  c #132319",
"e  c #26290A",
"r  c #372508",
"t  c #23330C",
"y  c #26390A",
"u  c #252B13",
"i  c #372618",
"p  c #2D3D14",
"a  c #243314",
"s  c #363114",
"d  c #031627",
"f  c #071A35",
"g  c #373939",
"h  c #312E29",
"j  c #1B282E",
"k  c #430204",
"l  c #480402",
"z  c #560703",
"x  c #471A08",
"c  c #591907",
"v  c #581C11",
"b  c #660603",
"n  c #681905",
"m  c #781A07",
"M  c #740B0A",
"N  c #442507",
"B  c #582509",
"V  c #472919",
"C  c #532C1A",
"Z  c #58331D",
"A  c #50380D",
"S  c #642808",
"D  c #683409",
"F  c #763705",
"G  c #60331B",
"H  c #6C2915",
"J  c #563725",
"K  c #4A392C",
"L  c #663A22",
"P  c #713F24",
"I  c #0A5409",
"U  c #2D4C02",
"Y  c #284308",
"T  c #324C0C",
"R  c #314E03",
"E  c #2E5207",
"W  c #335405",
"Q  c #3A5A05",
"!  c #35540B",
"~  c #3A550B",
"^  c #355A0C",
"/  c #3C5B0D",
"(  c #375804",
")  c #2F4014",
"_  c #314314",
"`  c #364C18",
"'  c #3A5513",
"]  c #3D5C12",
"[  c #3E5C1A",
"{  c #3A5416",
"}  c #3E600D",
"|  c #3E6214",
" . c #3E611A",
".. c #03720C",
"X. c #4B4902",
"o. c #415E0E",
"O. c #42560F",
"+. c #425E13",
"@. c #435D1B",
"#. c #4B5D1B",
"$. c #495E15",
"%. c #525E1C",
"&. c #564505",
"*. c #724F09",
"=. c #41620E",
"-. c #41680F",
";. c #446314",
":. c #496517",
">. c #466915",
",. c #496B16",
"<. c #45641A",
"1. c #4A661B",
"2. c #46691B",
"3. c #4B6B1C",
"4. c #51641D",
"5. c #516C1E",
"6. c #4E711D",
"7. c #4E7114",
"8. c #52721E",
"9. c #547819",
"0. c #6D6901",
"q. c #797301",
"w. c #4E5329",
"e. c #69432C",
"r. c #794628",
"t. c #755437",
"y. c #456421",
"u. c #4A6622",
"i. c #4D6C22",
"p. c #4E6C29",
"a. c #516D23",
"s. c #5A6D26",
"d. c #536D29",
"f. c #576828",
"g. c #4F7022",
"h. c #557525",
"j. c #537224",
"k. c #597426",
"l. c #577825",
"z. c #597A26",
"x. c #55742A",
"c. c #5A752B",
"v. c #577829",
"b. c #5B7A2C",
"n. c #567331",
"m. c #5D7C32",
"M. c #5B6F30",
"N. c #62752D",
"B. c #607C2E",
"V. c #627D32",
"C. c #637735",
"Z. c #606F2A",
"A. c #3D3947",
"S. c #062F56",
"D. c #4C4C4C",
"F. c #535353",
"G. c #5D5E62",
"H. c #5C6061",
"J. c #67686A",
"K. c #6D7375",
"L. c #797878",
"P. c #910D06",
"I. c #AB1E02",
"U. c #892A0A",
"Y. c #962C0C",
"T. c #8A2B15",
"R. c #A33808",
"E. c #C3380C",
"W. c #CA300E",
"Q. c #995507",
"!. c #964907",
"~. c #B34C0E",
"^. c #8C7F02",
"/. c #947F03",
"(. c #936706",
"). c #BC6A08",
"_. c #AA6F05",
"`. c #945232",
"'. c #894C31",
"]. c #86623E",
"[. c #AE643F",
"{. c #A44B2D",
"}. c #C47208",
"|. c #CC700B",
" X c #DE4E20",
".X c #8B6643",
"XX c #946E4A",
"oX c #A47A54",
"OX c #B1744B",
"+X c #DD734D",
"@X c #10971E",
"#X c #5E8132",
"$X c #5E802C",
"%X c #61822D",
"&X c #65882A",
"*X c #638334",
"=X c #688437",
"-X c #678837",
";X c #64833A",
":X c #6A863A",
">X c #6B8A3D",
",X c #6A8B36",
"<X c #72833C",
"1X c #759243",
"2X c #708B44",
"3X c #998A01",
"4X c #BFAE00",
"5X c #C38A07",
"6X c #D89D06",
"7X c #D88306",
"8X c #E58C08",
"9X c #EEAF06",
"0X c #F6D404",
"qX c #EECF02",
"wX c #FFFC05",
"eX c #B68657",
"rX c #AE8356",
"tX c #C38A5D",
"yX c #CE9569",
"uX c #FF9D6E",
"iX c #E9B477",
"pX c #F2A86D",
"aX c #7A7E81",
"sX c #929294",
"dX c #898A8B",
"fX c #9F9DA0",
"gX c #B8B8B9",
"hX c #A4A7AA",
"jX c #D3C6BD",
"kX c #C4BFC3",
"lX c #CBCBCB",
"zX c #C7C6C6",
"xX c #D8D8D8",
"cX c #E1E0DE",
"vX c #DFE1E0",
"bX c #E5E4E3",
"nX c #EDEBEE",
"mX c #FCFBFC",
"MX c #F6F5F3",
"NX c #F7EDE3",
/* pixels */
"+.d.k.i.+.:.k.1.a.i.=Xb.b.:.h.3.+.4.1.$.5.d.i.h.;.2.;.;.;.3.;.:.3.2.;.;.3.2.;.2.i.j.3.2.| 3.g.v.2.3.;.2.3.x.] u.;.<.u.u.u.x.p.g.",
"a.1.a.s.1.i.+.a.4.a.b.b.j.3.m.b.a.i.d.:.3.:.,.b.,.,.,.j.6.:.| 3.2.j.,.2.i.i.x.| g.3.u.6.] ^ v.i.;.' ] 3.<.d.;.] ] u.] ] p.x.n.<.",
"a.1.d.V.k.k.a.B.V.5.5.3.=.3.l.b.] 1.*Xc.v.j.3.,.6.3.:.2.2.z.3.2.2.j.2.] u.g.i.;.2.3.6.3.>.' 3.<.u.] <.i.u.x.d.] T @.[ y.u.y.y.[ ",
"a.1.a.k.d.k.B.V.3.:.i.j.3.3.3.W b.<Xk.5.:.3.*X8.;.3.6.6.;.6.l.z.2.8.j.3.v.x.;.2.;.g.>.>.>.;.| ] i.| 2.i.:.i.x./ ! ] ] p.p.y.[  .",
"d.4.:.a.a.k.B.k.s.B.B.:.o.:.3.;.s.V.>XB.g.h.7.l.6.:.6.j.6.g.v.b.l.3.2.3.p.2.;.i.} j.6.,.Q ^ ;.x.i.2.3.x.u.i.v.a.a.<.E [ { T [ p.",
"j.8.j.j.5.5.k.:.,.9.B.:.:.5.=.5.k.5.+.=X1Xb.;.2.2.} ,.g.g.3.p.j.6.2.;.3.<. .p.<.z.z.7.g./ ]  .2.;.j.2.i.2.j.5.h.a.i.i.a.2.^ ^ ] ",
"3.k.z.5.,.,.5.8.:.5.o.:.,.o.5.5.5.5.z.:.2.%X8.%X6.6.l.l.l.g.x.g.;.7.2.p.<.i.m.<.3.;.>.9.j.x.x.u.6.#Xl.6.h.*X,.3.i.j.v.<.2. .2.! ",
",.h.l.o.=.:.3.B.k.8.o.5.5.:.B.5.4.;.5.z.h.;.6.$X6.2.2.| g.g.i.| 6.6.2.| ] i.v.i.,.>.l.z.2.<.y.u.g.z.l.,.9.z.Q / ,.7.z.b.j.x.i.] ",
"3.h.h.^ ;.,.>.k.,X:.h.:.o.V.B.j.} } z.6.Q ( z.j.2.g.v.2.6.>.2.l.z.j.3.;.1.g.p.j.6.;.>.,.i.;.<.u.v.6.l.8.j.j.Q ,.:.3.B.%X,.:.:.u.",
"V.b.5.;.1.i.:.m.:.:.b.+.1.x.u.m.| | } >.} *Xz.Q b.j.g.2.2.| | 2.l.} j.g.3.] b.i./ c.c.a.1.u.2Xm.2.j.6.m.m.;.3.3.3.-.z.=.5.N.1.i.",
"b.3.i.x.c.p.x.x.b.+.,.;.p.m.x.] | 6.7.,.z.-X$Xj.o.<.2.g.g.^ >.6.8.8.-X:.b.W j.u.<.i.u.<.f.d.u.1.,.j.g.p.i.a.x.x.-.B.%X:./ a.1.d.",
"^ ;.i.u.m.b.;X2.o.:.i.<.u.p.u.u.v.6.6.>.9.7.,.>.3.3.|  .2.2.g.v.<.;.2.j.2.<.3.a.i.m.$.a.b.d.a.{ l.z.j.x.] V.x.x.,Xz.,.-.k.i.@.d.",
"3.b.;.<.] V.2Xu.;.;.,.<./ <.n.p.2.#Xl.6.8.,.} h.<.p.x.<.2.m.i.j.,.^ %X<.h.<.3.+.j.b.:.i.1.@.i.a.%X6.z.x.i.x.b.V.b.8./ ;.:.a.@.u.",
"z.3.Q y ;.] ;X;Xb.i.<.;.] i.n.@. .l.,X#X,.,.l.b.,.1.<.^ ] v.g.x.=.*X>Xb.m.b.i.3.3.] b.b.x.i.$.a.z.7.3.m.<.3.i.c.z.j.:.a.1.a.d.d.",
"z.3.U ] ] ~ ' <.i.b.i.<.@.p.p.d.l.b.-X3.6.,.6.3.u.,.] 3.i.x.p.] =.g.3.j.v.:.b.j.:.] j.<./ <.b.v.6.,.j.g.<.W i.:.%Xj.i.3.i.1.f.y.",
"5.;.;.x.<.<.| ;.3.3.x.x.] u.n.n.n.>.3.>.6.7.6.:.g.i.2.p.<.] g.i.b.3.3.3.j.+.b.h.+.x.a.g.;.:.>Xd.} 2.3.l.;.3.j.i.x.>Xm.a.u.x.u.<.",
"b.;.;.j.+.1.j.x.3.b.m.x.1.p.u.n.<.] / 3.l.j.;.' Y T y._ Y ` ` ` j.5.V.;.i.3.e z 2 . s e.K ' 3.;.Q >.6.g.+.3.3.:.x.x.d.<.;Xd.@.i.",
",.,.l.j.1.a.] ! ;.x.m.i.;.' [ p.<.| Q 2.;.y `   0.r 0 % V 8 O   t y :.3.t q U.W.l 5 iXiXt.* / <.;.6.6.2.;.*Xj.j.+.+.x.;X>Xa.$.' ",
"^ 3.j.d.] u.<.j.;.g.b.x.i.p.i.@.d.| y.t h XXe.% qX0XX.  C &   L .X  t q     Y.n w eX].9 J s { g.2.,.>.Q 3.j.x.3.j.x.n.p.M.m.a.y.",
";.5.l.a.<.<.1.3.' U / i.] { y.[ p.u i oX+XuXuX% 4X9X0XD   $ 5 L OXe.    . 2 W.c > t.  . e..XX ;.>.j.2.;.h.:.v.3.i.d.x.i.x.x.$./ ",
"3.b.<.i.;.i.1.x.3.;.,.! E T E Y N T.'.OX{.v 8 3X5X).5Xe   % L '.G `.+ . < z z R.4         8 [ 2.] z.g.j.g.>.d.a.] x.m.y.a.u.$.] ",
"b.h.3.u.x.<.;.' / ] 3.U p.y.! w.9 +XJ + ; o 0.6X)._.+ A.yX4 J `.OX5     . + @ 1 Y.P.Y.$ O [ u. .<.m.l.b.j.6.3.m.n.u.y.y.d.1.:.*X",
"/ i.a.m.3.i.<.x.3.~ u.3.-Xn.@.8 OXZ %     3X6X).Q.r o C  Xk & tXe.  h hX  < @   $ 4 z $ [  .2.p.<.2.<.3.h.3./ i.u.C.C.p.+.a.b.1X",
"b.i.<.' <.b.x.p.,.] <.2.2.i.{ & '.C     ^.6X}.5X&.O & & % _.0.oXi : gX> + + @ #     X [ i. .2.n.u.g.i.3.*Xz.3.3.p.y.@.~ @.5.5.,.",
"<.3.x.@.! a.a.j./ c.;.<.i.<.% H 6 # = 3X9X!._.6X!.+   6   0.wX&.  K.xX  O < 3 2 + Y  .|  .i.x.y.<.m.j.<.x.v.a.a.n.{ $.' c.+.5.N.",
":.j.h.<.i.! +.p.a.g.:Xj.m.| e T.x X X.0X5X$   *.|.Q.+   ; 3X9XA & xXfXj o   < @ ; ~ i.:.;.<.m.v.j.i.;.g.6.j.3.:.4.s.%.f.f.M.f.f.",
"] 3.a.:.;./ ;.U / / x.j.x.i.a.u M q ) X.X.6 6 o *.}.!.7 Q.9XQ.X oXjXH.zXF.>     y v.3.7.i.;.<.v.;.+. .2.| 6.2.,.s.N.%.%.%.C.f.M.",
"j.,.j.x.;./ 3./ ;.] ^ ~ ;.:.p.i.o   u <.X J 5 X   n }.}.R.D A % oXNXsXxXmXlXD.  4 u ) 8.i.<.y.n.i.] 2.2.i.b.p.1.a.N.4.%.%.M.f.u.",
"j.<.3.m.<./ b.3.v.m.| ~ / ] p./ 0 ) ` <.0 X 8 6     !.}.8X(.6 X 8 zXlXlXxXmXvXJ.V c F 0 x.| <.b.k.+.3.i.2.v.2.+.#.4.O.4.f.f.f.u.",
";.6.6.3.:.j.b.^ 2.x.;./ U W ~ R n.m.;.;.` O 9 V = F ).Q.D 8XQ.=   hXsXzXzXxXlXbXj + H Y.s ^ +.x.a.u.<.a. .g.x.3.V.N.O.#.#.O.u.d.",
"h.,.2.z.z.>.>.>.j.j.g.l.| 6.] i.v.#X] ] 3.[ % - = 9X_.&   F 8XQ.(.w.sXsXlXlXgXvXzXK.  S Y.0 ' 2.m.x.3.x.i.m.m.k.k.s.#.1.#.<.f.d.",
"7.j.b.,.>.2.3.g.6.2.;.;.| ;.;.,.6.g.2.j.,.3.@.* . e =     X (.7X9XV hXdXdXgXbXzXMXmXK.  c D t <.>Xm.g.a.j.m.g.;.<.a.a.i.:.:.<.' ",
"3.,.%X>.;.| g.*Xg.$Xh.:.j.W B.5.>.,.a.j.6.l.;.n.*   o C J   q.qX5Xi hX> , dXnXnXzXvXxXF.  x S u b.g.x.3.k.b.,.+.h.v.*Xb.h.j.i.,.",
"8.8.8.o.( ,.>.z.-Xz.3.3.;.N.*Xj.;./ 8.b.<.Y n.m.'   9 L O - = * % Z i J.> % dXmXMXxXvXgX, 6 S   p z.b.>.z.8.W 3.3.o.*X-X8.2.3.=.",
">.z.h.^ ;.6.>.8.*X2.a.o./ B.B.4.Q >.:.2.^ | v.;.'   C e.. C V N B i G K H.    L.mXMXbXlXg g   O   t +.z.z.3.Q 3.:.h.*Xv.=.b.W ,.",
"%Xk.3.,.j.,.j.b.b.o.k.5.:.k.Z.:.o.;.,.>.j.b.-X3.y.5 P   8 H ~.~.Q.X 9 r.1     > L.dXbXMXvXg   S.d 6 1 N.,.j.5.s.:.g.z.3.=.5./ l.",
"=.5.k.k.x.3.*Xj.:.3.b.j.5.5.N.$.5.j.:.h.g.#Xg.3.x.s e.  e.~.m         V 6 * g >     K.mXkX    f d I.n 5.o.N.m.l.-Xv.g.| z.3.3.5.",
":.V.c.l.3./ / / <.3.:.V.Z.O.$.5.h.j.b.:.6.;.>.>.b.>.0 N |.7   < l 3 +   d lXK.  K #   J.xXK.O : d 2 r 5.4.z.a.b.$X#X| | 3.i.+.$.",
"k.N.:.k.a.;.:.3.+.a.i.s.k.s.O.%.] j.x.j.3.3.,.z.h.8.d.r |.N   b k @   $ '.K.% i eXrX    L.MXJ.  o : y.m.j.:.+.c.v. .^ y.;.a.$.1.",
"N.k.k.N.v.j.j.3.i.1.1.c.B.Z.4.s.2.p.b.i.b.>.7.8.>.h.k.q 7 r   k k 3 2 n W.    .XyXyX].X   fXlXG.  o ` x.:.O.#.a.m.^ T  .[ @.#.' ",
"5.k.s.l.B./ :.>Xk.k.i.a.N.Z.<XC.x.V.b.3.3.3.8.>.8.,.l.=.' 0     l M z b m * e.rXiXiXrXX     D.xXL.  ` d.~ <.d.] [ p. .y. .] p.d.",
"k.k.5.3.~ k.>Xs.:.k.i.4.s.a.:X1XZ.i.4.4.:.5.5.;.,.8.3.3.3.t     < k z Y.U.O J .XeXtX.XX : o   D.F.t ,.j.:.<.p.' ] x.g./ ;Xv.x.1.",
"k.,.s.5.+.k.:X=XB.d.N.a.c.k.a.s.s.Z.f.4.4.:.5.c.3.5.;.3.b.a   +   @ 2 $ c E.x 9 V i 6 O o : f f :   T i.;.j.;.]  .^ { x.;Xx.g.2.",
"o.=.l.5.5.a.5.:.=XV.=Xc.#.a.5.f.s.f.4.5.5.O.5.c.3.=.^ j.j.q < 2 .   < < . c E.E.4   g aX+ . d S.f M 4 / x.j.3.2. .! E E ;Xb.v.i.",
"o.a.V.5.:.4.5.5.5.B.i.b.1.1.:.V.s.c.N.s.s.5.B.O.j.o.o.*Xe   3 z 2   . k < .     X . + K.5 P.& d 4 W.4 / *X3.i. .] | ^ ] ] j.x.3.",
"a.c.:.5.:.:.:.k.3.;.1.4.~ 1.x./ V.B.4.:.k.+.3.5.5.<.` t . @ z b z x 7 k c l 3 2 3 3 k   . b P.+ ; 0 q g.x.;.<.| <.u.<.2.2.2.] ] ",
"5.B.:.5.5.a.5.:.:.a.3.R a.c.+.1.4.s.4.$.:.+.j.V.h.@.6 B c m m P.R.B 7   S Y.m B 3 2 k b n v b 3 a b.6.b.i.<.i.x.<.p.u./ g.2.] x.",
"+.s.k.+.~ :.5.s.:.~ 1.d.>Xv.+.m.:.O.d.:X=Xa.j.B.j.U r D 5 c l N B a t 0 ; N U.~.T.U.m F n S o @X..t 3.2.2.^ ! ;. .g.x.u.U <.x.#X",
"c.k.k.$.5.a.a.d.k.o.:.V.3.j.a.;.1.4.:.3.b.d.;.5.=.k.y ` p p ` p p v.~ i.a.y e x x N 7 6 _ _ 0 I I ' 5.2.c.u.W <.<.<.x.<.2.g.g.u.",
"5.5.b.k.:.j.5.5.+.3.:.:.x.5.3.:.1.1.$.3.;.3.=.3.j.8.' j.b.1.a.a.a.+.+.3.O.d.p.p.:.] ,.| 6.>.6.,.3.x.6.;.j.2.] ] ] ^ ' ! i./ u.2.",
"#.a.k.5.3.5.5.k.k.a.B.j.b.2.j.3.+./ +.:.5.3.3.b.a.,.h.:.i.u.1.j.a.1.a.k.3.b.x.i.x.;.R ;.6.g.7.6.v.h.g.<.i.i.] / i.2. .2.#Xu.g.g.",
"/ a.b.1.$.+.a.:.+.5.v.k.-Xj.j.v.$.5.d.:.3.:.j.j.:.W x.j.i.1.+.<.;.:.a.k.x.x.x.j.m./ x.i.2.2.3.,.h.| ] 3.i.g.2.2.<.3. .<.<.| | u.",
"k.$.3.m.j.@.3.5.k.a.B.B.<.3.b.b.a.5.a.5.a.;.5.v./ i.;.2.3.3.<.1.:.:.j.j.v.p.a.m.m.<.3.<.>.j.=.2.v./ ] 3.;.p.<.] | p.2.x.x.m.u.^ ",
"3.u.j.g.x.b.a.m.5.d.3.1.:.j.d.j.1.s.k.d.h.3.j.8.| 3.;.v.c.<.] ' :.3.z.3.g.2.<.x.i.' ] V.i.5.b.6.i.| <.i.2.b.v. .] j.p.n.u.g.i.y.",
"i.;.g.j.i.m.j.:Xk.:.k.:.:.5.:.U k.1X=X5.o.j.b.h.2.g.2.+.c.<.;.x.} 3.b.2.,.<.<.<.E ;.j.3.5.^ 3.j.d.2.;.p.;.,.<.' b.g.^ <.[ ;.u.2.",
"b.u.g.p.3.*X*X3.3.B.=X5.:.:.5.k.5.B.B.:X%Xj.3.6.;.6.#Xj.x.b.m.i.} 6.9.2.2.i.3.y.x.j.;X3.W a.8.x.g.j.;.x.i.p.j.g.2.<.] u.] E ^ [ ",
"3.j.x.j.j.<.2.3.:.k.a.5.o.4.:.,.x.5.+.b.:Xc.5.:.v.3.3.;Xc.i.<.i.9.7.7.2.g.2.<.2.;.1.b.;.5.3.j.3.2.;Xu.<./ i.j.;.] ] ] <.2.' <.] ",
"8.5.%X:.;.>.j.v.5.,.Q 7.8.o.8.5.1.3.j.i.a.v.j.V.b.j.:.5.k.:./ 5.$X7.7.6.>.2.] ;.,.;.;.,.3.j.a.a.m.b.j.3.<.g.] ;.>.6.>.:.<.<.<.] ",
"7.5.8.;./ :.| l.l.9.,.>.:.5.V.5.3.^ v.b.a.^ 3.-Xb.p.3.v.;.R j.:.7.&X&X6.g.<.<.#Xz.=.>.>.8.*X;.$.b.h.b.3.<.j./ <.>.;.b.%Xv.x.<.[ ",
"5.z.v.U 2.3.g.v.*X3.3.3.o.=XB.s.^ ;.l.| W W -X/ j.j.B.j.;.o.5.3.7.,X,.7.i.U m.m.j.o.W j.j.W ! d.3.<.x.b.h.i.! 3.,.i.%X%X^ i.] p.",
",.,.3.<.j.i. .g.j.( >.;.=.d.o.$.6.^ 6.2.;.7.8.2.,.:.h.,.:.;.;.,.9.=.*X<.g. .j.g.^ B.5.5.3.y.c.d.,.v.<.*Xm.:.j.i.3.3.l.;.:.x.<.1.",
"3.:.j.j.j.2.2.y.2.u.b.<.1.a.[ ;.( 6.>.7.>.v.>.} 3.;.} 3.,./ g.p.6.g.g.v.n.] n.i.i.i.;.:.a.x.i.i.j.h.j.3.<.b.x.h.5.*Xj.3.<.x.<.d.",
"g.g.#Xi.i. .g.] 2.g.g./ <.y.<.y.7.6.6.6.6.*X( g.2.3.,.<.3.g.g.b.,.| 6.g.[ @.y.i.p.x.3.p.b.p.u.' B.,.V.<.+.;Xj.b.-Xb.;.W b.<.<.y.",
"2.2.2.#X2.y.| ^ x.g.u.3.g.i.u.i.6.7.} 6.8.g.3.z./ j.j./ 2.;X<.j.2.R 2Xu.n.i.i.| c.m.1.<.;.W x.v.z.b.3.;Xx.3.b.b.3.5.~ ,.3.1.;.u.",
"6.| | 2. . .g.2.g.g.#X#Xg.y. .g.2.| l.6.6.l.#X$X2.6.^ 2.| x.g.i.] m.;Xb.#Xn.g.p.<.+.x.x.x.;.1.p.j.8.3.b.<.;.3.a.b.j.,.a.,.i.<.[ "
};
