/* XPM */
static char *_bfe05d09b964b26e9db2c788988e7d3bFwtK3BuZpkYg9Wr[] = {
/* columns rows colors chars-per-pixel */
"64 64 245 2 ",
"   c #020101",
".  c #0B0302",
"X  c #0C0A03",
"o  c #02040A",
"O  c #0A0A0A",
"+  c #070706",
"@  c #140302",
"#  c #1B0302",
"$  c #140B03",
"%  c #1A0A01",
"&  c #140C0B",
"*  c #17080A",
"=  c #0C1303",
"-  c #0E130C",
";  c #121406",
":  c #131C05",
">  c #1A120B",
",  c #141B09",
"<  c #171706",
"1  c #020C19",
"2  c #191412",
"3  c #0B0D14",
"4  c #240301",
"5  c #2C0202",
"6  c #2B0B03",
"7  c #220E07",
"8  c #340203",
"9  c #3C0404",
"0  c #370902",
"q  c #24130D",
"w  c #271806",
"e  c #3E1A04",
"r  c #38180B",
"t  c #2B1A14",
"y  c #361C11",
"u  c #280F14",
"i  c #1B220B",
"p  c #192708",
"a  c #1C2E18",
"s  c #262908",
"d  c #372107",
"f  c #27380C",
"g  c #232615",
"h  c #3A2215",
"j  c #372215",
"k  c #293812",
"l  c #363700",
"z  c #1F2427",
"x  c #262726",
"c  c #3A3A3B",
"v  c #333435",
"b  c #282E33",
"n  c #321B23",
"m  c #450203",
"M  c #4B0204",
"N  c #440C05",
"B  c #5A0503",
"V  c #451706",
"C  c #5A1406",
"Z  c #561812",
"A  c #660303",
"S  c #770904",
"D  c #671909",
"F  c #711A12",
"G  c #432A07",
"H  c #572509",
"J  c #462817",
"K  c #572D1A",
"L  c #56350E",
"P  c #682608",
"I  c #7A2608",
"U  c #673708",
"Y  c #713412",
"T  c #4D3322",
"R  c #6A3C25",
"E  c #0C5415",
"W  c #2E4D02",
"Q  c #274104",
"!  c #324E05",
"~  c #335305",
"^  c #395A05",
"/  c #35550A",
"(  c #3B550B",
")  c #3C5B0D",
"_  c #365808",
"`  c #2E4216",
"'  c #344817",
"]  c #3A5415",
"[  c #3D5C12",
"{  c #3E5D19",
"}  c #385317",
"|  c #2E520C",
" . c #3E600D",
".. c #3F6214",
"X. c #3E611A",
"o. c #3C4D20",
"O. c #087D14",
"+. c #5B4904",
"@. c #415D0E",
"#. c #425D13",
"$. c #4A5D1A",
"%. c #455B19",
"&. c #525E1C",
"*. c #5B5602",
"=. c #724A10",
"-. c #41620E",
";. c #446314",
":. c #496617",
">. c #466815",
",. c #496B16",
"<. c #45641A",
"1. c #4A661B",
"2. c #46691A",
"3. c #4B6B1C",
"4. c #51641D",
"5. c #516D1E",
"6. c #506C17",
"7. c #4E711D",
"8. c #4E7114",
"9. c #51721E",
"0. c #547819",
"q. c #504D2C",
"w. c #784428",
"e. c #734F32",
"r. c #456521",
"t. c #4B6622",
"y. c #4D6C22",
"u. c #4E6D29",
"i. c #526D22",
"p. c #5A6D26",
"a. c #536D2A",
"s. c #576828",
"d. c #4F7022",
"f. c #557525",
"g. c #537224",
"h. c #587426",
"j. c #577824",
"k. c #597A25",
"l. c #55742A",
"z. c #5A752B",
"x. c #567829",
"c. c #5B7A2C",
"v. c #5D7C32",
"b. c #577431",
"n. c #5B6F30",
"m. c #62752D",
"M. c #607D2E",
"N. c #607C27",
"B. c #627D33",
"V. c #637734",
"C. c #606F2A",
"Z. c #6F7201",
"A. c #575858",
"S. c #4B4749",
"D. c #7F6242",
"F. c #6C7376",
"G. c #777778",
"H. c #6E6D6E",
"J. c #850502",
"K. c #960E06",
"L. c #84260A",
"P. c #89390F",
"I. c #953901",
"U. c #8C2916",
"Y. c #A72E0C",
"T. c #A6370D",
"R. c #BD2B0A",
"E. c #8A3F29",
"W. c #CA3A11",
"Q. c #8D4D0A",
"!. c #A74807",
"~. c #A7530B",
"^. c #8B6705",
"/. c #8B7104",
"(. c #A56505",
"). c #B76907",
"_. c #AE6E09",
"`. c #965A38",
"'. c #88512F",
"]. c #A55C3B",
"[. c #86623F",
"{. c #A5613C",
"}. c #EE4211",
"|. c #C2710C",
" X c #CE4B24",
".X c #966B49",
"XX c #9A724A",
"oX c #A4774D",
"OX c #AD744E",
"+X c #E77A51",
"@X c #008100",
"#X c #5D802C",
"$X c #5E8132",
"%X c #62822D",
"&X c #65882A",
"*X c #638234",
"=X c #668836",
"-X c #6A863B",
";X c #6B8A3D",
":X c #688637",
">X c #72833C",
",X c #6D8D41",
"<X c #759243",
"1X c #778F45",
"2X c #9D8A04",
"3X c #AC9704",
"4X c #B08805",
"5X c #B6A402",
"6X c #D48B07",
"7X c #CC9005",
"8X c #E18D0A",
"9X c #CDB800",
"0X c #EFA805",
"qX c #F7C404",
"wX c #F1D304",
"eX c #FFEC06",
"rX c #B78857",
"tX c #BF905C",
"yX c #BB8F6A",
"uX c #C18F5E",
"iX c #E7B075",
"pX c #D49A66",
"aX c #7C8282",
"sX c #878787",
"dX c #9B9C9E",
"fX c #9EA09F",
"gX c #B3B1AF",
"hX c #B6B6B7",
"jX c #A7AAAF",
"kX c #B19E90",
"lX c #DB9C8B",
"zX c #BEC0BD",
"xX c #C0C0BE",
"cX c #F5DDB7",
"vX c #CDCCCC",
"bX c #C4C3C4",
"nX c #D9D8D8",
"mX c #CFD0CF",
"MX c #DFDDE0",
"NX c #ECEBEC",
"BX c #E6E7E6",
"VX c #FDFEFE",
"CX c #F3F4F2",
"ZX c #F0F0EF",
"AX c #FFF0CF",
/* pixels */
"#.a.h.y.#.1.h.1.5.i.:Xz.z.>.x.3.#.4.1.:.1.g.3.z.;.>.;.;.;.7...:.3.2.;.<.3.2.;.2.y.g.y.2.;.3.u.x.,.3.;.2.3.l.[ 2.%.<.2.t.t.l.u.u.",
"i.1.i.p.3.t.#.t.5.i.c.M.g.3.B.c.i.i.a.1.3.1.,.c.2.,.,.f.7.>...3.2.f.2.,.3.y.l.;.d.3.2.y..._ x.d.[ [ [ y.<.a.<.[ [ y.] [ l.u.b.<.",
"i.1.a.B.h.h.5.m.B.5.5.3.;.y.f.z.[ 1.*Xz.k.g.3.,.7.3.:.2.3.f.3.>.<.g.2.[ 3.d.y.<.2.3.3.7.:.[ 2.<.3.[ <.y.y.l.a.[ W %.{ r.r.r.r.{ ",
"i.1.i.h.g.z.M.*X1.1.3.g.3.,.,.^ z.>Xh.5.<.3.*X9.>.3.7.3.;.d.j.l.3.9.d.3.b.l...<.;.d.>.>.>...[ [ y...<.y.1.t.l.) / { [ u.u.r.{ X.",
"a.1.1.5.i.g.M.z.h.N.N.:.@.,.3.;.p.B.-XM.3.j.7.f.3.>.7.d.7.d.x.c.j.3.2.2.d.2.<.y...j.3.,.( / X.l.y.t.3.l.y.y.x.i.a.<.W [ ] | { u.",
"9.g.g.g.9.5.5.5.1.h.M.,.:.3.@.5.h.5.#.:X<Xc.>.,.3...>.j.d.7.d.l.7.2.<.y.<.{ t.2.j.k.7.7. .[ ;.2.>.d.2.3.3.f.5.f.g.3.u.g.2./ [ [ ",
"5.h.k.5.3.:.5.9.:.5.@.:.,.@.5.5.5.5.k.:.,.*X9.%X8.3.f.j.f.d.x.d.-.7.2.y.<.y.v.<.3.-.;.j.j.l.l.t.2.$Xf.d.g.*X,.,.3.g.x.<.<.{ 2./ ",
",.g.k.@.-.:.6.c.9.9.@.5.5.:.M.5.4.;.5.k.g.;.9.#Xd.2.2...y.d.y...7.7.2...[ t.v.y.3.>.0.j.3...2.t.j.j.j.,.7.x.^ @.,.7.c.z.f.l.y.[ ",
"3.f.9._ [ ,.>.f.>X>.f.:.@.M.M.g. . .k.7.^ ^ k.9.3.d.x.2.7.>.2.f.k.j.,.X.2.a.u.d.7.;.,.,.y.;.2.u.c.,.j.9.g.9.^ ,.;.,.k.%X5.1.:.3.",
"B.c.i.<.3.y.1.v.1.,.x.;.1.l.t.v..... .>. .=Xk.) j.g.d.2.2.....2.j. .f.3.3.[ c.y.) z.z.a.r.t.,Xn.3.f.7.v.v.<.1.3.6.>.k.-.5.z.t.y.",
"z.d.y.l.z.u.l.l.c.;.:...g.v.l.{ ..7.7.,.0.=X#Xf.) 2.2.d.7._ >.7.g.3.:X:.c.~ l.,.1.3.1.<.i.a.y.<.,.d.d.u.y.l.x.l.>.k.&X>.@.i.1.a.",
") ;.t.y.v.c.-Xr.) 1.y.:.t.u.t.t.x.7.7.>.7.7.8.2.t.i.X...r.2.7.x.>.;.3.k.1.<.2.u.y.v.%.i.b.p.t.{ j.k.f.g.] B.l.l.=Xk.,.;.h.t.%.a.",
",.c.<.%.#.B.-Xt.;.;.3.<.) <.b.t.2.#Xj.7.7.8. .f.:.3.l.2.<.v.2.x.,.) B.,.g.:.y.;.l.c.<.y.1.#.t.i.#X8.c.l.t.x.c.B.c.9.^ ;.1.i.%.y.",
"c.,._ Q ;.{ -X*Xz.y.<.;.{ t.a.r.X.x.;X$X,.,.j.z.3.2.r./ [ v.7.x.;.$X;Xc.$Xx.t.,.i.) c.c.l.y.;.y.#X8.2.v.<.3.y.z.x.g.>.h.1.y.a.a.",
"z.2.W [ [ / ) <.7.c.y.;.%.t.u.u.d.#X=Xd.3.;.2.d.3.<.} <.1.t.1.#.-.9.3.g.x.<.x.i.< # $ X > t g y.7.,.f.y.<.~ 3.1.%Xf.y.t.i.<.u.%.",
"3.:.;.x.<.2.[ <.2.y.l.l.{ u.b.b.v...2.>.s i p ;.u.y.i i g : i ' c.<.3.3.x.#.c.k L.S M t .XtX.Xf  .3.3.x.;.3.f.t.x.;Xv.i.1.b.t.<.",
"c.;.;.g.[ y.u.f.2.v.v.l.2.u.r.` , , ; <   3X^., : = & K J $ @ . : ] v.;.3.y.s   W.C 4 e.iXXXh < ^ >.7.j.) 3.3.;.l.g.u.2.B.a.%.u.",
",.,.f.l.1.i.[ / <.x.v.y.%.} p D E.`.yXyX2 9XwX2X  &   q $   K pXq.+ ' 3.p -   . R.* e.rXt t '.T p d.7.>.:.*Xf.l.;.{ l.*X,Xa.#.[ ",
"( ,.h.i.[ y.1.d.#.i.v.l.y.k R +X].w.`. X4 9X7XwX^.  * . $ J y R ].J . = % . 5 B W.% > t o . T [.: 3... .5.i.f.3.i.l.l.a.b.V.i.<.",
";.9.x.y.<.<.3.3.) W ) 3.f h `.'.h 7 q @ 3X4X).(.L ].h     J OXR '.J   @ 4 4 5 M N T..       + , [ d.2.;.f.:.z.1.u.l.l.t.l.h.#.] ",
"3.z.<.t.#.t.1.x.3.<.1./ y K t q X     3X7X).~.w K R v lXS t '.].w.  . @ . # # 4 4 6 Y.K.Y.  ; <.) c.9.j.y.:.g.u.{ a.v.r.i.t.%.@.",
"c.f.y.3.l.<.%.) _ ..,.W F U.. O ' p 3X7X).(.s J q * X Z A @ OXoX      2 7 # X # @ . $ 4 0 : <.X.<.v.l.v.j.3.3.v.b.t.r.t.a.1.:.*X",
") d.u.c.y.u.<.x.i._ 3.3.' F Z ' f 3X7X).7X+.& y > . +.5Xw y .X.Xo 3 x gXA.  # @ @ # o + , X.<.d.<.2...2.f.3. .2.r.D.v.u.#.i.c.;X",
"c.y.:.] <.z.l.y.2.) :.2.3.g   < 5X8X^._.7X!.7 q &   s eX2X  `.R 1 mXBXT o 5 9 # # # ; 3.r.r.r.b.y.y.d.3.*Xz.3.y.d.X.%./ $.5.5.0.",
"<.3.l.#./ i.i.y.;.x.;.<.y.f = /.qX_.p . Z.|.!.#   + *.qX^.3 R V sXNXA.    . 4 # < = ..X...r.x.r.X.v.g.<.f.x.g.t.b.| $.] z.) 5.N.",
":.g.l.2.3./ ;.u.y.y.:Xg.v.;.2.f /.l ] , $ Q.|.T.w G 0X).U K y J cXF.fXsXc   o   { ;.2.t.<.2.v.l.g.i.;.7.2.f.3.1.i.l.&.s.s.m.s.s.",
"#.3.y.;.;.[ ..W ) [ f.l.x.t.3.c.a ' { = R + P ).|.!.Q.L 2 w.J G AXjXsXVXVXF.x   w ' } d.2.;.2.l.1.#.X.2.>.3.2.3.h.m.&.&.&.V.s.n.",
"y.,.g.z.;.) 3.) #.) / ) ;.<.i.g.[ <.x.. > q   I.).6X(.$ y '.7 $ kXNXzXnXZXVXgXc P V e } u.<.<.z.t.( 2.2.y.v.i.1.t.M.&.&.q.n.s.t.",
"g.<.3.v.<.) x.y.c.v.../ ) ..y.../ l.u.p   q G ~.).=.8X(.<       F.xXgXbXvXnXbXbX  V P.C %.;.<.v.c.;.3.t.d.l.2.[ %.4.( 4.s.s.s.t.",
";.g.7.3.;.j.c.^ 2.l.;.[ W W ( W v.z.:.;.f . 8X6XU w I 6X(.L y . v sXsXxXnXxXxXMXH.b . }.4 / [ l.i.1.2.g.X.d.l.3.B.m.%.&.$.#.y.a.",
"j.2.,.j.c.2.>.>.g.g.d.f...7.) 3.l.v.) [ y.k =.+.  h   Q.|.0X3Xy @ F.vXc jXNXvXmXVXmXv C % k / 3.B.z.2.l.2.v.v.z.h.p.$.:.%.1.a.a.",
",.j.c.,.;.>.3.g.7.,.;.;.;...;.3.7.5.3.9.2.3.f         s eX0X/.u % b mXsXx hXVXvXnXCXhX1   X 3.<.;Xc.u.i.f.c.g.#.1.5.i.3.1.:.%.) ",
"7.,.#X,.-.;.7.$X9.#Xf.:.i._ M.5.>.,.5.g.d.l.2.`   q 7 s Z.+.Y >     v G.S.H.ZXVXmXmXNXsX  - ` 3.c.9.h.3.g.M.:.@.f.k.*Xc.f.g.y.,.",
"9.9.9. ._ 2.,.x.=Xx.3.3.;.N.*Xg.-.) f.k.<.Q c.v.  J ].  * o 2 w.y X     c x S.NXVXnXnXnXsXA.  k %Xc.#X;.k.9.~ 3.3.) $X=X9.3.3.@.",
";.c.g.( ;.7.;.j.*X3.g.#.) M.M.4.^ :.,.<._ ..x.] + J J O J w.U t w.h . .       H.BXBXNXNXZXx @ m f ,.9.x.k.5.( 5.:.f.*Xj.-.c.~ ,.",
"%Xh.3.,.g.,.j.z.c.) g.5.1.p.p.6.) ;.,.<.7.$X-X..q ].  g U.T.d   K R 7   6 $   z v c MXZXgX2   4 , 0.7.N.,.g.3.i.2.g.c.3.-.5.^ k.",
"-.6.g.h.f.5.*X7.:.3.z.f.5.4.N.$.g.y.:.x.j.$X3.3.} h . w.).5     o y   A.q.9 . o x   A.MXnXsXz   X ` 8.3.@.M.N.k.=Xx.d.X.j.3.3.5.",
";.*Xh.z.3.) ) ..:.3.1.B.p.@.$.4.x.h.c.;.7...>.>.c.k d |.e   5 B 5   F.mXb   .X> b O   x A.BXhXvXsXX k 3.:.c.a.c.$X$X ...y.y.%.#.",
"z.N.4.h.y.;.:.3.#.3.3.a.h.C.#.:.;.y.z.d.3.8.,.x.f.<.* ~.Q.  B M . I E.b * q.rXrX>         G.fXjXA., t.c.g.$.@.z.x.2./ 2.%.i.;.1.",
"m.z.h.N.z.g.g.3.y.3.1.m.V.C.&.p.<.u.c.d.z.:.7.9.>.5.%.$ q 4 m B 5 Y.I   # oXpXtXXX$   o o O - q 2.X.y.z.:.#.:.s.v.| | X.{ %.$.@.",
"5.h.5.h.M.) %.;Xh.h.1.s.m.p.>XV.x.B.c.3.3.3.8.,.9.7.0.Q   8 9 m m L.e t e.uXiXiXoX& . 1 1 1 o o p d.y.g.( %.z.] { u.X.r.{ } u.l.",
"k.p.5.3.@.h.;Xh.3.p.i.y.p.5.>X1Xn.4.4.4.1.5.5.:.1.g.y.} + # 4 9 4 Y.D X T [.oXrX[.% Y ; O 1 1 3 q p 2.t.2.<.y.( { u.d.) -Xl.l.2.",
"i.1.9.5.-.f.>X:XM.i.m.a.m.a.i.p.p.C.p.4.1.4.i.h.3.i...,.%.  . @ 4 . I W.r y h j > + % Q.Q.& & o 7 $ . f [ g.<.[ X.[ ) l.*Xl.d.<.",
"@.-.m.5.5.p.5.;.:XM.:Xz.:.i.5.5.p.4.4.i.5.( i.h.,.] ! 1.k # 9 @   %   I W.W.6   c sXO # J.!.Y e }.I   1 k l.t.<.../ W | *Xc.x.7.",
"@.5.B.5.:.5.5.5.5.m.i.v.5.1.1.c.h.m.m.p.p.5.m.@.1.. r .   % A M @ . X       . . . aX2 J.4 B K.T.J.5   o k t.i.<.{ ..) ) { u.g.3.",
"i.h.5.4.:.%.4.g.3.;.1.1.( 1.a.) m.m.1.:.h.#.1.i.#.w Q.e C m S B 9 $ % 0 N 9 8 8 9 . @ S K.# B B M 4 O S C ;.<.#.<.t.X.2.2.y.[ [ ",
"5.M.:.5.5.5.5.;.:.3.y.W i.h.#.1.5.p.4.$.1.#.g.B.t., - e P.D S A P 6 V P.P.D N 8 5 m m . S M o 8 o a n R.H <.3.d.2.u.t.) d.<.[ l.",
") p.p.#.@.:.5.g.1.( 3.i.;Xz.#.B.1.) i.-X-X5.g.M.g.) <.p < P D T.L X p : V Y P.I D C D C   E O.o ` y.} < p / / <.X.y.l.t.W 2.l.*X",
"c.h.h.%.5.i.i.g.z.@.1.c.5.g.i.;.1.1.:.3.z.g.;.5.;.k.1.c.$.i q H q %.@.t.k p G P P H H V + E @Xk y...3.3.x.y.| ;.<.<.x.<.<.y.d.2.",
"i.5.N.g.;.p.5.5.#.1.:.:.x.3.3.:.:.1.%.5.;.3.-.3.g.3.) f.z.1.` $ k [ #.1.[ t.w & $ $ X X + = p <.3.x.3.<.g.3.[ [ ) [ ] ~ y.[ 2.y.",
"%.i.z.5.5.5.1.h.h.p.c.f.c.<.x.3.#.@.@.1.5.5.3.c.d.,.g.1.i.1.1.i.i.1.i.h.t.M.x.i.f...W ..d.7.7.8.x.f.d.2.3.y.{ [ y.2.X.r.v.2.y.u.",
") i.c.4.;.#.i.1.;.1.z.j.;Xd.g.f.%.5.a.:.3.1.9.g.;.~ f.g.t.2.#.1.:.:.g.f.x.z.u.l.v.) x.d.2.2.8.3.f...[ 3.y.y.<.2.<.2.<.2.r.[ <.3.",
"z.#.3.c.h.<.,.i.h.i.M.M.2.3.c.c.5.i.i.5.5.;.3.z.) y.;.,.y.y.<.1.;.:.g.g.c.y.y.l.v.2.y.<.;.f.) 3.x.[ [ 3.<.y...[ ..u.2.u.l.v.r.) ",
"3.3.u.g.l.z.g.v.5.i.5.:.1.5.g.h.1.h.h.a.f.5.f.9.;.3.;.x.x.<.[ ) ;.8.x.y.d.<.3.l.i.[ ) v.7.3.c.7.y...2.y.2.c.l...[ l.y.x.r.g.t.<.",
"i.;.y.f.y.v.g.-Xh.1.h.:.1.1.:.W h.1X:X5.-.g.c.f.2.g.:...x.<.#.x. .8.x.:.2.<.<.<.! <.l.t.3.( 5.9.g.<.;.y.<.2.<.[ x.l.[ <.X...t.y.",
"c.y.u.3.3.*X*X3.5.c.B.5.5.1.1.k.5.c.m.-X%Xg.3.i.;.y.$Xy.l.v.v.t.>.,.j.,.y.y.2.2.a.l.*X,._ i.9.g.u.g.;.l.y.y.l.d.<.<.[ <.{ | / { ",
"3.i.x.g.l.;.2.y.1.i.9.3.-.6.#.5.l.5.#.c.;Xk.g.;.c.2.y.*Xc.t.3.3.7.>.8.7.d.2.<.2.;.1.z.:.y.3.g.3.2.*Xy.<.) y.g.;.{ ) [ <.3.] <.] ",
"9.5.%X:...:.j.j.5.,.^ 3.9.@.9.5.2.y.h.t.i.z.g.$Xz.g.,.3.h.:.) 5.#X8.8.7.>.2.[ X.,.>.-.,.3.g.i.a.v.b.g.3.<.y.[ ;.>.8.,.>.;.2.<.{ ",
"6.9.9.;.) :.>.d.k.0.,.,.-.i.B.p.3./ x.c.y./ ,.*Xc.u.3.z.;.W i.1.8.&X&X7.f.<.;.v.x.-.,.>.9.*X;.;.c.x.c.1.<.f.[ <.>.;.k.$Xx.l.<.{ ",
"5.x.x.W 3.2.l.d.*X3.5.,.-.*XN.p._ ;.f...~ _ :X .g.g.M.f.;.@.y.3.8.=X8.8.3.W v.v.g.) ~ g.g.~ / a.3.<.x.c.g.y./ 3.3.y.%X%X( y.) u.",
",.,.3.<.l.y.X.u.g._ :.;.$.g.#.;.8.) 7.2.;.7.7.2.,.:.f.,.:.;.;.,.0. .*X<.u...f.y.( c.3.9.1.2.l.l.,.x.;.*Xv.2.l.3.t.,.k.-.:.g.<.t.",
",.,.d.g.d.2.2.2.2.y.x.<.:.y.[ %._ 0.>.7.>.j.>. .3.;. .3.2.) d.i.,.j.d.x.b.{ l.y.y.i.:.<.i.b.y.t.h.g.g.y.1.z.l.h.9.B.h.3.2.l.<.u.",
"d.d.*Xy.r.2.d...<.d.y.) <.t.2.r.2.7.7.d.7.*X~ j.2.3.,.<.3.g.y.c.2...y.g.{ <.r.t.u.l.y.i.z.u.t.[ M.3.v.<.;.*X3.$X:Xc.;._ x.1.2.r.",
"2.2.2.$X2.r.../ l.d.3.3.u.y.t.y.7.8. .8.d.7.7.j.) g.g.) 2.*X<.f.3.W ,Xr.l.y.y.<.l.v.1.<.<.~ l.f.k.c.3.*Xx.3.c.z.3.5./ 3.3.1.#.t."
};
