/* XPM */
static char *ef677e81cfee421ea2c6c650b901459fF7YLt9qVlkFFOpK1[] = {
/* columns rows colors chars-per-pixel */
"64 65 246 2 ",
"   c #020101",
".  c #0B0302",
"X  c #0C0B04",
"o  c #040808",
"O  c #130202",
"+  c #1C0101",
"@  c #130A05",
"#  c #1B0D06",
"$  c #160C09",
"%  c #1A0E0A",
"&  c #0E1106",
"*  c #13130B",
"=  c #1C120B",
"-  c #191907",
";  c #1A1513",
":  c #01101C",
">  c #230102",
",  c #2B0202",
"<  c #270B04",
"1  c #340303",
"2  c #3D0303",
"3  c #370B03",
"4  c #221304",
"5  c #22140C",
"6  c #2D190C",
"7  c #281609",
"8  c #35170A",
"9  c #271A11",
"0  c #351E13",
"q  c #391D14",
"w  c #1B250B",
"e  c #1B2607",
"r  c #1A2612",
"t  c #232C0A",
"y  c #292805",
"u  c #29340C",
"i  c #2B3D0D",
"p  c #24360C",
"a  c #36390A",
"s  c #292914",
"d  c #342213",
"f  c #3C2113",
"g  c #382A1A",
"h  c #2C3C14",
"j  c #263612",
"k  c #332F0D",
"l  c #021A26",
"z  c #2E312E",
"x  c #0C3139",
"c  c #430303",
"v  c #4B0402",
"b  c #450D04",
"n  c #4C0F0A",
"m  c #530303",
"M  c #5A0402",
"N  c #590D06",
"B  c #471707",
"V  c #581708",
"C  c #4E1A15",
"Z  c #640404",
"A  c #6A0304",
"S  c #690C06",
"D  c #770505",
"F  c #671908",
"G  c #761A08",
"H  c #711A12",
"J  c #472807",
"K  c #5B2108",
"L  c #442515",
"P  c #4A2917",
"I  c #532D1B",
"U  c #552D17",
"Y  c #54331C",
"T  c #503207",
"R  c #692708",
"E  c #762809",
"W  c #6D330B",
"Q  c #79340B",
"!  c #66371E",
"~  c #6C2B19",
"^  c #5A3522",
"/  c #463424",
"(  c #693B27",
")  c #7A3D26",
"_  c #0D460B",
"`  c #2D4C01",
"'  c #2A4407",
"]  c #324C0B",
"[  c #354C07",
"{  c #2E5205",
"}  c #335305",
"|  c #35540B",
" . c #3B560B",
".. c #3B5B0D",
"X. c #385906",
"o. c #2E4313",
"O. c #2F4B11",
"+. c #344514",
"@. c #344B13",
"#. c #344519",
"$. c #394C19",
"%. c #365411",
"&. c #3B5615",
"*. c #3D5C12",
"=. c #3D551B",
"-. c #3E5C19",
";. c #007F0A",
":. c #3E610D",
">. c #3E6214",
",. c #3E611A",
"<. c #3D4E23",
"1. c #415E0E",
"2. c #40570F",
"3. c #425E13",
"4. c #435E1B",
"5. c #4B5E1A",
"6. c #45581C",
"7. c #525E1C",
"8. c #504503",
"9. c #6A4708",
"0. c #7D4508",
"q. c #41620E",
"w. c #446314",
"e. c #496516",
"r. c #466815",
"t. c #496A16",
"y. c #45641A",
"u. c #4A661B",
"i. c #46691A",
"p. c #4B6B1C",
"a. c #52651D",
"s. c #516D1E",
"d. c #4D711C",
"f. c #52721E",
"g. c #577A18",
"h. c #525027",
"j. c #794326",
"k. c #734E34",
"l. c #456521",
"z. c #4A6623",
"x. c #4D6C22",
"c. c #4E6C29",
"v. c #466822",
"b. c #526424",
"n. c #516D23",
"m. c #5A6C25",
"M. c #536D2A",
"N. c #5B6B2C",
"B. c #4E7122",
"V. c #557125",
"C. c #537224",
"Z. c #597426",
"A. c #577925",
"S. c #597A25",
"D. c #55742A",
"F. c #5A752A",
"G. c #56792A",
"H. c #5B7A2C",
"J. c #567431",
"K. c #5D7C32",
"L. c #5C7531",
"P. c #5B6F30",
"I. c #62752E",
"U. c #607C2E",
"Y. c #627E32",
"T. c #637735",
"R. c #606F2A",
"E. c #706900",
"W. c #002764",
"Q. c #696966",
"!. c #51534D",
"~. c #880404",
"^. c #8D150A",
"/. c #862C0B",
"(. c #84340D",
"). c #893A0C",
"_. c #993A0E",
"`. c #922E0E",
"'. c #A83705",
"]. c #B83B0F",
"[. c #AF2015",
"{. c #C93B0D",
"}. c #864908",
"|. c #885103",
" X c #994310",
".X c #9A5208",
"XX c #B54F07",
"oX c #A45B0B",
"OX c #A34911",
"+X c #A75812",
"@X c #B25510",
"#X c #956F06",
"$X c #A26008",
"%X c #B86808",
"&X c #AB7609",
"*X c #BA6314",
"=X c #B7780C",
"-X c #86492B",
";X c #965534",
":X c #AD5A35",
">X c #A0663E",
",X c #CC4E10",
"<X c #E15B0C",
"1X c #C77415",
"2X c #CA7309",
"3X c #EB6129",
"4X c #936D4C",
"5X c #A7744B",
"6X c #B56F49",
"7X c #DE5C42",
"8X c #DD7356",
"9X c #5E812B",
"0X c #5E8233",
"qX c #62822C",
"wX c #648334",
"eX c #688537",
"rX c #678837",
"tX c #65833A",
"yX c #6A863B",
"uX c #6B8A3D",
"iX c #6A8A35",
"pX c #71863D",
"aX c #749243",
"sX c #718B44",
"dX c #17911A",
"fX c #968602",
"gX c #BB8306",
"hX c #B19B03",
"jX c #D89807",
"kX c #D3890C",
"lX c #E6930C",
"zX c #D3AE05",
"xX c #E9AF05",
"cX c #F7C805",
"vX c #ECD302",
"bX c #EACB01",
"nX c #FEF007",
"mX c #B78E56",
"MX c #D0935E",
"NX c #D29C60",
"BX c #E29261",
"VX c #D6A269",
"CX c #F49B66",
"ZX c #828483",
"AX c #9E9FA1",
"SX c gray78",
/* pixels */
"3.m.V.x.3.u.m.p.b.p.eXH.H.e.F.p.3.p.u.e.p.m.p.A.>.r.r.q.w.p.>.r.u.i.w.w.x.i.w.i.B.D.p.i.>.u.x.G.i.t.w.i.x.D.*.u.w.y.l.x.x.D.D.x.",
"n.u.n.m.p.x.3.p.s.V.H.H.C.p.K.H.s.b.m.u.x.e.p.9Xp.r.i.Z.B.r.q.d.u.C.i.t.u.x.F.w.B.u.x.p.>...H.x.w.*.*.x.w.M.4.*.*.z.-.&.c.c.J.,.",
"b.p.V.T.Z.Z.n.I.Y.p.s.p.w.p.A.H.2.z.Y.H.F.f.p.p.d.p.r.p.p.C.p.r.i.C.i.>.i.B.x.y.r.p.d.p.r.*.i.y.u.*.w.x.x.D.n.*.] w.-.l.z.l.l.-.",
"n.u.x.F.C.F.U.Y.u.u.s.C.p.p.t.} F.pXZ.s.w.p.wXd.r.p.d.d.w.d.G.Z.p.B.B.p.J.D.>.y.w.B.r.r.w.>.>.*.x.,.i.z.y.x.D.*.} -.&.C.v.l.-.l.",
"V.p.u.n.n.Z.U.F.Z.I.U.e.1.t.p.w.Z.Y.pXY.f.C.p.C.O.8.- i.B.d.A.G.A.d.i.p.C.y.w.x.:.C.d.t...%.,.C.c.p.p.D.x.x.F.n.M.y.{ *.&.| *.c.",
"f.C.f.C.s.s.f.p.t.g.U.e.e.p.1.s.F.a.q.eXaXH.w.w.y nXzXt y.v.C.c.d.p.w.u.y.,.x.v.A.A.d.C.:.*.w.e.w.C.p.d.p.C.s.A.C.x.x.c.v.%.*.*.",
"p.Z.H.s.t.t.s.s.t.s.1.e.t.1.s.s.t.s.F.t.t.wXf.U.@ vXcXbXa 6.D.C.q.d.i.c.y.x.K.y.d.q.r.f.B.D.D.x.p.0XG.B.C.wXr.t.p.C.G.e.y.>.y.| ",
"p.f.A.1.q.r.s.H.f.m.1.s.f.e.U.s.s.q.s.S.C.w.C.j fXgX2XjXk 2.c.w.d.d.i.,.*.x.G.x.t.r.A.S.p.w.l.l.f.A.f.t.d.S.X.q.t.d.H.H.C.G.v.*.",
"f.C.C.X.w.t.r.Z.iXe.Z.r.1.wXH.m.:.w.A.f.X.X.p fXjX%XoXe w.r.p.Z.S.C.p.w.y.c.B.B.p.w.r.t.p.w.e.c.S.t.A.f.C.C.X.r.w.t.U.qXt.u.w.x.",
"K.H.x.y.u.x.y.K.u.u.H.*.u.D.x.K.:.>.:.r.X.h fXjX%X$Xt ,.i.>.r >.A...Z.d.x.w.K.x. .H.H.n.5.z.sXK.p.F.d.H.K.e.u.x.t.r.S.q.f.I.p.z.",
"H.p.x.M.F.c.D.V.H.1.t.w.c.0XD.&.>.d.p.d.j fXjX=XgXa ,.B.d.r fX8.- u.rXw.H.} C.t.u.x.u.y.M.M.z.y.i.C.C.c.c.C.V.D.r.qXqXr...b.5.M.",
"..w.x.x.H.K.tXy...u.x.e.x.c.v.z.G.B.i.p fXjX%XgXjXQ e >.i.e hXvXy >.p.Z.y.i.u.c.x.K.3.M.H.M.M.*.A.S.C.B.*.wXC.G.iXA.t.q.Z.x.y.M.",
"p.H.y.y.*.Y.yXx.w.w.u.e. .y.J.c.i.9X#.E.cX&X- - &X2XE e *.i hXxXy } K.t.Z.w.x.w.m.H.w.x.u.3.b.n.9Xd.H.C.z.D.K.wXS.C.X.w.t.p.4.z.",
"S.t.X.p w.>.uXtXH.x.y.w.*.z.J.4.i.G.uX#.#Xa n.G.- $X2XW # #XjX.X- H.uXK.K.H.p.u.p.*.K.K.V.x.y.x.9Xt.p.0Xe.i.x.D.S.C.r.C.u.M.M.M.",
"H.t.` >.&.%. .i.B.G.p.y.4.z.c.M.C.G.rXp.p ..d.p.u.- ).2X2X'.0.y w.C.p.C.H.e.H.C.r...C.e.*.y.H.F.d.t.C.p.e.| p.u.wXC.p.x.M.5.M.y.",
"p.w.w.Z.e.y.>.y.u.x.D.D.*.c.J.J.G.r.p.r.d.d.d.y.C.t.. XX2XjX9.i H.i.i.p.C.>.H.C.*.F.B.C.w.y.yXV.:.p.d.G.w.p.V.p.F.uXK.x.u.H.z.4.",
"H.w.w.C.*.u.C.D.i.K.K.C.y.c.l.J.y.....d.C.f.w.t.*.u W 2X}.|.lXW p p $.w.u.x.e.p.p.C.y.H.F.i.p.w.X.r.d.C.3.p.u.i.F.C.c.e.tXM.y.x.",
"p.r.F.C.u.B.*.| y.C.Y.x.y.&.-.c.l.3.X.p.A.:.H.rX%.T cX&Xu 7 @XkX|.9.X s.*.r.G.r.>.B.H.rX0XC...w.>.d.f.r.r.wXZ.B.w.-.D.tXyXn.4.&.",
"X.t.V.D.*.x.i.n.w.C.H.F.c.z.c.y.D.*.x.i.r.d.d.i.y.j 8.* $.L.t &XkXxX[ 2.e.c.p.w.>.C.H.D.G.G.G.c.p.r.r.X.p.B.F.x.c.F.D.c.K.T.M.u.",
"e.s.H.u.y.y.t.x.*.` %.x.*.&.z.-.c.M.F.p.t.:.A.:.e.K.=.=.M.D.- hXvX&Xu t.e.B.x.i.B.G.H.B.x.u.C.w.r.C.i.w.Z.r.Z.u.x.D.M.x.M.V.3. .",
"p.G.e.c.3.x.y.F.t.e.x.} } ] | ' ,.u. .| C.1.y 9 ; s g g +.r.e 4 y 8 R e C.F.H.D.d.F.i.*.>.*.x.i. .H.B.C.f.r.C.n.&.D.K.l.M.z.3.1.",
"H.C.x.u.D.y.4.*.| w.u.` c.l.%.c.l.&.| D.r.e X d q q ( -Xd i e.e.3.4.= $ j A.u.x.| F.x.x.B.v.v.y.y.K.G.H.C.p.x.H.K.z.l.z.n.u.e.wX",
"..x.c.K.u.c.e.D.p.X.p.u.tXD.-.J.c.z.J.u.r . P ) 6X`.9 I U 5 +.p.t.C.3.* $ r $.l.D.H.i.i.i.,.v.C.y.i.y.u.A.p...x.l.T.T.c.*.m.H.aX",
"H.x.e.*.y.G.F.z.i.*.e.e.z.x.z.*.z.M.z.;   ^ ;X].! ( L 5 L ;Xf h x.t.f.b.*   ; <.l.@.,.x.v.l.v.c.v.B.x.d.wXH.p.p.v.l.6.| y.s.s.t.",
"e.i.D.w.| C.c.x.w.A.w.e.x.y.&.%.@.z.s o V :X5X^ f 9 P q . P -X@ #.6.G.H.+.z SX!.  g h ,.,.l.D.v.w.K.C.e.C.G.n.x.J.%.5.%.F.2.s.U.",
"e.D.V.y.d.%.>.n.x.n.tXC.K.>.u.>.&.u   n 7X7X(.$ $ * L U 9 # I 0 * Q.$.u.] !.ZX; g mXk.o.>.y.K.D.n.c.>.B.d.G.x.t.n.N.7.N.m.P.7.N.",
"w.u.c.r.y. .w.` *. .D.B.F.x.x.K.v.+.  H CX6XC = % $ 5 L 9 O q j.; AXQ.o.t.u.w O 5XNXVXh.o.y.v.D.y.3.w.i.>.d.i.u.m.I.7.7.7.T.N.P.",
"x.t.C.F.w...p. .w.*. .*.>.y.B.V.O.9 $ / BXk.= # % = 0 L 6 X k.-X. ; Q.  &.p.- O 0 / 5X5XX >.i.K.x.*.i.y.B.G.C.u.s.I.7.7.7.N.N.z.",
"C.e.u.K.i. .H.x.H.H.>.| %...B.*.p Y 6 ^ BXC . $ 5 q L q @ . j.Y . @   # f & . 0.].).Y k.- >.y.K.F.w.u.B.x.D.i.*.3.a.2.7.b.b.M.b.",
"w.B.d.p.r.C.H.X.u.G.y.:.` } X.` 6.L 5 4XBX8 @ 0 f q 5 $   $ j.P . $   X C K . V _.OX'.3 o e >.C.b.u.i.B.>.B.D.u.Y.I.6.u.5.6.z.M.",
"A.t.t.A.H.i.r.r.B.C.B.C.:.B...p.6.5 . 4X8X~ = X = $     $ I j.!   = I @ K B < , D D G |.  . e i.K.F.x.D.x.K.K.Z.m.m.5.u.5.5.M.M.",
"p.C.9Xt.r.i.p.d.d.p.r.w.>.w.e.4.u.+.  4X6XB # .   . X X * I ) ;X* @   J oX. c A A ~.v 8 . 2 D t uXH.x.n.C.H.B.w.u.n.n.p.u.e.w...",
"d.t.9Xr.q.>.C.9Xn.9XF.t.D.| 6.0 w h   5X6X#   . 5 $ = = 7 L j.! . 5 0 8 Q   > Z Z ~.1 > @ 7 [.A k n.C.x.Z.H.i.3.C.Z.wXH.F.C.x.i.",
"f.C.f.1.X.t.t.H.rXH.p.r.w.Y.g VX; 5   U :X-X5 . 0 6 X 5 I L ( q . 0 k.K ).  . v m m 2 , 4  .7 ~.> h H.u.S.f.} p.p.:.9XrXd.p.p.q.",
"w.H.C.X.r.d.r.C.qXp.C... .Y.h 4X5Xh.  l C 8X-X$ $ 0 P P ;X-X5   @ $ o y oX4   O , 1 , O t B.o.o dX_ d.A.g.f...p.r.Z.0XS.q.S.} t.",
"qXA.p.t.C.t.C.G.H.*.F.p.u.V.F.L mX3 + x : J 6XL   6 :Xj.j.f   $ 6 I #   K (.W 4 . O O p x.d.z.r ;._ f.U.a.f.p.C.t.C.H.p.q.s...A.",
"q.t.Z.A.F.p.wXB.r.x.Z.Z.a.s.b.9 h.b ^.. .   Y ;X9 ; 0 5     $ 0 P P @ X . K (.*     <.x.C.r.9Xu.' C.t.d.q.U.U.Z.rXG.d.r.A.p.p.s.",
"5.eXF.Z.u...:...e.i.u.K.Z.2.3.k o ! <Xm 1 1 . d ~ H   .   % q 7 5   @     X   c +   h G.e.C.t.r.t.f.B.p.a.A.C.F.G.0X>.>.x.x.3.3.",
"Z.U.e.Z.n.w.e.p.3.a.p.Z.R.Z.3.7.] a G ~.v v 2 + < C % % @ L P P X .   > 1 > , G /.#   r G.F.r.d.A.d.G.H.Z.e.3.F.J.i...,.w.n.5.u.",
"I.F.C.I.F.C.C.p.x.u.p.F.I.R.a.m.u.#.2 ~.D v 2 2 +   X 5 $ P q @   + > c v , 1 1 (.).X o rXS.q.p.d.i.B.G.e.2.4.M.K.%.O.,.-.4.5.2.",
"s.Z.s.Z.U.2.e.uXV.F.p.n.I.m.pXI.F.K.h c Z 2 1 2 .   . . . . . O > > 1 c 2 F W < c (.~ O w A.:.u.r.B.x.C. .4.F.&.&.c.,.v.-.&.c.J.",
"Z.m.s.s. .Z.pXZ.p.V.b.s.m.m.yXaXN.b.a.u $ , O X X & 4 R n > , Q ).b 1 v V oXlXQ + c  XW ; p + 4 ' :.f.B.u.y.x. .>.D.B.*.rXC.D.e.",
"f.t.Z.s.q.C.yXeXI.V.H.m.F.m.x.Z.N.Z.m.p.a.t - D.p.f.] U }., > oX1X+XQ Q +X%X1XOX, + S *X, o ( E o.C.t.B.w.C.,.*.,.%...D.wXD.B.i.",
"q.3.Z.s.s.n.m.w.eXY.tXF.e.m.s.b.m.a.a.m.s. .s.F.r.w...&.8 F b , b  X@Xb > 1 F Q v > , _.<Xz W.: o.t.r...Z.B.x.y.,.| { { tXH.G.x.",
"2.s.U.m.e.u.s.s.s.I.b.H.p.u.u.I.m.H.I.m.m.s.H.2.A...:.wX@.6 V 1 > 3 E V 3 > > 1 v 2 > 3 $X@Xb   ' r.d...tXi.x.w.*.>...*.*.D.C.u.",
"C.Z.p.u.u.e.u.Z.p.w.t.x. .u.V...Y.I.a.w.Z.3.r.m.p.p.C.d.w.] 5 E 1 + , ).`.+ , ).R m m O 3 3X`.  o.C.t.C.F.>.y.>.w.v.y.i.i.i.*.*.",
"s.I.t.s.s.s.s.e.e.p.p.` b.H.3.u.b.n.a.5.u.3.Z.H.C.C.tXt.t.u.r Q V > + C *XQ b =X1XA A c 7 ).OX8 =.9Xp.H.d.y.c.C.l.C.x.%.D.y.>.D.",
"..Z.m.3.2.e.s.m.u. .p.n.uXH.3.H.u.3.s.yXeXf.V.qXZ...u.F.p. .- ).R > 1 K Q C B Q Q Z Z v + E {.3 * &.u.i.i.%.| w.,.x.D.y.` y.D.0X",
"H.Z.V.e.s.C.s.m.Z.3.u.Y.p.C.n.w.u.u.5.u.F.Z.q.s.w.A.e.H.p.p.w R (.2 1 F R + 3 1 2 Z Z c + Q ,X3   ' x.u.G.x.{ y.y.y.D.y.i.B.B.i.",
"m.p.H.Z.e.C.s.s.3.t.r.r.F.p.p.r.u.u.w.s.w.p.q.p.C.m. .Z.F.t.z.6 (.S > F _.N , , c m A M > 1 *X9.  =.x.i.B.p.*.*.*.*. .| c...y.x.",
"w.m.Z.s.s.b.p.Z.V.C.I.C.H.i.F.u.3.3.3.p.s.x.p.H.C.p.C.i.p.b.w.s.J +X3 N 1XOXb 3 c m Z Z c > E Q   =.d.i.p.v.>.*.x.i.>.l.0Xv.c.B.",
"..b.H.p.w.3.s.u.w.u.H.Z.rXB.C.Z.3.p.m.r.u.t.C.C.w.{ C.C.b.p.3.y.3.J _.v R kX*Xn , c m Z Z 2 3 ].E p >.e.x.x.y.p.w.v.w.l.i.*.y.u.",
"F.3.p.K.M.w.p.s.V.C.U.U.i.p.K.H.s.b.m.p.s.w.p.H...d.w.i.p.x.y.u.w.+  XR , S E 2 1 c v v A M , 3 <XV *.u.y.B.y.*.,.C.y.D.D.J.x.%.",
"u.p.C.B.V.H.C.H.p.m.p.e.t.n.m.V.u.Z.Z.C.Z.s.C.f.w.p.w.G.V.r.*.%.w.w (./.c c A Z 1 v m M A Z c > .XJ i.c.y.H.D.>.*.C.x.J.l.D.x.i.",
"x.w.c.C.x.H.V.uXV.p.Z.u.t.p.r.` Z.aXeXs.:.C.H.C.i.B.i.>.H.y.3.F...p.B /.v 2 M m 1 2 M Z A Z c > G 3 w.B.y.i.y.%.J.B.*.y.,.>.i.x.",
"H.x.x.B.x.tXwXu.s.H.Y.s.a.u.p.Z.s.I.H.eXwXC.s.d.r.x.K.B.D.K.K.x.r.3.8 _.M Z n v v v m m Z M 2 > (.L w.G.x.x.D.C.i.y.*.y.*.| %.&.",
"u.x.D.D.D.e.p.x.u.C.C.t.1.a.q.s.Z.p.w.H.yXH.C.w.H.u.p.wXH.x.u.x.d.:.# _.G M m m , + > + + 2 m 1 ).B v.e. .x.D.w.,.*.w.w.v.&.y.&.",
"f.s.qXt.w.r.B.A.t.t.X.s.f.1.Z.s.i.p.V.x.n.F.C.K.G.V.t.p.V.e...s.9Xw.+ )./.A 1 +   i ] @.@.a > N F # D.t.e.x.*.q.r.p.r.r.r.y.y.*.",
"f.f.f.w.X.r.>.C.S.g.t.r.q.f.Y.f.p.%.G.G.x.X.u.rXH.C.p.H.w.` n.u.g.qX3.T oX+ . #.5.w.t.r.C.Y.&.y }.T K.u.i.B.X.i.r.w.S.U.G.F.y.*.",
"s.A.H.` i.u.c.C.eXp.s.t.w.wXI.m.X.w.G.>.} } rX:.B.C.U.C.w.1.n.t.t.iXq.X 4 e c.L.C.1.} C.C.} | h - * G.D.D.n.| x.t.d.qXwX .B.&.c.",
"t.t.p.u.G.v.i.C.C.X.i.w.1.C.3.w.t.X.d.d.r.d.d.p.u.r.V.t.r.w.w.r.g.q.wXy.M.w.C.x...Y.p.C.p.y.K.V.e.Z.r.wXK.e.B.p.x.t.Z.w.e.D.w.l.",
"t.r.C.C.B.i.i.i.y.p.H.e.u.b.4.w.:.f.t.t.r.A.r.:.d.w.w.p.i...n.C.p.C.B.D.D.-.J.z.p.c.w.y.C.D.z.x.f.Z.V.i.u.F.F.D.d.wXZ.p.i.D.w.D.",
"B.B.wXv.B.,.B.*.i.C.B.%.y.y.y.y.t.f.d.d.d.qX} f.i.d.t.e.x.C.d.H.i.>.x.B.*.y.v.x.c.V.x.n.H.c.v.%.H.s.K.i.>.tXn.H.wXH.w.} H.y.l.l.",
"i.d.i.0Xv.,.>...C.c.u.x.B.x.z.c.d.t.q.d.B.B.p.G...C.C.%.y.wXy.C.p.{ sXx.F.c.x.3.F.K.u.y.4.} D.Z.H.H.p.wXF.p.H.H.p.C. .t.t.u.4.z.",
"i.i.>.i.>.,.B.i.B.B.K.0Xv.v.i.x.i.w.B.d.d.G.rXA.d.i...y.>.D.B.x.*.K.tXK.0XD.D.x.y.*.V.D.D.w.l.M.C.d.p.H.u.w.x.x.H.C.r.C.u.p.y.3."
};
