/* XPM */
static char *c1dcb3ad00c648849406163d1ecb03466B3KcmOirKGczJsl[] = {
/* columns rows colors chars-per-pixel */
"64 64 241 2 ",
"   c #020101",
".  c #0B0402",
"X  c #0C0A04",
"o  c #030607",
"O  c #140202",
"+  c #1C0101",
"@  c #140C05",
"#  c #1B0D06",
"$  c #150B08",
"%  c #1B0E09",
"&  c #0C1205",
"*  c #1C1205",
"=  c #1D110A",
"-  c #171A07",
";  c #181A10",
":  c #050E14",
">  c #240201",
",  c #2C0202",
"<  c #260C04",
"1  c #330303",
"2  c #3B0203",
"3  c #380904",
"4  c #23140C",
"5  c #2A160C",
"6  c #2C1A0F",
"7  c #241B07",
"8  c #321C0E",
"9  c #391505",
"0  c #2E1B12",
"q  c #291A13",
"w  c #341D12",
"e  c #391E12",
"r  c #1A220B",
"t  c #1F2A0A",
"y  c #182406",
"u  c #1B2212",
"i  c #262809",
"p  c #392207",
"a  c #24340C",
"s  c #2B3A0B",
"d  c #393704",
"f  c #272714",
"g  c #3E2315",
"h  c #372416",
"j  c #2A3C11",
"k  c #2A3615",
"l  c #353A16",
"z  c #021425",
"x  c #041632",
"c  c #2E302A",
"v  c #430403",
"b  c #4C0403",
"n  c #480A04",
"m  c #540402",
"M  c #5B0403",
"N  c #540808",
"B  c #471705",
"V  c #571906",
"C  c #4D1E14",
"Z  c #620303",
"A  c #6B0303",
"S  c #660D03",
"D  c #740403",
"F  c #651B08",
"G  c #741708",
"H  c #482404",
"J  c #582709",
"K  c #473604",
"L  c #5F3405",
"P  c #432515",
"I  c #4B291A",
"U  c #492617",
"Y  c #522E1A",
"T  c #572615",
"R  c #58311D",
"E  c #672807",
"W  c #792A0B",
"Q  c #693709",
"!  c #7B3A09",
"~  c #68321C",
"^  c #583623",
"/  c #4C3223",
"(  c #6B3B22",
")  c #663823",
"_  c #753F25",
"`  c #094306",
"'  c #2D4C02",
"]  c #2A4506",
"[  c #334D0C",
"{  c #324D08",
"}  c #2F5107",
"|  c #345305",
" . c #36540B",
".. c #3A560B",
"X. c #3C5B0D",
"o. c #385907",
"O. c #2E4414",
"+. c #344B14",
"@. c #364817",
"#. c #365312",
"$. c #3B5514",
"%. c #3D5C12",
"&. c #3B531B",
"*. c #3F5C1A",
"=. c #3E610C",
"-. c #3F6212",
";. c #3E611A",
":. c #4C4901",
">. c #534903",
",. c #415E0E",
"<. c #40570F",
"1. c #425E13",
"2. c #435E1B",
"3. c #4A5D1A",
"4. c #41551B",
"5. c #525E1C",
"6. c #444412",
"7. c #684706",
"8. c #734F05",
"9. c #41620E",
"0. c #446314",
"q. c #496516",
"w. c #466915",
"e. c #496A16",
"r. c #45641A",
"t. c #4A661B",
"y. c #46691A",
"u. c #4B6B1C",
"i. c #516C1E",
"p. c #52651B",
"a. c #4E711D",
"s. c #52721E",
"d. c #746602",
"f. c #465922",
"g. c #525E20",
"h. c #69462B",
"j. c #78462A",
"k. c #765637",
"l. c #456520",
"z. c #4A6523",
"x. c #4D6C22",
"c. c #4E6C29",
"v. c #4A6826",
"b. c #526D23",
"n. c #5A6B25",
"m. c #536D2A",
"M. c #5C6E2B",
"N. c #546424",
"B. c #4E7122",
"V. c #537224",
"C. c #597426",
"Z. c #567824",
"A. c #597A25",
"S. c #55742A",
"D. c #5A752A",
"F. c #56792A",
"G. c #5B7A2C",
"H. c #567331",
"J. c #5D7C32",
"K. c #5B6F30",
"L. c #62752D",
"P. c #607C2E",
"I. c #627D32",
"U. c #627735",
"Y. c #7C633B",
"T. c #053467",
"R. c #72706E",
"E. c #464A4B",
"W. c #8C0905",
"Q. c #B50706",
"!. c #862A0B",
"~. c #86360D",
"^. c #96380E",
"/. c #8A3911",
"(. c #962814",
"). c #AD330A",
"_. c #B33823",
"`. c #CC3B0F",
"'. c #8B470B",
"]. c #8C520D",
"[. c #95560D",
"{. c #994512",
"}. c #944B11",
"|. c #A95A08",
" X c #A64B13",
".X c #A85810",
"XX c #B4530E",
"oX c #956D09",
"OX c #B76709",
"+X c #BA7707",
"@X c #B66613",
"#X c #9A5836",
"$X c #895331",
"%X c #A7633A",
"&X c #A05436",
"*X c #C74E10",
"=X c #C96809",
"-X c #C97407",
";X c #CD7A13",
":X c #D3790C",
">X c #C54A35",
",X c #CC623F",
"<X c #E4450D",
"1X c #996F48",
"2X c #AB7B4F",
"3X c #AC724A",
"4X c #BC7C70",
"5X c #CE7B4F",
"6X c #E17F52",
"7X c #0B8E14",
"8X c #5E812C",
"9X c #5E8233",
"0X c #62812D",
"qX c #638234",
"wX c #65843A",
"eX c #6A863A",
"rX c #6C8A3D",
"tX c #688637",
"yX c #71823C",
"uX c #6D8A42",
"iX c #759143",
"pX c #778E46",
"aX c #B38E06",
"sX c #958C01",
"dX c #D48C0B",
"fX c #E69208",
"gX c #CEAC04",
"hX c #EDA908",
"jX c #E3B704",
"kX c #FAAC10",
"lX c #EAC704",
"zX c #EED701",
"xX c #FFF504",
"cX c #B4885A",
"vX c #B68963",
"bX c #C78957",
"nX c #CD9365",
"mX c #EEA676",
"MX c #898989",
"NX c #979797",
"BX c #AFADAB",
/* pixels */
"1.m.C.x.1.r.C.t.i.b.tXG.G.y.C.x.1.p.t.q.t.m.a.A.0.e.0.-.w.u.0.y.u.y.0.r.u.y.0.y.x.B.x.y.0.y.x.F.e.u.0.y.u.S.%.r.r.r.r.z.z.S.c.B.",
"b.t.b.n.t.x.1.x.p.m.G.J.b.u.G.G.p.b.S.t.i.t.y.G.e.w.e.G.a.0.-.u.y.V.y.e.z.B.S.0.B.y.z.a.%.X.G.x.-.%.%.l.r.S.r.%.%.z.*.%.c.S.H.r.",
"b.t.m.I.C.C.b.D.P.u.i.e.0.u.A.G.%.z.I.D.S.C.e.y.1.i - 0.u.V.u.e.y.V.y.%.y.B.u.r.e.u.a.u.e.%.y.r.u.%.y.x.z.S.m.%.' 2.%.l.v.l.l.*.",
"b.t.b.C.n.D.P.tXu.t.i.V.u.u.e.| D.uXC.i.w.u.qXu.* lXaXi %.a.Z.S.e.V.x.u.F.S.r.r.0.B.w.e.0.-.-.*.z.0.y.z.y.z.C.X. .*.*.b.v.l.*.;.",
"m.p.t.i.b.C.P.D.C.P.P.q.,.e.u.0.n.qXyXI.e.Z.u.Z.& lXlXgXi 0.J.F.Z.a.y.u.c.r.r.x.=.V.a.e.X.o.;.S.B.l.u.S.z.B.S.V.b.r.' *.$. .*.v.",
"s.V.V.Z.i.i.s.t.e.s.P.q.q.u.,.i.D.e.9.tXiXG.0.#.:.gX+XjX8.a x.B.a.e.0.z.r.-.x.y.Z.A.B.s.X.%.0.y.w.V.y.x.e.Z.i.Z.V.x.x.x.y.#.#.-.",
"u.C.A.u.e.q.i.s.q.s.,.q.e.,.i.i.i.b.A.q.u.qX$.:.jXOX=XL O.V.S.S.-.a.z.B.r.x.J.r.u.9.w.s.Z.S.S.z.u.9XZ.a.V.qXt.e.x.V.F.y.y.;.y. .",
"e.Z.C.,.0.w.e.P.s.s.,.i.s.q.P.i.p.9.i.G.s.[ :.jXOXOX7.a u.B.r.[ a.a.y.-.%.l.J.x.e.w.Z.Z.u.-.t.z.s.A.Z.e.s.A.o.X.w.e.G.G.V.V.B.%.",
"e.V.Z.| 9.t.w.C.yXq.Z.q.,.I.P.i.=.0.Z.V.] :.jXOX+X7.+.y.y.1.6.' +.r.u.0.y.c.x.V.a.0.e.e.a.r.y.v.A.e.Z.Z.V.s.o.e.w.i.A.0Xa.w.r.u.",
"I.G.b.r.u.x.t.J.t.e.G.1.t.V.v.J.-.-.=.] :.jX-XdXaXK ;.y.y.O.d.zXd y C.u.u.0.G.x.X.D.G.v.f.l.uXJ.u.F.u.J.J.y.e.z.a.9.P.9.s.L.t.x.",
"G.x.x.S.D.v.S.S.G.1.t.0.V.J.S.*.-.a.j d.jX:XQ 8.hX X3 +.u.' d xXoXk tXe.G.' V.y.t.x.t.t.b.M.v.r.y.Z.B.x.b.m.S.V.w.0X0X9...b.t.m.",
"X.0.x.x.G.J.wXr.,.q.u.y.z.x.v.v.F.u.j d.lX8.a a 7.dX|.3 a s aXhX8.t u.Z.e.t.z.V.x.J.1.b.H.M.b.<.Z.Z.V.b.%.qXS.C.tXs.a.9.C.b.2.m.",
"e.G.r.r.%.I.rXv.0.0.t.y.X.r.H.v.y.9XB. .>.a =.C.a L =X|.Q ! fX|.i ] 0Xe.V.y.z.-.M.G.r.b.t.1.x.b.8Xa.G.V.v.C.J.qXA.s.o.w.t.i.2.v.",
"G.e.| s 0.%.rXqXG.x.r.0.%.v.H.r.w.Z.rX9X[ y.Z.F.t.a V OX-XXX~.s X.0XuXJ.J.C.u.u.u.X.G.J.S.x.r.x.A.a.u.J.r.t.x.S.C.V.t.V.t.b.m.M.",
"A.t.' -.*. . .y.i.G.u.r.2.v.v.H.V.J.tXe.a.w.a.u.u.0.   X-XdXaX9 [ s.u.B.G.0.G.V.y.X.C.y...r.D.D.a.e.Z.u.y.| x.y.qXZ.b.u.b.t.v.r.",
"u.w.0.S.r.t.%.r.u.u.S.S.%.v.H.H.F.0.a.w.a.a.s.0.e.i '.=X[.H :XOXK - y +.S.0.G.C.%.S.x.B.q.y.rXb.=.y.u.Z.1.u.V.u.S.rXJ.v.t.D.v.2.",
"G.w.0.V.%.z.V.S.y.J.J.V.r.c.l.H.r.%.X.u.Z.Z.9.e.%.7 kXaXi a Q dX|.oXK a u.u.y.z.u.x.w.G.S.y.u.0.o.w.u.Z.1.u.u.y.V.S.m.y.qXm.r.v.",
"e.q.C.S.u.x.X. .r.V.I.x.r.$.*.c.l.1.X.a.a.9.A.wXy.O.p - - J.@.7.dXhXsX .X.q.S.e.0.B.G.tX9XB.X.0.w.a.a.y.w.qXV.V.%.1.S.qXeXm.1.%.",
"..t.V.V.%.z.t.B.1.V.J.S.x.v.v.r.b.1.x.q.w.u.s.y.z.r.#.4.v.qXf.>.xXhX7.s q.B.u.0.-.S.J.F.F.G.F.B.u.y.0...u.V.F.z.V.S.H.m.D.U.b.f.",
"q.a.F.u.t.r.u.u.%.' X.x.*.$.v.*.c.S.S.u.e.X.Z.9.e.C.u.s.F.C.@.X i < E H O.V.B.r.a.F.F.x.x.u.S.-.e.B.e.0.C.q.Z.t.v.S.S.v.S.S.1.,.",
"u.S.y.x.0.z.e.S.e.y.u.| } [  .{ 2.l.%.o.Z.X.i 4 4 = 6 6 f 0.y.2.1.%.l # @ &.F.C.x.C.l.-.-.%.B.B.X.F.B.Z.a.q.V.b.*.S.J.r.b.z.1.%.",
"G.C.u.z.S.r.0.%...1.t.' B.r.+.v.2.$. .b.e.- . h q 8 h.j.R r t.e.w.i.s.k @ @ @.r. .C.B.x.B.B.;.;.r.G.Z.G.V.u.x.G.H.v.l.v.M.r.q.qX",
"X.x.b.J.z.b.r.S.u.o.u.u.wXS.r.H.v.v.D.l.; . T ( 4X(.5 U Y = i y.u.V.V.G.k @   : &.c.2.x.l.;.;.V.w.y.r.y.C.e.%.x.r.wXU.v.X.n.P.rX",
"G.x.y.%.r.D.S.v.t.X.y.y.z.v.z.#.z.M.x.& . Y $X_.~ j.I 6 P $XR i t.w.V.J.y.; f BXc   = &.l.l.v.c.v.B.x.x.qXG.u.u.v.f.2.#.y.i.i.i.",
"r.t.b.r.| b.b.x.0.G.0.r.B.r.%.#.[ z.q X V %X&X( U e g e $ w $Xe i z.S.G.B.k MXMX; @ cXl +.v.H.l.r.J.B.w.C.G.b.u.H.#.3.$.D.<.i.P.",
"y.C.V.y.x. .%.V.x.x.wXV.G.0.l.0.$.i   T >X5X_ 4 % # P R w $ T I   c @.u.0.u.a X 4 1XbXnXh &.9XS.x.x.0.B.u.B.a.t.i.M.5.n.n.K.g.M.",
"%.u.x.r.r.X.-.' %.X.S.B.S.z.x.F.v.f   (.mX>XT # = # % g w $ 4 ) < R.NXc y.a.V.f O h.Y.2X2Xo u.S.t.1.-.r.;.a.y.t.s.L.5.5.g.K.K.K.",
"b.u.V.C.0.X.u.X.0.%. .%.0.y.x.C.+.; . h.nXj.0 = = $ q g h O I %Xe   BXMXt B.0.< J V H h.$X& w.J.x.X.y.u.B.F.B.t.N.L.p.5.g.M.M.f.",
"V.y.u.J.y.X.F.x.G.G.-. .X.X.V.%.& ) $ j.6Xe @ % % 0 P P 4   Y #X#   R.E.= l & .  X*X=X!.I X +.J.D.2.u.z.y.F.u.%.3.t.<.5.N.N.M.N.",
"w.u.u.u.q.V.G.o.u.V.0.%.' }  .} k ( # 3XbX4 $ 0 0 P w 0     Y ( @ .     0 T > + 2 G G ).E     &.b.t.t.b.r.B.m.u.I.L.3.t.3.2.z.m.",
"C.e.y.Z.G.e.0.e.V.V.B.V.-.a.-.u.; P O vX,XC @ 5 e q .     5 ( _ #   h 8   V V # > D D b ].. O 1 f.H.e.S.x.J.J.S.n.n.3.q.3.r.m.M.",
"e.Z.8Xe.w.e.u.B.u.u.w.0.0.-.0.e.$.7   vX>X~ =   .     . X Y ( #XY   U 4 Q Q < v m Z W.2 + O , Q., 4.V.b.V.8Xx.0.y.i.b.u.t.r.q. .",
"a.w.8Xw.0.-.B.8Xs.8XC.q.V.| 9Xu.w.y   vX$X5 =   . X @ # @ U ~ $XI   $   [.Q . m A A D , > < a A Q., &.z.S.8Xe.1.C.C.qXG.C.V.x.y.",
"s.s.s.,.o.y.e.G.tXG.e.u.r.I.f.f 9.y   5X$X. .   w = # 4 6 8 ( $X$   j./ F 9   , Z M Z v > @ -.a m 2 : t A.V.| u.u.X.qXqXa.a.e.=.",
"q.A.s.X.w.e.0.V.qXu.V.,.X.l N./ & [ O.g _.#XR # 5 e * # R R R g   # ^ w ].J   . v b m 1 . +.V.r.o 7X7X& A.e...u.e.Z.qXZ.9.0Xo.e.",
"0XZ.u.u.s.u.Z.A.G.%.S.u.q.* cXcXh.h u.&.2 bX$X4 $ 4 j.h.&X&X5   # $ %   H }.*   , 1 1 . +.x.qXJ.j ` ` ;.e.s.i.V.y.x.G.u.9.e.X.C.",
"0.e.C.C.C.u.qXV.w.x.D.C.p.@./ 1X2X; & Z.u.h 3XU . o e 5 6 q   @ = ) U     E W {.4   . @.B.u.G.Z.a.&.r.e.0.P.G.C.qXF.a.y.Z.u.e.i.",
"1.tXD.C.u.X.X.=.q.y.t.I.C.1.a $XY.2 + - r o w #X#X(.X .     @ 5 g P 5 @ o $ U B o     C.w.B.e.w.y.a.B.u.p.G.V.G.9X9X-.-.z.x.1.q.",
"C.P.e.M.b.0.y.u.r.u.u.n.C.N.r / f W G m 2 , + 5 _ ~ % %   $ g 0 4 @   .     .   Z +   - F.Z.q.u.8Xa.Z.F.V.q.1.C.F.w.o.;.0.m.1.t.",
"L.C.n.P.C.V.m.u.u.t.p.D.U.D.3.i   [.).D m b 2 , $ o . % $ 0 Y U 8     . 2 2 , 2 G ~.#   u A.q.e.a.-.B.Z.q.<.3.m.J.#.[ ;.*.2.3.4.",
"i.C.n.C.P.X.q.rXC.C.t.n.L.M.yXL.c.f W.D Z m b 3 @ @ 4 8 $ e I @   . > , b v , 1 2 ~.~..   X X & y B.V.m...2.D.$.&.c.;.l.;.$.c.S.",
"C.s.i.i...C.rXm.t.m.b.x.n.b.yXpXD.r v W.D b v 1   . o .   . . O , > , v b v W T 1 b ~.E X   c NXy =.V.B.q.y.v.X.%.V.B.%.uXc.V.y.",
"C.e.C.i.0.C.yXtXD.C.L.m.D.n.b.n.N.n.i m m 1 . . . X < J V 1 , B '.F 1 3 n V @XdXV + b {.W o : ; y.z.-.r.0.V.;.-.;.%.o.V.qXS.B.w.",
",.,.C.i.i.i.i.q.tXI.tXC.t.b.b.i.M.p.x.; = X & C.y.w.{ 9 '.< O ! ;X@X/.E /.@X@X;X/., , S @X1 : z   O < X S.V.y.u.;. .} } U.J.F.B.",
",.i.I.i.q.e.i.b.p.G.b.P.p.t.t.D.n.L.P.n.C.i.G.X.Z.X.0.S.7 F 2 3 n W @X/.3 9 v W W n , 1 /.*X= z x I (.- wXx.x.;.%.-.X.%.-.S.V.u.",
"n.C.t.i.e.3.t.n.i.r.t.t. .t.S.,.I.L.p.3.C.1.e.n.e.u.b.i. .4 E > + 1 ~.!., + , 1 3 b 2 + V ;XXXO T.T.z o Z.%.r.-.r.l.r.r.l.y.%.%.",
"i.G.t.i.i.i.i.q.w.b.u.' b.D.1.t.x.N.t.1.t.,.m.I.C.V.qXt.t.+.9 F O , n {.F O 1 E V m b , > ~.<XW.: x o o x.0.z.V.l.B.y.%.c.r.-.S.",
"%.C.n.1.X.q.i.C.t...u.b.uXC.,.P.t.,.b.eXtXi.Z.P.C.X.t.C.i.] 8 W , O + '. XJ n dX.XA A 2 + C :XXX7 : : o l.X.X.r.;.x.S.u.} r.S.9X",
"D.C.C.0.i.n.b.V.C.1.t.P.u.V.V.0.t.p.3.t.D.C.0.i.,.G.q.G.b.t.z.9 J B + V }.~.N 8.}.G m m 2 , F @X*X. o o F.x.| r.r.r.F.r.y.x.B.y.",
"n.u.L.C.1.C.i.i.1.u.q.q.C.x.e.q.t.t.r.u.0.u.0.e.Z.i...V.D.u.b.@.T XXB O 1 W N O 1 B b A A v + W `.b   . B.z.-.%.%.X.#. .x.%.u.l.",
"r.n.C.u.i.b.u.C.V.n.G.V.F.e.S.u.1.X.,.t.i.u.u.G.B.u.V.e.z.u.t.f.7 W (.> + !.~.v , 1 v M A m , < @X[.    x.u.%.%.x.y.;.r.J.u.x.B.",
"..b.D.i.1.1.i.t.0.t.G.Z.tXV.V.S.q.i.m.r.u.q.V.V.0.| S.V.x.e.r.4.K Q V N ! W V 3 2 2 M m N v 1 V ! K a a x.x.y.l.r.y.r.r.l.%.r.z.",
"C.1.x.J.C.1.u.b.V.V.P.P.y.u.G.G.t.b.n.t.i.0.u.G.X.x.r.y.z.u.1.d [. X+  XkX.Xv 2 M Z A A m b n ^.!.- -.z.0.B.0.%.;.c.r.S.F.J.l.%.",
"u.z.V.B.S.D.B.J.u.n.u.t.t.V.b.C.t.C.C.C.C.u.V.i.=.a.0.F.S.q.%.k T ^.v J .X Xn 2 b m m Z A m v ^.).- y.x.r.J.S.-.%.V.x.H.l.B.x.r.",
"x.r.x.V.x.G.V.tXC.u.C.t.e.u.q.' C.pXtXi.9.V.G.Z.y.B.q.-.F.y.%.@.B  XV 1 Z S v 3 , , v N m 2 3 !..X- ;.x.r.x.y.%.F.V.%.r.;.0.l.z.",
"G.u.B.x.x.wXqXu.i.D.I.i.p.t.u.C.i.P.P.eX0XV.i.u.0.B.9Xa.V.J.J.O.+ ~.!.2 2 Z M 1 2 v b M b b , N }.- r.V.x.x.V.x.y.r.%.y.%.} #.-.",
"u.B.S.V.V.r.y.u.t.C.s.e.,.p.9.s.S.u.r.G.eXA.V.w.G.y.x.tXD.u.e.l 9 !.D M m Z Z M M Z M A b 2 n J 4 c.x.r.X.x.C.;.-.%.%.r.y.#.r.%.",
"s.i.qXe.0.e.V.Z.e.e.o.i.s.,.C.i.y.u.b.x.V.C.V.J.F.V.y.x.C.0.X.@.Q (.m A A Z A D D A D A b , V '.r G.S.e.y.x.X.=.w.u.e.e.r.r.r.%.",
"i.a.i.0.X.q.0.Z.A.Z.w.e.9.C.I.i.x. .F.8Xx.X.u.wXC.V.e.C.q.{ m.s 9 {.G Z m M > O + + O 1 b v S W r S.G.z.r.C.X.q.e.w.A.0XF.S.l.%.",
"s.s.G.' y.y.c.B.tXe.i.w.,.I.P.n.o.w.V.-.| | qX=.b.s.P.V.1.,.u.t.a B ^.G A ,     +.[ ] o . O v E 9 t S.F.M.x. .u.y.u.0XI.X.x.%.c.",
"e.e.e.y.F.x.;.B.V.o.e.0.,.C.1.1.e.=.u.e.0.a.B.e.e.e.C.e.q.0.0.w.s.i ].'.O   @.l.X.0Xu.t.*.+.. H [.y r.qXJ.r.b.x.u.u.C.0.q.S.r.r.",
"i.e.V.b.B.y.w.x.y.z.F.r.t.b.%.2.=.s.w.e.w.Z.w.=.x.9.=.u.u.X.B.B.e.j X @ @.#.S.v.z.b.0.q.x.S.&.o * t S.e.y.H.G.C.V.P.Z.u.y.S.r.m.",
"B.B.qXx.B.;.B.#.y.B.B.X.y.z.r.l.e.a.a.s.a.0X| Z.y.x.y.e.x.s.B.F.e.-.B.B.*.y.l.c.b.S.t.B.G.m.l.%.P.i.J.q.r.qXx.G.qXG.0. .S.u.r.z.",
"y.y.y.9Xl.y.-.X.S.B.z.u.x.x.z.x.a.a.=.e.B.B.a.V.=.B.x.X.l.9Xr.Z.u.| uXz.S.v.b.%.H.J.u.r.r.| S.S.A.G.u.9XC.u.G.G.u.s.o.e.u.r.1.z."
};
