/* XPM */
static char *result[] = {
/* columns rows colors chars-per-pixel */
"192 32 39 1 ",
"  c black",
". c #3A0000",
"X c #3A3A00",
"o c #00003A",
"O c #003A3A",
"+ c #3A3A3A",
"@ c #660000",
"# c #663A00",
"$ c #663A3A",
"% c #66663A",
"& c #000066",
"* c #3A3A66",
"= c #3A6666",
"- c gray40",
"; c #B66600",
": c #906666",
"> c #B6903A",
", c #DB903A",
"< c #DBB666",
"1 c #FFB666",
"2 c #003A90",
"3 c #3A6690",
"4 c #0066B6",
"5 c #666690",
"6 c #3A90B6",
"7 c #6690B6",
"8 c #3A90DB",
"9 c #6690DB",
"0 c #DBB690",
"q c #FFDB90",
"w c #FFDBB6",
"e c #FFFFB6",
"r c #B6DBDB",
"t c #B6FFFF",
"y c gray86",
"u c #FFFFDB",
"i c #DBDBFF",
"p c #DBFFFF",
"a c white",
/* pixels */
"                                                                                                                                                                                                ",
"                                                                                                                                                                                                ",
"           2ryyy0.    yyyyyyyy>     yyyyyyyy;            2ryyyyyyyyyyy<               2ryyyy.           6yyyy>         2yyyyyyyyyyyyyy<         &ryyyyyyyyyyyyyy<                               ",
"           2paaaq.    aaaaaaaa,     aaaaaaaa;            2paaaaaaaaaaa1               2paaaa.           8aaaa,         2aaaaaaaaaaaaaa1         &taaaaaaaaaaaaaa1                               ",
"           2paaaq.    aaaaaaaa,     aaaaaaaa;            2paaaaaaaaaaa1               2paaaa.           8aaaa,         2aaaaaaaaaaaaaa1         &taaaaaaaaaaaaaa1                               ",
"        ryyiaaaaq.4yyyaaaaaaaa, 6yyyaaaaaaaa;         &ryiaw:7paaaaaaaayy<         &ryiaaaaa.       4yyypaaaa,     &ryyiw:----9aaaaaaaayyy>  ryyiaaaaw:----aaaaaayy<     &ryyyyyyy0             ",
"        taaaaaaaq.4aaaaaaaaaaa, 8aaaaaaaaaaa;         &taaaq.2paaaaaaaaaa1         &taaaaaaa.       4aaaaaaaa,     &taaaq.    4aaaaaaaaaaa,  taaaaaaaq.    aaaaaaaa1     &taaaaaaaq             ",
"        taaaaaaaq.4aaaaaaaaaaa, 8aaaaaaaaaaa;         &taaaq.2paaaaaaaaaa1         &taaaaaaa.       4aaaaaaaa,     &taaaq.    4aaaaaaaaaaa,  taaaaaaaq.    aaaaaaaa1     &taaaaaaaq             ",
"        taaaaaaaq.4aaaaaaaaaaa, 8aaaaaaaaaaa;         &taaaq.2paaaaaaaaaa1         &taaaaaaa.       4aaaaaaaa,     &taaaq.    4aaaaaaaaaaa,  taaaaaaaq.    aaaaaaaa1     &taaaaaaaq             ",
"     ryyaaaaaaaaaypaw:aaaaaaaauypa0-aaaaaaaa;     &ryyiaaaaq.o--9aaaaaaaaayyy> &ryyiaaaaaaaa.       4aaaaaaaa,  &yyiaaaaq.    O--9aaaaq---#  taaaaaaaayyy0.--------$     &taaaaaaaq             ",
"     taaaaaaaaaaaaaaq.aaaaaaaaaaaa, aaaaaaaa;     &taaaaaaaq.   4aaaaaaaaaaaa, &taaaaaaaaaaa.       4aaaaaaaa,  &aaaaaaaq.       4aaaa1      taaaaaaaaaaaq.              &taaaaaaaq             ",
"     taaaaaaaaaaaaaaq.aaaaaaaaaaaa, aaaaaaaa;     &taaaaaaaq.   4aaaaaaaaaaaa, &taaaaaaaaaaa.       4aaaaaaaa,  &aaaaaaaq.       4aaaa1      taaaaaaaaaaaq.              &taaaaaaaq             ",
"     =--paaaaaaaw:--% aaaaaaaa0---# aaaaaaaa;     &taaaaaaaq.   O---9aaaaaaaa, o=--5paaaaaaa.       4aaaaaaaa,  &aaaaaaaq.    4yypaq--$      =--5paaaaaaaayy0.           o=-------%             ",
"        taaaaaaaq.    aaaaaaaa,     aaaaaaaa;     &taaaaaaaq.       4aaaaaaaa,     &taaaaaaa.       4aaaaaaaa,  &aaaaaaaq.    4aaaa1            &taaaaaaaaaaq.                                  ",
"        taaaaaaaq.    aaaaaaaa,     aaaaaaaa;     &taaaaaaaq.       4aaaaaaaa,     &taaaaaaa.       4aaaaaaaa,  &aaaaaaaq.    4aaaa1            &taaaaaaaaaaq.                                  ",
"        taaaaaaaq.    aaaaaaaa,     aaaaaaaa;     &taaaaaaaq.       4aaaaaaaa,     &taaaaaaa.       4aaaaaaaa,  &aaaaaaaq.    4aaaa1            &taaaaaaaaaaq.                                  ",
"        taaaaaaaq.    aaaaaaaa,     aaaaaaaa;     &taaaaaaaq.       4aaaaaaaa,     &taaaaaaa.       4aaaaaaaa,  &aaaaaaaq.2paaaq$++.             O++paaaaaaaaaaa1                               ",
"        taaaaaaaq.    aaaaaaaa,     aaaaaaaa;     &taaaaaaaq.       4aaaaaaaa,     &taaaaaaa.       4aaaaaaaa,  &aaaaaaaq.2paaaq.                   paaaaaaaaaaa1                               ",
"        taaaaaaaq.    aaaaaaaa,     aaaaaaaa;     &taaaaaaaq.       4aaaaaaaa,     &taaaaaaa.       4aaaaaaaa,  &aaaaaaaq.2paaaq.                   paaaaaaaaaaa1                               ",
"        taaaaaaaq.    aaaaaaaa,     aaaaaaaa;     &taaaaaaaaaaaq    4aaaaaaaa,     &taaaaaaaaaaq.   4aaaaa+++.  &aaaaaaaaaaaq$+X             taaaae@+++3paaaaaaaaaa1                            ",
"        taaaaaaaq.    aaaaaaaa,     aaaaaaaa;     &taaaaaaaaaaaq    4aaaaaaaa,     &taaaaaaaaaaq.   4aaaaa      &aaaaaaaaaaaq.               taaaae@   2paaaaaaaaaa1                            ",
"        taaaaaaaq.    aaaaaaaa,     aaaaaaaa;     &taaaaaaaaaaaq    4aaaaaaaa,     &taaaaaaaaaaq.   4aaaaa      &aaaaaaaaaaaq.               taaaae@   2paaaaaaaaaa1                            ",
"        taaaaaaaq.    aaaaaaaa,     aaaaaaaa;     &taaaaaaaaaaaq    4aaaaaaaa,     &taaaaaaaaaaq.   4aaaaa      &aaaaaaaaaaaq.               taaaae@   2paaaaaaaaaa1                            ",
"        taaaaaaaq.    aaaaaaaa,     aaaaaaaaaaae@  O++*taaaaaaaaaaq.4aaaa1+++.      O+3paaaaaaaaaaaaaa1+++      &aaaaaaaaaaaq.       4aaaa,  taaaaaaaq. +++aaaaaaaa1     &taaaaaaaq             ",
"        taaaaaaaq.    aaaaaaaa,     aaaaaaaaaaae@     &taaaaaaaaaaq.4aaaa1            2paaaaaaaaaaaaaa1         &aaaaaaaaaaaq.       4aaaa,  taaaaaaaq.    aaaaaaaa1     &taaaaaaaq             ",
"        taaaaaaaq.    aaaaaaaa,     aaaaaaaaaaae@     &taaaaaaaaaaq.4aaaa1            2paaaaaaaaaaaaaa1         &aaaaaaaaaaaq.       4aaaa,  taaaaaaaq.    aaaaaaaa1     &taaaaaaaq             ",
"        taaaaaaaq.    aaaaaaaa,     aaaaaaaa;            2paaaaaaaaaaa1                   2paaaaaaa                &taaaaaaaaaaaaaaaaa1         &taaaaaaaaaaaaaa1        &taaaaaaaq             ",
"        taaaaaaaq.    aaaaaaaa,     aaaaaaaa;            2paaaaaaaaaaa1                   2paaaaaaa                &taaaaaaaaaaaaaaaaa1         &taaaaaaaaaaaaaa1        &taaaaaaaq             ",
"        taaaaaaaq.    aaaaaaaa,     aaaaaaaa;            2paaaaaaaaaaa1                   2paaaaaaa                &taaaaaaaaaaaaaaaaa1         &taaaaaaaaaaaaaa1        &taaaaaaaq             ",
"        taaaaaaaq.    aaaaaaaa,     aaaaaaaa;            2paaaaaaaaaaa1                   2paaaaaaa                &taaaaaaaaaaaaaaaaa1         &taaaaaaaaaaaaaa1        &taaaaaaaq             ",
"                                                                                                                                                                                                ",
"                                                                                                                                                                                                "
};
