/* XPM */
static char *result[] = {
/* columns rows colors chars-per-pixel */
"32 32 6 1 ",
"  c black",
". c #660000",
"X c #000066",
"o c #FFFFB6",
"O c #B6FFFF",
"+ c white",
/* pixels */
"                                ",
"                                ",
"      O+++++++++++++++++o.      ",
"      O+++++++++++++++++o.      ",
"      O+++++++++++++++++o.      ",
"      O+++++.                   ",
"      O+++++.                   ",
"      O+++++.                   ",
"      O+++++.                   ",
"      O+++++.                   ",
"      O+++++.XO++++o.           ",
"      O+++++.XO++++o.           ",
"      O+++++++++++++++o         ",
"      O+++++++++++++++o         ",
"      O+++++++++++++++o         ",
"      O+++++.   X+++++++o.      ",
"      O+++++.   X+++++++o.      ",
"      O++o.       XO++++o.      ",
"      O++o.       XO++++o.      ",
"      O++o.       XO++++o.      ",
"                  XO++++o.      ",
"                  XO++++o.      ",
"      O+++++.     XO++++o.      ",
"      O+++++.     XO++++o.      ",
"      O+++++.     XO++++o.      ",
"      O+++++++o.  XO++o         ",
"      O+++++++o.  XO++o         ",
"        XO+++++++++o.           ",
"        XO+++++++++o.           ",
"        XO+++++++++o.           ",
"                                ",
"                                "
};
