/* XPM */
static char *fff041583e204459fe694c984d56df37EClTXw8z2a9FEWD5[] = {
/* columns rows colors chars-per-pixel */
"64 65 228 2 ",
"   c #020103",
".  c #0C0C04",
"X  c #080709",
"o  c #130C02",
"O  c #150906",
"+  c #0D1304",
"@  c #151204",
"#  c #121B04",
"$  c #1D130C",
"%  c #141C09",
"&  c #1A1707",
"*  c #090916",
"=  c #161617",
"-  c #130F1D",
";  c #23120C",
":  c #271707",
">  c #331C0E",
",  c #3E1E0F",
"<  c #381E13",
"1  c #291910",
"2  c #1B240B",
"3  c #19240A",
"4  c #1B2311",
"5  c #1B231D",
"6  c #25260B",
"7  c #38240A",
"8  c #25380A",
"9  c #232815",
"0  c #392415",
"q  c #293913",
"w  c #3A3711",
"e  c #0C0C22",
"r  c #06072A",
"t  c #110F2B",
"y  c #171327",
"u  c #0C0D3A",
"i  c #121234",
"p  c #181739",
"a  c #0E112F",
"s  c #1E2326",
"d  c #2B2826",
"f  c #322D2A",
"g  c #383736",
"h  c #36332E",
"j  c #2A1E36",
"k  c #543700",
"l  c #432515",
"z  c #492919",
"x  c #532D1A",
"c  c #5B331D",
"v  c #4B3100",
"b  c #64371F",
"n  c #673E0B",
"m  c #493926",
"M  c #513734",
"N  c #6C3B24",
"B  c #653720",
"V  c #713E24",
"C  c #401E12",
"Z  c #2D4D02",
"A  c #294106",
"S  c #314C07",
"D  c #335405",
"F  c #395A05",
"G  c #35550A",
"H  c #3A550B",
"J  c #3C5B0D",
"K  c #365808",
"L  c #344A13",
"P  c #364918",
"I  c #3D5C12",
"U  c #3A511A",
"Y  c #3C5715",
"T  c #2E4B11",
"R  c #3F610D",
"E  c #3F6114",
"W  c #3E611A",
"Q  c #3E5322",
"!  c #415E0D",
"~  c #425E13",
"^  c #435D1B",
"/  c #4A5E1B",
"(  c #465A16",
")  c #525E1C",
"_  c #40451D",
"`  c #6B4804",
"'  c #774D01",
"]  c #754E0F",
"[  c #42630E",
"{  c #446314",
"}  c #496617",
"|  c #466915",
" . c #496B16",
".. c #45641A",
"X. c #4A661B",
"o. c #46691A",
"O. c #4B6B1C",
"+. c #51641D",
"@. c #516D1E",
"#. c #4E711D",
"$. c #4E7114",
"%. c #52721E",
"&. c #547819",
"*. c #544D2D",
"=. c #7D452A",
"-. c #784325",
";. c #674D36",
":. c #714D30",
">. c #4A6622",
",. c #4D6C22",
"<. c #496825",
"1. c #526D23",
"2. c #5A6C26",
"3. c #536D2A",
"4. c #576828",
"5. c #4F7023",
"6. c #557525",
"7. c #537224",
"8. c #587426",
"9. c #577924",
"0. c #597A26",
"q. c #55742A",
"w. c #5A752B",
"e. c #567829",
"r. c #5B7A2C",
"t. c #5D7C32",
"y. c #5A7732",
"u. c #5B6F30",
"i. c #61752D",
"p. c #607C2E",
"a. c #627D33",
"s. c #637735",
"d. c #151542",
"f. c #19194D",
"g. c #191744",
"h. c #1D1D54",
"j. c #1C1D5C",
"k. c #151A54",
"l. c #211C5B",
"z. c #261C41",
"x. c #25235C",
"c. c #2E2B46",
"v. c #1E1D63",
"b. c #211E61",
"n. c #1E2160",
"m. c #222264",
"M. c #24246B",
"N. c #2A2A63",
"B. c #252573",
"V. c #2A297B",
"C. c #272878",
"Z. c #433862",
"A. c #484746",
"S. c #555556",
"D. c #6F5948",
"F. c #79634A",
"G. c #676969",
"H. c #855803",
"J. c #986401",
"K. c #A76D01",
"L. c #BC7D00",
"P. c #B47802",
"I. c #AD7502",
"U. c #844A2C",
"Y. c #8B4D2D",
"T. c #834725",
"R. c #8E502F",
"E. c #93522F",
"W. c #99532F",
"Q. c #935331",
"!. c #9A5634",
"~. c #9D5835",
"^. c #8C5230",
"/. c #A55B36",
"(. c #A65C39",
"). c #8F6A32",
"_. c #A7723A",
"`. c #C07F01",
"'. c #8C6E4E",
"]. c #A8764B",
"[. c #866B60",
"{. c #5F802E",
"}. c #5E8133",
"|. c #62822D",
" X c #65882A",
".X c #638334",
"XX c #65833A",
"oX c #6A863B",
"OX c #6B893D",
"+X c #688836",
"@X c #72833C",
"#X c #759243",
"$X c #708B44",
"%X c #BD8001",
"&X c #C58401",
"*X c #CB8600",
"=X c #D38C00",
"-X c #D88F04",
";X c #DC9300",
":X c #EC9E00",
">X c #E29700",
",X c #F5A301",
"<X c #F8A600",
"1X c #EFA000",
"2X c #AB845E",
"3X c #BE976D",
"4X c #B88E6B",
"5X c #C5996B",
"6X c #C8A377",
"7X c #D6AB7D",
"8X c #2B2C83",
"9X c #2D2E8C",
"0X c #262889",
"qX c #302D8D",
"wX c #2E308D",
"eX c #2F3296",
"rX c #323295",
"tX c #34349C",
"yX c #302F93",
"uX c #3535A3",
"iX c #3939AC",
"pX c #3837A6",
"aX c #3C3CB4",
"sX c #DBAD82",
"dX c #E7B88B",
"fX c #F3C595",
"gX c #EFC593",
"hX c #FFD8A4",
/* pixels */
"~ 3.8.,.~ X.w.X.1.1.+Xw.r...6.O.( +.X.} X.2.O.r.{ | { R { O.| { ,.o.E { O.o.{ o.,.5.,.o.E O.O.e.o.X.{ o.X.q.I X.....>.>.,.q.q.<.",
"1.X.1.2.X.O.~ O.+.1.r.r.7.O.a.r.,.1.1.X.O... .r.| O.O.6.#.o.R O.X.6.O.o.O.,.q.{ 5.X.,.O.E J r.5.{ I I o...3...Y I >.Y Y 5.3.y.W ",
"4.X.3.p.8.8.1.p.a.O.@.O.[ O.9.r.I X.a.w.r.6.O. .#.O.| o. .9.#.| o.7.o.E o.,.,.{ { #.O.#.{ J X.{ X.I ..5.,.q.3.I Z ..Y >.<.W W W ",
"1.X.@.w.2.w.p.a.O.} 1.7.O.O.O.D r.@X8.@.{ O..X%.{  .#.O.{ 5.7.q.O.#.5.X.e.q...o.| 5.| | | W W E ,.W ..,...,.7.I G I Y q.<.<.W W ",
"1.O.X.1.1.8.p.w.2.p.p.} !  .O.{ 8.a.oXa.#.7.#.6.#.| 5.9.#.5.q.r.6.,.o.o.3.o...,.J 7.#. .J G W q.5.X.O.q.,.,.w.7.q...S I U T W <.",
"7.7.%.6.@.@.%. . .&.p. .} O.! @.w.@.~ +X#Xr.|  . .E  .5.5.o.5.q.#. .{ ,...W ,...9.9.#.%.J I { ..| 7.o.O.X.7.O.6.,.,.,.5.>.J J E ",
"O.6.0.@. . .@.@.} @.! }  .! @.@.+.@.0.} O.|.%.|.#.O.9.9.7.5.e.5.|  . .,...,.t...O.| | #.7.7.q.,.o.}.9.5.7..X . .,.7.e...o.W ..G ",
" .8.6.! [ } O.p.8.%.! @.@.} p.@.} } @.0.7.[ %.{.5.|  .E 5.5.O.{ #.#.o.W I <.e.,. .| &.0.#.....,.7.9.6.$.%.0.F R  .$.r.r.5.q.5.J ",
"O.6.6.D [ O. .6.+X} 6.} ! .Xp.@.R [ 6.%.F F 9.%.#.7.e.o.#.E ,.6.0.%.O.{ >.,.5.q.O.| |  .O.....<.0. .9.%.7.7.F | { O.p. XO.} ..,.",
"|.r.1...X.<.} y.X.} r.~ } q.,.s.E E ! | F +X0.J q.5.5.o.o.E E $.9.R 6.#. .E r.,.J w.w.1.>.>.$Xy.O.q.#.t.r.{ O.,.$.{ 0.[ @.r.X.>.",
"r.,.,.3.w.,.q.q.0.! O.{ ,..Xq.Y | O.O.O.0.+X{.6.J o.o.5.#.K E 5.%.7.XX| r.D q.X.X.,.X.^ 1.3.1.^  .7.5.5.,.q.q.q.| 0. X[ H 1.X.3.",
"J { ,.,.t.t.XX..! } O.X.,.<.<.<.e.#.$. .$.%. ... .,.E W o.o.#.9.| {  .7.o...O.5.,.t.^ 1.u.3.1.~ 9.0.7.3.I a.7.w.+X0.O.{ 8.1.^ 3.",
"O.r.....I a.oX,.{ { X...J ..Q & @ @ @ o @ @ . . X * 2 Y W y.o.e.o.K }.| 6.{  .W 8.w.{ 1.X.~ >.1.{.#.e.9.,.q.t..X0.%.F { } 1.^ >.",
"0.} K 8 ..I OXXXt.,.{ ..I P 6 ' J.J.J.K.K.J.n & l.C.p # # Q 5.e.[ .XOXt.t.r.O.X.O.I r.t.q.,.{ ,.0.#.o.t.o.X.,.q.0.7.O.7.X.1.3.3.",
"0.O.Z E I G J o.,.w.,.{ 8 6 ` *X,X<X<X:X*XK.' ] N.yXV.f.d.5 A 8 J 7. .5.r.{ w.8.o.J 7...I ..w.w.5. .9.,...D ,.} .X7.,.,.,.X.3...",
"O.{ { 6...X.I { O.O.8.q.O v L.;X,X<X,X;XJ.` ^.].*.i B.yXuXm.e * P ^ X.,.6.[ t.q.{ 8.,.5.{ } $X7.R  .#.7.{ X.7.O.q.OXt.1.X.u.>.^ ",
"r.{ { 7.I X.7.q.X.r.t.q.o k *X;X:X<X,X=XJ.).6X6X*.; j V.uXrX8Xm.y 8 t.{ O.,.o.O.O.5.| r.6.o.X.| F | #.5.{ O.O...6.q.,...XX3...<.",
"O. .q.7.X.1.I G ..q.}.,.@ k &X*X;X:X:X&X' ).dXdX2X'.F.c.B.rX8Xx.D.m 8 X.J { q.o.{ 5.r.XX}.5.J | E #.%.o.{ .X8.1.I ~ q.XXoX3.( I ",
"F  .8.8.I ,.o.5.~ 1.r.q.o v P.L.&X>X:XL.' ].dXfXgXfX6XF.c.g.u x.3X3X*.q ~ ,.,.{ E 7.r.q.e.r.e.5. .O.{ J O.7.e.X.7.q.y.3.w.s.1.X.",
"{ 1.q.O.....X.,.J Z I O.@ v P.&XL.=X:X&XH.].dXdXfXfXdX3X;.= r d.[.gX6X& L 8.5.o.5.e.r.5.,.O.e.W { #.| | 6. .q.X.<.q.q.>.q.8.~ Y ",
"O.w...,.~ ,.X.q.O.{ ,.G o v *X;X&X&X;X-XJ._.sXsX5X7XdX3X;.f.k.* - F.4X$ U q.r.7.#.e.o.I W J ,.o.I r.5.7.7.| 7.7.I 3.t...<.>.~ ~ ",
"r.6.,.X.q...{ I H E o.Z : ` =X;X&X&X&X&XI.H.).].m :.dX5X*.N.9Xf.* $ d . <.9.X.,.G q.,.,.,.,.o.W ..r.9.e.7.O.,.r.y.<.>.>.q.X.} .X",
"J ,.,.t.,.,...q.O.H O. .P 7 H.*X&XP.%X%X%XJ.' ] ;.'.4XF.f h.tXeXi   + P 3.o...o.5.e.X.5.,.W W 5.......o.9.O.J ,...a.XX>.~ @.p.OX",
"r.,...Y ..w.w.<.} ! ..O.O.L : H.I.P.L.%X%XI.] ] 5X4X:.f p k.V.tXb.e # ^ ..5.r.r.t...W ,.<.W <.5.,.5.,.#..Xr.O.X.<.W ^ L X.@.@.@.",
"..X.q.{ G 7.1.1.W r.{ { ,.>.A & ` K.J.H.J.v : ^.].:.m c.N.v.h.V.uXM.t # U |.1.y.r.I W W W X.y.>...r.7.{ 7.e.1.,.y.U ( Y w.! +.p.",
"} 8.q...,.G I 1.1.,.oX7.r.W >.T 6 > : : : O   l m :.:.c.C.8Xh.h.rXpX8Xb.= L | { 7.{ O.o.{ ..}.q.1.5.W 5.#.q.O.} 4.4.) 4.4.i.>.4.",
"J O.,.{ { J E Z J J q.1.q.,.,.e.% * r r u d.g.g.g.M A.x.0XtXC.j.M.rXaXuXn.d U 9.%.9.O.5.X.{ o.e...~ ....W #.O.} 1.s.) ) ) s.u.u.",
"5.O.7.r.{ J O.J W J J J { ..,.q.# i M.M.8XtXtXyXC.l.m.9XtXtXeX8Xf.n.pXiXaXB.= U T U I q.,.....y.,.J o.o.5.e.,.X.@.i.+.) ) u.4./ ",
"7...X.t.o.J r.O.r.r.W D J I 1.J # d.9X8X9XtXpXpXeXyXtXtXeXtXpXtXv.l.8XuXaX9Xp O o . 6 G 5.E ..t.w.{ X.,.O.e.o.I ~ ) ! ) 4.) 4.4.",
"{ %.#.O.| 7.r.J O.e.{ J Z D H Z 3 a C.tXtXtXpXpXpXtXrXrX9XwXrXrXwXm.f.v.9X9Xf.O z c > % % 8 W 7.1.X...5.W 5.7.,.a.i.( X./ ( >.3.",
"6. . .e.r.| { { 5.7.5.7.E #.J } 2 t V.iXaXuXtXtXtXwX8XwXrXtXrXrX9XB.m.n.h.j.z.x T.Y.V z 0 6 8 >.y.q.,.q.,.t.t.q.2.2.} / / / 3.3.",
"O.%.{. .| | #.5.O. .{ | | E | ..3 i qXaXiXrX8X9XwXV.C.wXtXpXiXuXV.V.rXV.k.u j N Y.Q.Q.Q.Y.x $ L 3.^ ^ 7.7.r.7.{ } 1.3.O.X.{ { Y ",
"$.| |.| [ E #.{.#.{.6.{ 1.D p.@.% d.uXaXiX9XB.h.B.B.m.9XwXtXuXpXtXpXrXM.8Xj.y < V Y.W.Q.R.Y.x . X X 6 ..6.r. .~ 8.6..Xr.q.6.,.X.",
"%.%.%.J D | O.r.+Xr.O. .} p.a.@.# p pXaXiX9Xf.- f.m.M.V.M.B.8XrXpXiXtXtXpXC.t ; x -.U.W.R.W.x X f S.g % p.%.D  .O.! }.+X%. .O.R ",
"{ r.%.J  .#.| 7.}. .%.~ ! p.a.} 8 5 j.pXaX9Xf.- e i d.m.M.x.M.V.rXtXtXuXB.d.- : 7 z z c =.U.x ; A.G.A.. 6.@.F @.{ 6..X0.[ {.D  .",
"|.6.O.O.%.O.7.9.r.I 2.@.} 2.2.+.J 8 e tXaXtXM.i X # 4 g.h.j.M.C.8XqXwXB.y > C : O ; > l B N l , A.G.A.X  .%.@.@.O.5.r. .R @.J 9.",
"}  .8.6.6.,..X7.| O.r.8.} +.i.} %.L * C.pXpXC.a   q U = e g.m.C.V.V.v.p z T.=.z O 1 c b B x , 0 A.S.g + ! p.p.0.+Xe.5.| 9.O.O.@.",
"} a.w.8.O.J J R ..O.X.p.i.( ( @.q.<.U y C.pXC.p t = 8 U % e g.M.M.k.p z Y.(.~.=.x > 0 z z , < h A.g 3 U X.p.3.w.t.}.R E X.,.~ { ",
"8.0.} 8.1.{ { ,.{ O.O.2.8.2.! ) { 1.X.  l.tX8Xj.h.g.= 8 .   e i i y l -.Q.(.(.~.U.B < ; > z d d d 4 U r.8.( ~ w.e.W J W { 1.( X.",
"i.i.8.i.w.7.7.X.1.X.X.w.s.2.+.2.X.<.<.2 p C.wXC.v.n.f.r * *   * $ z -.=.U.Q././.!.Q.c   O d 5 % % P 5.w.X.! } 3.t.G T W I ^ / ( ",
"@.8.2.8.p.~ ~ $X7.w.+.1.i.2.@Xs.y.t.q.} 4 p B.M.m.V.wXC.C.p X   , b V =.=.=.!./.(./.N O   . 3 } E ,.,.q.H ^ q.Y Y q.W W W Y 3.q.",
"8.8.@. .F 8.@X7.O.2.@.@.2.4.oX#Xw.) +.+.( 4 i V.tXtXpXpXyXM.i   O ; > b =.U.R.Q./.!.^.c @ 3 1.X.| R %.5. ...,.J Y q.5.E $X5.3.o.",
"%.} %.@.! 8.OX+Xi.7.r.4.r.7.@.8.4.i.2.+.X.( 9 g.yXpXpXaXrXb.e     2 q : < B Y.E.!.E.~.~.N 0 P 1.&.6. .,.{ q...I W I J 5.}.e.5.W ",
"! } i.@.@.1.@.} oXa.XXw.{ 4.4.@.u.+.+.2.@.H ..9 p m.n.V.n.a $ m m w P 9 3 > B U.=.U.Y.(.(.x & +.#.| | J 7.q.X.o.W G Z T XX{.e.5.",
"! @.a.@.} @.@.@.@.i.1.r.+.X.X.r.2.i.p.2.2.@.i.H 6 . X X X - D.7X7X;.% 3.q.q ; B N N Y.(.(.x & / [ I  .R XXo.,.{ I I J I W 7.7.X.",
"1.8.X.@.} ( X.8.O.{ X.O.H O.3.! s.i.X.} 6.~ @.@.^ Y Y U + z ].fXhXF.@ X.<.8 O N U.U.E.(.~.z o & & % 8 ,.9.W ..W ..,.W ..o...I W ",
"1.p.} @.@.@.@.} O.O.X.Z 1.w.~ X.+.1.+.( } ! 8.t.6.%.XXX.L w *.'.F._ P w.~ 9 $ N Y.R.!.(.~.-.> ; d A.d q ,...<.7.>.5.,.J 5...E 7.",
"! 2.8.~ H } @.2.} H O.1.OXr.~ r.X.~ 1.oX+X1.7.p.7.R ..q.X.8 3 # 4 U Y J ^ ^ 9 l V U.Y.Q.~.W.b > A.G.A.. o.J J E W <.q.o.Z ..q.XX",
"w.8.8.} @.3.@.7.w.! X.p.@.8.,.| X.X./ X.w.8.[ @.! r.{ r.,.X.q.} 1.w.I O.,.I _ # l V =.=.Y.!.V 0 A.G.A.@ e.o.G ......5...o.5.5.o.",
"1.@.r.2.{ 2.@.@.~ X.} } q.O.O.{ X.X.{ @.~ O.{ O.7.1.J 6.w.X.1.3.,.~ ! X.Y 7.q.U & 0 N =.=.U.b 1 g S.c.@ 5.,.I I J J J G <.I ..,.",
"{ 4.8.@.@.@.O.8.8.8.r.6.r.{ 6.O.~ ! ! O.1.O.#.r.7.X.7...,.O.X.1.,.X.1.q.O.r.q.,.U & l N V c z g A.S.*.* O.,.I I <.o.W >.t.,.,.3.",
"J 1.r.X.{ ~ 1.} { X.8.6.OX7.6.q.~ 1.2.{ O.} 7.%.{ D 7.7.,.X.~ X.( } ,.q.8.w.7.3.t.q : l l 1 $ h h h 5 3 ,.,.o.X.o.o.....o.I ..o.",
"w.~ ,.t.3.{ O.@.8.7.p.p.o.O.r.r.@.1.1.@.@.{ @.r.J 5.{ ..,.,.{ ..} } 7.7.e.,.,.t.t...P + . . o . X X 3 ( ..,.{ I W q...q.q.y.>.J ",
"O.O.7.5.8.r.5.t.X.1.@.} } 1.1.8./ 8.8.3.6.O.7.O.E O.| q.q.{ ~ J | $.r.O.7...o.q.1.I I r.7.O.r.@.5.W o.5...y.q.W I 5.<.y.<.5.,.W ",
"1.{ ,.q.,.t.7.+X8.@.6.} X.O.} Z 8.#X+X@.[ 7.r.6. .5.| E r...W q.J #.9.o.o.......D ..8.,.O.H @.%.5.o...,.{ o...I e.5.J W W W <.o.",
"w.,.,.,.X.XX.XO.@.w..X+.@.} @.8.@.p.i.+X.X7.@.%.| ,.}.5.7.t.r.,.| $.%.O.,.,.o...3.q..XX.D ,.7.8.5.5.W q.,.5.q.5.o...I o.I S J W ",
"X.5.q.7.7...O.O.X.7.1.@.! } } @.8.O.~ r.oXr.7.{ r.o.O.XXr.,.X.O.#. . .#.5.o.{ >.{ } w.{ 1.O.7.O.o.XX,.o.J ,.7.{ W I I ..,.I ..Y ",
"%.@.|. .{ | 7.9.$. .F $.%.! @.@...,.q.,.1.w.7.r.6.7.O.O.8.} J 1.{.$.$.#.| o.I E  .| {  .O.7.1.3.t.r.q.X...1.I { | #.| | { ....Y ",
"%.$.%.{ J | E 7.0.%. .| } %.a.@.,.K e.}.,.J o..Xr.1.X.r.{ Z 1.} $. X X$.7...{ }.6.[  .| %..X{ { q.6.r.X...7.I { { | 0.|.e.q...I ",
"@.0.r.Z o.X.q.5.XXO.@. .! a.p.8.K | 5.E D D +XR 7.7.p.6.{ ! @. .$. X$.#.o.Z }.t.1.! D 7.7.D G 3.5...q.r.7.5.J O. .@.|.p.J <.J 3.",
" . .O...e.,...5.7.K { { ! 8.~ ~  .R #. .| #.5. .O.| 7.} { { | O.{.[ +XW q.W 5.5.F .XO.7.X.X.q.q. .6.} XXt.{ 7.O.@.O.6.[ ..7...>.",
"O.} 7.7.5.W W ,...,.r...X.1.~ ^ D &.|  .| 0.| R O.| R O.o.J 7.,.[ 5.5.e.y.Y q.<.<.,.{ ..5.w.<.>.7.7.6.X...r.q.q.@..X6.O.o.q...5.",
"5.5.XXo.o.o.5.E o.5.5.J ..,..... .#.$.#. ..XD %.| #.O.{ ,.5.5.r.$.R ,.5.I >.>.<.,.q.X.5.r.3.>.I r.O.t...{ XX1.r.+Xr.{ D q...>.>.",
"o.o.o.}.o.o.W G q.5.,.X.,.,.<.<.#.#.R #.5.#.#.7.I 7.7.J o.XX..5. .Z $X>.q.,.O.{ e.t.,.....S q.6.0.r.O.+Xq.O.r.r.O.O.J O.O.......",
"#.E E o.W W 5.o.5.9.{.}.,.W o.<.o.E 9.#.#.9.}.{.o.o.R W E e.5.,.E t.XXe.XXq.3.,...W 7.q.q.....,.7.%.O.r.X.{ ,.,.r.7.} 7.| ,...Y "
};
