/* XPM */
static char *_32711ad6b8542609b2889d2713c99973xYRAbTcKmiSCpFJ[] = {
/* columns rows colors chars-per-pixel */
"64 64 226 2 ",
"   c #030202",
".  c #0B0C05",
"X  c #0B0B0A",
"o  c #050609",
"O  c #120D0A",
"+  c #110904",
"@  c #0D120A",
"#  c #0D1305",
"$  c #131809",
"%  c #09091A",
"&  c #181A16",
"*  c #271706",
"=  c #261915",
"-  c #351E12",
";  c #351E0C",
":  c #1A250B",
">  c #1C270B",
",  c #1B2213",
"<  c #1C2A10",
"1  c #23290C",
"2  c #372508",
"3  c #23330B",
"4  c #2B3B0D",
"5  c #263A09",
"6  c #282918",
"7  c #392416",
"8  c #2C3C13",
"9  c #283915",
"0  c #32371E",
"q  c #0C0D26",
"w  c #131229",
"e  c #15143D",
"r  c #151436",
"t  c #0E0F33",
"y  c #282727",
"u  c #342929",
"i  c #3A332B",
"p  c #272633",
"a  c #3B3938",
"s  c #303039",
"d  c #341F24",
"f  c #553802",
"g  c #482715",
"h  c #552D1A",
"j  c #5C331E",
"k  c #492B04",
"l  c #69391B",
"z  c #5A3625",
"x  c #543631",
"c  c #49322D",
"v  c #683A22",
"b  c #6A3C2C",
"n  c #2E4D02",
"m  c #2A4309",
"M  c #314C07",
"N  c #2F5107",
"B  c #335305",
"V  c #3A5A05",
"C  c #35540A",
"Z  c #3A560C",
"A  c #3C5B0D",
"S  c #365807",
"D  c #2E4213",
"F  c #354C13",
"G  c #364717",
"H  c #3B5513",
"J  c #3D5C12",
"K  c #3D541A",
"L  c #3E5C1A",
"P  c #365312",
"I  c #3E600D",
"U  c #3E6214",
"Y  c #3E611A",
"T  c #394C21",
"R  c #415E0E",
"E  c #425E13",
"W  c #445C1C",
"Q  c #465A19",
"!  c #525E1C",
"~  c #684401",
"^  c #7D5918",
"/  c #774F05",
"(  c #42620E",
")  c #436314",
"_  c #496517",
"`  c #466815",
"'  c #496B16",
"]  c #45641A",
"[  c #4A661B",
"{  c #46691A",
"}  c #4B6B1C",
"|  c #51641D",
" . c #516D1E",
".. c #4F711D",
"X. c #4E7114",
"o. c #52721E",
"O. c #547819",
"+. c #505228",
"@. c #694A29",
"#. c #764428",
"$. c #644B35",
"%. c #7E5B3B",
"&. c #466421",
"*. c #4A6523",
"=. c #4D6C22",
"-. c #4D6B29",
";. c #526D23",
":. c #5A6C26",
">. c #536D2A",
",. c #576828",
"<. c #4F7022",
"1. c #557525",
"2. c #537224",
"3. c #597426",
"4. c #567824",
"5. c #597A25",
"6. c #55742A",
"7. c #5A752B",
"8. c #57792A",
"9. c #5B7A2C",
"0. c #5D7C32",
"q. c #567431",
"w. c #5B6F30",
"e. c #62752E",
"r. c #607D2E",
"t. c #627E32",
"y. c #637835",
"u. c #191A4B",
"i. c #161644",
"p. c #1B1B54",
"a. c #1D1D5B",
"s. c #0E1040",
"d. c #211E5A",
"f. c #1F2148",
"g. c #282948",
"h. c #23215E",
"j. c #392D48",
"k. c #1E2064",
"l. c #1F2271",
"z. c #222163",
"x. c #24236C",
"c. c #2C296A",
"v. c #262571",
"b. c #2A2A7C",
"n. c #272776",
"m. c #171C6D",
"M. c #463C47",
"N. c #4B4C4B",
"B. c #454545",
"V. c #555656",
"C. c #514F54",
"Z. c #715744",
"A. c #674F45",
"S. c #7B6547",
"D. c #666767",
"F. c #885A00",
"G. c #986301",
"H. c #8B610F",
"J. c #A56C02",
"K. c #AD7401",
"L. c #BC7E01",
"P. c #B67800",
"I. c #864A2B",
"U. c #92512E",
"Y. c #975533",
"T. c #8C512D",
"R. c #A55C37",
"E. c #946A29",
"W. c #B06237",
"Q. c #9A7347",
"!. c #966F4D",
"~. c #A67D58",
"^. c #866E7B",
"/. c #5E8132",
"(. c #5E802C",
"). c #62822D",
"_. c #65882A",
"`. c #638334",
"'. c #678836",
"]. c #65843A",
"[. c #6A853B",
"{. c #6B8A3D",
"}. c #698835",
"|. c #72833C",
" X c #759243",
".X c #708B44",
"XX c #BE8200",
"oX c #C38101",
"OX c #CC8801",
"+X c #D48C01",
"@X c #DD9400",
"#X c #D49001",
"$X c #EB9D02",
"%X c #E49802",
"&X c #F6A301",
"*X c #B68E67",
"=X c #BA8448",
"-X c #C89A6D",
";X c #CA9E74",
":X c #D8A97A",
">X c #CCA478",
",X c #E0B17D",
"<X c #2B2B83",
"1X c #2D2E8A",
"2X c #262A85",
"3X c #312E8A",
"4X c #2E308D",
"5X c #31318D",
"6X c #2B2D93",
"7X c #312F94",
"8X c #2E3193",
"9X c #313195",
"0X c #34349C",
"qX c #383699",
"wX c #3535A3",
"eX c #3939AD",
"rX c #3637A8",
"tX c #3C3CB6",
"yX c #4040C2",
"uX c #8E7683",
"iX c #DBB086",
"pX c #E8BA8D",
"aX c #F8BC86",
"sX c #F8C899",
"dX c #F3C28A",
"fX c #FCD9A1",
/* pixels */
"E >.3.;.E [ 3.[ ;.| '.9.9.{ 1.=.E [ [ _ | 2...1.) ` ) ( ) ..U { } } ) ) } { ) { =.<.=.{ U } =.8.{ } ) { =.6.J [ ] ) { [ =.6.>.-.",
";.[ ;.>.[ =.E =.;.2.9.9.;.} t.9.;.;.>.[ } [ _ 9.` } { 1...` I } ] 2.{ { } =.6.) <.} } =.I Z 9.=.J J J } ] ;.W J H =.L L -.>.q.Y ",
";.[ :.9.3.3.;.e.e.}  .} ( } 1.5.J [ t.7.7.2.} } } } ` } } 2...{ } 2.{ J { -.=.) { } } ..{ J { ] =.J ) -.*.6.2.J n Y J ] -.&.&.Y ",
";.[ ;.7.2.7.r.t.} [  .2.} } [ S 7.|.3. .` } `...` } ....` ..2.2.} ..<.} 8.6.] { ( 2.` ` ` U J U =.U { =.{ =.6.H Z L L -.-.Y L ] ",
">.} } ;.;.:.r.7.3.e.r._ R ' } ) 3.t.{.t.} 4...1.} ` ..1...<.6.9.4...{ { <.] ] =.I 4.' ' A Z ] 6.=.{ { 6.=.=.3.2.>.] n L P P J -.",
"2. .o.1.o. .o.' ' O.r._ _ } (  .3. .E }. X9.` ' ..I ' <.....6.<...{ ) =.] Y =.{ 8.8.....A J U ] ) 2.{ ..} 2.} 1.<.=.=.=.{ Z J J ",
" .1.5.} _ _  .o._  .R _ ' R  . .| ;.3.[ } ).o.)...{ 1.4.<.<.8.<.( } } =.] =.0.] } ( ` o.<.8.6.} } `.1.=.2.`._ } } 2.8.{ &.U Y C ",
"' 3.3.( ( ` } r.3.o.R  . ._ r. .' _ } 5.4.( o.(...` { U <.<.=.) ....{ Y H =.8.=.X.` 4.5.} U &.*.<.4.4.X.o.5.V I ' o.(.9.<.2.=.U ",
"} 1.1.V I [ _ 3.}.( 3.' R t.r. .I ( 3.o.V S 5.o.<.<.1.{ ..U <.<.5.4.} U &.-.2.2...) ` ' } ] ] *.5.} 4.4.1...V _ ) ' 5._. .[ ) } ",
"r.9.=.] } =.} 0._  .5.) [ 2.=.0.U U I ` V _.5.A 8.<.<.{ { U U X.8.V 8...} E 8.=.A 7.7.;.[ *..X0.} 2.} 0.0.] } } X.` 5.( ;.7.*.=.",
"5.;.=.>.6.-.2.6.e.A } ) ;.y.6.L U ..' ' 5.'.(.4.A ` { =.} S U <.<...`._ 9.n 6.=.[ =.[ ] >.>.=.W ' <.<.<.=.2.6.6.` (.).` A ;.[ ,.",
"A ) =.=.0.9.].&.R ` =.) } -.*.-.8.....` o...} _ } -.U { { { ..8.` ` } 1.{ { { ;.=.0.E >.7.>.;.J 4.5.2.6.H t.2.7.}.3.' ( 3.=.W >.",
"} 9.] ] J t.].=.) { } [ H ] 6.*.Y &.# o o   o o X . @ D U 8.{ 6.{ V ).} 2._ } E 2.0.] ;.[ E =.,.)...8.1.=.6.q.`.9.o.V ) } } W *.",
"5.{ S 5 ] J .X/.9.} ) W J =.q.3 $ @           a.n.x.a.& $ : < &.) /.{.9.0.5.} } } A 9.9.6.=.) ;.(.' } /.{ } ;.6.5.2.[ 2.[ =.>.>.",
"9.} n J J Z Z ] =.7.} ] ] *.0 2 ~ ~ ~ ~ ~ ~ f j.8XeXwXk.u.e q : 3 P =.2.5.{ 7.2.[ A 2.{ Z ] 3.7...' 4.} [ B } { ).1.=.=.;.W >.] ",
"} ` ( 6.] ] U ) } =.6.6.E D 1 G.@X%X%X%X@XoXG.f j.0XrXrX0X4Xk.t = 6 F } 1.E 9.1.E 6.=.2.{ { {.>.I { ..2.E } 2.=.6.{.0.;.[ 7.=.W ",
"9.) ) 2.J [ 2.6.{ 0.0.2.*.* F.+X$X&X&X$XoXF./ E.$.g.7XwX1Xb.l.l.D.*X1 M } } { } } 2.) 0.6.} } ) S ` ..<.) } } [ 2.2.<.] ].;.] -.",
"_ _ 6.2.} ;.J C ] 2.0.=.{ * K.%X$X&X&X$XJ.^ !.-X%.O g.n.<Xv.l.l.uXdX*Xi 5 ) 8._ U <.9.'./.<.A ) ) ....{ ) `.2.2.) W q.y.{.>.E H ",
"V _ 1.2.J =.{ ;.E 2.5.6.=.* P.#X#X$X&X#XG.^ >XsX*X+.$.g.a.n.x.t A.aXsXx 3  .} ) U 4.8.8.8.9.8.<.} } ` A } 2.6.=.=.6.6.6.7.y.>.[ ",
"` 2.7.} ] ] { =.A n J =.J * J.oXoX%X&X+XF.^ >XsXpXiX>XS.g.h.p.& 7 !.~.6 3 2.=.{ =.6.8.<.=.} 6.U ` ..` ) 1._ 6.} =.6.6.*.>.6.E Z ",
"=.7.{ =.E =.[ 6.} _ } B n * G.oXXXOX$X+XG.E.;XpXdXsXsX>XZ.y X F 8 O $ + 8 8.5.2.} 5.} J Y A <.} A 8.<.1.o.` ;.;.H 6.0.&.>.[ E E ",
"9.2.} *.6.] E J C ) } n =.* J.+XOXoX@X@XJ.E.:XpX,XiXpX:XS.p i.& 4 Q W Q q.2.=.=.S 6.=.-.<.<.{ Y ) 9.2.8.2.} } 0.q.*.&.*.6.[ [ `.",
"A =.2.0.*.;.] 6.} S } _ [.2 L.%XOXXXOXOXK.H.E.-X!.$.:XiXS.g.2Xp.& Q >.9.8.} *.] <.8.{ =.Y Y &.<.{ { ) } 5.} J =.&.].y.=.R ;.9.{.",
"9.} ] H ] 7.6.=.[ A { { _ 2 F.OX+XP.XXXXXXG./ T.c $.-X*X$.g.1X6Xi.. Q 9.{ <.8.0.0.] U =.=.Y =.6.=.-.=.<.`.5.} } *.&.W P [  . . .",
"{ [ >.] B >.-.=.) 1.) ` =.F * F.L.K.L.oXoXP.F.~ R.*X!.$.p u.n.wXv.q @ W ;.t.6.q.8.J U Y Y &.q.*.] 0.2.{ 2.8.2.} q.P Q E 7.E | r.",
"{ 2.2.{ =.Z U ;.} 2.[.2.0.U P 1 ~ K.P.G.K.G.k @.=X=X+.s p t p.b.9Xx.% # m o.` ) 4.U } } ) { 0.6.;.=.) <...2.} [ ,.:.! ,.,.w.,.,.",
"E } ;.) ) A J n J Z 6.=.6.} <.T 1 f f k k 2   7 #.$.$.a f.p.p.a.4XrXx.u.& 8 D 2.2.8.} <.} ] { 6.] E ) { U <.{ }  .e.! ! ! y.,.w.",
"=.} ;.5.` A } A ) A A A ] ) <.2.m #     o % % w e M.Z.j.m.<Xb.p.z.9XeXrXk.% o 8 A ` <.2.=.{ ] 6.=.A ] { <.8.-.[ ;.e.| ! ! w.,.! ",
"2.{ } 9.{ A 9.=.8.9.U C A A 2.J C T   % i.k.<X1X1Xb.c.c.<X1X4X<Xh.z.0XeXrXb.q o 1 n [.I 8.) ] 0.7.W } =.} 8.{ E E ! R | ,.,.,.*.",
") 2...} ) 2.9.S } 6.) U n B C n 9.*.. r v.7XwX0X9X7X6X6X5X9XwX0X8Xn.z.9XtX8Xp.w O T } 2.=.P J 6.;.[ { -.Y <.<.} y.e.Q [ W E *.,.",
"1._ ` 8.9.{ ` ` <.2.<.<.I =.A =.2.&.o u.1XwXwX0X9X9XwX9X1X9X9X0XeX5Xi.p.8X9Xk.e d ; G =.=.) A ] 9.7.{ 6.=./.0.3.3.:.[ Q W [ ,.>.",
"' 4.(.' ` ` } o...} ) ( U ) ` } 2.L X d.0XrX0XwXrXwX9X3X7X9X9X9X9Xb.a.p.k.x.a.t x I.= D ] =.[ { {.9.2.;.2.0.;.) [  .2.| [ ` ) H ",
"..} (.` ` ( 2.9.o.9.2.` ;.B r. ._ P o z.eXeX9X5X0X0X5X4X0X0XwXrX<Xv.1X1Xd.e s.q z R.I.* 0 *.} =.9.2.2.=.4.9._ ( 1.6.`.9.6.2.=.{ ",
"..O.o.I S { _ 8.'.5.} } _ 7.}.3.) M X v.yXeX9X<Xv.n.b.<X4XqXeXrX9X9X0Xb.x.d.t q x W.Y.- 3 A J [ `.9.9.` e.o.S } } A (.'.o.} } ( ",
") 5.o.A ) ..` 2.'.} 2.E A e.e.' V Z . v.yXeX9Xv.u.e u.x.x.n.4X9XrXrXrX1X7X6Xi.% h Y.U.* 4 <.<.6.' ` ..5.3.X.A  ._ 8.).5.( (.B ' ",
").3.} } o._ 4.5.5.A 3. ._ 3.3.| A F o b.yXtX7Xv.u.r q i.h.z.v.<X7XwXwXwXrX2Xt % = h h + < F &.*.{ O.X.r.' o. . .` 2.9.} ( } V 5.",
"( } :.1.2.;.`.<.{ =.7.2.|  .e.!  .W X x.tXeX9Xb.v.e o t p.k.z.v.<X6X6X7X1Xz.w + + O +   o X @ @ 4 2.X.} ( r.e.5.'.8.<.U 8.} }  .",
"_ }.3.3.} A A I { [ _ y.:.R E  .3.;.&., z.eXrX9Xb.u.o % i.p.h.v.3X2Xd.c c x b v v v g + & N.N.C.y 3 <.} [ 9.2.9.0./.I U } =.E E ",
"7.e.[ 3.;.) ` } E =. .2.:.e.R | W ;.7.: e wXeX9X<Xd.% X q q e c.2Xd.d l l I.W.R.R.R.U.j y a D.D.u $ 4.8.3._ R 3.8.Y C { E >.Q } ",
"e.5.3.9.7.2.2.} =.[ [ e.t.:.! :.] =.q.$ i.9XeXwX1Xv.r o @ & , i.p.d l I.U.U.R.R.R.R.R.Y.h = c V.y : =.2.E Q Q >./.P N Y W W Q E ",
" .3.3.5.e.A ) {.2.7.} ;.e.:.|.e.6./.2.> r b.wXrX9Xb.p.% 9 =.=., O 7 b U.U.U.U.Y.R.R.Y.Y.I.g O s y 1 <.;.Z ] 6.H L -.Y Y Y J -.>.",
"3.o. .} A 3.{.3.| 2.;.| 3.:.[. Xe.*.! Q 1 r <XwX0X4Xv.% 5 { -.H 1 * v I.T.U.U.U.Y.Y.U.I.I.l   + 3 C 4.<.[ { =.Z J 2.<.U {.6.2.[ ",
"3.' :. .) 3.|.}.e.2.7.;.7.>.;.:.,.e.:.[ 4 o x.0X0X9Xb.q $ 3 3 } Q 1 * h #.I.T.T.I.I.b I.I.l -   : 4 5 =.) 2.W J Y J A -.`.6.<.{ ",
"R R 5.|  .;.;.E }.t.[.7._ ;. .,.:.| | :.G @ i.d.<X0X<Xt = c 0 8 Z *.= * - g h h b I.b b b b j * O & & 3 2.6.=.] Y C N N `.9.8.<.",
"R  .t. ._  . . .| r. .y.[ [ [ e.:.7.e.3.:.Q X . i.b.a.u S.>X-X0 9 L &.1 + X . . - j v j j z j - a V.C.& '.{ =.) L U A J L 6.<.} ",
";.3.}  ._ E | 3.} ) [ } Z } 2.Z t.e.| Q 3.E K Q 6 % % $.;XfXaXY.; 0 E Q Q D 5 *.6 * g h g g 7 i N.D.V.& 6.U ] Y ) *.Y { { { H J ",
";.e._ |  . . ._ [ | } n ;.7.E [  .:.! R  .E -.r.] 8 G 7 Q.iX:XW.g $ W 7.J [ 0.} K 1 * - - ; c N.V.V.N.O =.) -.2.{ <.} Z -.] U 6.",
"A 3.:.R E _  .;.} S } >.{.7.E 0.[ R ;.[.}. .2.r.1.J { D 7 #.#.l ; 8 E E E [.[.=.6.W   = - u B.C.V.C.c O =.Z S U Y -.6.} N ] 6.`.",
"9.3.3.E | 2.;.;.7.R [ e.} 1.;.) [ [ [ } 7.2.(  .) 5.` 7.4 . + X 8 3.J [ ;.A 6.{ { F @ & y i B.C.N.B.y $ 6.=.B ) ) { 6.Y { <.<.{ ",
";. .e.3._ 3. . .E } _ [ 8.} } ` [ [ Q  .) } ) } 2. .J 2.>.K Q Q *.E E } Z ;.>.=.{ H P @ y j.N.N.B.p $ D 2.} J L J H A C -.A ] =.",
"_ >.3.|  . .} 3.3.;.r.1.9.` 1.} E A R }  . .} 9.;.} 2.{ =.} [ ;.| =.;.6.;.7.6.-.6.) N m : y +.j.y & D U =.} U A <.{ L ] /.*.-.<.",
"A ;.9.} ) E | } E } 5.2.'.2.1.6._ | >._ } _ 2.o.) B 2.2.=.} E [ ( { ;.1.6.7.6.;.0.A 2.<.D $ y y , 3 U *.=.-.{ { ) =.Y { { J ] } ",
"7.E =.0.2.E }  .3.;.r.e.] } 9.9.| ;.;.} ;.)  .5.A <.` { =.} ) ] ` _ 2.2.8.-.=.0.0.] } U ` F . . D A J { ) -.) L U <.&.2.6.q.=.A ",
"} } <.2.6.0.;.0.} 2.} } [ ;.2.2.[ 3.7.2.1.} 4. .U =.U 9.6.] U H ` } 5.} 2.{ { 2.>.A J 0.=.=.9. .-.) { =.{ 9.6.Y L -.<.q.&.<.=.&.",
"=.] =.2.=.9.2.[.3.} 3._ _ } _ n 7. X}.| R 2.9.2.` 2.{ ) 6.[ E 6.I X.5.{ { ] ] ] n ] 6.=.} S } ;.<.{ E =.) } ) A 8.2.J ) Y U &.=.",
"9.} =.=.} ].`.} } e.`. .| _  .7. .e.9.}.`.2.o.} ` } 0.} 2.0.0.=.` ' 4.} } =.{ ] 6.6.`.} B 2.2.3.2.2.] 6.=.-.6.<.*.) J { L N C L ",
"} <.6.2.2.{ { } } ;.2.' R | (  .2.=.E 9.[.9.2.) 5.} } `.7.=.{ } ..` X...<.{ U =.) [ 9.) ;.} 2.} ] `.=.] A =.2.) U J U ) =.J Y L ",
"o. ._._ ) { <.8.X.' V ' o.R 3. .{ =.2.=.;.7.2.0.7.2.} } 2.[ A  .(.X.X.X.) } H U ' ( ) ' } 2.;.;.0.9.6.} { =.J E ` .._ ` ) ] { H ",
" .X. .) A ` U 4.5.O.} ' ( o.t. .} A 8.(.=.S } '.9.<.} 7._ n ;.[ X._._...6.) ) /.4.) ' ' o.`.) ) 8.6.9.} ] 2.J ` ` ` 5.r.8.1.] L ",
" .5.7.n { } 2.<.`.}  ._ _ `.e.3.A U <.U B S `.I 2.2.r.2.) R o._ X._.X...{ N /.0.;.R B ;.2.B C >.;.{ 6.5.2.-.Z } ` } ).).A -.A -.",
"_ ' ..) 6.=.Y 4.2.C { ) R ;.E E } A } { ( ..<.} } ` 1.} ` ) ) } O.( '.) 6.U 6.-.A 9.} ;.} &.7.>._ 1.` `.0.] 2.} } } 3.R ` 6.] [ ",
"} _ 2.<.2.{ Y } { } 9.) [ ;.W ] S O.' X.` 8.` I } ) A } } A ;.<...<.<.8.q.H 2.=.=.=.` ` ;.6.=.*.4.2.;.=.} 6.6.6. .`.1.} ) 6.] >.",
"<.<.].} =.Y <.J { <.=.A { &.] ] ' ........).B O.` ..} ` =.<.=.9.' I } -.J ] &.-.-.6.} -.9.-.*.J r.} 0.{ ) `.2.9.}.9.) S 6.[ ] &.",
"{ { { /.{ { Y C 6.<.} } -.=.*.=.X...I } O.<.} 4.J 2.=.A { ].) 2.{ N .X=.6.-.=.U 7.9.} ] ] B 6.1.5.9.} `.6.} 9.9.}  .S } } ] ] *."
};
