/* XPM */
static char *_44ce58118584293baa6185655c0af9czYAsNSRR8R2mgAgx[] = {
/* columns rows colors chars-per-pixel */
"64 64 228 2 ",
"   c #030302",
".  c #0A0402",
"X  c #0A0B05",
"o  c #0B0C0A",
"O  c #070807",
"+  c #1C0C06",
"@  c #170B06",
"#  c #161807",
"$  c #0A0913",
"%  c #0A0A1C",
"&  c #080613",
"*  c #130E18",
"=  c #1B1919",
"-  c #0F1110",
";  c #2D190B",
":  c #271807",
">  c #321E01",
",  c #351C0D",
"<  c #361C13",
"1  c #281513",
"2  c #1C240C",
"3  c #1D2A0B",
"4  c #162209",
"5  c #1C2118",
"6  c #242C0E",
"7  c #262608",
"8  c #3C2401",
"9  c #382606",
"0  c #23330C",
"q  c #293A0E",
"w  c #272A14",
"e  c #3D231A",
"r  c #372617",
"t  c #2B3B14",
"y  c #233313",
"u  c #3B3316",
"i  c #0C0D24",
"p  c #0E0E2A",
"a  c #070B24",
"s  c #0F102C",
"d  c #161226",
"f  c #121232",
"g  c #16163C",
"h  c #0F0F30",
"j  c #251A2B",
"k  c #241F35",
"l  c #262528",
"z  c #392A25",
"x  c #35302E",
"c  c #342935",
"v  c #3B3A39",
"b  c #452C02",
"n  c #462503",
"m  c #4D3203",
"M  c #593B01",
"N  c #4A2815",
"B  c #472818",
"V  c #512D1A",
"C  c #502A17",
"Z  c #5A331D",
"A  c #53250B",
"S  c #613E01",
"D  c #69371E",
"F  c #79360B",
"G  c #5E3421",
"H  c #422F27",
"J  c #683B23",
"K  c #723E23",
"L  c #2D4C02",
"P  c #284407",
"I  c #324B0D",
"U  c #324E01",
"Y  c #2E5106",
"T  c #335305",
"R  c #365804",
"E  c #35550A",
"W  c #3A560B",
"Q  c #3B5B0D",
"!  c #385808",
"~  c #2F4114",
"^  c #344C14",
"/  c #33451A",
"(  c #365310",
")  c #3C5413",
"_  c #3D5C12",
"`  c #3F5C19",
"'  c #3A5219",
"]  c #3E600D",
"[  c #3E6113",
"{  c #3E611B",
"}  c #3B4530",
"|  c #415E0E",
" . c #425D13",
".. c #435D1B",
"X. c #4A5D1B",
"o. c #485C16",
"O. c #525E1C",
"+. c #5F4000",
"@. c #664201",
"#. c #7B5203",
"$. c #7B490A",
"%. c #41620E",
"&. c #446314",
"*. c #496516",
"=. c #466915",
"-. c #496B16",
";. c #45641A",
":. c #4A661B",
">. c #46691A",
",. c #4B6B1C",
"<. c #52641D",
"1. c #516D1E",
"2. c #4E711D",
"3. c #4E7114",
"4. c #52721E",
"5. c #547819",
"6. c #445A22",
"7. c #504B31",
"8. c #7B4325",
"9. c #7B4429",
"0. c #754229",
"q. c #6F4E35",
"w. c #456521",
"e. c #4B6622",
"r. c #4D6C22",
"t. c #4E6E29",
"y. c #516D23",
"u. c #5A6D26",
"i. c #536C2A",
"p. c #566728",
"a. c #4F7022",
"s. c #557525",
"d. c #537224",
"f. c #587426",
"g. c #567924",
"h. c #597A25",
"j. c #55742A",
"k. c #5A752A",
"l. c #577829",
"z. c #5B7A2C",
"x. c #5D7C32",
"c. c #5B7A35",
"v. c #5B6F30",
"b. c #606F2A",
"n. c #61752D",
"m. c #607D2E",
"M. c #627D33",
"N. c #637735",
"B. c #151644",
"V. c #171749",
"C. c #1E1E5C",
"Z. c #191A54",
"A. c #0C1244",
"S. c #201E5D",
"D. c #1F215E",
"F. c #2F274C",
"G. c #191D74",
"H. c #211F63",
"J. c #212263",
"K. c #23236B",
"L. c #2A2A7D",
"P. c #272777",
"I. c #312E7F",
"U. c #494746",
"Y. c #6C4244",
"T. c #885B01",
"R. c #955F0E",
"E. c #936201",
"W. c #9E6900",
"Q. c #9A6600",
"!. c #8D6003",
"~. c #A46D01",
"^. c #A06700",
"/. c #AB7101",
"(. c #B37601",
"). c #B57901",
"_. c #BD7D01",
"`. c #B37E18",
"'. c #874A2C",
"]. c #94532E",
"[. c #8C4D30",
"{. c #985533",
"}. c #8F5031",
"|. c #A45A35",
" X c #B05D3B",
".X c #B17A20",
"XX c #C07F00",
"oX c #AF744D",
"OX c #5E812D",
"+X c #5E8132",
"@X c #62822D",
"#X c #65882A",
"$X c #638334",
"%X c #688436",
"&X c #65833A",
"*X c #6A863A",
"=X c #6B8A3D",
"-X c #698935",
";X c #72833C",
":X c #759243",
">X c #708B44",
",X c #BF8000",
"<X c #C38301",
"1X c #C98500",
"2X c #CC8B00",
"3X c #D38B01",
"4X c #DB9200",
"5X c #E19601",
"6X c #E39A00",
"7X c #EB9C00",
"8X c #F2A200",
"9X c #FBA702",
"0X c #A6845F",
"qX c #B99670",
"wX c #F6AA76",
"eX c #2C2C84",
"rX c #2D2E8B",
"tX c #2E308C",
"yX c #2F2F91",
"uX c #2F3292",
"iX c #313194",
"pX c #34349C",
"aX c #312F90",
"sX c #3635A4",
"dX c #3939AB",
"fX c #3737A8",
"gX c #3C3BB7",
"hX c #FEC284",
/* pixels */
" .i.f.y. .:.f.:.y.y.%Xz.z.-.j.,. .:.:.o.,.f.,.h.&.=.&.] &.,.&.;.,.>.&.&.,.>.&.>.r.j.,.>.[ ,.r.l.>.,.&.>.,.j._ ;.;.;.:.e.e.t.j.r.",
"y.:.y.i.,.r. .,.<.y.z.M.r.,.M.z.y.y.u.:.,.;.>.OX*.,.>.g.2.=.] 2.;.s.>.,.,.r.j.;.a.>.r.,._ Q z.r.[ _ ( ,.;.t.;.) _ r.` _ t.j.t.w.",
"y.,.u.m.f.f.<.k.M.:.y.-.&.y.g.z._ ,.M.k.k.d.,.*.3.,.=.,.,.s.,.>.>.d.>._ ,.r.r.&.=.2.,.2.=.Q ,.&.r._ ;.a.e.k.y._ L .._ w.w.w.w.` ",
"y.:.<.k.f.k.m.%X-.:.y.d.-.-.-.T k.;Xf.1.;.,.$X4.=.,.2.,.;.2.g.j.-.d.2.,.l.l.{ ;.&.a.=.-.&.{ { [ r.&.;.r.:.r.j._ E ` _ t.t.w.` w.",
"i.,.*.y.y.f.m.k.u.m.m.*. .-.,.&.f.M.*X$Xr.s.2.s.,.>.2.g.2.a.l.l.g.,.>.r.t.;.&.r.[ s.3.*.Q E ;.j.r.>.,.j.r.r.j.d.y.;.I _ ) I ` t.",
"4.y.d.d.1.1.4.*.-.5.m.*.*.-.| y.k.<. .%X:Xh.=.-.,.] =.a.a.>.j.a.3.>.&.,.;.{ t.>.g.h.a.2.] _ { ;.&.s.>.r.-.s.,.f.d.r.2.t.;.Q _ _ ",
"1.s.h.1.-.*.1.4.*.1.| *.*.| 1.1.1.1.h.*.,.@X4.@X2.2.a.g.s.a.l.a.&.2.,.r.;.>.x.&.,.%.=.5.s.s.k.>.>.+Xs.2.d.$X*.-.r.d.l.;.>.{ { E ",
"-.s.f.%.&.=.,.m.f.4.| 4.1.*.m.1.*.*.1.h.d.&.4.OX2.>.>.=.r.a.r.&.3.2.>.{ _ r.c.r.-.=.4.h.,.{ w.e.s.g.g.-.4.h.! %.-.,.h.z.s.a.r.[ ",
",.s.s.R &.-.*.s.;X&.s.*.| @XM.y.] %.s.4.! R h.4.a.2.OX>.2.[ a.a.h.s.,.[ :.a.t.d.,.&.-.-.1.&.>.r.h.-.g.4.s.4.! *.=.-.m.#X-.*.;.r.",
"@Xz.r.;.:.r.*.c.-.,.z. .-.i.r.x.[ [ ] =.! -Xh.Q g.a.a.>.>.[ [ 3.g._ s.a.,.[ z.r.Q k.k.y.6.e.>Xc.,.j.2.x.z.;.,.,.3.%.h.%.y.k.e.r.",
"z.r.r.i.k.t.d.j.z.Q ,.*.y.c.j.` [ 2.,.,.h.%Xh.s.Q >.>.a.2.R [ a.d.2.%X;.k.T d.,.:.y.e.;.y.j.r...>.g.s.r.t.f.j.j.-.OX@X%.Q y.:.p.",
"Q &.r.r.c.z.=Xw.Q *.,.;.r.t.e.e.j.2.3.=.5.5.,.-.,.r.[ [ w.w.a.g.;.=.*.s.;.;.,.y.r.x. .y.v.i.y._ g.g.s.s.( x.d.j.%Xh.-.&.f.r...i.",
"-.z.;.;._ M.=Xe.&.&.,.*.) ' 7 8 8 > > n 8 8 8 u ) r.s.;.>.z.,.s.=.! $X;.s.;.,.{ j.k.&.y.:. .y.p.OX2.h.j.r.j.c.M.z.4.! =.-.y...e.",
"z.*.R 0 ;._ =X$Xz.1.&.;.I # #.1X<X(._.XX/.(.).+.4 { >.( _ c.a.l.&.@X=Xz.z.z.,.,.,.Q z.x.j.r.&.,.h.2.,.x.;.,.r.k.h.d.*.d.:.y.i.i.",
"z.-.U [ _ E Q >.r.k.r. .7 !.5X9X8X6X8X8X4X5X4X@.o w._ r.a.j.r.[ %.s.,.r.z.&.z.d.*._ d.>.) ;.z.j.2.=.s.,.;.T r.*.$Xd.y.,.t.X.i...",
",.;.%.j.;.:._ ;.,.,.f.f.> 1X9X8X6X3X7X6X3X2X,X$.; t ;.r.>.( r.,.z.>.-.r.s.&.z.f.&.j.r.a.;.*.=Xf.] 2.,.g.&.,.d.,.j.=Xx.r.:.k.e.;.",
"z.=.&.f._ *.y.j.>.x.x.f.: (.8X7X1XXX4X6X<X_./.R.$.w t ` ` { a.d.y.r.M.&.-.r.=.,.,.s.&.z.s.>.,.[ R =.2.a.| ,.,.,.d.j.t.;.&Xi.;.r.",
"*.;.j.d.,.t._ E &.j.x.r.9 ,X9X4X(.~.4X8X2X_.~.^..XoXz q ;.x.&Xx.r.&.-.-.W ;.g.>.[ a.z.&X+Xs.Q =.&.2.2.>.=.$Xf.r. .` v.+X=Xy...) ",
"! -.s.f._ r.>.d. .y.M.j.> 1X8X1XW.~.2X6X4XXX/.W..X0Xz y l.+Xx.c.;. .;.&.;.y.,.&.] s.x.l.j.z.l.a.,.=.;.! ,.d.j.r.d.j.j.j.c.x.y.:.",
"&.4.k.,.;.;.:.,._ L Q ,.> ).6X1X/.^._.3X1X<X~.Q.!.0.* t k.k.s.j.,.&.j.>.;.d.a.>.a.l.l.a.r.,.l.{ =.s.-.&.g.*.j.:.r.j.i.e.i.f. .) ",
",.z.;.r. .r.:.k.-.;.-.E : (.5X2X).~./._._._.~.W.#.u - 6 ) ^ ' )  .&.M.k.a.l.z.a.a.l.>._ [ _ r.>.Q z.a.s.a.;.d.y._ j.c.w.y.e. . .",
"z.j.,.:.j.;.;.( ! _ ,.L : T.XX<X_.~.^.(.).~.~.^.!.M ; X X O X o 4 :.k.h.$Xj.r.r.E j.r.r.r.r.>.{ &.z.g.l.d.3.r.z.c.e.w.w.i.*.*.$X",
"Q r.d.c.,.t.;.j.,.Q ,.,...> T.(./.W.W.~.~.~.E.T.@.m r = i B.D.K.B.2 :.k.k.>.;.,.a.z.>.r.>.{ w.t.;.>.{ ,.f.,.Q r.;.N.N.t. .y.m.=X",
"z.,.;.) ;.k.j.r.=._ ;.;.6 @ S E.Q.~./.~.~.E.#.M b : d g H.yXdXdXeXg 6 / q ~ j.h.c.;.{ r.r.{ r.j.r.t.r.2.$Xz.,.,.e.w...E :.1.1.1.",
";.r.y.;.E d.t.y.&.l.&.;.o l m S #.T.E.E.T.#.S m > + h D.iXgXgXdXpXL.f % & O t 6.t.( { { { ,.j.w.&.x.d.;.d.l.y.r.c.^ o.) k.| <.k.",
"*.s.f.;.r.E  .r.r.y.%Xd.p L.F.n b m +.M M M m 8 : i C.iXsXsXsXpXiXaXP.J.V.h o o 2 Q &.;.{ &.c.j.d.r.&.2.>.s.r.:.<.u.O.p.p.n.p.u.",
"&.,.r.;.&.Q  .L ( Q j.d.& H.I.eXF.b b b b 8 8 7 B.D.eXpXsXsXrXeXiXsXiXeXP.K.S.Z.f = 4 4 q &.,.j.;. .{ =.=.2.>.,.u.N.O.O.O.N.v.v.",
",.,.,.z.&.Q ,.Q &.Q Q W 3 i L.fXeXF.c c j k c F.K.P.yXpXfXsXK.J.rXfXpXiXeXL.rXaXZ.i 7.[.V t ` z.r._ >.>.r.c.y.:.y.n.<.O.O.v.u.6.",
"f.;.,.x.>.Q l.t.h.M.[ E Y o K.yXL.K.P.L.K.K.P.eXP.eXrXiXsXsXC.g H.iXdXpXeXrXiXdXG.k qXhXoXX ^ x.k. .r.r.a.l.>._ X.:.| O.p.O.p.p.",
"&.2.,.,.;.s.h.Q ,.j.&.Q P X J.uXK.Z.J.rXrXL.P.rXyXrXuXrXpXpXS.p p D.iXL.J.L.pXsXG.d 0XwX|.@ ^ a.y.:.;.t.{ a.d.,.N.b.o.:.X.o.e.t.",
"g.-.=.g.h.-.;.=.d.a.a.s.I o C.eXD.B.g J.eXrXL.eXsXsXsXiXrXiXP.B.$ $ p % & i p h a o r B e I ( r.k.j.-.j.>.x.x.k.f.u.o.:...:.i.i.",
",.s.OX=.=.=.,.4.,.,.=.&.I   B.K.D.B.s g K.rXrXrXpXsXsXpXiXrXeXK.f %   2 t q 0 0 0 y t t ^ <.,.*.=Xx.d.y.s.x.a. .*.y.d.<.:.;.&.) ",
"3.=.OX=.&.%.d.OX4.x.s.*.6.# i V.C.B.f a A.tXsXuXiXpXfXsXpXiXiXL.J.V.& 6 *.z.,.,.>.&.r.&.c.,.,.r.z.2.s.,.s.z.,._ s.f.$Xz.j.d.r.-.",
"4.s.2.] R >.=.g.-Xz.-.-.&.u.y % B.Z.f & d P.sXfXpXiXpXsXsXfXsXaXP.J.f o 4  .[ :.{ &.;.a.&.Q ] >.$XOXz.=.h.4.T ,.,.] +X-X4.,.,.%.",
";.z.f.W ;.3.&.s.+X,.d.| Q m.p.3 % B.h r A d P.fXsXpXiXpXfXsXpXiXeXP.J.Z.p # 4 # # 4 ) y.=.a.a.s.-.*.2.h.f.,.Q 1.*.g.+Xg.%.z.T -.",
"@Xs.,.-.d.-.s.z.z. .f.1.*.f.b.o.4 a Y. XF . A.uXdXdXuXrXiXsXpXiXaXeXaXK.h % < B V B w E r.r.$X+X3.g.4.h.3.4.,.4.=.d.z.,.%.4.! f.",
"%.1.4.f.f.,.$X2.&.y.k.f.<.1.n.o.:.6 '.|.A = $ J.fXsXpXeXL.iXsXiXyXyXyXZ.a j K }.{.{.C w ..,.k.g.3.g.2.,.%.z.m.f.-Xg.a.=.g.,.,.1.",
"*.M.k.f.,.Q Q [ ;.-.-.v.f.| X.1.j.r.w @ 7 ( 3 f P.iXsXL.S.P.rXiXyXyXK.h = G '.{.{.|.}.N 7 ,.-.=.-.a.2.2.-.k.j.v.x.+X[ [ ,.r. . .",
"f.k.*.f.y.&.&.r.&.,.r.k.b.u.o.X.&.a.r.` ..,...y h K.tXC.g C.K.P.rXL.g = V '.'.9.'.{.}.K B 7 Q ,.OX2.g.l.f.X. .k.l.{ E { ` y.*.:.",
"m.n.f.m.k.d.d.,.r.*.<.k.n.b.<.u.;.t.v.y.h.;.3. .2 d B.f i B.B.V.Z.B.d B 8.9.0.9.'.'.9.9.K B 6 _ 2.{ a.l.*.| X.y.+X( I { ` ..X.o.",
"1.u.d.f.m.| &.;Xf.k.:.y.n.u.;XN.k.c.z.r.,.3.2.=.;.4 o $ % % d j d * ; N Z N < C G J J G 9.}., 3 I ' ' e.! ..j.) ` t.{ w.` _ t.i.",
"b.4.1.,.W f.=Xf.:.f.y.<.u.y.;X:Xn.<.<.<.*.<.y.&.-.:.4 .   . , N < , : + + + . . + B C C 9.{.D +   O o t  .>.e.Q [ t.a._ &Xl.j.>.",
"f.*.4.4.&.f.=X%Xk.f.n.i.m.f.y.k.u.b.u.O.-.<.y.k.,.d.W W /   ; e < < ; + @ .     . < V Z 0.].[., O 5 v 5 # j.;._ { ( _ s.+Xk.a.&.",
"%.%.n.<.1.y.1.&.%XM.%Xk.o.y.y.<.u.y.<.y.1.W y.f.;.&.W s.a.q + , D K K J C + + .   + N J Z 8.{.0.< x U.l . j.>.>.[ E Y Y &Xz.l.a.",
"| y.@X<.*.1.<.1.,.m.<.x.y.:.:.z.f.n.n.u.u.1.n.| s.Q %.%X,.Q 0 : G '.'.D G H z #     ; G J J {.|.J B H k o ,.r.&._ [ Q _ _ j.d.,.",
"y.k.-.1.*.o.-.f.<.&.-.r.W -.i._ N.n.<.*.k. .-.<.,.,.d.r.{ &._ 0 + B B B z v v = X . @ V 9.9.{.|.J e } l o { ;.&.;.w.;.,.w.>._ _ ",
"y.n.:.1.<.1.<.*.*.y.,.L y.k. .*.<.y.:.X.:. .f.M.s.4.M.,.,.>.u.0 o x U.U.v = $ 6 ' ' @ ; J 9.}.|.9.e v l o =.r.j.;.t.>.( t.&.{ s.",
"| f.d.&.Q *.y.f.:.W :.y.*Xk. .M.:.| y.*X*Xy.s.z.f.| :.j.-.W y.I 6 = l x w / ' 6.s.z.~ 2 < 9.[.{.8.r v l o Q E &.{ r.j.,.Y ;.j.$X",
"k.f.f.*.<.s.y.d.f. .-.M.,.d.y.&.:.:.:.<.z.d.=.1.%.z.;.z.y.:.k.-.X.6 # 7 q Q j.;.>.&.a.0 + Z D D D z v l o r.T &.;.>.l.&.w.a.s.>.",
"y.<.k.f.o.f.1.1. .-.*.;.f.r.,.;.*.:.*.:.&.-.%.,.d.1.! d.k.:.y.i.,._ ) :.) f.t.r.>._ a.0 O + , e z U.v = . ,._ _ _ ( ( T a.( ;.r.",
"*.i.f.<.1.1.,.k.f.y.m.s.h.;.s.,. .Q  .:.y.r.,.k.a.,.s.;.r.,.*.i.y.,.r.j.y.v.j.y.d.;.U ( t   x U.U.U.v = X r.{ ( a.>.{ w.x.r.t.a.",
"Q y.z.,. . .y.*.&.:.k.f.=Xd.s.s.*.<.i.*.,.*.d.d.&.U s.f.r.,. .;.*.*.d.s.j.k.j.j.M.( s.,.;.q 5 l l j = 3 t a.>.>.&.r.;.;.;._ ;.>.",
"k. .,.x.f. .-.y.f.d.m.M.-.,.x.z.,.y.y.,.y.&.,.h.Q 2.&.>.,.r.&.:.&.;.4.s.z.r.r.z.x.;.,.;.=.:.# o X X o t ( a.&.[ { a.w.t.k.x.>.( ",
",.,.y.d.j.z.d.x.-.y.,.*.*.y.y.f.:.k.f.u.s.,.f.1.&.,.&.z.j.;._ Q =.,.z.r.d.;.;.j.y._ _ x.a.,.z.y.a.=.&.r.>.z.j.&.( j.a.l.w.t.r.>.",
"r.&.r.d.r.c.d.*Xk.<.f.*.:.-.&.L h.:X%X<.%.d.z.s.>.a.>.[ l.;.&.j.] 3.g.=.>.>.;.w.L ;.s.r.,.Q -.y.a.>.;.t.&.,.&.( z.s._ ;.{ { w.r.",
"k.r.a.t.r.$X$X-.<.k.$X1.<.:.1.f.<.m.m.*X@Xd.4.,.=.,.+Xa.d.x.c.r.=.-.s.-.,.r.>.;.j.j.&X>.T r.d.k.a.d.&.j.r.t.j.a.>.&._ ;._ Y Q ` ",
",.d.s.d.d.;.>.,.,.s.d.-. .<.%.1.j.,. .z.*Xk.a.=.z.>.r.$Xj.r.,.r.2.-.-.2.2.,.&.w.&.*.k. .y.,.f.,.w.$Xr.;.Q r.s.{ _ _ [ ;.>.( ;._ ",
"4.1.@X*.&.;.s.g.-.-.R 4.4.| 4.1.>.r.f.r.d.k.d.+Xz.s.;.1.f.*.Q 1.OX3.3.5.&.>._ &.-.=.=.-.,.d.y.y.x.l.j.,.;.r.Q &.=.2.-.*.;.;.w._ ",
"-.4.4.&.Q =.[ g.h.5.-.*.%.f.M.4.>.Q l.OXr.E ,.%Xz.r.,.k.&.U y.*.3.#X#X2.s.>.&.+Xg.%.-.-.4.$X&.&.z.s.z.,.,.d._ &.=.=.z.z.z.j.;._ ",
"1.h.z.L ;.,.j.a.-X,.,.-.| M.m.u.Q [ s.[ T T $X] d.d.z.s.&.| 4.,.3.-X3.-.w.L +Xc.y.| T d.d.T E i.,.;.j.z.d.r.Q ,.-.r.m.@XQ t.( j.",
"-.*.2.;.l.>.>.a.s.E ;.&.%.u. .&.,.] ,.>.&.2.2.,.-.;.s.*.;.=.&.*.g.] $X&.d.{ d.t.W m.-.1.,.w.k.d.-.j.;.%Xx.;.d.,.1.-.f.&.=.j.;.:.",
"-.*.d.d.t.>.{ r.>.,.z.;.:.y.` ..R 4.=.3.=.g.=.] ,.&.%.,.>.Q y.r.-.s.a.l.j.` j.r.r.r.;.;.a.k.e.t.f.d.d.,.;.k.k.j.y.$Xs.,.&.j.;.i.",
"a.a.+Xr.r.{ a.[ ;.a.r.Q ;.>.;.;.-.5.3.2.3.$XR 4.=.2.,.=.r.d.r.l.-.] ,.d._ ;.w.r.r.j.,.r.z.t.e.( OX,.z.;.&.$Xy.z.%Xz.&.T j.;.;.w.",
">.>.>.+X>.>.[ E j.a.,.,.t.r.e.t.2.-.[ 2.a.a.,.s._ d.a.Q >.$X;.s.,.Y >Xe.j.t.,.{ c.x.:.;.;.T j.j.h.z.,.%Xj.,.z.z.2.,.Q -.,.-...e."
};
