/* XPM */
static char *ae5373a898fc4e12ffb7c6301aae77dbLoN77NfaXo079fIm[] = {
/* columns rows colors chars-per-pixel */
"64 64 245 2 ",
"   c #020101",
".  c #0B0302",
"X  c #0B0B03",
"o  c #02020D",
"O  c #070A0A",
"+  c #120402",
"@  c #1B0201",
"#  c #130B05",
"$  c #1A0C05",
"%  c #160B09",
"&  c #1B0F09",
"*  c #0D1203",
"=  c #0D120C",
"-  c #121A05",
";  c #1D120A",
":  c #161708",
">  c #020B15",
",  c #161716",
"<  c #0A1614",
"1  c #220302",
"2  c #2B0201",
"3  c #260A05",
"4  c #330202",
"5  c #3B0302",
"6  c #390C06",
"7  c #24140C",
"8  c #2D1A0D",
"9  c #261909",
"0  c #351809",
"q  c #341C11",
"w  c #391E13",
"e  c #2B1615",
"r  c #1C270A",
"t  c #122A10",
"y  c #232B0C",
"u  c #29280B",
"i  c #392605",
"p  c #23320B",
"a  c #27390B",
"s  c #252718",
"d  c #392417",
"f  c #2A3712",
"g  c #36360D",
"h  c #272926",
"j  c #363434",
"k  c #373B2A",
"l  c #04142B",
"z  c #430302",
"x  c #4C0303",
"c  c #450904",
"v  c #540703",
"b  c #491B06",
"n  c #4F190A",
"m  c #670403",
"M  c #7B0503",
"N  c #651A06",
"B  c #711A05",
"V  c #47270A",
"C  c #55260A",
"Z  c #443A04",
"A  c #593509",
"S  c #422415",
"D  c #482919",
"F  c #522B1B",
"G  c #5A2B1A",
"H  c #59351D",
"J  c #4A301A",
"K  c #6C2A04",
"L  c #722409",
"P  c #693A07",
"I  c #6C3317",
"U  c #583925",
"Y  c #433B2F",
"T  c #663821",
"R  c #7B3D24",
"E  c #2D4C03",
"W  c #2D430C",
"Q  c #274405",
"!  c #334D0C",
"~  c #334A04",
"^  c #345404",
"/  c #35540B",
"(  c #3A560A",
")  c #3C5B0D",
"_  c #385907",
"`  c #2E4112",
"'  c #324413",
"]  c #344C14",
"[  c #3B4D16",
"{  c #36491A",
"}  c #3B5513",
"|  c #3D5C13",
" . c #3C531B",
".. c #3E5B1A",
"X. c #365412",
"o. c #2E5004",
"O. c #3E610D",
"+. c #3E6114",
"@. c #3E5521",
"#. c #415E0E",
"$. c #5A5801",
"%. c #425E13",
"&. c #425D1C",
"*. c #495B1A",
"=. c #504A09",
"-. c #794707",
";. c #655902",
":. c #6C4B05",
">. c #41630E",
",. c #446314",
"<. c #496516",
"1. c #466915",
"2. c #496B16",
"3. c #45641A",
"4. c #4A661B",
"5. c #46691B",
"6. c #4C6B1C",
"7. c #516D1E",
"8. c #52641C",
"9. c #4E711D",
"0. c #4E7114",
"q. c #51721E",
"w. c #547819",
"e. c #746902",
"r. c #5A432C",
"t. c #465D23",
"y. c #5A4B34",
"u. c #69462D",
"i. c #7A472C",
"p. c #7C5837",
"a. c #6F4831",
"s. c #466421",
"d. c #4B6523",
"f. c #4D6C22",
"g. c #4E6C29",
"h. c #4E6729",
"j. c #516423",
"k. c #526D23",
"l. c #5A6D25",
"z. c #536D2A",
"x. c #5C6D2B",
"c. c #596525",
"v. c #4E7122",
"b. c #557525",
"n. c #537224",
"m. c #587426",
"M. c #567924",
"N. c #597A25",
"B. c #55742A",
"V. c #5A752B",
"C. c #567929",
"Z. c #5B7A2C",
"A. c #566D30",
"S. c #5D7C32",
"D. c #567331",
"F. c #61742C",
"G. c #607D2F",
"H. c #627D33",
"J. c #637634",
"K. c #3F4346",
"L. c #575656",
"P. c #494848",
"I. c #5F6467",
"U. c #757777",
"Y. c #6B6C6F",
"T. c #535A60",
"R. c #881106",
"E. c #AF0A04",
"W. c #96260C",
"Q. c #8F2D12",
"!. c #AA360C",
"~. c #B7330C",
"^. c #AE290D",
"/. c #A23521",
"(. c #CD310D",
"). c #D21F08",
"_. c #96570A",
"`. c #934709",
"'. c #AB5608",
"]. c #B6540C",
"[. c #827800",
"{. c #B56208",
"}. c #AD7309",
"|. c #995B37",
" X c #845235",
".X c #A8633C",
"XX c #B86B3D",
"oX c #A65E36",
"OX c #C87608",
"+X c #D06D0A",
"@X c #D05237",
"#X c #E24C10",
"$X c #975E40",
"%X c #936E49",
"&X c #9A6754",
"*X c #CA6F46",
"=X c #E46C4D",
"-X c #0B9913",
";X c #5E8132",
":X c #5E812B",
">X c #61822D",
",X c #65882A",
"<X c #648334",
"1X c #65843A",
"2X c #6A863A",
"3X c #6C8A3D",
"4X c #698836",
"5X c #72833C",
"6X c #759243",
"7X c #708B44",
"8X c #7E807F",
"9X c #B69804",
"0X c #BE8708",
"qX c #9A8800",
"wX c #DB9309",
"eX c #E38A07",
"rX c #CFB005",
"tX c #E6AE04",
"yX c #E8B704",
"uX c #F2B305",
"iX c #F8CB06",
"pX c #FFF104",
"aX c #B7895C",
"sX c #D5885A",
"dX c #CE9765",
"fX c #F79265",
"gX c #F0B275",
"hX c #DCA469",
"jX c #7E7F81",
"kX c #858785",
"lX c #999999",
"zX c #919090",
"xX c #9FA1A0",
"cX c #A7A7A7",
"vX c #B9B9B8",
"bX c #CDBCAA",
"nX c #EBCDB3",
"mX c #C7C7C7",
"MX c #D6D7D8",
"NX c #D1CFD0",
"BX c #E0DEDD",
"VX c #E7E7E6",
"CX c #FAF9FA",
"ZX c #F1F0EE",
"AX c #FEF8D6",
/* pixels */
"%.z.m.j.%.4.m.4.8.k.1XZ.Z.<.b.f.%.4.4.*.6.n.6.C.,.3.,.,.,.6.,.3.6.1.,.3.6.5.,.3.f.v.f.5.+.2.v.C.3.2.,.5.6.B.| <.3.3.5.d.f.B.B.v.",
"k.4.k.n.4.f.%.f.6.n.Z.Z.n.6.G.Z.k.k.l.4.f.<.6.N.2.2.2.n.9.1.+.9.5.n.2.5.6.f.B.+.v.6.f.6.+.| Z.f.,.| | d.3.B.&.| | d.| } g.g.D.s.",
"k.4.l.H.B.m.k.Z.H.7.7.6.,.7.b.Z.) 4.H.V.V.n.6.2.v.2.1.2.6.b.6.1.5.n.5.+.5.v.f.3.1.6.6.9.,.| 5.3.5.| 3.f.d.C.k.| E &...s.s.s.s...",
"k.4.f.V.l.m.G.<X4.4.7.n.2.2.6.^ Z.5XV.7.3.6.>Xn.1.6.v.6.,.v.M.B.2.n.f.6.C.B.,.5.,.v.5.1.1.+.+.| f.+.5.f.3.d.B.| / | | z.g.s...+.",
"z.6.4.k.k.m.G.V.l.G.G.<.#.2.6.,.l.H.2XH.9.n.9.b.6.1.9.b.9.v.B.Z.n.9.2.5.g.d.3.f.O.b.9.2.) / 3.B.f.f.6.B.d.v.V.n.z.3.o.| ../ ..g.",
"n.7.q.n.7.7.q.8.2.w.G.<.<.6.#.7.m.7.%.4X6XZ.1.2.2.+.2.v.v.6.n.v.9.2.3.d.3.+.f.5.b.M.9.9.O.| +.5.,.v.5.9.6.n.q.n.v.6.g.g.5./ X.| ",
"7.m.N.7.2.<.7.q.<.7.#.<.2.#.6.7.6.7.N.1.6.<Xq.>X9.9.n.M.b.v.C.B.+.9.5.v.3.f.S.3.6.,.1.n.n.n.B.d.6.<Xb.9.n.<X2.2.6.n.C.3.5.+.+.X.",
"2.n.N.#.,.1.7.N.m.q.#.7.7.<.H.7.8.,.7.Z.n.>.q.:Xv.5.2.+.v.v.6.+.9.9.5.+.| d.C.f.2.2.w.N.9.+.3.s.v.M.M.2.q.N._ ) 2.q.:XZ.v.b.v.+.",
"6.n.n._ ,.<.2.n.4X<.n.2.#.G.G.k.O.+.M.9._ _ M.q.9.v.M.5.f.1.f.b.:Xq.2.3.3.k.n.v.6.,.2.2.6.,.3.h.N.2.M.q.n.q._ 2.1.2.N.>X7.4.3.6.",
">XZ.v.3.4.f.2.S.6.<.Z.,.<.B.f.S.O.+.O.1.O.,XN.) C.v.v.5.5.+.+.2.M.) n.v.6.,.Z.g.) Z.Z.k.4.d.7XS.6.M.9.S.S.3.6.6.7.>.N.>.k.V.4.f.",
"Z.f.f.B.V.g.B.B.Z.%.<.,.v.;XB.} +.9.5.0.N.4X:Xn.) 5.5.v.9._ 5.9.v.q.4X,.Z.^ n.6.4.f.4.*.z.z.h.3.2.n.v.g.f.n.B.B.1.N.,X1.) k.4.z.",
") ,.f.d.Z.S.1Xs.#.<.f.3.d.g.d.h.:X9.9.2.9.9.2.1.6.g.+.+.5.s.6.` $ a 2.n.3.3.d.k.f.S.%.k.V.z.k.| M.C.n.B.} H.n.V.4XN.6.>.m.f.*.z.",
"2.Z.3.3.| S.2Xd.,.,.6.3.) 3.D.h.5.:Xb.5.q.2.) M.3.f.B.3.5.;X..: Q.9 V.4.B.3.6.,.B.Z.3.7.4.%.j.k.:X9.N.B.f.B.S.H.Z.q._ 1.<.6.*.d.",
"Z.<./ Q 3.| 3X<XZ.f.3.,.| d.D.+.5.b.3X:X2.9.M.C.2.3.5./ +.g.: H G /.D y h.Z.f.6.6.) Z.S.B.f.,.f.N.9.6.S.3.6.f.B.N.n.<.b.4.z.B.z.",
"N.6.E | } ) ) 3.6.Z.f.,.3.s.g.D.n.Z.4X9.9.1.9.6.5.6.| s.*.d .XU   6 6   &.4.b.n.3.) b.3.| 3.V.V.v.2.n.v.3.^ f.<.<Xn.f.6.z.3.g.*.",
"7.3.>.B.3.3.+.,.6.f.B.B.| h.D.D.Z.,.5.1.9.9.n.,.v.f.d...0 @X*Xw   u t   [ | S.n.%.B.k.v.,.<.3XB.O.2.9.b.,.6.n.6.B.3XZ.g.<.B.d.s.",
"Z.1.,.n.%.3.n.B.s.;XS.B.s.g.s.D.s.+.) 9.n.w.,.9.3.) 5.` d *XT . y f.V.! 4.f.3.2.6.n.3.Z.B.5.6.,._ 1.9.v.,.6.6.<.B.B.v.3.1Xz.3.z.",
"4.<.N.b.d.n.| / +. .- { 3.X...g.3.+.) 6.9.O.:X<X6.3.d.] F XXq   ` %.d.6.( ,.Z.2.,.9.Z.1X;Xv.O.+.+.9.q.5.,.<Xn.k.,.%.D.H.1Xz.%.} ",
") 2.B.z.%.6.3.n.W $.rXV { s.h.s.n.| f.5.1.2.9.5.5.3.+.{ u.sXS   a +.3.%.3.k.6.3.,.B.N.C.Z.Z.C.v.6.2.3._ 6.n.C.d.g.B.B.B.Z.H.z.3.",
">.q.V.6.3.3.3.f.Q ;.pXiX$.a s...g.B.B.6.2.O.M.O.6.C.5.] y.fXW., X ! ' * * * * X 3.C.Z.g.f.2.B.+.5.q.1.,.b.2.B.4.f.B.B.d.z.z.%.) ",
"6.Z.5.6.,.f.3.B.' e.tXrXiXi p E 3.s.) / n.O.2.M.M.;Xv. .r.gXR . X .       H D . X f.6.| +.| v.f.) Z.v.n.q.1.n.k.| B.S.s.z.d.%.#.",
"Z.b.f.d.B.4.3.a $.yX{.OX=.f / g.3.} / v.9.^ 4XM.:XN.6. .D fXi.  S F ; ; $ # & q d = 3.f.f.f.s.+.3.Z.C.C.n.6.f.V.D.h.s.s.z.<.<.<X",
") f.g.Z.6.g.f ;.yX{.OXA t.z.&.g.h.h.B.v.w.9.>.,Xn.N.6.] d sX|.o H T 7 ; % d X 8 d ; X s.s.+.3.B.3.3.3.5.N.6.) f.s.1XH.h.#.k.G.3X",
"Z.f.3.) 3. .;.yX{.}.A W 4.d.&.r ' t.g.6.9.M.>.O.2.M.q.W 0 fXdXn S S w 7 # 8 % $ S 7   X @.X...h.f.v.f.9.<XZ.6.6.d.3.&.! 4.7.7.7.",
"3.2.B.3.p $.yX{.wX}.r O.f.4., rXe.X g.S.2.9.2.N.N.0.O.E 4 =X=X/.d # % . .   q S F G .       9 u ..S.v.5.n.C.g.*.t.` ..X.Z.} 7.G.",
"3.n.b.f e.iX'._.9XeXN p B.,.r qXpX=.] g.S.6.9.N.1.O.,.a   c @X|.$ O #   * X T T ; i.X % w J i.i.-  .} v.9.v.9.- 9 % =.c.z.J.j.l.",
"| 6.6.u rXwXA * u 0X+XK u X.~ 9XtXi ! / 5.3.2.N.>.9.! . #   7 j Y 1 & %   F oXT q i.# D T  X    9 0 - 3.+.v.1.r _.0 g *.t.J.x.x.",
"f.2.n.N.y [.a _ / i {.+XP 9 }.wX_.9 h.4.5.f.v.9.>.q.] w F     &XfXv   .   T T 8 T &   u.  o 7 H {.+XV - ]  .z.r @ n # *.j.x.x.t.",
"n.5.6.S.%.r Z.f.N.d.3 `.OX+X!.`.y z.g.&.6.v.9.n.w.9.X.8 8 # # 4 M 2 q D S q F a.d . F   % F G ].I C :.  @ @ p : $ Q.c f j.j.c.j.",
",.7.9.6.3.b.Z._ 6.n.! 4 ].OXwX:.` Z.3.,.,.B.<Xv.:XS.] X   $ U D = $ G i.i.S |. X  .  X. e F _.R.X     z 4 1 1 . + c R.X *.*.j.z.",
"M.2.2.M.N.2.1.1.n.3.g P +X-._.eX-.f p p 3.f.5.d.C.n.W   d F R .X.XaX$Xi.S q 0         % S V ]..   1 x 4 + 4 4 @ . 1 B v u *.z.z.",
"6.n.:X2.1.5.9.f.9.p -.iX}.y ; {.eX-.:.X &.6.9.Z.n.6.W r p.sXw oX.X&X XC i H 0     . S % S C ].  . 5 R.5 4 E.`.!.W.  L v . 3.4.( ",
"9.2.Z.2.,.+.v.:Xn.d.g e.: a g.i }.OXyX$.6.v.3.;Xg.+.f.{ s $XoX Xs     T.bXAXnXkXI.  3 . 7 V _.  . 4 M z n #X].L n b C O f m.6.6.",
"q.n.q.O._ 2.2.Z.<XZ.*.f a h.<Xr 9XiXuXg 3.Q S.S.| ) ,.f.u . U       U.CXcXU.MXNXxXU.I.  . 8 n +   @ 5 @ W.!.+ X   b + { 9.2.2.>.",
"1.N.n.( 1.6.1.n.>X6.k.>.) G.H.* Z $.V K - ,.Z.+.| ) 3.v.,.y   . +   mXlXU.lXxXmXlXxXNXU.  . 6 C         !.B < %X%X3 X v.,.N.( 2.",
">Xm.6.2.n.2.n.N.Z.+.m.7.<.m.B.=.Q W ' 0 & p 4X5.v.b.B.f.d.: @ @   zXlX  h BXVXmXmXzXj vX    . $       . 0 3 r.dXgXu.  ,.,.9._ m.",
">.8.q.m.n.k.<Xv.3.f.Z.m.8.7.F.8.n.n.1.t.. % r 6.:XC.v.X.* + 2 1 1 P., o o vXCXMXNXmXU.h I.  # 6     . @     p.p.aXp.d : v.2.6.6.",
",.2XV.m.6.) ) O.<.2.4.H.l.#.,.8.B.n.Z.,. .X % - p 5.n.[   @ 5 1 1 o @ 3   h mXZXmXmXVXkXL.    0 N 2   . @   aXr.p.J p.9 3.g.*.<.",
"N.Z.<.m.7.,.3.6.,.f.8.n.F.l.%.*.,.f.V.n.9.X.. , 8Xf Z.O . 5 m 2 . + @ 1 X   Y.vXmXmXBXCXlX.     n W.1   . + e % =   dXd * f.%.<.",
"F.F.n.G.V.n.n.6.f.4.j.m.J.F.8.l.3.g.V.n.N.1., vXU.  i (.(.W.4 @ . + + . ] : O kXNXMXmXVXCXcXj ,   n ^.x   @ 2 2 2 + e .   4.*.} ",
"7.m.n.N.G.#.%.7Xn.V.8.k.F.m.5XJ.V.S.V.f.6.6.%.s O   X 6 6 3 @ @ + . 1 . t.t N 9 , MXZXmXZXCXjXO P.> b ^.5 + z 5 5 4 2 z . | z.z.",
"N.l.7.6.( m.5Xz.4.l.k.8.l.k.5X6XF.j.8.8.<.k.8.{ . # S . d u.  + @   . { v.+.: L + kXVXBXNXZXzXo X     A ~.5 + 4 x x 5 x . B.n.<.",
"l.<.m.q.#.m.3X4XZ.n.F.z.Z.l.k.m.l.F.l.8.7.8.7.V. .X r.%Xr.%X  m m   ' 4XB.v.- `.S ; U.NXVXMXZXlX,       G ~.5 @ z x x x . B.n.3.",
"#.>.m.8.7.k.7.,.2XH.2Xm.4.k.k.8.z.j.8.k.8.( 7.V.,.d gXhXaX:   L W.X [ S.D.5.g.: ^.~.. L.cXVXCXZXjX    > o P ~.x 2 x x v . S.C.6.",
"#.7.H.7.<.8.7.k.8.Z.k.S.8.4.4.Z.l.J.F.l.n.k.G.#.4.u dXhXgXU .     W f.V.C.n.,.B.u 7     h BXvXmXcXh   > > V ^.M m v z z # n.B.3.",
"k.m.6.8.<.<.4.m.6.,.<.f.( 4.z.| H.F.4.<.m.#.8.7.f.%.= Y %X  , h   f %.6.f.%.^ S.V.m.u : j K.  L.NXmXh   l o -.W.m v v . 3.2.| +.",
"k.G.6.7.7.8.7.<.<.k.6.E k.V.%.<.8.k.4.<.6.#.n.H.N.n.<X} - - = L.L., r z.%.4.H.6.<.6.S./ =   @   kXMXj   > o i !.M m z : s.3.| b.",
"#.l.k.,.) <.7.l.<.( 6.k.3XZ.#.H.4.%.8.5X2Xk.n.G.n.| <.B.f./  .h MXU.  W %.1X2Xg.V.Z.3.6.+.9 z   U.ZXk = , > $ Q.R.5   s.E 3.B.<X",
"V.m.m.3.8.b.k.n.V.#.4.G.7.n.k.,.4.8.4.8.Z.n.,.7.,.N.3.Z.k.4.m.p I.P.2 u f.| B.3.3.3.9.b.n.n.r * K.zX` ..9 O !.).m + t ..d.f.v.s.",
"7.8.Z.m.,.b.7.7.%.4.<.3.b.6.6.3.4.4.%.6.,.6.>.6.n.7.) n.V.4.z.[ y   R.R.r k.k.g.5.| f.O.9.,.9.,.%   ' 3.@.* C v 2 > X./ v.) f.6.",
"<.k.m.8.8.k.8.n.m.n.G.b.N.3.b.6.%.) %.4.k.f.6.Z.k.6.n.<.f.f.<.z.4.[ 6 E.m u C.n.n.,.o.,.v.9.9.2.s.] 9.5.f.p   o   e u ..;Xf.v.v.",
") k.Z.f.,.%.n.<.,.4.m.b.4Xn.b.m.%.k.l.,.2.<.n.n.,.^ n.n.f.2.%.3.*.<.[ 0 m , t f.S.| B.f.2.1.6.2.B.,.| 4.f.{ = > 1 ).z  .3.| 3.s.",
"m.%.6.S.n.*.6.k.m.n.G.G.6.6.S.Z.k.k.k.k.k.,.6.N.) v.3.5.6.6.,.4.1.1.q.: < -Xt s.S.3.6.3.,.n.O.2.C.) | 5.3.g.] p 3 L % s.B.S.s.) ",
"6.f.n.n.B.Z.v.S.6.n.8.<.4.k.k.n.<.m.m.n.b.7.n.q.+.6.+.Z.V.3.| | 1.6.N.v.B.4.+.C.k.| | S.k.6.:Xv.v.| 2.g.5.Z.B.+.) n.g.D.s.g.f.5.",
"f.,.g.n.f.Z.n.4Xm.6.m.4.4.6.<.E m.6X4X8.#.n.Z.n.2.v.5.| C.3.,.B.O.9.M.1.5.3.3.3.^ &.n.f.k.( 6.q.n.3.3.v.+.d.3.) B.n.| +.+.+.s.f.",
"V.f.f.f.6.1X<X6.8.V.H.7.6.<.7.m.8.G.G.2X>Xn.q.6.3.v.:Xv.n.S.S.d.>.2.M.6.6.f.5.3.B.B.<X2.^ k.n.n.g.n.+.B.f.9.B.v.s.,.| 5...o.X.+.",
"6.n.B.n.B.3.5.9.6.n.m.2.#.8.>.7.V.6.,.Z.3XN.n.3.Z.5.f.<XZ.f.6.6.w.2.2.9.9.5.3.5.,.4.Z.,.6.6.n.6.5.1Xd.3.) f.n.,.+.| | 3.3.| 3.} ",
"q.7.>X<.,.1.v.C.0.2._ 2.q.#.q.7.5.6.z.6.k.V.n.S.Z.n.<.6.n.<.( k.:X0.0.9.1.5.| 3.2.1.,.2.7.n.k.z.S.Z.n.6.3.f.| ,.1.9.2.2.3.5.3.| ",
"2.q.q.,._ 1.+.b.N.n.2.2.>.q.H.l.f./ C.:Xf._ 6.<XZ.g.2.Z.3.~ k.<.0.,X,X9.n.5.+.;Xm.>.2.1.q.H.,.,.C.B.Z.6.5.n.| 3.1.1.N.>XB.B.3.| ",
"7.N.Z.E 2.d.B.v.<X6.7.2.%.H.Z.m./ 1.v.,.^ ^ <X,.n.n.G.n.,.#.7.6.0.4X0.2.5.E S.S.k.#.^ n.n.^ / z.q.3.B.Z.n.f.( 6.2.f.G.G.) v.} g.",
"2.2.6.3.C.s.+.v.n./ 1.,.>.l.%.,.9._ 9.5.,.9.v.2.2.1.n.2.3.1.,.2.w.>.;X3.B.+.g.v._ H.6.q.6.4.B.B.2.B.3.<XS.3.n.6.f.2.m.,.3.B.3.d.",
"6.<.v.n.C.+.5.f.5.f.C.3.4.k...*._ 9.2.2.1.M.1.O.6.,.,.6.5.) k.v.2.n.v.C.D.| B.f.f.f.,.3.g.B.g.d.n.n.n.6.6.B.B.b.q.<Xn.6.1.B.3.k.",
"v.b.<X6.f.5.v.| 5.v.v.) 3.5.3.3.2.w.9.9.9.<X^ M.1.9.2.3.6.n.v.Z.9.+.9.v...3.s.g.g.b.6.g.Z.g.d.| >X6.G.3.,.<Xk.Z.<XZ.,.^ B.6.3.s.",
"+.5.5.;Xs.+.+.) B.v.d.6.v.f.d.g.9.2.O.9.v.9.2.M.| n.f.) 3.<X3.n.5.o.7Xd.B.v.d.,.V.S.4.,.3.^ n.B.N.Z.6.<XB.f.Z.Z.6.q.( 2.6.3.3.d."
};
