/* XPM */
static char *f431aa1297a24dc3aaaf3f23e9b7eb6caD2TeEEMV2I4atOV[] = {
/* columns rows colors chars-per-pixel */
"64 64 244 2 ",
"   c #020101",
".  c #0B0403",
"X  c #0B0B03",
"o  c #050A0B",
"O  c #130403",
"+  c #1D0103",
"@  c #130B05",
"#  c #1A0D06",
"$  c #150C09",
"%  c #1B0E0B",
"&  c #0B1304",
"*  c #15140A",
"=  c #1C120A",
"-  c #1D1A0B",
";  c #161706",
":  c #070F14",
">  c #240201",
",  c #2C0203",
"<  c #270B06",
"1  c #340302",
"2  c #3B0303",
"3  c #3B0A04",
"4  c #360B01",
"5  c #23140C",
"6  c #2B150D",
"7  c #281908",
"8  c #361708",
"9  c #2D1B12",
"0  c #261810",
"q  c #331D12",
"w  c #391915",
"e  c #1A250B",
"r  c #1D2B0A",
"t  c #1C2606",
"y  c #1A2811",
"u  c #112D0A",
"i  c #26280A",
"p  c #362706",
"a  c #273C0C",
"s  c #2A3A0C",
"d  c #3D2215",
"f  c #392618",
"g  c #293912",
"h  c #323814",
"j  c #04172A",
"k  c #031A35",
"l  c #141B23",
"z  c #03213B",
"x  c #282828",
"c  c #373939",
"v  c #430303",
"b  c #4C0403",
"n  c #480C05",
"m  c #530403",
"M  c #5C0402",
"N  c #560905",
"B  c #471704",
"V  c #581907",
"C  c #620403",
"Z  c #6B0403",
"A  c #620E03",
"S  c #780506",
"D  c #671A08",
"F  c #791A03",
"G  c #462806",
"H  c #582709",
"J  c #463104",
"K  c #422515",
"L  c #492717",
"P  c #522C1B",
"I  c #572817",
"U  c #5A321D",
"Y  c #50360F",
"T  c #6E2B0A",
"R  c #652308",
"E  c #772C0C",
"W  c #653507",
"Q  c #7A380B",
"!  c #61361D",
"~  c #7A3311",
"^  c #672517",
"/  c #553A24",
"(  c #4E3522",
")  c #663A23",
"_  c #6C3B22",
"`  c #6E3521",
"'  c #713D25",
"]  c #2D4D02",
"[  c #2D420C",
"{  c #284604",
"}  c #314D0B",
"|  c #33490A",
" . c #2F5107",
".. c #335304",
"X. c #395A05",
"o. c #35540A",
"O. c #3A560C",
"+. c #3B5A0D",
"@. c #365809",
"#. c #2E4112",
"$. c #2F4616",
"%. c #324514",
"&. c #334A14",
"*. c #384C17",
"=. c #3B5513",
"-. c #3D5C12",
";. c #3B5319",
":. c #3E5C19",
">. c #355310",
",. c #3E610D",
"<. c #3E6114",
"1. c #3E611A",
"2. c #3F5024",
"3. c #4C4602",
"4. c #564604",
"5. c #425E0E",
"6. c #425E13",
"7. c #425D1B",
"8. c #4A5C1A",
"9. c #435812",
"0. c #545B19",
"q. c #5B5001",
"w. c #784208",
"e. c #6B4C07",
"r. c #41620E",
"t. c #446314",
"y. c #496516",
"u. c #466915",
"i. c #496B16",
"p. c #45641A",
"a. c #4A661B",
"s. c #46691A",
"d. c #4B6B1C",
"f. c #53631D",
"g. c #516C1E",
"h. c #4E711D",
"j. c #51721E",
"k. c #557A1C",
"l. c #7B7301",
"z. c #786D03",
"x. c #435C21",
"c. c #57522B",
"v. c #764B2E",
"b. c #456421",
"n. c #4A6622",
"m. c #4D6C22",
"M. c #4D6C29",
"N. c #486724",
"B. c #516D23",
"V. c #5A6C25",
"C. c #536D2A",
"Z. c #566728",
"A. c #4F7022",
"S. c #537224",
"D. c #597426",
"F. c #567825",
"G. c #597A25",
"H. c #55742A",
"J. c #5A752B",
"K. c #56792A",
"L. c #5B7A2C",
"P. c #567331",
"I. c #5D7C32",
"U. c #5C7730",
"Y. c #5B6F30",
"T. c #62742D",
"R. c #607D2F",
"E. c #607C27",
"W. c #627E32",
"Q. c #637734",
"!. c #0C3160",
"~. c #686B6A",
"^. c #49494B",
"/. c #931109",
"(. c #B40807",
"). c #962609",
"_. c #88380C",
"`. c #973613",
"'. c #A93D0E",
"]. c #AA2E15",
"[. c #9E2C22",
"{. c #B23523",
"}. c #94460D",
"|. c #9C4512",
" X c #94500E",
".X c #B25B0A",
"XX c #A74812",
"oX c #B75B16",
"OX c #AC510B",
"+X c #886805",
"@X c #AC6209",
"#X c #B9680A",
"$X c #B66C10",
"%X c #8D4D2D",
"&X c #84502D",
"*X c #985835",
"=X c #8B5535",
"-X c #B5472F",
";X c #88623D",
":X c #AB6438",
">X c #C25E06",
",X c #C77407",
"<X c #CC720E",
"1X c #CA4F36",
"2X c #D2603E",
"3X c #E74212",
"4X c #977148",
"5X c #A7794C",
"6X c #B17048",
"7X c #C97449",
"8X c #C27E71",
"9X c #089110",
"0X c #5E802C",
"qX c #5E8332",
"wX c #62822D",
"eX c #65892C",
"rX c #638334",
"tX c #65833A",
"yX c #6A863A",
"uX c #6C8A3D",
"iX c #698836",
"pX c #72833C",
"aX c #749142",
"sX c #708B43",
"dX c #8B8201",
"fX c #C58908",
"gX c #D28113",
"hX c #D58F07",
"jX c #E1920D",
"kX c #D2A807",
"lX c #E2AA05",
"zX c #E8B604",
"xX c #E7D003",
"cX c #F9EC02",
"vX c #FEFF04",
"bX c #808475",
"nX c #BC8C64",
"mX c #B48454",
"MX c #CA9464",
"NX c #D4A064",
"BX c #D99E6B",
"VX c #B0B2B1",
"CX c #BEBFC3",
"ZX c gray88",
/* pixels */
"6.C.D.m.9.y.J.a.B.B.iXK.L.y.H.d.9.f.a.a.a.C.d.S.t.i.t.,.t.d.t.t.d.s.t.t.d.s.t.s.m.A.m.s.<.d.A.K.s.d.t.s.d.H.:.a.t.p.p.n.m.H.M.m.",
"B.a.B.V.m.a.6.d.g.B.L.R.S.d.W.L.m.B.S.a.d.y.d.I.i.d.s.F.h.u.<.A.i.S.s.d.d.A.H.<.A.d.m.d.<.+.K.m.t.=.-.d.p.H.6.-.:.N.:.:.M.H.P.p.",
"Z.a.C.R.J.D.g.T.W.a.g.d.6.g.F.K.9.a.W.J.F.S.d.i.d.h.u.d.d.S.d.u.s.S.s.-.s.A.m.p.u.d.d.h.t.-.s.t.d.<.p.m.n.H.H.=.] t.:.b.N.b.b.:.",
"B.a.g.J.S.J.R.rXa.a.g.S.i.d.i.@.J.uXJ.g.y.d.rXh.u.s.h.h.t.h.K.H.d.A.A.d.J.K.1.y.t.S.u.u.u.t.:.<.n.<.p.m.p.m.S.+.o.:.:.m.N.b.:.p.",
"B.d.a.B.B.D.R.J.S.E.G.i.5.d.d.t.D.W.uXR.d.k.d.F.h.u.h.S.A.h.K.L.F.h.s.m.M.s.t.m.,.S.h.i.+.@.t.H.m.d.d.H.n.m.J.S.C.p. .:.=. .:.M.",
"S.S.j.S.j.g.B.i.d.D.R.y.y.d.5.g.D.g.6.iXaXL.u.d.s.,.i.A.A.h.H.A.h.d.<.n.p.<.m.N.F.F.h.h.+.-.1.p.s.A.s.h.d.F.h.D.S.m.m.m.b.+.-.<.",
"d.D.G.d.i.y.g.S.y.g.5.y.f.5.i.g.f.j.D.y.d.wXh.0Xh.d.F.K.S.A.K.A.,.h.d.m.s.n.I.p.h.r.u.j.S.K.H.p.d.qXF.A.S.rXy.i.d.S.F.y.s.1.1.o.",
"i.D.G.5.t.y.i.E.j.j.5.g.j.y.wXg.y.t.g.J.k.r.S.G.&.3.7 o.h.A.m.1.h.h.s.<.-.m.K.m.i.u.F.F.d.t.N.N.h.F.F.i.j.G.X.+.i.h.L.L.A.H.A.-.",
"h.S.S.O.6.i.y.F.pXy.F.y.5.R.R.B.,.,.F.S.X.X.K.d.i cXkXp =.u.m.S.G.k.d.t.p.m.A.C.h.r.i.i.g.y.y.M.L.i.F.k.S.S.@.i.t.i.E.wXg.y.p.n.",
"W.L.m.t.d.m.p.I.d.i.L.<.a.H.m.I.,.<.,.u.X.eXG.+.X xXxXxXJ [ <.i.F.+.F.d.m.:.I.m.+.J.J.B.x.n.sXI.s.S.m.I.I.p.i.d.i.u.k.y.j.J.a.m.",
"K.B.m.H.J.m.H.H.J.t.y.t.m.W.H.:.<.h.h.i.F.iX0X#.l.fX,XlX4.r u.h.S.S.iXt.L...S.s.a.B.a.p.B.C.B.7.d.F.S.A.m.C.H.H.u.wXwXr.+.Z.a.C.",
"+.t.m.n.I.I.yXp.+.y.m.y.n.M.N.N.F.h.h.u.j.h.a l.lX#X#Xp &.h.j.D.u.t.i.S.p.y.d.A.m.I.7.B.J.C.B.-.j.F.S.S.=.W.S.J.iXG.i.r.D.m.7.C.",
"i.I.t.7.:.rXtXm.t.t.d.y.+.p.P.M.h.qXS.i.h.{ +XlX.X#Xp | s.I.;.;.u.@.rXi.S.y.d.t.S.J.p.m.a.6.m.Z.0Xh.0XS.m.H.I.rXL.j.+.t.i.d.p.n.",
"G.i.o.{ t.-.yXrXL.m.y.6.-.N.P.7.1.S.uXqXa l.lX@XfX3.>.+.=.M.0.3.r n.uXI.I.L.n.d.d.-.L.I.H.m.t.m.0Xi.d.qXp.p.m.H.G.S.i.S.y.C.C.C.",
"L.d.] :.:.o.=.p.m.K.m.p.6.N.M.C.A.0XiXh z.kX,XjXfXG a N.m.$.l.cX3.g p.d.K.a.H.S.y.+.S.y.=.p.J.J.h.i.A.A.y.o.m.i.rXS.d.d.C.7.C.7.",
"d.t.6.F.y.p.<.t.d.m.F.H.:.M.P.P.J.p.r dXzX,XG Y lXOXB #.p.[ 3.vX+Xa d.d.F.6.L.H.t.H.m.S.t.i.uXH.,.d.h.S.t.d.S.d.H.yXI.C.y.J.n.a.",
"L.t.t.S.-.n.S.H.p.I.I.H.p.M.N.P.p.-.a 3.zXJ { %.Y hX.XB ; | kXjXW g R.p.m.d.s.n.d.S.t.L.F.s.d.t.X.u.h.S.-.d.d.y.H.H.m.p.tXC.p.B.",
"i.i.D.H.d.m.-.o.t.S.rXm.p.=.:.M.a.6.+.:.s a E.rX[ G >X.X}._.,X Xi O.d.d.+.t.G.s.<.A.L.tXqXS.+.u.<.h.A.u.y.rXS.S.:.6.H.tXyXC.6.=.",
"X.y.F.S.:.N.y.S.t.S.L.H.M.N.M.7.H.-.S.y.-.d.i.i.y.#.B .X#X>Xw.s t.t.y.6.y.d.d.t.<.F.L.K.H.L.K.A.d.i.u.@.d.S.F.n.S.H.H.C.I.Q.C.a.",
"y.B.H.d.y.t.a.d.-.] +.n.-.=.N.:.M.M.S.m.i.,.G.t.y.B.+ OX#XfXfXJ [ t.K.t.y.S.h.s.m.K.L.m.m.d.H.1.u.S.u.t.G.t.K.y.m.H.H.N.C.S.6.=.",
"d.H.y.m.t.m.p.J.d.y.d...} o.o.} 7.b.+.@.j.r.u.S.a.p @X<Xw.7 ,X,XY & ; =.S.K.L.S.h.K.i.:.<.+.A.s.+.L.A.F.h.t.S.C.:.H.I.b.B.n.y.-.",
"L.F.n.N.H.p.t.=.@.5.d.] m.p.&.N.7.:.o.S.i.X.rXG.m.7 kX+Xr } H ,X#XfX4.;.rXS.s.m.o.H.m.m.A.A.s.1.p.L.K.L.S.h.B.J.U.N.b.N.C.y.y.rX",
"+.A.S.I.n.m.y.H.m.O.d.d.tXH.p.P.M.n.J.n.S.y.- 5 % # # @ t t.&.e.jXzXdXp.K.d.N.p.S.K.s.m.1.1.N.A.p.p.p.s.F.d.+.m.p.Q.Q.M.+.Z.L.aX",
"L.m.p.=.t.I.H.m.i.+.s.s.n.N.n.=.n.C.m.m.i.- @ f q 8 v.v.P s ;.q.xXfXH *.s.A.H.I.I.p.<.m.A.1.N.S.m.A.m.d.tXG.d.d.N.b.7.o.a.g.g.i.",
"p.d.H.7...S.m.C.<.F.y.y.m.p.=.>.} C.tXH.= O I ' 8X).5 L I 6 . X & & R B $.qXM.L.I.<.<.<.1.b.P.b.p.I.M.y.S.K.C.m.P.>.p.=.J.O.g.E.",
"y.S.S.y.n.o.t.m.m.S.tXm.I.<.d.<.;.} *.X   ! %X{.U ' P 9 K %XU r t.F.$.$ @ #.s.u.j.<.s.s.p.s.I.H.S.A.t.h.s.F.d.y.f.Y.0.Z.Z.Q.Z.Z.",
"6.d.A.t.t.+.t.] -.-.H.A.H.m.m.L.M.;.- X ^ :X*X) L 9 d d X q %Xw r ;.:.g @ @ #.x.S.F.N.A.s.p.s.H.p.9.t.s.u.h.s.d.V.T.0.0.0.Q.Y.Y.",
"m.d.S.K.y.+.d.+.<.+.+.=.t.p.m.F.;.i   ^ 1X2Xv.@ $ % K P q @ P P   c x %.} -   x #.} ;.H.A.p.p.I.m.+.N.s.m.K.A.d.Z.R.f.f.0.Y.Z.x.",
"S.y.d.I.t.+.K.m.L.L.<.@.+.+.S.-.} i   [.BX-XI % % % % d q @ 5 ' 5 ~.VX~.x.* ^.CXx   f [ J.<.p.I.H.6.d.m.h.H.s.-.8.f.9.f.Z.Z.Z.n.",
"t.A.h.d.u.S.L.@.d.F.t.-.] ..o. .x.- o v.BXv.0 % < % 0 K d . P :X8   ~.ZXc e sX~.% q MX/ *.@.-.H.B.d.p.S.1.A.S.n.W.T.9.y.x.8.m.C.",
"F.s.i.K.L.i.s.u.A.H.A.S.<.h.-.d.- ) $ &X7Xw $ % $ 9 L d 5   / =X% . O   6 *.l o 5 mXMXNX( [ =.s.L.J.N.H.m.I.I.H.C.V.8.y.8.7.C.C.",
"d.k.L.i.t.u.d.S.h.i.t.t.<.t.t.i.g ` 5 6X7X= % q q d q 6     P _ . @     6 I O + . ( c.mX4X  d.y.uXL.A.B.S.L.A.y.y.g.C.g.y.y.y.O.",
"h.i.L.i.r.t.S.0Xh.I.F.i.A...b.g @ K O nX1XL = 0 q 6 o     q ' ~ @ . w q   D # O w.F W / ;X& s.m.I.j.S.d.F.L.i.-.F.D.tXL.F.H.m.y.",
"j.j.j.r.@.u.u.L.iXL.i.d.p.#.v.f   X   nX-XI #   .     . O P ' *XL   L * w.W   O '.OX<X).9 . a i.rXL.0Xt.G.j...d.d.+.0XiXj.i.h.+.",
"t.L.S.@.u.h.u.S.qXd.B.+.+.= MX4X( *   MXv.0 #   . X $ $ $ L ' *XK   .    XW   > 2 S Z ).Q     $.u.i.j.F.L.d.X.g.i.F.rXF.r.L.X.i.",
"wXD.d.i.S.i.S.F.L.+.H.B.a.*.( 4X5X0   mXv.@   . q % # 5 q q ! v.@   &X( R 8   > , S S b w.. + b [ F.j.E.i.S.f.j.s.S.K.d.t.g.X.S.",
"r.f.k.D.F.m.rXS.y.m.K.D.y.f.g ;X;X    {.2X/ @ = K 9 5 # ) / U q   $ U 0  XG   O m C /.v + + 1 (.2 &.d.d.r.E.L.D.iXK.h.u.F.d.d.g.",
"y.rXD.J.d.+.+.+.p.d.a.W.V.9.- c.f H = > 7X%X5 # % ! ) ) *X*X<   $ $ 0 . G }.<   1 C Z 2 + ; [ M (.1 #.d.a.L.S.L.I.I.<.<.d.m.6.8.",
"J.T.y.D.g.t.t.d.r.d.B.Z.J.V.=.-   @X].O 0 6XP $ $ U %X` K = . * = ) d     T # . , b C , > & u.s 1 6 u u D.8.9.D.K.1.+.1.t.C.t.a.",
"E.J.D.L.J.H.S.d.m.f.d.D.T.T.f.0.=.i /.2   0 =X9 % . = .   @ $ 6 K K = % . # 8 . . . , > @ n.u.6.o 9X9X& y.9.a.C.qX>. .1.:.7.8.=.",
"g.D.S.D.R.5.y.uXS.J.d.Z.T.V.pXQ.U.y m /.O . ` [.% @   % $ 6 d 6 5 O   o     O .       o 7.K.O.X   u r 7.o.y.J.=.;.M.1.b.:.-.M.P.",
"D.V.j.f.O.D.uXC.f.S.B.m.V.g.pXaXV.8.; M M . . 6 = #     q U I L 6   + 1 v 2 > , 1 E ~ . & X : k B ).r m.p.a.N.+.<.H.A.-.tXH.H.y.",
"D.y.S.g.r.D.yXyXE.V.J.C.R.S.Z.D.Z.T.Z.; b 1   . . $   . $ q L @ . + 2 v b v ~ H , N _.R . j j !.!.l r d.t.S.t.:.1.-.+.A.qXK.A.s.",
"5.r.D.g.g.V.g.5.yXrXrXJ.8.B.g.g.J.f.f.f.; . . 2       . @ .   8 }.D 1 1 m V $XgXV + b XXT : j k z o e o.H.S.s.n.<.o. . .tXL.H.h.",
"5.g.W.j.y.a.g.Z.g.J.B.L.f.a.a.R.V.T.Q.V.V.g.* X & X @ G }., O Q <X$X_.T _.oX#X<X_.> > A <X@X* k :   y =.rXs.m.t.-.-.+.-.:.H.S.d.",
"B.D.d.f.y.y.i.D.d.y.a.f.@.a.C.-.W.T.a.y.D.5.g.B.d.g.S.6.7 R 4 3 n ~ oX_.8 8 v ~ E 1 > , + `.OX. :   r n.K.1.p.<.p.m.1.s.p.s.+.:.",
"g.R.a.g.g.g.f.y.a.g.d.] B.J.6.y.g.V.f.5.a.5.S.E.H.S.rXd.;.7 R , + 1 ~ E 3 > + + v m b 2 > 3 3X/.    r S.m.p.A.A.s.M.n.+.H.p.<.H.",
"9.V.B.6.5.y.g.S.y.O.d.B.uXK.6.I.y.9.C.yXrXB.J.L.S.+.t.H.y.a H ~   , 3  X_.B V H N C M b 3 H gX'.  o a p.a.-.o.p.1.m.H.p.] p.H.qX",
"L.D.D.y.f.j.B.S.D.6.y.W.d.S.B.t.a.f.p.a.R.B.r.g.t.K.y.L.d.;.G _.< . T oXT n <XOXC C b b 3 ~ oXOX  y B.d.H.m. .y.p.p.H.1.s.A.A.N.",
"g.d.J.D.y.C.g.g.t.a.y.y.J.d.d.t.y.a.y.d.t.d.r.d.S.j.+.S.D.d.7.G _.3 > V V ^ w.}.V M Z m b > R ).G i 6.s.S.m.<.-.+.=.+.o.m.=.s.d.",
"y.S.J.g.d.B.g.D.D.D.L.S.L.t.K.d.5.+.5.a.B.d.d.L.j.d.S.y.m.n.a.x.d |.R > D oX! 1 3 v M Z m b > n XXD - g m.m.<.-.A.s.1.s.I.s.m.A.",
"O.Z.J.a.y.6.g.a.6.y.J.F.tXS.F.H.8.g.C.y.d.y.S.S.y...H.S.d.p.8.p.| 3.$XA 2 V jXOXT 3 b M Z Z v > , F E O d.A.p.s.p.s.t.b.N.<.p.n.",
"J.6.n.I.S.y.d.g.D.B.R.R.i.d.L.L.B.B.Z.d.B.t.g.K.+.m.t.y.m.m.<.a.y.r ~ '.b O T <XXX2 2 v M M b 2 > _.OX$ y.m.p.-.1.S.p.H.H.I.N.+.",
"d.d.S.A.H.J.d.rXg.S.a.a.a.S.C.S.a.D.S.D.F.g.S.d.,.d.t.K.H.p.-.+.y.9.6 H R N , n 3 1 , 1 2 3 2 1 1 T w.@ s.L.S.t.-.M.m.K.s.M.m.p.",
"B.t.m.S.m.I.S.tXD.a.D.y.i.f.y.] D.aXrXg.5.S.L.F.s.A.t.t.L.y.-.U.,.h.B.; w.).v 1 2 b b m b v v v > D ~ O 1.m.p.=.L.A.+.p.<.1.N.s.",
"J.m.A.m.m.rXrXd.g.L.rXg.d.y.g.D.f.R.R.yXwXS.h.g.p.A.qXh.H.I.I.m.u.i.:.7 |./.C Z Z , + + > v m 2 A T h %.d.A.H.m.s.p.:.p.:. .+.:.",
"d.S.H.S.H.t.d.m.a.B.S.i.5.f.r.g.S.g.6.L.yXD.S.t.L.s.d.rXJ.m.y.m.h.[ e.}.4 < > > >   *.s &.h B  X4 H e p.+.m.H.t.-.-.-.y.N.=.1.:.",
"j.g.wXy.t.u.A.F.g.i.X.i.j.5.D.g.s.N.H.m.S.J.S.I.J.S.i.g.S.p.+.B.0Xt p p r &.[ [ ;.| y.i.j.d.X p   5 x.p.p.m.+.<.u.h.i.u.t.y.s.-.",
"g.j.j.t.+.u.u.A.G.k.i.i.r.j.W.j.d.+.F.qXm.o.s.rXL.A.d.J.y.] B.i.k.eXeXh.S.p.p.W.j.t.u.i.j.W.a.8.H.F.L.m.p.H.+.y.u.u.G.0XK.H.p.-.",
"g.k.K.] s.d.S.M.rXd.g.i.6.W.R.V.X.t.S.<...X.iX,.S.S.R.S.t.5.B.i.i.eXi.i.N.] qXL.S.<...S.j.o.o.C.d.t.L.K.S.m.O.d.i.m.wXW.+.A.=.M.",
"i.i.d.t.H.s.s.A.S.@.t.t.r.D.9.y.h.,.h.s.t.h.h.h.d.t.F.i.t.t.t.i.0Xr.rXt.S.<.H.m.+.I.d.A.n.p.P.S.d.D.t.iXI.y.A.A.d.d.G.t.t.H.p.n.",
"d.y.S.S.H.1.1.h.s.m.L.p.a.B.:.:...j.u.i.u.F.u.,.d.t.+.m.i.+.S.C.u.A.h.K.H.:.H.m.d.C.t.y.S.H.m.n.S.S.S.d.y.K.H.H.g.rXS.d.y.H.p.A.",
"A.A.rXm.s.s.A.<.s.A.A.+.y.n.p.p.i.k.h.h.h.wX..j.s.d.d.u.m.A.S.K.i.,.A.A.:.p.N.M.M.H.i.C.I.M.n.+.0Xd.I.y.<.tXm.I.iXL.t...H.y.N.N.",
"s.s.s.qXN.s.<.o.H.m.d.N.A.m.N.m.h.i.,.h.h.A.d.K.+.S.S.+.s.rXt.S.d. .sXn.H.m.d.:.J.I.a.p.t. .H.J.L.L.d.tXJ.d.L.L.d.g.O.i.d.d.7.p."
};
