/* XPM */
static char *_4e80fd796da4a9bd0485f05cfa07aa6oaTFpWewDpycsg5Q[] = {
/* columns rows colors chars-per-pixel */
"64 64 199 2 ",
"   c #040404",
".  c #060A04",
"X  c #090B05",
"o  c #0C0E0B",
"O  c #0D1405",
"+  c #0F110C",
"@  c #0F1807",
"#  c #11120E",
"$  c #131C0A",
"%  c #131A06",
"&  c #0F1110",
"*  c #141512",
"=  c #161915",
"-  c #191A16",
";  c #1C1D1A",
":  c #152009",
">  c #1C250B",
",  c #1B290B",
"<  c #162506",
"1  c #1C2111",
"2  c #1E2A11",
"3  c #1E211C",
"4  c #212C0D",
"5  c #22320D",
"6  c #253A0A",
"7  c #222C14",
"8  c #20221E",
"9  c #232B1C",
"0  c #253311",
"q  c #2B3B12",
"w  c #273119",
"e  c #2D361A",
"r  c #2B381C",
"t  c #242522",
"y  c #262825",
"u  c #292A27",
"i  c #272928",
"p  c #2C2D2A",
"a  c #292728",
"s  c #2E3326",
"d  c #2E302C",
"f  c #2F3B25",
"g  c #31322E",
"h  c #343D27",
"j  c #2F2E31",
"k  c #2F3130",
"l  c #333532",
"z  c #373935",
"x  c #393A36",
"c  c #3C3C3A",
"v  c #403E3F",
"b  c #2D4C02",
"n  c #2A4508",
"m  c #324E04",
"M  c #304E08",
"N  c #2E520C",
"B  c #345405",
"V  c #355803",
"C  c #3A5A06",
"Z  c #35540A",
"A  c #3B560C",
"S  c #36590B",
"D  c #3B5B0D",
"F  c #2E4414",
"G  c #324414",
"H  c #344A13",
"J  c #344519",
"K  c #3A4B19",
"L  c #355310",
"P  c #3B5514",
"I  c #3D5C12",
"U  c #3D521C",
"Y  c #3E5D1A",
"T  c #3E600D",
"R  c #3E6113",
"E  c #3E611A",
"W  c #3F6915",
"Q  c #354322",
"!  c #3E5521",
"~  c #3E403D",
"^  c #415E0E",
"/  c #425E13",
"(  c #41531C",
")  c #435C1C",
"_  c #4B5D1B",
"`  c #455B14",
"'  c #525E1C",
"]  c #41620E",
"[  c #446314",
"{  c #496616",
"}  c #466915",
"|  c #496B16",
" . c #45641A",
".. c #4A661C",
"X. c #46691A",
"o. c #4B6B1C",
"O. c #54611D",
"+. c #516D1E",
"@. c #506916",
"#. c #4E711D",
"$. c #4E7114",
"%. c #527517",
"&. c #52721D",
"*. c #597E1E",
"=. c #455C24",
"-. c #525E20",
";. c #40413E",
":. c #456421",
">. c #4B6523",
",. c #4D6C22",
"<. c #4E6D29",
"1. c #4D672A",
"2. c #536424",
"3. c #516E23",
"4. c #5A6C25",
"5. c #536C2A",
"6. c #5B6D2E",
"7. c #5A6427",
"8. c #4E7022",
"9. c #517121",
"0. c #547222",
"q. c #517225",
"w. c #557125",
"e. c #557525",
"r. c #537224",
"t. c #587526",
"y. c #567924",
"u. c #597A26",
"i. c #527228",
"p. c #567228",
"a. c #55742A",
"s. c #597529",
"d. c #5A762A",
"f. c #577829",
"g. c #5A792C",
"h. c #5B7A2C",
"j. c #5B6F30",
"k. c #567331",
"l. c #5D7C32",
"z. c #5B7631",
"x. c #64772F",
"c. c #607D2F",
"v. c #627332",
"b. c #627E33",
"n. c #627F3C",
"m. c #3F4042",
"M. c #434542",
"N. c #464845",
"B. c #484A46",
"V. c #4B4D4A",
"C. c #474948",
"Z. c #4E504D",
"A. c #50514F",
"S. c #4D4E50",
"D. c #545552",
"F. c #565955",
"G. c #585A57",
"H. c #5B5C5A",
"J. c #605F5D",
"K. c #5F615E",
"L. c #61625F",
"P. c #636562",
"I. c #666965",
"U. c #696A67",
"Y. c #6B6D6A",
"T. c #6E706D",
"R. c #70726E",
"E. c #6E6F71",
"W. c #6F7170",
"Q. c #737572",
"!. c #777976",
"~. c #797B76",
"^. c #7B7D7A",
"/. c #5E802C",
"(. c #5E8132",
"). c #61822D",
"_. c #65882A",
"`. c #648334",
"'. c #698537",
"]. c #678837",
"[. c #6B8B35",
"{. c #65833A",
"}. c #6A863B",
"|. c #6C8A3E",
" X c #6D8D42",
".X c #749142",
"XX c #7E807D",
"oX c #80827E",
"OX c #7F7F81",
"+X c #7F8480",
"@X c #838482",
"#X c #878986",
"$X c #888A85",
"%X c #8C8D8A",
"&X c #8F918E",
"*X c #91928F",
"=X c #929491",
"-X c #979996",
";X c #989A97",
/* pixels */
"/ 4.p.,./ ..p...O.,.].g.g. .e.3./ O.{ ....3.o.f.] | [ [ [ o.[ [ ,...R [ ,.| [ X.,.i.,.X.[ o.o.f.X.o.[ X.,.i.I >.[  .>.>.,.i.i.<.",
"3...3.4.o.,./ +.o.0.h./.0.o.h.h.,.,.p...,.{ X./.| ..} y.#.X.R o.X.y.o.| o.,.s.E 8.X.o.o.R S h.<.[ I I X.[ 5.[ I I >.I I <.<.k. .",
",.O.5.b.w.s.3.h.b.@.3...[ +.f.h.^ O.b.d.s.e.o...#.o.[ | | y.o.} X.q.X.I X.8.,.[ } o.#.o. .D X.[ o.I  .<.,.a.3.I M ) Y :.:.:.:.Y ",
"3...o.s.w.s.x.b.o...,.0.{ | o.B s.|.d.+.[ o.`.&.[ o.#.8.[ 8.e.f...&.8.o.g.s.E X.[ 0.} } } [ I E ,.R  .,.{ <.i.I Z I I <.1.:.Y E ",
"w.o.o.+.3.w.b.s.&.c.h.{ ^ o.| [ 4.b.}.b.&.q.#.y.#.} o.q.#.8.f.g.q.8. .X.<. .[ ,.D y.#.X.S S [ i.,.,.o.i.,.,.s.3.5.[ Z I I L I 1.",
"0.0.0.0.&.+.0.@.| t.c.{ { o.] +.s.+./ '..Xh.} | | R } y.8.o.q.q.#.| [ ,. .E <.X.y.y.#.#.D I E  .[ 8.X.8.{ y.+.e.8.,.,.,. .S I I ",
"o.0.h.o...{ +.&.{ +.^ { @.^ @.3.@.3.t.{ ..`.&./.#.| f.q.y.8.s.q.} | X.8. .,.l.[ o.[ } y.0.s.i.,.o.(.f.#.q.`.{ | ,.0.g. .X.E  .Z ",
"o.0.u.] ] } +.u.t.&.^ &.+.{ c.+.| [ +.h.y.] &./.8.X.| W 8.8.,.R #.#.X.R I ,.z.,.} } *.y.o.[ :.,.&.y.y.| &.f.C ] } #.h.u.8.i.8.I ",
"#.0.0.S ] ..{ w.[.` 0.{ ] ).b.+.D D u.&.C V y.&.#.8.y.X.X.[ ,.8.u.y...[  .i.<.0.#.[ | | o. . .,.u.| y.8.y.&.D { } | c._.| { [ ,.",
"`.h.3.[ o.,.X.l...o.g.[ ..p.,.l.R W T } C `.u.T y.i.8.X.X.T W | y.T e.8.o.R g.,.A a.z.,. .>.}.l.o.e.#.l.z.[ ..o.| { u.] 3.d...>.",
"s.,.,.5.d.<.i.p.h./ ..[ <.l.i.Y W #.#.| u.[.h.0.I X.X.,.8.S } #.8.0.`.X.z.B q.o...o... .,.6.,.) | y.8.,.<.i.f.i.| u.).} D 3...5.",
"D [ ,.,.l.g.].:.^ { o. .o.<.:.1.f.8.#.} %.&.| { o.,.[ [ X.X.0.s.} [ o.0.{  .o.3.,.l./ 3.d.i.2.` f.y.y.f.D l.i.s.[.u.| [ p.,._ 5.",
"..h. .[ Y b.}.,.[ [ o. .D ) k.1.:./.y.$.#.o.T i.[ ) : X 4 2.> X : B c...e.[ ..q . X X X . . J >.h.#.u.f.,.a.z.`./.&.C [ ..+.) >.",
"u.{ S n [ I }.{.g.,. .[ I ,.k. .W y.|./.| | y.h.[ q + - 1 e $ - - U }.h.l.h.=.w o o o o & o > G Y ..o.(.[ ,.8.f.f.0...q...3.5.6.",
"h.o.b I I Z D  .,.h.,.[ Y ,.1.i.8.l.].o.#.| | X.F . t M.g # 8 v l # H  .3.Y f y d d p p g p - . @ H q.,.[ Z ,. .).0.8.o.3. .<. .",
"o.[ T s. ...R [ o.o.s.i.I 1.k.k.g.X.| } #.#.0.6 + t v S.M.v M.B.V.x = O 9 s u l N.M.M.V.D.D.M.l ; O L q.[ | w.o.f.|.l.2...d.>.) ",
"h.[ [ q.I ..q.s.o.h.l.q.o.1.1.k. .D D o.&.3.5 $ 8 v A.T.Q.J.A.Y.^.H.y * y c c N.F.D.F.I.Q.Q.K.D.Z.d 1 H I o.,.[ s.i.5. .{.5. .,.",
"| { s.q.o.3.I Z  .q.l.,.[ P Y 1.:./ S o.*.D O # g v D.@X%XA.A.oX%XV.; * l B.D.A.F.I.~.~.!.@X!.Q.T.G.t 2 / `.e.q.[ / a.{.{.4./ P ",
"S ..0.q.I o. .0.[ <.h.s.<.,.:.:.q.R  .I I A O & ; a v P.J.l v J.J.a   o t ;.F.D.F.Q.=X%XE.Q.&X=X@XE.l 0 o.w.p.o.<.a.d.i.z.l.5. .",
"{ &.h.o. . .X.,.D b D ,.I I :.Y 5.1.2 O @ X     o 8 t j a 8 8 a t   o * * y ;.H.K.I.~.=X@XH.Y.=X-XoX;.5 w. .a...,.i.i.>.p.4./ I ",
"o.s. .<./ ,...a.o.[ ..B b Z L n U , # = ; t ; 8 -   - p ; # M.x X * 8 p i 3 u ~ M.V.H.^.%XI.G.K.R.^.D.9 5 { 0.3.I a.l.:.<.>.[ / ",
"h.e.o.o.a. ./ I B [ ..b 3.:.L ! 7 # u l V.F.v C.Z.a p V.v 8 S.M.; l l M.N.i u d l V.H.I.!.#XK.M.H.^.Y.l # 3.o.l.z.>.:.>.5.{ { `.",
"D ,.3.z...<. .a.o.S o.o.{.5./ 0 O a p M.U.Q.D.I.@XR.A.U.!.B.y 8 l M.V.D.Z.k c N.C.F.Q.Y.Y.%XQ.I.^.oXI.c 8 +./ o.:.n.n.>.P 3.h..X",
"h.,. .I  .z.d.,.{ I X.X.:.,.,.: o p v D.K.P.P.@X*XY.J.@X*XH.; + p V.G.D.C.M.M.S.F.H.#X%X!.+X^.^.oXQ.B.u 9 h.o...>.) ) Z ..+.+.@.",
" .o.i./ Z q.3.3./ f.[ [ ,.X.I < X a M.U.J.D.T.@XY.A.Y.@X^.K.3 X ; j V.H.H.D.Z.F.H.Q.=X-X@X+X^.Q.K.V.p 3 3 f.3.,.k.L _ P s.A +.c.",
"{ e.s. .,.A I 3.<.#.}.p.l.[ K $ . t c J.U.G.T.J.M.D.Q.H.;.~ - O & 8 l V.A.c M.D.H.!.=X&XQ.I.G.N.z t - 3 r y.o...+.6.' 7.4.v.2.7.",
"I o.,.[ [ D [ b D I p.q.p.U @ . X ; a c Z.F.F.a 8 Z.H.l # # # = 8 8 a l d i y c G.H.Y.Y.V.p y t t t = q Y 8. .o.4.x.' ' ' v.6.j.",
"0.o.0.g.[ D o.S I D D S H @ ; i * X = a a d t * + 8 8 * X X o 3 y a c c M.M.d l V.V.c d y ; ; t p c Q Y 8.f.8.{ +.x.' ' -.6.7.:.",
"q. .o.l.X.D h.,.g.h.I 6 : - u x j * - * * * o o + . . o + + + - d c N.Z.D.H.I.H.V.V.x - t m.c i u J :.,.,.i.X.I ` ..` O.7.2.7.>.",
"[ #.#.o.[ q.h.S ..s.I < & d l N.C.c a ; # o # o + # o + # o + - l V.Z.D.H.I.=X%XI.I.P.v z D.~ t 9 G / 3.[ 8.f.o.b.x.` {  .) >.5.",
"y.} } y.h...} [ y.q.o.4 o i ~ F.J.D.S.g - # o # + + + + # + + # y M.D.F.K.^.-X*X!.Q.Y.D.c l 8 ; * . J a.:.l.h.s.4.4._ _ _ ..5.5.",
"o.y./.{ } } #.#.| o.I <   o j P.J.N.U.V.* o o # + + # + + + o # - u l V.K.Y.+XXXP.M.l g u ; * o     H q.f.h.0.[  .3.3.o.....[ D ",
"#.| /.} ] [ 0.h.0.h.y.r * * 8 ;.B.~ V.~ ; + o + + + + # # + + + & * - t g l v ;.l 8 ; ; t p l p l l w H w.l...T e.t.`.h.s.q.,.o.",
"#.0.%.T V X.} h.[.g.) h u l l 8 8 c u 8 3 # o + + + + + + + + + & o + o + + X * ; t y p l V.K.P.K.I.z 2 ) &.V ..o.D (.].&.| o.T ",
"} h.0.D [ #.} y.(.o.s p x V.G.c t t t ; + + + + + + + + + + + + + + + o + o o * 8 u p z V.H.!.I.V.H.Y.c + o.A +.{ y.(.y.T /.B | ",
").0.| ..y...q.y.g.I u c N.G.Q.@XH.; * # o + # o # + + + + + + # + + + + + # + * 3 p x V.G.I.Y.V.c Y.$XV.o %.+.&.X.0.h.o.] +.A u.",
"[ @.w.t.p.+.).0.[ #.p g M.H.!.*XY.8 o o + + o # O # + + + + + + + + + # + o + = 8 p M.D.K.I.Z.l c Y.*XH.# c.c.t.].g.8.} y.o.o.+.",
"[ '.d.t.o.D D R  ...h s l ;.D.D.c ; o o O o # # # o o # + + + + + + + o + * + # ; i x V.H.Z.d l B.H.$XP.# d.6.d.g.(.S R o.,./ [ ",
"t.t.{ p.3.[ [ ,.[ +.>.h t t t t ; + o + + + + + # + # + # + + + + + * o * y - o * ; i ~ M.l u ~ H.K.~.A.# ` ^ s.g.X.L X.[ 3._ ..",
"c.x.w.c.d.q.q.o.,...o.2.Q ; - * o + ; t 8 3 # o + + + + + + + + + + o o y c y - ; * - t i i ~ F.U.Q.T.c o ^  .5.l.L N E / ) _ P ",
"+.t.0.d.x.^ [ |.p.t...( e 8 i - * 8 ~ V.N.c t + O o + + & & + + o + = p ~ z ~ ~ z - * * 3 u m.F.T.oX^.c   _ a.I U <.E :.Y I <.k.",
"x.+.3.@.S t.|.4...w.O.5 * p g l p p C.I.T.G.c ; # + + + + + + + # * t ~ Z.m.V.K.K.h ; * ; t i l F.Q.Y.l :  .,.P R i.8.I {.f.3. .",
"&.@.&.+.[ 0.|.'.h.w.4.e u p ;.D.B.p u H.XXY.Z.l 3 + o + # + + o * i p p M.U.F.P.^.H.d * * & - ; g A.p 7 P f.[ R E S I 8.{.f.q.X.",
"^ ` t.+.@.4.+.[ }.b.7 9 l M.D.R.Y.M.y M.^.#XI.~ t + o & + + + + = p M.M.m.F.D.W.=XE.z = * o & * 3 3 , M f.<.:.X.E N b S {.h.f.o.",
"^ +.b.3...@.3.+.@.h.* ; z S.H.T.~.E.K.V.I.%XT.c 3 o o O O + + o + p H.P.Z.C.P.#X@XD.t ; t y y -     P I `.X.,.[ I I I I I q.i.o.",
"3.t...@...[ ..4...{ d u M.K.K.K.I.^.=XQ.P.Q.P.x - + & * # + o + = p A.P.K.I.T.U.Z.t 3 p z N.G.c * o 6  .e.E  .[ [ ,.E  .X. .I I ",
"3.x...+.+.+.+.{ { <.d x H.Q.K.Z.Z.P.+X=X#XU.Z.d ; ; y p t + o ; p p d C.W.Q.V.u t t c V.F.H.T.T.H.;.- e  . .,.i.:.q.,.S i. .R i.",
"^ p.3.` ^ { 3.0.{ C g ~ K.T.F.C.H.E.^.+X~.H.l t t i x M.l - - g N.~ y y ~ ~ u 3 i c V.G.P.Q.T.Q.^.Y.M.3 , I Z [ E ,.a.X.b [ s.{.",
"d.t.4.{ +.4.+.3.s./ - d A.G.A.H.T.T.T.Y.P.Z.p 8 p z N.A.C.g l c l y u g u - * - l Z.Y.P.G.L.G.T.oXK.A.x . ,.B [  . .i.[ :.,.8.o.",
"+.+.x.p.[ p.+.+.^ +.# * g ;.M.L.Q.P.H.F.V.v d y c A.I.U.H.D.S.l * - M.D.M.-   o z K.R.H.M.N.H.oX$XN.N.z . X.I I I I I Z <.D o.:.",
"_ 3.w.@.+.3.+.p.4.3.1.4 * t 9 c P.Q.J.c 8 t p x A.~.*X$XQ.G.V.; ; H.P.D.c X   o x P.V.s l A.T.@X^.G.c ; . ,.I I ,.X.E X.l.,.8.8.",
"D 3.h.,./ / +...[ o.t.=.w   X ; x N.c y * * 8 x J.^.OXQ.D.z t   ; J.V.i = J J 7 ; ~ l t d ~ P.L.V.;.3 $ J 3. .X.[ :.[ :. .I R ,.",
"s./ o.l.w./ o.o.q.0.x.b.P , 7 # + o o 7 w . + 8 l v l k u e > > > y s 0 G ,.<.=.2 * ; ; = ; p i * * $ F [ ,. .I R i.:.i.a.g.:.I ",
"o.o.q.0.p.h.0.l.o.0.o.{ { 3.o.5 X X   ( =.O . X o o X . 4 ) P Z F $ =...,. .X.q.K O . . . X o . . . q o.X.h.a.R L i.,.g.:.i.,.X.",
",.[ ,.q.,.z.0.].p.+.p...{ o.{ m u..X'.o./ 3.h.w.{ 3...[ s.X.R g.T #.0.X.X.X. . .Z [ q.,.o.B ,.&.q. .[ <.[ o. .D l.8.I  .Y R :.:.",
"d.,.8.<.,.].`.o.+.h.'.@.o.{ @.t.o.x.x.}.`.0.#.0. .o.(.3.i.h.l.,.} #.%...,.o.o. .i.q.{.o.B 0.w.e.q.q.[ a.,.8.f.<.:.[ I  .I Z S E ",
"o.8.s.q.i.[ ..,...4.0.o.^ { [ +.t.+./ h.}.h.0.[ u...,.`.g.,. .o.$.| | #.#.X.[ :.[ o.d.[ ,.o.w.o.o.{.,. .I o.q.[ R I R [ :.I  .I ",
"&.&.).{ [ [ y.y.o.| C $.&.^ &.+. .,.w.,.3.s.q.l.g.q.{ o.p.{ D 3./.$.$.#.} X.I [ | ] [ | &.q.3.3.l.g.q.o. .,.I [ } #.{ } }  . .I ",
"@.&.+.[ D } [ q.u.y.| | ] &.b.4.o.S f.g.,.Z o.].g.q.o.h.{ m 0.{ %._._.#.f.[ [ (.y.[ } } &.`.[ / s.e.h.o...q.D  .} } u.).h.q.:.I ",
"&.f.h.b X.o.8.f.`.| #.{ [ `.h.4.S } q.R V B `.T q.0.h.0.[ ^ #...$.[.$.| :.M l.l.0.^ B 0.3.B Z 5.,. .e.g.q.8.S o...#.).c.S <.P <.",
"} } o.{ i.,.E 8.y.Z } [ ` p.^ / #.S #.#.[ #.8.| ..[ y...[ [ [ ..y.] `.[ 8.E i.,.C h.o.0.o. .a.i...h.[ `.l. .q.,.o.o.t.[ [ p. .>.",
"o.{ 8.0.<.X.X.X. .,.g. .{ 3./  .V &.| | } y.} D #.[ T o.X.D 0.0.| q.8.g.g.I a.,.,.<.[  .q.k.,.>.&.0.q.o. .d.s.s.0.).t.o.{ p. .q.",
"8.q.`.,.,.W 8.I X.8.,.D  .:.:. .| $.$.8.#.).V y.X.#.| X.,.q.,.f.| T ,.8.Y :.:.<.8.s.o.3.d.<.>.I ).o.`. .I ].3.h.`.h.[ B a. . .:.",
"X.X.X.(.:.X.R Z f.8.o.o.<.,.>.,.#.#.R | #.y.o.e.D q.q.D X.{.[ f.X.B  X..p.,.,.R z.z...[  .Z i.p.h.h.| `.s.o.h.h.o.&.S o.o...[ >."
};
