/* XPM */
static char *_b02917e067e4a99e30209570f5e474dnfZZVXu7a8IUt72O[] = {
/* columns rows colors chars-per-pixel */
"64 65 226 2 ",
"   c #030303",
".  c #0A0807",
"X  c #120A04",
"o  c #180C08",
"O  c #0E150A",
"+  c #181708",
"@  c #0B0815",
"#  c #0C0B1C",
"$  c #060514",
"%  c #0F1317",
"&  c #1B1B14",
"*  c #191716",
"=  c #1A0D17",
"-  c #271707",
";  c #341C07",
":  c #27130C",
">  c #1A240A",
",  c #1A2118",
"<  c #24240A",
"1  c #392500",
"2  c #24350D",
"3  c #283A0E",
"4  c #262513",
"5  c #3C2214",
"6  c #39281B",
"7  c #253511",
"8  c #2B3B13",
"9  c #273513",
"0  c #33311A",
"q  c #0C0C26",
"w  c #0E112A",
"e  c #141527",
"r  c #15133C",
"t  c #161434",
"y  c #0E0D34",
"u  c #201F31",
"i  c #272425",
"p  c #352D28",
"a  c #3B3735",
"s  c #302D2E",
"d  c #422409",
"f  c #482716",
"g  c #522D19",
"h  c #542B15",
"j  c #57311C",
"k  c #4B3401",
"l  c #61351D",
"z  c #5A3823",
"x  c #453A33",
"c  c #4C3328",
"v  c #6A3B23",
"b  c #713E25",
"n  c #2D4C02",
"m  c #284302",
"M  c #314C09",
"N  c #2E5106",
"B  c #335304",
"V  c #3A5B05",
"C  c #35550A",
"Z  c #3A560B",
"A  c #3C5B0D",
"S  c #365808",
"D  c #2D4013",
"F  c #364C13",
"G  c #354816",
"H  c #3B5514",
"J  c #3D5C12",
"K  c #3F5E19",
"L  c #395315",
"P  c #3E600D",
"I  c #3F6214",
"U  c #3E611A",
"Y  c #3F5121",
"T  c #415E0F",
"R  c #425E13",
"E  c #425B1B",
"W  c #485C19",
"Q  c #525E1C",
"!  c #694402",
"~  c #7A5105",
"^  c #764F14",
"/  c #41620E",
"(  c #436314",
")  c #496517",
"_  c #466915",
"`  c #4A6B16",
"'  c #45641A",
"]  c #4A661B",
"[  c #46691B",
"{  c #4B6B1C",
"}  c #52641D",
"|  c #516D1E",
" . c #4E711D",
".. c #4E7114",
"X. c #52721D",
"o. c #547819",
"O. c #4A4E29",
"+. c #7C4429",
"@. c #794328",
"#. c #725436",
"$. c #456520",
"%. c #4B6622",
"&. c #4D6C22",
"*. c #4A6B26",
"=. c #516D23",
"-. c #5A6D26",
";. c #536D2A",
":. c #576828",
">. c #4F7122",
",. c #537224",
"<. c #587426",
"1. c #567924",
"2. c #597A25",
"3. c #55742A",
"4. c #5A752A",
"5. c #567829",
"6. c #5B7A2C",
"7. c #5D7C32",
"8. c #577631",
"9. c #5B6F30",
"0. c #61762D",
"q. c #607D2E",
"w. c #627D32",
"e. c #637735",
"r. c #606F2A",
"t. c #1A1A4C",
"y. c #181845",
"u. c #1C1C54",
"i. c #1E1E5B",
"p. c #161851",
"a. c #0F1245",
"s. c #201E5D",
"d. c #1F205B",
"f. c #2A2644",
"g. c #262458",
"h. c #3E3044",
"j. c #1C1D65",
"k. c #211F63",
"l. c #1E216F",
"z. c #222164",
"x. c #24236C",
"c. c #252573",
"v. c #282675",
"b. c #2A2A7D",
"n. c #272777",
"m. c #313265",
"M. c #413F40",
"N. c #474747",
"B. c #5B4B43",
"V. c #565657",
"C. c #715D4A",
"Z. c #7D6647",
"A. c #676768",
"S. c #885900",
"D. c #8A5D0D",
"F. c #996600",
"G. c #8C641A",
"H. c #A66E00",
"J. c #AC7300",
"K. c #A57000",
"L. c #BA7D00",
"P. c #B47801",
"I. c #84492B",
"U. c #8A4C2E",
"Y. c #814728",
"T. c #94532F",
"R. c #8B4D31",
"E. c #914F32",
"W. c #945232",
"Q. c #9C5733",
"!. c #90502F",
"~. c #A55C38",
"^. c #A45B35",
"/. c #906630",
"(. c #B0633C",
"). c #C27F00",
"_. c #906E4F",
"`. c #8C717A",
"'. c #5E8132",
"]. c #5E802C",
"[. c #62822D",
"{. c #65882A",
"}. c #638334",
"|. c #668835",
" X c #64833A",
".X c #6A853A",
"XX c #6B8A3D",
"oX c #698736",
"OX c #72833C",
"+X c #759243",
"@X c #708B44",
"#X c #BE8100",
"$X c #C48301",
"%X c #CB8801",
"&X c #D38B01",
"*X c #DC9300",
"=X c #E69A01",
"-X c #F3A200",
";X c #FEA602",
":X c #AA815D",
">X c #B88B57",
",X c #AB8A65",
"<X c #B38F67",
"1X c #C5976E",
"2X c #D6A87A",
"3X c #2B2C84",
"4X c #2D2E8B",
"5X c #272A86",
"6X c #302E8D",
"7X c #30318C",
"8X c #2F2F91",
"9X c #312F92",
"0X c #2E3194",
"qX c #313195",
"wX c #33349B",
"eX c #38359E",
"rX c #2D318C",
"tX c #3536A3",
"yX c #3837A9",
"uX c #3B3BB3",
"iX c #3F3FBB",
"pX c #DAAF83",
"aX c #E9BB8F",
"sX c #ECC394",
"dX c #F5C896",
"fX c #FFDCA6",
/* pixels */
"R ;.<.&.R ] <.] &.&.oX6.6.' 5.{ R } ] ) ] <.{ 1.( _ ( ( ( { ( ( &.[ ( ( { [ ( [ >.>.&.[ ( { &.2.[ ] ( [ ] 3.K { ( ' ' &.&.3.>.;.",
"=.] =.-.] =.R &.} -.6.6.=.{ w.6.=.] ;.] { ' { 2.{ ` [ ,. .) P  .[ ,.[ { { &.3.( >.] { { I C 2.&.R K J [ ' ;.( H K %.K H ;.*.8.U ",
"=.] ;.w.<.<.| 4.q.{ =.{ / { 5.2.A =.w.4.4.,.{ {  .{ _ { { 1.{ [ [ ,.[ I [ >.&.' [ { {  .[ J [ ( ] J ' >.&.3.;.J n E K $.$.$.$.K ",
"=.] =.<.,.4.q.}.{ ) | ,.{ { { B 4.OX4.| ) { }. ._ {  .{ ( >.1.3.{  .>.] 8.5.I ' ( ,._ _ _ I K I &.U ' &.] *.,.A C J J ;.*.$.K $.",
";.] ] =.=.<.0.4.<.q.0.) T ` { ( <.w..Xw.{ 1. .1.{ _  .,. .>.5.6.1.{ [ [ >.[ E &.P ,. ._ C C ( 3.>.{ ] 3.&.&.3.,.;.[ M J L F J *.",
"| <.X.,.| | <.` ) o.q.` ) | T | 4.| R oX+X6.( ` { P _ >.>.{ >.,. .{ ( &.[ K &.] 1.2. .X.P K ( [ ' >.[  .{ ,.X.,.>.{ &.=.' A J J ",
"{ 1.4.| ` ` | | ) | T ) ` T ` | } | 4.) { [.X.[. . .1.1.1.>.3.>./  .[ &.' *.7.' { / ( 1.1.3.3.] { '.1.>.,.}.` { { ,.3.[ [ U U C ",
"` 1.2.T / ) { q.<.X.T | | ) w.| ` ( | 2.1.( X.]. ._ [ I >.>.&.(  . .[ I J &.6.&.` _ 1.1.{ I $.*. .2.1.` X.2.V A _ X.6.5.1.3.*.I ",
" .,.,.S T { ) <.oX) 1.) T q.q.-.P / 1.| V S 2.X. .>.1.{  .I &.1.2.1.[ ( [ ;.&.>. .( _ { &.( [ *.2.{ 1. .,.X.V ` _ ` q.{.{ ) ' { ",
"6.6.=.' ] &.) 7.) | 2.J ] <.%.7.I I P _ V {.2.A 5.&.>.[ [ I I ` 1.P 5.&.&.R 6.&.A 4.4.=.] %.@X9.{ 1.>.7.7.' ] ] ..( 2./ | 4.] *.",
"2.=.&.;.6.*.3.3.2.J ` ] =.e.3.K I  ...` 2.|.].,.A [ [ >...S I >.X.| |.( 2.B 3.] [ &.] ' ;.;.*.W [ 1.,.>.&.3.3.3.( [.[.( A =.] :.",
"A ( &.&.6.7. X[ T ) &.( *.*.*.%.5. . ._ X.X.` ) &.&.I U [ $. .5._ ( { ,.[ [ ] &.&.7.W =.4.;.=.J 1.1.,.,.H }.3.3.oX2.` / <.&.' ;.",
"] 2.( ' J w..X*.( ( { { A $.9.%.{ 2.1._  .` I ,.) &.,.' [ '.[ 1.{ S }.) ,.' &.R =.7.' =.] R =.:.].` 6.3.*.3.6.w.2.,.S ) ) &.W %.",
"6.{ C m ' J XX}.6.=.( R J L < - ; - - - ; 1 F ,.{ [ ' C J 8.>.5.( [.XX6.6.6.{ { { A 6.6.3.&.( *.2. .{ '.[ ] &.4.2.,.) =.] ;.;.;.",
"6.{ n K H C A [ &.2.{ ( M + ! H.J.K.F.F.P.K.1 8 &._ K [ *.>.{ J / >.{ ,.5.) 5.,.) J ,.' A ' 8.<. ._ 1.] ' S ] { }.,.&.{ =.] *.$.",
"{ ( ( 3.' [ K ( ] &.5.4.< ~ ).=X*X%X$X&X=X*XJ.1 7 &.*.*.[ J >.&.6.[ ]  .5.R 6.5.R 3.>.,.( ) XX<.P  .{ 1.( { ,.{ 3.XX7.=.] 8.%.W ",
"6.( ( 5.J ] ,.3.$.6.7.3.; #X-X=X=X%XL.$X%X&X$XS.1 > 3 3 2 2 D 8 8 D 6.( &.&.' { { ,.( 7.,.{ &.( S _  .>.R { { ' 5.,.&.[ w.;.( *.",
"` _ 3.,.) =.J C ( 3.w.{ 1 $X;X-X-X=X&X$X$XL.J.P.S.X $ @ # $ # # q # 8 H M ( 2.' ( >.2. X'.>.A ( (  .X.[ ( }.<.,.R E 3. X@X;.W H ",
"Z ` <.3.J &.[ =.( =.6.3.; $X;X-X-X-X-X=X&X#XL.#XS.X y v.n.k.z.b.4Xb.e . > ] ' ( I ,.6.1.5.7.5.>.{ _ ) S { X.3.&.,.3.3.;.6.w.=.$.",
"( X.4.] ' ' ] &.A n A &.1 #X-X=X*X&X&X*X&X$X$XJ.l . a.b.rX0XyXuXiXyX3Xc.t.+ > F >.5.6.>.&.] >.( ( 1._ ( 5._ 4.] &.3.;.*.;.;.R A ",
"{ 4.' *.R &.' 3.] ) ] S 1 $X%XJ.K.D.S.H.J.P.L.L.~ X p.b.4XtXuXuXuXuXuXuXrXy.r , F 3.] ( K J >.[ J 2.>.5.X.) =.=.J ;.7.$.;.%.R R ",
"6.5.{ %.3.[ R J S R ] N 1 #XF.~ G.^ G.G.G.F.J.K.k . k.tXwXeXtXwXqXqXwXtXtXqX7Xt.% K *.*.>.[ [ U ' 7.1.5.,.{ &.6.8.%.$.%.;.) ) }.",
"A &.=.7.&.=.' 3.{ S ] ` - S.~ /.<XpX2XpX>XD.F.l X   x.yXtXtXqX4Xc.g.c.4XrXqXrX5Xu.O L ] *.U [ >.' ' U { 5.{ A &.$.Z. X*.T =.q.XX",
"6.&.[ H ( 4.4.*.[ R ) _ . k Y.>XaXdXaXaX2X/.! ! z = k.tXyXtXqXb.t.# t t.y.t.n.b.c.k.* G $.U *.;.&.>.&. .}.2.{ { *.U E M ] | | | ",
"' ] 3.( B 3.&.&.( 2.( ) $ f.B.#._.pXsXaX,Xz #.(./.u k.9XtXtXqX3Xi.w @ @ @ r z.d.c.wXu.& 8 $.8.$.' 7.,.' ,.5.&.&.8.C W H 4.T } 0.",
") ,.<.[ &.S K =.&.&..X>.q 0Xm.% c <XdXsX_.O.,X1X/.O.f.l.wXeX4Xb.c.i.@ X O t d.z.b.tX9Xr > U w.3.,.&.(  .{ 1.{ { =.3.Q :.:.e.%.:.",
"I ] &.( ( J ( n J A 3.>.# c.5Xt.a ,XsXsXpX1X:X#.z C.h.l.tX0Xb.c.x.d.# 3 F O y x.wXtXwXy.O I [ 3.' R U [ U  .{ ] =.0.Q Q Q e.9.9.",
",.] ,.4.( A ] A / A H C 3 % c.rXg.#.<X2X2X2X#.a x M.k.8XwX9X3X3Xb.c.u.e 7 F > t.9XyXtXt.> [ ' 6.&.A [ [ >.6.>.] =.0.} Q Q 9.:.Q ",
",.' ] 7._ A 6.&.6.7.I C M   z.yX5Xg.B.Z.Z.#.s u m.l.5XwXqX9XwXqX3Xc.z.r O 3 O r 6XqXtXt.X 2 ' w.4.R &.&. .3.{ R W } T } :.:.:.%.",
"(  . .{ _ ,.6.S [ 1.( A m O y.rXwXn.t i h.f.r p.c.6XeXwX9X9XwXeX7Xx.g.t.w $   w x.v.k.w . : 3 %.=.] [ &.U >.>.] w.r.W W W R %.:.",
"1._ { 5.6.[ _ _ ,.,.>.1.P [ O t.0Xl.q y n.rXb.d.p.v.6XtXwX6XtXyXwXv.z.z.u.w $   q p.q e #./.4 8 7.4.] 3.&.7.7.4.-.-.W ] W ] ;.;.",
"{ 1.2.` ) _ {  .{ { _ ( ( ( + r b.i.a.y y 5XtXrXs.p.k.tXtX9XwXyXwX4Xv.v.c.p.q     $ X O.pXpX6 2 XX7.>.=.,.6.>.( ' =.=.&.] ) ( H ",
"{ ` 6._ ( P ,.'.X.q.5._ ,.B O.* u A.`.a   t z.rXqXc.i.s.3XqX4X6XtXwX4Xb.n.j.q o +     _.fXdXc 7 7.>.,.&.5.6.) ( ,.4.}.6.3.,.&.{ ",
"X.,.o./ S { _ 2.|.4.{ ` ) 2.w.E 4 _.aX<X6   $ t.qXtXc.t.d.3Xc.4XyXtXwX3Xn.p.% h h   + z ,X,X0 G '.2.]._ 2.X.B { { A }.|.X.{  .A ",
"_ 2.,.S (  ._ ,.[.{ | R A 7.q.) M : <XdX_.O . $ u.wXyX6Xz.p.v.wXtXtXwX3Xj.t f +.j O D 8 O & K >._ `  .1.2.` Z | _ 5.[.1./ ].B ` ",
"q.1.` { ,.` ,.1.6.T <.| ( -.r.` T F 0 x 0 X G 2 q 7XuXyXb.t.n.3Xb.wXwXx.t f b I.@.f < 7 L L 7.|. .,.o.6.| X.| | ` =.2.{ / | Z 1.",
"( } X.2.5.{ }.,.' { 6.3.` } 0.Q ,.=.D D 8 G ] E 9 t.9XiXeXx.d.z.6XtXc.t g Y.U.Y.@.v X D >.{ 2.4...1.` { / q.q.2.'.5.>.I 1.{ | | ",
"( oX4.<.{ A A P ) [ ) w.-.W W | <.,.6.) { _ _ ` =.> i.wXqX4Xa.p.3X3Xt 5 U.~.Q.U.I.@.5 7 F H F R _  .1.{ ) 2.;.6.'.'.I I ] &.R ( ",
"4.2.) <.=.( ) &.( { &.;.<.-.T Q I >.5.,.{ { ` 2.5.&.9 y.g.k.t.t r r * h T.~.~.W.!.R.@.5 . O X 8 1...5.6.<.W R 4.5.[ C $.R =.R ] ",
"0.0.<.0.4.>.,.] =.] } <.e.r.} -.[ &.6.=.2.) ` X._ ,.*.4 @ = c g : o : 5 b W.~.~.Q.!.!.v h j g : 7 [ *.5.) T W ;.7.C N $.K W W E ",
"| <.,.2.0.T ( XX=.2.} =.0.-.OXe.8.w.6.&.{ {  ._ X...1.2 o d +.@.g 5 - o : b Q.~.~.Q.E.b b R.Y.j - 8 &.,.Z W <.J L 8.U $.K H ;.3.",
"2.-.} | Z 4.XX<.| ;.=.} -.=.OX+X9.} } } ) | | ( ) ,.{ 2 : @.W.!.+.v ; o : g I.Q.~.^.W.b b U.I.b j o 8 *.' [ &.C K *.>.J @X*.>.[ ",
"<.) X.| / ,..XoX6.<.6.:.6.<.=.<.-.r.-.} } W | 4.` ,.( 3 o j R.T.!.b 5 5 f ; z I.U.W.W.I.b W.W.Y.@.g o 8 L ,.( K U J A >.}.3.>.[ ",
"T T 4.| | -.| W oXe..X4.W =.=.} -.} } =.} T =.2.{ / A %.D - b W.W.Y.5 f j 5 : o f R.~.Q.^.^.^.E.@.@.g - > 3.[ [ I C N N  X7.5.>.",
"A | w.| ) ] | | | 6.&.6.| ] ) w.<.4.0.-.<.} q.T ,.A / }.H   v Q.W.!.v z j f o     f E.(.(.~.^.T.+.+.@.-   ] &.' J I H J J 3.=.] ",
"| 4.} { ) ) } <.{ ( ] } Z ] ;.A e.0.} ] <.R { | ` { ,.| F > 5 +.W.!.+.v h f f &   + g Y.b b E.Q.W.+.j + X I ' ( ' &.' [ [ [ J I ",
",.q.} | | | | ) ) =.&.n =.<.R ) } -.] W ) R <.0.5.,. X] ` R > 5 b v l h 5 5 s , > E 9 o o o l U.I.v 5 o . ' &.>.' >.&.C >.' K ,.",
"T -.=.R T ) | =.) Z { =.XX4.R 7.] T =..X.X&.<.[.,.A ' 4.{ S W < o : ; 5 5 s * > &.6.H E 3 X : d 5 5 a * O S H ( U *.3.[ n ' 3. X",
"4.<.<.) | =.=.;.2.T ) w.{ <.&.) ] ] W } 2.;.( | / 6.' 2.=.{ <.9   i a a O.N.% 7 [ (  .3.E o s M.p s M.i O ] B ( ' ' 3.U [ &.>.&.",
"| | 4.<.( <.| | R ] ) ' 3.{ { ) ) ] ] { ( { ( { ,.=.Z 3.4.] =.7 * V.A.A.V.a & G ' J { P G = V.A.V.V.N.i   &.K J H J A C &.J ' *.",
"W =.<.| =.| | <.<.=.q.<.2.[ ,.{ R A T | | { { 2.1.] ,.` =.] ) 8 & V.V.V.h.O E ;.3.( n ) L O O.V.V.N.M., O { K A >.[ U $.7.&.&.>.",
"T =.6.%.R R | ] W ` 2.<.XX>.,.3.) } ;.( { { X.,.( B ,.<.&.] ( E 8 O & % & E 3.3.7.J 3.&.) F & & & * = 9 L &.[ [ ( { ( ' [ K ( [ ",
"<.R &.7.;.( { { <.,.0.q.[ ] 7.6.| =.=.| =.( | 2.C >.( { { &.( ) ( ` ,.,.3.&.&.6.7.) &.' ( ,./ { 4.A K [ ' &.' J U >.' 3.3.8.&.C ",
"&.{ ,.,.<.6.,.6.] <.{ ) ) ,.,.,.) 4.<.;.5.{ 1.{ ( { ( 2.3.' J H _ { 2. .1.' [ ,.*.J J 6.=.{ 6. .&.( [ &.' 7.3.( H 3.*.5.$.;.*.[ ",
"&.' &.,.&.7.,.XX<.{ <.) ] ] ) n 4.+XoX| T | 6.,.[ >._ I 3.[ R 8.P  .5.' { ' ' [ B E 3.&.&.S { | =.[ ( &.I { [ H 6.>.H ' U ( *.[ ",
"4.] >.&.&.}.7.{ | 6.}.| } ) | 2.{ 0.0.oX}.,.,.{ ( >.'.>.3.7.7.&.P ..1.{ ] &.$.[ 3.3.}.[ B X.,.3.,.>.( 3.&.&.3.&.[ ' J [ K N C K ",
"] =.3.>.,.' ] { ] =.| { / ) ) } <.{ R 6..X4.X.) 5.{ { }.6.&.] { o._ `  .>.{ I *.] ) 6.( &.{ ,.{ [  X&.' J { 3.( K A J ' ] H ' K ",
"o.X.[.{ ( _ ,.5.| ` V | X.T o.| [ &.3.&.,.4.,.'.4.,.{ { <.) A | ]..... ._ [ A I ` / ( `  .=.=.;.7.6.,.] ' &.J R _  ._ ` ( [ ' A ",
"| X.X.( A _ [ ,.2.o.` _ / X.w.-.&.C 5.'.&.S ]  X6.>.{ 4.( n =.] ..{.{...,.' ' '.2./ _ _ X.w.( R 3.3.2.&.{ ,.J ( _ _ 2.q.3.3.' K ",
"{ 2.5.n { ] >.>.|.{ { ` W |.0.=.S _ >.I B B |.P ,.,.q.,.( R { { ..|... .{ n 7.7.,.T B ,.,.B C 3.=._ 3.6.,.&.A { ` { q.}.A *.A ;.",
"_ ` { ) >.&.U >.,.S [ ( / <.R R ..P { [ (  . .{ { ( 5.` ) ( ( ` o.P }.' >.U >.&.S }.{ =.] ] 3.3.{ 5.( }.7.' ,.{ | { 4.T ( 3.' ] ",
"{ ` ,.>.1.[ [ { [ ] 6.' ) &.( E B o._ .._ 2._ P { ( T { [ A >.,.[ 1.>.5.8.K 3.*.*.=.( ) ,.3.*.&.,.,.<.{ [ 2.3.3.| [.,.{ [ 3.' ;.",
">.>.}.&.*.U >.J [ >.&.A ' ] ' $.`  ... . .'.B X.[  .{ ) &.,.>.6.` ( { ,.K ' &.*.&.3.&.&.3.;.%.H [.{ 6.' (  X,.6.|.6.( S 3.[ ' $.",
"[ [ [ '.[ [ U C 3.>.&.] >.*.%.*. . .P  .>.X. .,.A ,.,.S [ '.' ,.{ n @X%.3.&.] K 3.7.] ' ' B 3.3.2.6.{ }.3.] 6.6.{ | S { { $.( %.",
" .U I U I  . .U >.5.].'.$.$.U >.[ I 1. . .1.|.1.*.[ P U I 5.>.&.J '. X5. X3.,.&.[ J 3.;.4.( $.;.X. .{ 6.] ( &.&.6.<.) >.[ &.' K "
};
