/* XPM */
static char *_47cce224fa7492d99bc7e0b39366440feaW7wmQRWQ88QUW[] = {
/* columns rows colors chars-per-pixel */
"64 64 231 2 ",
"   c #020204",
".  c #0A0603",
"X  c #0B0B05",
"o  c #08080A",
"O  c #130C04",
"+  c #160A05",
"@  c #0C1105",
"#  c #151809",
"$  c #0B0914",
"%  c #080818",
"&  c #191717",
"*  c #2C160C",
"=  c #271807",
"-  c #331B0E",
";  c #351D05",
":  c #261815",
">  c #361D12",
",  c #1B240A",
"<  c #152206",
"1  c #1D2A11",
"2  c #222B0C",
"3  c #252208",
"4  c #362101",
"5  c #3A2A05",
"6  c #23330C",
"7  c #29380D",
"8  c #382316",
"9  c #2C3C13",
"0  c #253512",
"q  c #2F3018",
"w  c #0C0E2C",
"e  c #0C0C23",
"r  c #15172D",
"t  c #0D0E33",
"y  c #13133C",
"u  c #121334",
"i  c #0F1131",
"p  c #271D27",
"a  c #2A2927",
"s  c #38322D",
"d  c #373635",
"f  c #322B33",
"g  c #4D2B19",
"h  c #472715",
"j  c #542E1A",
"k  c #5B321E",
"l  c #55301B",
"z  c #4B3305",
"x  c #62341C",
"c  c #7A3E1A",
"v  c #472825",
"b  c #5A3726",
"n  c #4E3831",
"m  c #6A3B23",
"M  c #663923",
"N  c #733F26",
"B  c #2D4C02",
"V  c #294408",
"C  c #324E09",
"Z  c #345405",
"A  c #365804",
"S  c #35550A",
"D  c #3B560C",
"F  c #3C5B0D",
"G  c #395907",
"H  c #354915",
"J  c #365211",
"K  c #3C5414",
"L  c #3D5C12",
"P  c #3E5D1A",
"I  c #3B541A",
"U  c #2D4810",
"Y  c #3E610D",
"T  c #3E6113",
"R  c #3E611A",
"E  c #3F5B20",
"W  c #415E0F",
"Q  c #425E13",
"!  c #425C1C",
"~  c #4A5E18",
"^  c #525E1C",
"/  c #654401",
"(  c #7A5105",
")  c #744E0F",
"_  c #42620E",
"`  c #446314",
"'  c #496517",
"]  c #466915",
"[  c #496B15",
"{  c #45641A",
"}  c #4A661B",
"|  c #46691A",
" . c #4B6B1C",
".. c #51641D",
"X. c #516C1E",
"o. c #4E711D",
"O. c #4E7114",
"+. c #52721D",
"@. c #547819",
"#. c #435B22",
"$. c #584536",
"%. c #535027",
"&. c #7D4529",
"*. c #774226",
"=. c #775737",
"-. c #664D37",
";. c #456420",
":. c #4A6622",
">. c #4D6C22",
",. c #4C6C27",
"<. c #526D22",
"1. c #5A6D26",
"2. c #536D2A",
"3. c #566727",
"4. c #4F7122",
"5. c #537224",
"6. c #597426",
"7. c #567924",
"8. c #597A26",
"9. c #55742A",
"0. c #5A752A",
"q. c #56782A",
"w. c #5B7A2C",
"e. c #5D7C32",
"r. c #567532",
"t. c #5B6F30",
"y. c #62752D",
"u. c #617D2E",
"i. c #627D32",
"p. c #627835",
"a. c #606F2A",
"s. c #1B1B4E",
"d. c #171746",
"f. c #1C1C53",
"g. c #1C1E5B",
"h. c #211E5B",
"j. c #1E205C",
"k. c #2C2A5A",
"l. c #2E2B4D",
"z. c #1B1D61",
"x. c #201F61",
"c. c #1F226B",
"v. c #222163",
"b. c #24256D",
"n. c #2B2861",
"m. c #262673",
"M. c #28287A",
"N. c #2E3061",
"B. c #463753",
"V. c #473F6E",
"C. c #444445",
"Z. c #4B4A49",
"A. c #595959",
"S. c #524E4F",
"D. c #765D44",
"F. c #5E605F",
"G. c #7D6446",
"H. c #6B6772",
"J. c #885901",
"K. c #8A531D",
"L. c #9A6600",
"P. c #8F651B",
"I. c #A56D00",
"U. c #AC7200",
"Y. c #AB7601",
"T. c #BC7E01",
"R. c #B47700",
"E. c #864A2C",
"W. c #904F2F",
"Q. c #8D502E",
"!. c #93512E",
"~. c #8C4F31",
"^. c #9A5533",
"/. c #965433",
"(. c #A25A35",
"). c #A95E38",
"_. c #8F6435",
"`. c #AE623A",
"'. c #B3633C",
"]. c #8E704F",
"[. c #B27C56",
"{. c #5E802C",
"}. c #5E8233",
"|. c #62822D",
" X c #65882A",
".X c #638234",
"XX c #678836",
"oX c #65843A",
"OX c #6A863A",
"+X c #6B893D",
"@X c #698736",
"#X c #72833C",
"$X c #759243",
"%X c #708B44",
"&X c #C48301",
"*X c #CD8801",
"=X c #D18C01",
"-X c #DC9301",
";X c #E79901",
":X c #F2A100",
">X c #FBA600",
",X c #B6885A",
"<X c #AC8257",
"1X c #B58D67",
"2X c #A98660",
"3X c #C29368",
"4X c #D5A97B",
"5X c #CBA073",
"6X c #E8AB75",
"7X c #2C2B84",
"8X c #2E2E8B",
"9X c #262A86",
"0X c #312E8D",
"qX c #2D308C",
"wX c #2F2F91",
"eX c #312F93",
"rX c #2F3295",
"tX c #313195",
"yX c #34349C",
"uX c #30318E",
"iX c #3536A3",
"pX c #3936A5",
"aX c #3839AA",
"sX c #3738A8",
"dX c #3D3CB6",
"fX c #D5AD87",
"gX c #CBA785",
"hX c #E9BB8F",
"jX c #F4C796",
"kX c #E9C28E",
"lX c #FFE3AD",
/* pixels */
"Q 2.6.>.Q } 0.} <.<.@Xw.w.| 6.>.Q ..} ' } 2. .7.` ] ` ` `  .T ` >.} T ]  .| ` | 4.5.>.| T  .>.q.|  .` | } q.L | { { } :.>.9.9.>.",
"<.} <.1. . .Q } ..<.w.w.<. .w.w.3.>.2.' X.' [ {.} [ | 5.o.] Y o.| 5. .}  .>.9.` 4.}  . .T D q.>.` K L | { 2.{ K L :.P L ,.,.r.R ",
"<. .2.u.6.0...u.i. .<. ._  .8.w.W } i.0.8.9. .} o. .]  . .7.o.` | 5.| L | 4.>.{ ]  .o. .| L | {  .L { 4.:.q.9.L B ! P ;.,.;.;.P ",
"<.} ..0.5.0.u.i. .' X.5. . .} Z w.+X6.X.`  ..Xo.`  .o.o.` 4.6.q. .o.4. .w.q.R { T 5.] ] ] T L ` >.R { >.| :.9.D S L L 2.,.R P ;.",
"2. . .<.<.6.u.0.6.u.y.' _ [  .` 6.i.OXi.o.5.o.5.o.` o.4.o.4.q.w.7. .| | ,.| { :.Y 5.O.[ F S L 9.>.|  .9.>.>.0.5.,.{ B P J J K ,.",
"5.<.+.5.X.X.5.[ [ +.|.' '  .W X.0...Q @X$Xw.] [  .Y ] 7.4.o.5.,.O. .` >.{ L ,.| 7.7.4.4.F L { | { 5.} o.} 5.X.5.5.>.<.>.;.F L L ",
"X.6.w. .[ [ ..+.' X.W ' [ W X.X.X.X.8.'  .|.+.|.o.o.4.q.5.4.q.4.` o.| ,.{ >.e.| o._ ] o.5.5.q.:. .}.7.4.5..X[ [  .5.7.| | R R S ",
"[ +.8.W _ '  .u.+.+.W X.+.' u.X.' ' X.8.5.` +.{.o.] [ T o.4.>.` O.o.| T L >.w.:.[ ] 7.7.o.{ ;.:.o.7.7.[ +.8.G Y [ X.w.w.5.9.>.T ",
"+.5.5.G _ } ] 6.#X' 6.' W u.w.5.Y ] 5.+.A A 8.+.o.o.4.| [ | o.4.w.5.o.T } ,.>.4.o.` [  . .{ { :.7. .7.+.5.+.G [ ] [ u.|.X.} ` :.",
"e.w.>.{  .:.} e.[ [ w.Q } 5.:.i.T T Y ] A XX8.F 5.5.9.| o.T T | 7.F 6.4. .L w.>.D 0.w.<.} :.%Xe.o.5.o.e.e.| } } O._ 8._ +.0.} >.",
"w. .>.2.q.,.,.q.w.F } ` ,.i.9.P R [ O.] 8.XX{.5.F | | 4.o.S ] o.5.o.XX` w.Z 5.:.}  .} { 2.2.<.! | 5.5.4.:.9.9.9.] 8. X_ W <.} 2.",
"F ` >.>.w.e.OX| W ' <.` >.,.:.:.q.o.o.] @.+.[ [  .>.R R | | 4.7.] ` } 6.| |  .4.>.e.! <.0.2.<.L 7.7.5.5.K .X5.q.@X8. .` 6.>.! 2.",
" .w.` { L i.OX:.` `  .| L ! #.3 = 4 = = = ; 4 H Q :.6.{ | e. .q.] F .X` 6.{ } ` 9.w.{ <.} Q >.3.|.o.w.9.:.0.e.i.8.5.G ] }  .! :.",
"8.} S V { L +XoXw.>.| ` L I = / I.U.Y.L.L.R.U.5 0 | ;.S F e.4.9._ }.+Xw.e.w.>. . .F w.w.9.:.`  .8.O.| e.{ } >.q.8.5.` 5.} <.2.2.",
"w. .B L K S D | <.w. .! U 3 ( &X-X-X*XT.*X;X-XI.z 6 L ,.4.,.>.L ` o. .5.q.` w.5.} F 5.| L { 0.0.o.[ 7. .| Z  .} .X5.<.>.<.} 2.{ ",
"X.` _ q.| } T { }  .9.5.6 ; &X:X:X-X*XT.&X=X*X&XJ.5 9 ;.} L >. .w.|  . .6.T w.6.Q q.>.5.` } +X9.Y  . .q.Q  .9. .q.+Xe.:.} w.:.! ",
"w.` ` 5.L } 4.q.} w.e.E 1 4 &X>X>X:X;X*X&X&XT.U.R.J.. 0 U J ! P K ! :.J }  .}  .| 4.` w.q.|  .` A ` o.5.T  . .| 9.9.,.{ oX2.{ 3.",
"[ ] 0.5.} 5.L S | 5.i.o   4 &X>X:X:X:X:X;X=XT.T.T.J.O   o X o X X o o X 6 L 9.} { >.e.@X}.4.F | ` o.o.[ ` .X5.5.Q Q 9.oXOX2.Q D ",
"D } 5.5.L :.| <.` 4.w.    4 &X:X;X;X=X=X-X-X&XT.R./ . % i d.f.h.f.f.f.f.r < , L T 5.e.7.7.w.w.o. .[ ] F  .5.q.:.,.q.9.9.w.i.<.;.",
"` +.6.>.| | } :.T B F     4 &X*XR.L.J.J.I.U.R.&XT./ . t v.7XtXyXiXiXyXyXb.d.e , P w.q.4.,.} 5.R ] 5.] T 6.] 6.} >.9.2.:.2.2.` K ",
" .0.| ,.Q :.| q.} `  .X   ; T.L.) P.) P.P.P.L.R.I.z O d.7XyXaXaXdXdXdXsXpXiXb.i 1 ;.} T L L >.} F q.4.5.o.] 5.5.P 9.e.;.<.:.Q Q ",
"w.9. .} 9.} ! F G Y }     - J.J._.1X4X4XfX,X( J./ O . f.rXpXpXtXtXsXaXiXaXaXyXM.u 1 } >.>.,.| R { e.7.w.5.o.>.w.r.:.;.:.2.} ' .X",
"F >.<.e.:.<.| 9.>.S } o y k.z ) ,XkXjXjXhX4X_.) ) k + g.tXsXiX9XM.8XeXiXiXiXaXpXM.y < ! | R ;.,.{ { R  .6. .F >.{ p.oX:.W <.w.+X",
"w.>.| K { 0.9.>.| D } % f.iXN.$.=.].fXhXhX<Xb =.,X_.a g.rXpXiXeXM.x.x.M.tXyXiXaXiXM.w 1 I R ,.9.>.4.4. ..Xw. .} :.;.! J ~ X.+.X.",
"{ } 9.` S 5.,.>.Q w.` # u 9XyXN.& 8 1XjXjX].n <X,X=.$.k.9XaXiXiX9Xf.i d.f.v.M.yXyXeXv.o 0 ;.r.;.{ e.4.] 5.7.+.>.r.J ~ K w.Q ..w.",
"` 6.5.} >.S Q 5.>.4.@X;.H % j.M.j.s 2XjXjXfX5X,X-.$.=.B.9XyXeXeX8Xv.r w % $ u M.iXaX7Xw 6 { }.,.<.>.` 4.>.7. .} ..t.^ 3.3.y.3.3.",
"`  .>.| | D T B F F 9.,.4.9 % j.c.k.-.1X4X4X4X=.d n B.k.9XeX8XuX8Xb.f.d.w $ o x.yXpXeXm.r 6 { q.{ Q ` { R 4.[ } 1.y.^ ^ ^ p.3.t.",
" .} <.q.` F  .D { F F D R T 7 & V.H.k.S.G.G.D.f r y z.m.uX8XwXtX8XM.v.f.y %   f.8XyXyX0Xt # { e.<.D | | 4.q.,.| X.y...^ ^ a.t.#.",
"5.| :.e.| D w.>.w.w.T A L F >.# ].gXV.i a l.l.s.d.y M.uXeXtXuXyXpX7Xb.h.s.e O y v.b.b.f.p = H q.0.Q :.>. .q.>.L Q ^ W ^ 3.^ 3.3.",
"` 4.O. .] 5.w.G  .5.R Y B Z A # D.gXn . w b.8X9Xz.s.b.0XyXyXuXyXpXyXM.v.v.d.$ e u e $ a D.-.# #.>.} | 4.R 4.4.} p.a.~ } ~ ! :.2.",
"6.| ] q.w.| ] ] 4.5.o.5.T o.F P 9 s # + $ y M.iXuXj.f.b.yXyXtXyXaXiX8Xm.m.m.h.%     O ].kX2XO K r.0.} q. .e.e.0.0.1.~ } ~ ~ 2.2.",
"O.5.{.[ ] ]  .o.o. .] ` T ` ` | ~ 7 7 9 7 , y x.uXtXm.j.j.7XyX8X0XiXyX0X7XeXM.u     X 1XlX4Xg 2 2.e.5.,.6.w.>.Q | <.<.>.} { { D ",
"O.[ {.] _ ` 5.{.o.{.6.' 5.Z u.X.] ] <.5.>.{ < $ s.yXsXm.d.g.8Xm.7XaXiXtX8X8Xb.y $ + = =.fX6XK.+ z ,.9.>.6.w.} F 6.8..Xw.q.5.4.| ",
"4.5.+.Y A ] ] w.XXw. . .' u..X6._ F 6.8.| V <.1 o s.iXpXuXv.f.m.tXiXpXtX8Xm.g.i : g j * D.[.c + H 2.9.[ 0.O.Z  . .F |.XX+.}  ._ ",
"] w.@.G ] o.] 5..X .5.W D u.|.' A [ } [ Z T q.J < w uXaXaX7Xd.M.7XM.yXyX7Xm.s.w s N *.k 8 : * * # @ < <.5.X.G X.] 6.}.7.Y {.Z [ ",
"|.5. .} 5.} 5.q.w.F 5.X.' 1.a.' W _ | ` 5.{.+X| #.0 d.yXdXyXm.h.v.0XaXtX7Xg.i p *.^./.E.j * : > - * = 2 Q  .X.+.| 5.w. ._ X.G 6.",
"` X.+.0.6.o..Xo.`  .w.9...X.y.~ 5.+.' 5.5.}. .>.e.#.  j.tXtX7Xd.s.M.0Xb.f.y e g ~.'.^.E.E.&.M l g k g O 6 u.u.6.XXq.7.T 7.o. .X.",
"' i.0.0.} F F T |  .} u.6.W ~ ..9.9.w.] o.` ] [ 7.K @ % d.v.z.d.t y d.t e & * - m ^./.W.E.*.*.M k m b + 6 <.9.w.q.}.Y T } >.Q Q ",
"0.w.' 6.>.` `  .Q <. .1.1.a.W } ` >.q.<. . .[ w.7.4.:.@ % y t i t e e & * = + . + h &.E.&.*.m x x M k - # # W 0.q.| S R ` <.Q ..",
"y.y.+.y.w.5.6.} >.} } 0.p.a.^ 1.} >.w.5.q.] O.O.] @.w.V # : g b n v > > h *   2 9 , 8 l m x l k k k h - +   ~ 3.e.J J R P ! ~ ! ",
"X.6.X.0.u.W ~ +X6.0...<.y.1.#Xy.q.e.w. . . .O.[ +.[ 7.` 7 - !.'.).W.N k j > + U r.2., + 8 h h g h - : : O . q.I I ,.R ;.R L ,.r.",
"a.+.X.X.D 6.+X5.' 2...X.6.<.#X$Xa.:.....' X...` [ 5. . .7 = &.).).(.!.N N l > O q 9.;.# X + - > * * : f & X >.F L 9.,.T oXq.<.| ",
"+.X.+.X._ 6.#X@Xy.9.w.2.w.1.<.9.1.a.1... ...<.w. .+._  .,.9 8 E.`.(.!.E.&.N l - + 6 } ! K 9 O p a f d E a # ` L R L F ,..Xq.4.| ",
"_ _ 0.X...<.X.` @Xi.@X0.~ <.3.X.t.....3.X.D <.6. ._ F 5.4.J . *.'.(.!.N N N m k * # 2.} >.V X a C.C.Z.Z.: $ ;.} R S B Z oXw.q.>.",
"W ...XX.' X...<...w.<.y.<.' } w.1.y.y.1.1.X.y.W 6.Y Y .X| C , g W.(.W.E.N N m &.l & H ..<.I o d A.F.F.S.r .  .` L T F L L ,.9.} ",
"<.6.X...' '  .6. .` }  .D } 2.F i.i.' ~ 6.W ' X. . .5.X.` ` K , h ~.^.!.!.W.E.E.&.h @ K Q ! @ d S.A.A.C.1 @ | ` } :.R | } | L T ",
"X.u.' X...X.X.' } X. .B <.0.Q } ..1.} ~ } Q 6.i.7.5..X} } } 9.J 3 g ^.).(.^.~.E.*.g . U K { H # # & & $ 0 H >.9.| ,.:.F 4.{ T 9.",
"L 6.5.Q W ' X.<.' D  .<.+X0.Q i.} F <.OX@X<.9.u.5.F | 6. .D <.Q ! q j ^.`.^.&.M j = X K ` 5. .U U 9 7 7 I S F ` R >.q.;.B { 9..X",
"0.6.6.' X.9.X.9.6.W } u. .5.5.` } ..' ..w.5._ X._ w.` w.<.} 0.' <.>.3 l *.x g - 8 & o E 5.q.` O.:.`  .} q.>.Z { { { 9.R | 4.4.| ",
"X...w.6.` 6...+.Q ' ' ' 6. . .` } ' { } `  .`  .5.X.G 6.0.} <.2.} ` K # # 8 - 3 s d @ C  .` o.]  .q. .| 4. .L L L L F S 4.K | :.",
"' 2.6.....X. .6.6.9.u.5.w.| q. .Q F Q ' X. . .w.5.} 5.| >. .} 2.<.} <.< a S.S.Z.Z.d . U 5.o. .+.q.q.4.} >.:.L L >.| T ;.e. .4.4.",
"D <.w. .` Q X.} ` ' 0.9.@X5.5.6.' ..2.'  .} 5.+.` Z 5.9. . .Q { ` ' ..@ d H.H.F.Z.a X K } | O.[ 5.L T | >.4.| | R  .R } ;.L { :.",
"0.Q >.e.9.Q } X.5.6.u.i.| } w.w.<.>.3.X.X.Q  .w.F 4.` |  .>.{ } ' [ >.0 a C.C.d a & 2 L ` 6.Y  .q.L T } { >.` T R 4.{ q.q.e.;.F ",
" . .4.5.9.w.5.w...<. .' } <.5.6.} 6.6.5.6.+.5.X.T  .` q.9.| L S ] [ 8. .0 # O X X , J e.+. .w. .>.` }  .| e.5.R L 9.,.q.;.4.>.;.",
"<.` >.5.>.w.9.+X6. .6.' ' ..` B 6.$X@XX.Y 5.w.5.| 4.| ` q.} Q q.Y O.6.] | } { | S Q 9.>.>.G [ 5.5.| { ,.` | { K q.4.K R R R ;.>.",
"w.:.4.>. .oXi. ...w..XX. .'  .w. .y.u.@X.X5.+. .]  .}.4.<.e.e.>.` o.7.| o.} } } 2.9.oX' Z <.5.6.4.4.L q.>.>.9.4.| { L | L C F L ",
"} 4.9.5.5.` }  . .5.5.[ Q ' ' X.6. .` w.OX0.5.` w.}  ..Xw.>.| >.o.] O.o.4.| { | { } q.Q >. .5. .| oX>.| F  .9.` L L T { | J { L ",
"+.X.|.' ` ] 5.7.[ [ G O.+.W +.X.| :.9.>.5.0.5.}.q.5.}  .9.' D X.{.O.O.o.` | K { O._ ] [  .5.<.2.e.w.5.} | 4.K ` ] o.[ } | | { L ",
"O.+.+.` F ] R 7.8.@.[ [ _ X.i.+.>.S q.q. .G } oXw.5.} w.' B <.} O. X Xo.5.{ ] }.6._ [ [ +..X` Q q.q.w.} | 5.L ` ] ] 8.w.0.q.;.P ",
"X.8.w.B |  .9.4.@X}  . .~ @Xy.1.G | 5.T Z Z XXY 5.5.u.5.` W o.[ O. XO.o.| B e.e.5.F Z 5.5.Z S 2. .| 6.0.9.,.D  .} o.u.|.G 4.K :.",
"[ [  .| 9.| { 9.5.S ] ` _ 9.Q Q [ Y o.| ` o.o. .[ ` 6. .] ` ] } @._ }.{ 9.R ,.4.D u. .5.} } q.9.} 6.` @Xe.| <. . .} 6.] | 9.{ :.",
" .[ 5.<.q.R R | | >.q.{ ' >.Q ! A 7.] O.] 7.] Y  .` Y  .} D >.5.[ 5.4.w.9.L 9.>.>.,.` ` 5.q.:.:.5.5.5.} | 0.q.9.+..X5. .` 9.{ <.",
"4.4..X;.>.| 4.F | 4.4.F | ;.} { [ o.O.o.o. XZ 4.] o. .] >.4.4.q.o.Y >.4.P } ,.:.<.9. .,.q.,.:.K u. .}.| Q oX4.w.XXw.` Z 9.} ;.:.",
"[ R o.}.R | R F 9.4.>.} 4.:.:.,.O. .Y o.4.4.o.5.F 5.4.F | .X{ 9. .B %X| 9.,.:.T 0.e.} { { S 9.9.8.w. ..Xq. .w.w. .X.G } | } { } "
};
