/* XPM */
static char *cece7e61d0b64d9698a4a40c574ce263KQ8T4bNC1ThGcdjn[] = {
/* columns rows colors chars-per-pixel */
"64 64 234 2 ",
"   c #040403",
".  c #0B0B05",
"X  c #090708",
"o  c #140B04",
"O  c #180C07",
"+  c #0E1305",
"@  c #151708",
"#  c #0B0A14",
"$  c #0B0A1C",
"%  c #070615",
"&  c #1A1616",
"*  c #0F1218",
"=  c #2D1C00",
"-  c #27160A",
";  c #321B0E",
":  c #321F00",
">  c #331D11",
",  c #281B16",
"<  c #1B240B",
"1  c #1C2809",
"2  c #1D2512",
"3  c #1C3702",
"4  c #25280B",
"5  c #392601",
"6  c #23330D",
"7  c #28390B",
"8  c #262617",
"9  c #372318",
"0  c #2B3C13",
"q  c #273513",
"w  c #353818",
"e  c #0B0B24",
"r  c #120E28",
"t  c #131327",
"y  c #131232",
"u  c #13133B",
"i  c #1A1C35",
"p  c #101034",
"a  c #281D25",
"s  c #331E23",
"d  c #272424",
"f  c #3A3938",
"g  c #322C2F",
"h  c #1F2035",
"j  c #482716",
"k  c #572D1B",
"l  c #5C331D",
"z  c #483208",
"x  c #65361E",
"c  c #5A3723",
"v  c #453A32",
"b  c #653921",
"n  c #6A3C24",
"m  c #663723",
"M  c #713D23",
"N  c #2D4C02",
"B  c #234100",
"V  c #324B0C",
"C  c #324509",
"Z  c #335304",
"A  c #35540B",
"S  c #3B560B",
"D  c #3C5B0D",
"F  c #385906",
"G  c #364917",
"H  c #3B5513",
"J  c #3D5C12",
"K  c #3E551B",
"L  c #3E5D1A",
"P  c #355412",
"I  c #2E490E",
"U  c #3E600D",
"Y  c #3E6213",
"T  c #3E611A",
"R  c #425E0F",
"E  c #425E13",
"W  c #425C1B",
"Q  c #4A5E1A",
"!  c #43581A",
"~  c #525E1C",
"^  c #684301",
"/  c #7B5203",
"(  c #764F12",
")  c #41620E",
"_  c #446314",
"`  c #496517",
"'  c #466915",
"]  c #496B16",
"[  c #45641A",
"{  c #4A661B",
"}  c #46691A",
"|  c #4B6B1C",
" . c #52641D",
".. c #516C1E",
"X. c #4E711D",
"o. c #4E7114",
"O. c #51721E",
"+. c #53781B",
"@. c #564332",
"#. c #48532A",
"$. c #7C4429",
"%. c #764126",
"&. c #795A3B",
"*. c #674A33",
"=. c #456421",
"-. c #4B6623",
";. c #4D6C22",
":. c #4E6E29",
">. c #516D22",
",. c #5A6C25",
"<. c #536D2A",
"1. c #576828",
"2. c #4E7022",
"3. c #4F7029",
"4. c #557525",
"5. c #537224",
"6. c #587426",
"7. c #567924",
"8. c #597A25",
"9. c #55742A",
"0. c #5A752A",
"q. c #57792A",
"w. c #5B7A2C",
"e. c #5D7C32",
"r. c #567531",
"t. c #5B6F30",
"y. c #607C2F",
"u. c #62752D",
"i. c #627D32",
"p. c #637735",
"a. c #606F2A",
"s. c #151643",
"d. c #1B1A4C",
"f. c #171748",
"g. c #1C1C53",
"h. c #1D1E5B",
"j. c #171B5B",
"k. c #0C1040",
"l. c #211F5D",
"z. c #1F215E",
"x. c #292647",
"c. c #262359",
"v. c #3E2F44",
"b. c #1A1E66",
"n. c #201F61",
"m. c #1D2160",
"M. c #212163",
"N. c #24246B",
"B. c #2A2B64",
"V. c #262672",
"C. c #25267D",
"Z. c #272979",
"A. c #29297C",
"S. c #282778",
"D. c #413245",
"F. c #3D4142",
"G. c #484847",
"H. c #5B4943",
"J. c #575758",
"K. c #4F4D50",
"L. c #765B46",
"P. c #7E6548",
"I. c #5D5E62",
"U. c #6A6D6E",
"Y. c #895A00",
"T. c #865D1B",
"R. c #9C6801",
"E. c #8D6212",
"W. c #A66C01",
"Q. c #AD7201",
"!. c #BB7D00",
"~. c #B47801",
"^. c #844A2C",
"/. c #86492C",
"(. c #91512E",
"). c #945332",
"_. c #9E5935",
"`. c #985633",
"'. c #8F4F30",
"]. c #A45C36",
"[. c #A75D38",
"{. c #8F6532",
"}. c #AD623A",
"|. c #C07F00",
" X c #96734E",
".X c #A46F47",
"XX c #5E8130",
"oX c #61822D",
"OX c #65882A",
"+X c #638334",
"@X c #65853A",
"#X c #6A863A",
"$X c #6B893D",
"%X c #688736",
"&X c #72833C",
"*X c #6C8A42",
"=X c #759243",
"-X c #778F45",
";X c #BE8102",
":X c #C48201",
">X c #CB8701",
",X c #D28C00",
"<X c #DD9301",
"1X c #E59900",
"2X c #F19F00",
"3X c #F6A401",
"4X c #B48657",
"5X c #B48D65",
"6X c #BC946B",
"7X c #AB8C6F",
"8X c #C89A6E",
"9X c #D5A87A",
"0X c #C9A074",
"qX c #E2AA79",
"wX c #2C2C85",
"eX c #2E2E8B",
"rX c #242888",
"tX c #302D8B",
"yX c #2E308C",
"uX c #312F92",
"iX c #2E3195",
"pX c #313093",
"aX c #34349C",
"sX c #2F2D90",
"dX c #3635A3",
"fX c #3939AA",
"gX c #3837A7",
"hX c #3B3BB3",
"jX c #3F3EC0",
"kX c #DEB185",
"lX c #E5BA8B",
"zX c #EABC91",
"xX c #F2C595",
"cX c #FEE4A9",
/* pixels */
"E <.6.;.E { 6.{ ;.;.%Xw.w.} 4.;.E { { { { >.;.4._ } _ _ ' | _ } | } _ [ | } _ } ;.5.| } Y | ;.q.} | _ } ;.9.L } [ [ [ ;.-.9.9.-.",
">.{ >.,.{ ;.E ;. .,.w.w.>.| i.w.>.>.,.{ ;.` ] w.] ] } 5.X.' U | | 5.] } } :.9._ 2.| ;.| Y S q.:._ H J | _ <.E H E =.J L 3.3.r.=.",
">.{ <.i.6.6...u.y.| >.| ) ..4.8.R { i.0.0.5.] ] X.| ' ] | 5.| ' } 5.} J } :.;._ } | | X.} J } _ =.J [ 2.;.q.5.H N W J =.=.=.=.L ",
">.{ >.6.5.0.y.+X| ` ..5.| | | Z 0.&X0...' | +X5.' | 2.| _ 2.7.9.] ;.5.| q.q._ [ _ 2.' ' ' Y J Y ;.Y [ ;.[ ;.9.D A L J <.:.=.L T ",
"<. .{ >.>.5.y.0.6.u.y.` R ] | _ 6.i.#Xi.>.4.X.5.| ' X.7.X.2.q.w.5.X.[ ;.:.} _ ;.U 5.X.] D A _ 3.2.| ;.9.| ;.0.>.<.[ N J P P J :.",
"5.O.O.5.O.......] +.y.` ` | R ..6...E %X=X8.' ' | U ' 5.2.| 2.5.X.] _ | [ L :.[ 7.7.X.X.D Y T } _ 2.} X.| 5...4.;.;.>.:.} S J J ",
"| 6.8...| ` ....` ..R ` o.R | ..| ..8.` | oXO.oXX.| 7.7.5.2.q.3._ X.| :.} =.e.[ | _ ' +.O.9.9.;.;.XXq.X.5.+X] | | 5.q.} } T T A ",
"] 4.8.R ) ` o.w.6.O.R ....` y... ._ ..w.O._ O.oXX.} } Y X.2.;.Y X.o.} Y J ;.q.;.] ' 7.8.| _ =.-.O.7.7.] O.8.F D ] O.w.8.5.9.2.J ",
"| 5.4.F _ ` ' 6.%X` 6.] R y.y.O.U ) 4.O.F F 8.O.X.2.4.X.X.Y 2.2.8.2.X._ { :.2.5.| _ ] | | } } -.8.] 7.X.5.5.F ' _ ] y.OX| ` [ ;.",
"oXe.;._ { ;.[ e.{ ] 0.E { 5.>.e.Y Y U ' F %X8.D q.2.2.} X.Y Y } 7.D 7.;.| E w.;.D 0.0.>.{ =.*Xp.| q.X.e.e._ | ;.] ] 8.) ..w.{ -.",
"8.:.;.<.0.:.9.9.0.J ] } 2.e.<.L ' } X.] 8.%Xw.4.D } } 2.X.F Y +.2.X.%X_ w.N 6.| { | { [ <.<.-.Q } 5.5.2.-.6.9.6.' oXoX) D >.{ <.",
"D _ ;.;.e.w.@X[ R ` ;._ ;.>.-.-.9.X.X.) +.o.| ] | ;.Y T } T 2.q.' _ | 5.} } } :.;.e.W >.t.9.>.E 7.8.5.3.H +X>.q.%X8.] ) 6.>.W <.",
"] w.[ _ J i.#X;._ _ | =.H G 4 = = = - - : 5 7 -.' -.9.} } XX| 4.' D i.' 4.[ | E 6.w.[ >.{ E >.-.oXX.8.9.;.6.r.+Xw.O.F _ ` >.W -.",
"w.` F 7 _ L #X@Xw.| [ _ I @ ^ W.Q.Q.R.R.~.Q.5 I } [ [ A H w.2.9.) +X*Xe.e.8.| | | J w.e.6.-._ ;.7.X.| XX} { ;.0.8.5.' 6.{ >.<.<.",
"8.| N J J A P [ ..8.| _ 4 / :X1X,X>X|.>X1X<XW.z 6 } Y =.;.9.| E ) 5.| ;.8.[ w.9.} D 5.} H [ 0.9.X.] 5.| } A ;.] +X5.;.;.>.{ <.W ",
"| _ _ 9.} [ _ _ | ;.6.6.= :X3X1X1X>X!.:X,X,X:XY.5 0 0 0 q 6 0 0 G 7 [ ;.9.E e.5.E 6.;.2._ ] *X6.U | X.q.E | 5.| 9.$Xe.-.{ 0.-.[ ",
"w._ ' 5.J { 5.9.{ e.e.5.= :X3X3X3X1X>X:X:X!.Q.~.Y.o   % $ % e e e $ G P P K H ` | 2._ e.q.] | _ F ' o.2.E | | ` 9.6.:.[ i.>.[ :.",
"] ] 9.5.{ :.J A _ 9.i.;.5 :X3X3X3X3X2X1X,X|.!.!.Y.O k.C.S.S.A.eXeXwXr . . . . 7 Y 2.e.@XoX2.D [ Y X.5.} _ +X5.5.E L q.@X*X<.! H ",
"D ] 6.6.J ;.} >.Y >.w.6.= :X2X1X1X,X,X<X,X:X;XQ.z O s.A.sXdXhXhXhXhXwXN.b.g.f.* 6 2.w.q.9.q.q.2.| } ' F | 5.9.;.5.9.9.3.r.p.>.{ ",
"_ >.9.| [ _ | | J N D | 5 :X,XQ.R.Y.Y.W.Q.~.:X!./ X f.S.eXdXgXdXfXhXhXfXdXaXwXM.t G 9.;.;.;.9.Y ' 5.' _ 4.' 9.{ ;.9.<.-.6.6.E S ",
"| 9.} -.E -.{ q.| ' { A 5 !.R.( T.( E.{.E.R.Q.W.z o h.uXaXdXiXtXtXaXaXaXaXaXpXwXh.$ 0 H Y Y 2.| D w.5.5.X.' 5.>.H 9.e.=.<.=._ E ",
"w.4.;.{ 9.[ _ H A _ | N = Y./ {.0X9X9X9X5X( Y.^ o   M.dXdXdXiXA.N.M.V.A.A.A.M.c.Z.Z.t I =.;.} T [ w.q.8.5.| | e.r.:.=.-.<.` ` +X",
"D >.>.e.;.:.[ 9.;.A ` } . z ( 5XxXxXlXlX9X{.^ ( c & N.aXpXgXdXtXd.e y s.s.s.f.d.S.aXV.t q T } 3.[ } [ } 8.| E ;.[ *Xp.-.J >.u.=X",
"w.;.} H [ 0.q.-.` D } _ % x.@..X0XkXxXkX6X.X.X.X{.a g.tXaXaXaXeXg.r # # # # d.N.wXdXpXM.t q =.3.=.2.;.2.+X8.| { -.L W P { ....] ",
"[ { 5._ Z 9.;.>.U q._ ' e eXB.v {.6XxXxX6X4X8X5X&.v x.S.aXiXeXC.V.c.# + < & i V.aXgXiXiXh.  G L _ e.5.' 5.q.;.;.r.P ! S w.R  .w.",
"} 6.9.[ ;.A E :.;.>.@X5.$ Z.wXc.@.5XzXxXkX9X4X*.@.{.v.b.uXeXwXN.N.h.$ 6 A { @ s.yXdXfXpXg.% . G :.2._ 2.| 4.| ` 1.,.~ 1.1.u.1.1.",
"E | ;.' _ H J N D S 6.:.$ N.iXC.c.G.5X9X9X0X&.g f D.M.C.uXiXeXA.N.n.u * q X._ 2 u eXdXm.$ d *.j 6 H Y } } X.} ` ..u.~ ~ ~ p.1.t.",
"2.| ;.0.' D | D Y J D S 2 u A.iXZ.x.H.P.P.L.g h h j.wXtXeXyXpXuXZ.M.h.y . 0 2.L < u d.$ 9  X0X*.@ S =.} ;.q.5.{ 1.u. .~ ~ t.1.-.",
"5.} | e.} D w.;.w.w.Y A V . N.dXaXZ.h d x.x.d.u s.S.eXaXuXeXdXdXeXN.c.s.$   I L A + 1   c lXcXP.@ E ;.;.| q.} J Q  .R ~ 1.1.1.1.",
"_ | | | ' 5.8.D } 9._ Y B   m.dXgXyXp r V.wXwXz.d.S.wXaXaXpXaXfXpXZ.b.g.y X . 6 Y $X[ q g 6XxXL.1 =.[ 2.[ 2.3.| i.a.! { ! ! -.:.",
"7.] ] 7.8.} ' ' 5.5.X.7.V . y wXgXiXM.p u rXaXwXn.g.N.aXaXuXaXfXgXyXC.N.g.r $ . 7 @Xe.[ 0 9 v w -.0.=.q.| e.e.9.,.,.Q ` Q { 1.<.",
"| 4.oX' ' } | ..2.} _ Y H 6 * z.gXaXiXu   y M.yXuXV.g.wXhXaXwXyXdXaXeXA.h.p e   @ | 9.q.=.7 6 H *Xw.;.5.5.w.5._ } ..<.{ { _ [ A ",
"| ' oX] ) _ X.+XO.i.6.] 6.Z < p rXrXZ.u . @ # g.aXdXV.N.eXeXV.wXfXgXpXeXM.y & & @ V | [ q.| } 2.w.X.5.| 4.w.| E 6.9.+Xw.9.5.;.] ",
"O.4.o.D F ] } 8.@X8.] | [ w.2 t c.B.b.p @ 3 1 # g.dXgXA.s.d.A.pXaXdXiXtXb.t j k ; o H ;._ J _ } +XXXw.] 8.O.Z ] | D XX%X5.] | Y ",
"' w.5.D _ X.' 5.+X| O.E S 0.- v  X Xd % + Y -.1 e tXhXdXN.d.C.tXA.aXpXeXh.r m M 9   P 2._ 2.2.2.] ] X.8.0.| D ..] 4.+X8.) 8.Z ] ",
"oX4.| ] 5.] 5.7.8.U 6...` <.! w  XkX5Xf + XX%XK q s.uXjXaXV.g.M.tXgXaXA.f.e m /.l 9 4 G X.| +X%X] 8.O.8.o.O.] O.} >.8.| ) | D 8.",
")  .6.6.4.| +X5.[ ;.w.6. ...u.w , 7X0X@.+ 0.>.| =.  h.pXpXtXf.d.wXtXV.f.e a n ^.$.l + 0 2.} w.8.o.7.X.| ) y.w.0.@Xq.2.' 8.| ....",
"_ %X0.6.| D D Y } [ { u.,.R Q ..K @ & @ < J ' ' =.+ # s.n.h.f.y u f.r e s M '.^.$.%.- 0 [ 5.] ' X.X.X.| ] 8.6.w.XXXXU Y ;.;.E E ",
"6.u.` 6.>._ [ | E ..;.6.6.a.R ~ J K W ! L | ] 8.;.! @ % % # % X % $ % > ^.].[.).'.^.b 9 q q.' ] 7.X.XXq.,.Q E 0.9.} A T _ <.E  .",
"y.0.6.w.0.>.5.| ;. .{ 0.u.a. .,.=.;.e.:.w.' o.O.' O.! + X ; > - o X X > /._.[.].).(.(.l , q 1 H 2.Y X.9.{ R W 1.e.P A T L W Q H ",
"..6.O.6.u.R _ #X<.0.| >.u.,.&Xp.q.p.8.;.X.| ] ] O.| 7.6 O %.M k > ; - O j ^.`.]._.`.(.$.k - O 6 P 2.2.>.R W 6.W L :.T =.T J 3.<.",
"a.......D 0.$X6.| ,... .6.,.#X-Xa.;. . .{ ...._ ] 5.| 0 @ x /.n m x j - O c /.].[._.(.M m %.b ; 1 H O.5._ } :.P J 3.2.Y @X3.5.| ",
"+. .O...) 6.#X%X0.6.w.<.0.,.>.6.1.a.,. . .{ >.0.] 2._ J G - n /.M m m j > > b (.`.`.^.x n '.$.x 4 < E | _ 6._ J T P J 3.@X9.2.} ",
"R ) 0.....>...Q #Xi.#X6.` >.>. .,. . .<. .R ..0.] _ D 7...7 , b /.M M k 9 8 9 j l (.`.^./.'./.^.n 9 1 V 5.<.} } Y A N Z +Xw.q.;.",
"R ..y...`  .......u.;.u. .{ { e.6.u.u.,.6...u.R 5.D R +X| D 4 4 m k j ; > v.d * - b _.}.].).)././.M > 4 #.| ;.} J Y S J J 5.9.| ",
"..0.{ ..{ _  .6.| _ { | F { <.S u.u.{ ` 6.R { ....| 5.;._ _ E 6 o O . . 8 K.F.g * O m ].[.[.].'.M /.m - + Y T Y [ ;.T } } =.J J ",
">.u. .........` ` ..| N >.0.E { ..,. .Q { E 5.i.5.5.+X| ` | 6.L G ! G 6 & K.J.G.d   O x '.`.[.`./.$.n ; . Y ;.9.=.2.;.S 2.[ Y 9.",
"R 6.>.E R ` ..>.{ S | <.$X8.E e.{ R >.#X#X..5.y.5.D { 0.{ S >.E >.5._ 1 & J.U.J.f . 1 4 > k ^.`.(.$.j o X D S Y T ;.9.=.N [ 9.+X",
"w.6.6.E ..>.>.5.0.R ` u.2.5.2._ { { Q  .w.>.E ..) 8.} w.>.| 6.{ <.0.S G 2 f G.G.d X ! ! @ o j x M l > # X ;.Z [ [ [ q.[ } 2.2.} ",
"....u.6.E 6.....E  .{ ' 4.;.| ' ` { ` | _ | _ | 5...D 6.0.{ >.>.| E J { I + . + + + K J V O - 9 ; 8 v d + | J J J J P A ;.H } ;.",
"_ 1.6.....>...4.5...u.9.w.' 4.| E R E { >.;.X.8.2.| 5._ >.| { 6...{ >.6.{ -.W #.W G N _ ! O f K.F.v G.a # | U A ;.} T =.e.;.:.;.",
"S >.w.| E E >.` _ ..8.4.@X2.6.9.W ..,._ ] ` 5.5._ Z 9.5.;.=.E ` _ { <.9.9.0.>.5.e.J 6.;.V # J.U.I.J.K.t   >.} } [ } _ [ =.J _ | ",
"0.E | e.6._ | ..6.5.y.u.] | w.w.{ >.>...>._ | 8.D 2._ } ;.;._ =.` ] 5.6.q.:.:.e.e.} | } P 4 g G.#.v.g 2 2 ;._ L Y 3.[ 9.9.r.;.S ",
"| ;.2.5.6.0.>.e.{ 5...` ` <.>.6.{ 6.6.6.4.| 6..._ | _ 0.9.} J A ] ] 8.| 5.[ _ 9.:.D D e.| [ 2 @ @ + X I L w.9.T J 3.;.r.} 3.;.} ",
";._ :.5.:.e.5.#X6.| 6.{ ` ..` N 0.=X%X..R 5.w.4.' 2.' Y 9.} E 6.U | 7.} | [ } [ A _ 6.;.| F | >.9.[ _ -._ | } D e.2.P } T T =.;.",
"0.;.;.;.;.+XXX| | u.+X..{ ` | 0...y.u.#XoX5.O.| _ 2.XX2.5.e.e.;.U X.+.| | ;.[ } 3.9.p.{ Z >.5.6.:.2._ q.| :.9.;.} [ J } J Z A L ",
"| 5.9.5.5.[ | | | 5.O.] Q ` R ..9.| E w.#X0.5._ w.} | +Xw.;.| | +.] ] X.2.} T | _ ` w._ >.| 6.| [ +X;.} H | 9._ J J J } [ H [ J ",
"O...oX` _ ' 5.q.o.] F ..+.R O...} ;.9.;.5.0.5.e.0.9.] ;.6.` S >.oXo.o.X.' | J Y ] _ _ ] | 5.>.>.e.e.>.| } 2.H _ ' X.] ' ' [ [ J ",
"o...5._ D ' ' 2.8.O.] ] ) O.i.,.| S q.w.| F | %Xw.:.] 0._ N >.` o.OXOXX.5.} [ XX4.) ] ' O.+X_ _ q.9.w.| } 5.D ] ' _ 8.y.q.9.=.J ",
"..8.8.N } } 2.3.+X| ..] R +Xu.6.F ' 5.Y Z Z +XY 5.5.y.5._ E ..| o.OXo.| } N e.e.5.R Z 5.5.Z A <...} 9.q.6.;.A | ] ;.oX+XD ;.H :.",
"] ] | ' 9.} T 2.5.Z ' _ _ ,.E _ X.F X.X._ X.X.| ] ' 4.] ' _ _ ] +.U +X[ 3.[ 2.:.D w.| ..| | 0.6.] 9.' +Xe.} >.;...| 8._ ' 6.[ =.",
"| ` 5.2.9.} } X.[ ;.w.[ ` >.J W Z +.] } ' 8.' U | _ E | ] D >.:.] 5.2.q.r.J 9.;.;.;._ } :.r.-.=.5.6.>.| } 0.9.9...oX4.| } <.[ >.",
"2.2.@X=.;.T 2.U } 2.;.D [ ;.[ =.] X.X.X.X.oXZ +.' | ] ' ;.2.2.q.X.U ;.5.L =.=.;.:.6.| :.9.>.=.L y.| e.} _ +X>.w.%Xw._ Z q.[ =.=.",
"} } X.XX} =.Y P 9.2.| } :.-.| :.X.o.U X.2.2.| 7.J 5.:.D } +X[ 9.| N *X{ q.-.;.Y 0.e.{ [ [ Z 6.9.8.w.| +X9.;.w.w.| | A | | { E ;."
};
