/* XPM */
static char *_61f5e76319c489fd8c30320ff70cd22woVaDmw04CndmiF9[] = {
/* columns rows colors chars-per-pixel */
"64 65 228 2 ",
"   c #030204",
".  c #0A0504",
"X  c #0A0C06",
"o  c #060409",
"O  c #09090A",
"+  c #140B04",
"@  c #130D0B",
"#  c #170904",
"$  c #0D1307",
"%  c #131404",
"&  c #1B1103",
"*  c #11130A",
"=  c #161D0A",
"-  c #1B1C0A",
";  c #1A1909",
":  c #0C0A13",
">  c #080816",
",  c #131412",
"<  c #1C1C1B",
"1  c #181A17",
"2  c #100E13",
"3  c #200F07",
"4  c #241402",
"5  c #22140A",
"6  c #291808",
"7  c #371B0E",
"8  c #351D08",
"9  c #281C15",
"0  c #341D12",
"q  c #1A220B",
"w  c #1A2807",
"e  c #1C2419",
"r  c #362806",
"t  c #27360D",
"y  c #262419",
"u  c #392518",
"i  c #2A3B12",
"p  c #2B3915",
"a  c #333713",
"s  c #25290A",
"d  c #0C0C27",
"f  c #100E2E",
"g  c #110D24",
"h  c #11112D",
"j  c #121232",
"k  c #151439",
"l  c #0B0D2E",
"z  c #211627",
"x  c #1C2029",
"c  c #242424",
"v  c #2C2C2C",
"b  c #272826",
"n  c #392A22",
"m  c #373636",
"M  c #303032",
"N  c #442A02",
"B  c #472903",
"V  c #4C3200",
"C  c #5B3C01",
"Z  c #573800",
"A  c #432416",
"S  c #4D2A1A",
"D  c #452718",
"F  c #542C18",
"G  c #5C331D",
"H  c #55311A",
"J  c #68381E",
"K  c #613F00",
"L  c #4C3026",
"P  c #633622",
"I  c #6D3C24",
"U  c #713E24",
"Y  c #2D4C02",
"T  c #2A4109",
"R  c #324D08",
"E  c #335305",
"W  c #3A5A05",
"Q  c #35540A",
"!  c #3A560B",
"~  c #3C5B0D",
"^  c #365808",
"/  c #334B12",
"(  c #374A19",
")  c #3B5513",
"_  c #3D5C12",
"`  c #3D531B",
"'  c #3E5D1A",
"]  c #355313",
"[  c #2E4712",
"{  c #3F600D",
"}  c #3E6215",
"|  c #3E611A",
" . c #415E0E",
".. c #425E13",
"X. c #425C1C",
"o. c #4B5D1B",
"O. c #465B16",
"+. c #525E1C",
"@. c #634101",
"#. c #6C4801",
"$. c #785202",
"%. c #6C4C0C",
"&. c #41620E",
"*. c #436314",
"=. c #496517",
"-. c #466815",
";. c #496B16",
":. c #45641A",
">. c #4A661B",
",. c #46691B",
"<. c #4B6B1C",
"1. c #51641D",
"2. c #516D1E",
"3. c #4E711D",
"4. c #4E7115",
"5. c #52721E",
"6. c #547819",
"7. c #455B22",
"8. c #525E20",
"9. c #7B4429",
"0. c #774227",
"q. c #674E38",
"w. c #456521",
"e. c #4A6622",
"r. c #4D6C22",
"t. c #4E6E29",
"y. c #516D23",
"u. c #5A6D26",
"i. c #536D2A",
"p. c #576828",
"a. c #4F7022",
"s. c #537224",
"d. c #587426",
"f. c #567924",
"g. c #597A25",
"h. c #55742A",
"j. c #5A752A",
"k. c #577829",
"l. c #5B7A2C",
"z. c #5D7C32",
"x. c #557531",
"c. c #5B6F30",
"v. c #62752D",
"b. c #607C2E",
"n. c #627D33",
"m. c #637735",
"M. c #606F2A",
"N. c #191A4D",
"B. c #171745",
"V. c #1B1C53",
"C. c #1D1E5A",
"Z. c #171755",
"A. c #24225C",
"S. c #2B2443",
"D. c #1E1F60",
"F. c #211F66",
"G. c #1F2468",
"H. c #212164",
"J. c #24246C",
"K. c #28286D",
"L. c #262673",
"P. c #292A7C",
"I. c #272878",
"U. c #393062",
"Y. c #413F40",
"T. c #494545",
"R. c #4F4A4B",
"E. c #7E624A",
"W. c #865801",
"Q. c #915D01",
"!. c #894B0E",
"~. c #9E6901",
"^. c #976401",
"/. c #A46D01",
"(. c #A56802",
"). c #AC7301",
"_. c #B57900",
"`. c #BA7C01",
"'. c #884B2C",
"]. c #935331",
"[. c #8C5131",
"{. c #9C6C2A",
"}. c #997251",
"|. c #C27B4D",
" X c #5E812D",
".X c #5E8132",
"XX c #62822D",
"oX c #65882A",
"OX c #638234",
"+X c #688436",
"@X c #668836",
"#X c #65843A",
"$X c #6A863A",
"%X c #6C893D",
"&X c #688B35",
"*X c #72833C",
"=X c #759243",
"-X c #708B44",
";X c #BE8000",
":X c #C48300",
">X c #CD8A01",
",X c #CF8701",
"<X c #D48D01",
"1X c #DC9301",
"2X c #D79001",
"3X c #E19601",
"4X c #EB9C01",
"5X c #E29900",
"6X c #F7A400",
"7X c #EFA000",
"8X c #C58D36",
"9X c #EC9663",
"0X c #2B2C83",
"qX c #2E2E8C",
"wX c #272A83",
"eX c #312E8B",
"rX c #2E308E",
"tX c #31318C",
"yX c #2E2F91",
"uX c #312F97",
"iX c #2F3195",
"pX c #323194",
"aX c #33339A",
"sX c #3536A3",
"dX c #3838AB",
"fX c #3737A7",
"gX c #3C3CB4",
"hX c #F8BE8C",
/* pixels */
"..i.d.r...>.j.>.y.y.+Xl.l.=.h.<...1.>.=.>.y.3.f.*.;.*.{ *.<.} -.<.=.*.*.<.,.*.,.r.s.<.,.} ;.r.k.,.<.*.,.>.h._ :.:.:.>.r.r.i.t.t.",
"y.>.y.u.>.2...>.2.y.l.l.s.<.OXl.r.y.i.>.2.=.;.l.,.>.;.k.3.;.} 3.,.s.,.<.<.r.h.*.a.<.r.<.} ~ l.a.} ~ _ <.:.h.:._ ' e.' ) t.t.h.:.",
"y.>.i.b.d.d.2.l.n.1.<.<.&.<.f.k...>.n.l.k.s.<.>.r.;.*.;.<.s.<.-.,.s.,._ ,.a.r.:.,.<.<.<.=.~ <.*.<._ :.r.e.h.i._ Y X.' w.e.w.w.' ",
"y.>.y.j.i.j.b.n.>.>.5.s.<.<.<.E j.*Xd.2.=.<.OX5.;.<.a.3.*.a.f.h.<.a.3.<.j.k.| :.} a.;.;.*.| | _ r.| :.r.=.r.h.~ Q ' _ r.t.| ' w.",
"u.>.<.y.y.d.b.j.u.b.b.=. .;.>.*.d.n.$Xn.3.s.3.f.<.;.3.f.3.a.k.l.f.<.,.<.t.:.:.r.{ s.4.;.~ Q | h.r.,.<.h.r.r.d.s.t.:.R _ ] R ' t.",
"y.s.5.s.2.2.d.;.;.6.b.=.=.2.&.2.d.2...+X=Xl.-.;.,.} -.s.a.,.a.h.3.;.*.<.=.| r.,.k.k.3.3.~ _ *.:.*.s.,.3.<.s.5.s.y.r.a.t.:._ ~ _ ",
"<.d.g.<.;.;.2.2.=.2. .=.4. .<.2.<.2.g.=.;.OX3.XX;.3.s.f.f.a.k.a.*.4.;.t.,.w.z.:.;.-.-.5.s.h.h.r.r..Xk.3.s.OX=.<.<.s.k.=.,.| | Q ",
";.d.g. .&.=.<.b.d.5. .2.2.=.b.2.1.*.2.g.s.*.5. Xa.;.,.} <.a.r.*.3.3.,.| _ e.l.r.;.-.f.f.3.*.:.w.3.f.f.;.5.g.W ~ -.5.l.k.s.h.a._ ",
"<.s.s.^ &.=.-.d.$X&.d.;...b.b.2.~ *.s.5.W W f.5.a.a.f.,.4.} a.a.f.5.3.:.=.a.t.a.4.*.;.,.r.*.:.t.l.;.6.5.s.5.W ;.-.;.b.XX4.=.:.r.",
"XXl.s.:.<.r.=.z.<.<.k...>.h.r.m.} } &.-.W @Xg.~ f.a.a.,.,.} } 4.k.~ k.<.<._ z.r._ j.j.y.o.e.-Xz.;.h.a.z.z.:.>.<.4.&.g.-.y.j.>.e.",
"k.y.r.i.j.t.h.h.l.~ <.*.t.n.h.' -.4.<.;.g.oXb.d.{ ,.,.a.3.^ ,.a.s.y.@X*.z.E s.>.>.<.>.:.i.h.e.>.;.s.a.t.t.s.h.h.-.b.XX&.~ y.>.p.",
"~ *.r.e.l.z.#Xw.~ =.<.-.<.t.e.e.k.3.a.-.5.5.;.>.<.r.| } a.| 3.k.-.*.4.s.=.,.<.r.r.z.X.y.c.i.y.) k.g.s.s._ n.h.j.&Xg.;.&.d.y.X.i.",
">.l.=.:.' z.#Xr.*.*.<.=.! X.[ & % % & & % + t ' $ O : q X.x.,.t.;.^ OX-.h.:.<.*.h.j.:.r.>...y.y. X3.l.h.r.h.x.n.g.5.~ *.=.y.X.e.",
"g.>.E T :._ %XOXk.t.*.*.' ( a C Z C @.K Z V r t . B.N.g w [ i ` *.OX%Xz.l.k.>.2.<.~ l.z.h.r.*.r.g.4.;.z.:.,.y.k.g.s.=.s.>.y.i.i.",
"l.<.Y | _ Q ~ =.y.k.2.-./ 6 W.3X2X1X4X1X,X`.@.6 r U.iXH.d > d , [ s.;.a.k.*.k.h.=._ h.=.~ :.j.j.3.;.s.a.=.Q r.=.OXs.t.<.y.>.i.:.",
"<.-.~ f.=.:.| :.<.<.h.d.% #.2X6X6X6X4X1X1X>X).W.@.A A.yXI.I.I.V.* / <.r.k.*.l.h.*.h.<.s.*.=.-Xy.{ ,.3.h.*.<.s.<.h.%Xz.r.>.j.e.X.",
"l.*.*.s._ r.t.f.,.z.z.f.4 ~.6X6X4X2X;X_.:X:X`.~.$.N S.aXyXJ.I.aXL.< X.*.r.2.=.<.>.a.*.l.f.,.r.*.W -.3.s...<.<.=.h.h.t.:.n.i.:.e.",
">.;.d.s.>.y._ Q =.s.z.r.4 Q.5X3X>X).~.~.)._.)./.Q.@.n U.iXD.N.wXaXZ.1 / Q *.k.,.*.a..X@X.Xa.~ -.} 3.3.;.*.OXs.s._ ..h.#X-Xy.O.) ",
"W >.f.h.' r.=.t...t.l.h.+ W.3X1X>X`.).).).~.~./.~.@.N L pXqXN.N.G.H.j $ ..y.,.*.{ f.l.h.h.l.g.a.;.;.*.~ <.s.h.r.s.h.x.h.j.m.y.e.",
"-.2.h.<.:.=.=.<._ Y ~ <.6 ^.7X7X4X4X3X<X`./././.~.#.V u tXsXI.k j B.d % ..s.a.-.r.l.l.r.r.r.h.} -.a.;.*.d.-.h.<.r.h.i.e.i.h...~ ",
"r.h.=.r...r.:.h.<.-.>.Q 4 Q.3X1X<X3X4X2X:X_.)./.^.@.N n 0XdXaXC.O > > = r.s..Xh.a.k.,.| } _ w.,._ l.a.f.a.-.s.y.' h.z.w.y.e..._ ",
"l.s.r.e.h.=..._ ^ ..<.Y 6 W.2X<X:X:X>X>X;X_.)./.^.@.N u L.aXfXP.j O   q OXh.,.r.Q a.r.r.r.r.w.,.| z.f.l.s.<.r.j.x.e.7.e.h.>.=.+X",
"~ a.y.z.r.y.:.h.<.! <.<.4 Q.3X2X`._._._._././.^.$.@.N u A.wXeX0XH.j > 1 ' ,.,.:.a.l.,.r.,.| ,.t.:.:.:.,.d.<.~ r.w.n.n.t.) u.l.=X",
"l.<.:.) :.x.h.r.=...=.=.6 W.:X_././././././.^.$.@.V N u K.wXI.wXtXI.J.B.2 ` h.l.z.*.| r.r.| r.t.r.a.r.<.@Xg.<.<.e.w.X.Q :.>.2.4.",
":.r.s.X.Q s.t.y.&.j.*.=.` r r B !.(./.^.^.~.Q.K V r 6 S.L.I.P.qXtXsXsXaXJ.e ( x.l._ | } | r.x.,.:.z.a.=.s.k.s.r.x.] o.) l. .1.b.",
"=.s.s.=.r.Q ..r.y.r.#Xs.z.T s q A {.8X{.%.%.%.r 8 & k F.P.P.yXaXpXaXaXdXdXJ.e [ s.{ >.,.:.*.z.h.y.a.} a.<.k.<.=.y.M.+.p.p.M.p.p.",
"_ <.a.-.:.! _ Y ~ ~ h.s.h.<.t.e.q q.}.q.y B V 6 @ g C.wXwXeXaXfXsXaXqXqXsXsXH.1 ` s.;.r.,.:.,.k.:...*.,.-.a.,.>.p.v.+.+.+.m.p.c.",
"s.<.y.k.-.~ <.~ | _ ^ ~ :.-.r.f.] y @ + X + y c j F.0XtXqXyXaXsXsXsXeXP.I.rXqXV.$ ] a.h.a.=.,.x.r._ ,.| a.k.r.<.1.v.1.+.8.c.p.e.",
"s.=.r.z.;.~ l.r.k.l.*.Q _ ~ a._ Q 7.` [ ( * : k H.yXsXsXsXpXeXpXfXsXsX0XH.I.wXN.o T #X} h.*.:.z.k...r.r.<.h.,._ o.>. .1.8.p.p.e.",
"*.a.<.;.*.s.l.^ ;.h.*.{ Y E ! Y l.z.-.*.=.q > C.aXdXsXyXyXeXeXyXaXsXfXsXwXD.A.N.O a t ( <.Q ..s.y.>.=.t.| a.h.<.m.M.O.>.8.X.e.y.",
"s.;.,.k.l.,.-.-.s.s.a.s.} r._ <.h.z._ _ >.q l wXgXdX0XJ.J.L.wXqXpXaXfXfXsXJ.V.k o . + = ` [ Q >.l.h.:.h.r.l.z.h.u.u.o.O.o.>.p.i.",
"3.5. X;.-.;.<.3.a.<.*.*.~ -.*.<.3.3.<.5.=.= j yXgXpXJ.C.B.V.J.P.rXaXsXfXfXrXV.> . 5 A 0 + X i X.#Xz.a.s.s..Xa.*.=.y.u.r.:.*.*._ ",
"3.-. X-.&.} 5. X5.l.f.=.s.E b.2.*.;.5.5.,.q f P.sXpXP.A.f f Z.L.wX0XpXpXpXaXC.O # 6 F G G F 5 * y X.j.<.f.l.>. .f.j.OXl.h.s.r.>.",
"5.s.5.&.W ;.,.k.@Xk.<.<.*.b.OXd.*.~ f.l.*.w e B.I.eXyXP.B.: g V.J.P.P.0XyXaXV.: # 3 A P '.U G 0 5 t e.-.g.2.Q <.<.~ OX@X5.>.3.{ ",
"*.g.s.W -.<.;.s.OX;.s. .! b.XX=.W -.>.>.^ | ` * h D.0XaXP.j o j C.L.I.0XuXqXN.: # 3 7 S G I '.I 0 , t X.d.4.~ 2.-.f.OXk.&.l.E ;.",
"XXd.<.;.s.>.s.k.k.} u.2.=.d.M.1. .*.=.;.3. X#X] $ j J.aXaXH.> o k C.K.P.0XD.f 2 3 # 6 S S G U I u m c + 2.5.<.5.-.y.l.;.&.<.W g.",
"&.2.d.d.h.<.OXs.-.r.k.d.1.2.v.O.5.5.=.f.s.XXa.,.7.- B.yXsX0XN.d > k D.D.B.l > . . . # 7 A F I J A T.v O &.b.l.j..Xk.a.-.g.<.<.2.",
"*.+Xj.d.<.~ ~ { >.<.>.v.d.O.O.2.h.s.k.:.3.*.;.-.k.= k pXsXqXL.k   f N.B.f 9 # X p p q & 7 7 A A n R.v   >.l.i.j..X.X{ } <.t.....",
"j.b.=.d.y.*.*.<...r.r.u.d.u. .+.*.y.k.y.<.;.3.g.s.t h K.uXyXwXB.> > j f h A 7 = X.w.p . ; 5 ; c m m e y y.=...l.x.,.Q | ..i.O.>.",
"v.v.2.b.j.s.s.<.y.>.>.l.v.M.1.u.=.t.l.i.l.*.4.3.-.s.a 1 I.sXqXD.j o > z A S S 0 % [ p o < < < v m , i y.=.O.O.i..X] Q | X.X.o. .",
"2.d.u.d.b. .O.%Xd.d.>.y.v.M.*Xm.x.z.l.r.<.<.3.-.6.;.i > I.fXuXD.f     9 H G P A   * X     O O @ , [ r.s.! X.h.) ' t.| w.| ] h.h.",
"d.5.2.4.! d.%Xh.>.h.y.1.u.y.*X=Xv.1.1.1.=.2.2.*.;.s.` t k C.D.l d   3 F U U 0.J 0 ; 5 #       $ T { 3.a.>.:.r.~ _ a.a._ #Xh.h.:.",
"5.1.5.2.&.d.$X$Xb.u.j.u.l.d.y.d.p.M.u.1.1.>.2.l.;.s.*...q $ v T.L @ 6 U 9.9.0.I U P I S # O * - X.5.;.a.*.s.:._ | _ ~ t.#Xh.a.-.",
" .*.j.2.2.u.2.&.#Xn.#Xj.O.y.y.1.u.1.1.y.1. .2.d.>.} ~ s.e.$ E.hX|.7 & I 9.0.I I '.[.[.I u M M e % / } _ s.h.:.<.| Q Y E .Xl.k.r.",
" .2.n.2.=.2.2.2.2.b.r.l.>.>.>.j.u.v.v.u.u.2.b. .s.~ &.OX,.$ ].9X|.0 + G 0.I 0.'.].].U S T.L M b , % / ~ @X,.r.*._ _ ~ ~ _ h.s.<.",
"2.d.2.<.>.O.=.d.<.*.>.1.Q >.j. .n.v.2.=.d...>.2.<.>.s.s.} [ L U L n = r I U 0.'.].].F n R.Y.b x < . t e.f.| :.| :.r.| :.e.,._ _ ",
"y.b.1.2.2.2.2.=.=.r.<.Y u.k...>.1.y.1.O.>...y.n.f.s.+X=.,.;.( = w e./ 6 D U 9.'.'.'.G n T.M e e 1   i s.a.*.r.t.w.a.r.~ t.,.| s.",
"~ u.y...~ =.2.u.=.! >.u.%Xk.~ n.>...y.$X+X2.h.b.s.~ -.k.<.~ >. .2.i...i @ A U 0.'.9.F 0 S.m e x 1 O i | ,.] ~ :.| r.h.<.Y :.h..X",
"j.d.d.=.2.y.2.i.j. .=.b.<.s.y.*.>.>.O.>.l.u.&.2.*.l.-.l.y.>.j.<.y.j.~ <.` = 0 H G P 7 * b m b < 1 . i *.h.<.E *.:.:.h.| ,.r.a.<.",
"y.2.l.u.*.h.2.2. .<.=.=.k.2.<.*.>.>.=.2.*.<.*.<.s.<.W h.j.>.y.i.r... .>._ ( 6 @ 5 6 +   9 M b < 1 . t ..t.r.} _ _ _ ~ Q t.~ ,.e.",
"=.i.d.2.2.2.2.d.d.d.l.s.l.=.h.<... . .>.2.r.3.k.5.<.h.*.r.<.=.i.1.r.y.h.r.j.` q q =   X c b c 1 O = ( *.<.<._ _ r.,.' :.z.<.t.a.",
"~ y.j.>.O...2.>.O.;.l.h.#Xa.f.d.O.2.i.=.<.=.s.5.*.E s.h.r.>.*.:.*.*.s.h.h.d.s.t.z.) p * c < < , % / *.:.r.t.,.,.:.,.:.:.w._ :.,.",
"j...<.l.j.O.<.<.d.s.b.l.>.;.z.l.1.y.u.<.y...2.g.~ r.*.:.r.r.:.:.-.-.s.s.l.r.r.x.z.,.w.t X O . = 7._ | >.*.r.| { | t.,.t.h.x.r.~ ",
">.<.t.s.h.l.s..X>.y.2.=.>.s.y.h.=.d.h.s.f.5.s.<.*.<.*.k.h.=._ ~ -.2.g.;.h.:.:.h.e._ _ z.s.<.l.<.s.} ,.<.=.z.h.} ~ h.r.x.e.a.r.:.",
"y.:.r.s.r.z.s.#Xd.2.d.=.=.2.=.Y d.=X+X2.~ s.l.s.,.a.;.*.l.=.| h.{ 3.g.;.,.,.:.=.Q ..h.r.<.! <.y.a.=.| t.*.e.:._ l.a.~ :.| | w.w.",
"j.r.r.a.<.OXOX<.1.l.+X2.>.=.<.j.2.b.b.$XOXs.s.2.*.3..Xr.a.z.l.r.&.;.f.>.<.r.:.:.h.h.OX<.E y.s.f.a.h.*.h.r.a.s.a.,.:._ =.} R ~ | ",
"<.y.h.s.s.:.,.r.<.y.y.2. .1.&.2.h.2.*.l.$Xl.s.*.l.,.<.@Xj.r.,.<.6.;.;.3.s.<.*.,.*.>.l.*.y.<.s.<.:..Xr.:.~ r.s.*._ _ _ :.:.] :.' ",
"5.5.XX>.*.;.s.f.4.;.W 4.5. .5.2.,.<.y.r.y.k.s.z.k.s.=.2.h.=.~ y. X4.4.4.-.,.~ :.;.&.*.;.3.y.y.y.z.l.h.<.=.r._ *.;.3.;.;.=.:.:._ ",
"2.4.5.*.^ ;.-.s.g.f.;.-.&.5.n.2.w.~ l.l.r.^ <.OXl.y.>.k.=.Y y.=.4.oXoX3.a.:.:..Xf.*.-.-.5.n.*.O.l.h.l.<.:.h._ -.*.-.g. Xf.h.:._ ",
"2.g.k.Y :.<.a.h.@X>.<.;...+Xv.d.^ -.s.} E E @X&.s.s.b.s.*. .s.;.4.&X4.;.w.Y z.z.s. .E s.s.E Q h.r.=.h.l.s.r.Q <.;.r.XXn.~ t._ t.",
";.;.<.=.h.w.-.a.a.Q =.*. .d...O.3.^ a.,.*.3.3.,.>.-.f.=.-.*.*.>. X{ OX| s.:.t.a.W b.<.y.<.<.h.h.>.k.-.OXz.=.h.r.2.<.g.*.*.h.:.w.",
"<.;.s.t.a.,.,.w.,.r.l.=.>.y._ :.E 6.-.4.;.f.;.{ 3.*.} <.,.~ y.y.-.s.a.l.x._ h.r.r.r.*.=.t.x.e.e.s.s.s.<.:.l.h.s.2.OXs.<.=.h.:.i.",
"a.s.OX,.a.| a._ ,.a.t.^ =.w.:.:.;.6.3.3.3. XE 5.-.3.>.;.<.s.a.l.-.{ r.a.' w.e.r.t.h.<.t.k.y.e.)  X<.z.=.*.OXa.l.@Xl.*.E h.<.:.e.",
",.| 3..X,.| } ~ h.a.<.,.t.r.e.t.3.;.{ ;.f.a.3.s._ s.r.~ ,.OX:.a.;.E -X>.h.r.<.| l.z.:.:.=.R h.f.l.l.<.OXh.<.l.l.<.2.^ >.<.:...e.",
"3.} } ,.} | a.3.a.a..X.Xw.w.| a.,.} 6.3.s.s.&Xf.a.,.^ | } l.a.r.} z.#Xl..Xx.t.r.=._ h.h.h.:.:.t.s.5.<.k.>.*.r.y.k.h.=.5.=.r.:..."
};
