/* XPM */
static char *_f0ac818784f4c45a635eff01ad6b56eYiu2pEzgJ7268TlX[] = {
/* columns rows colors chars-per-pixel */
"64 64 228 2 ",
"   c #040302",
".  c #0B0B05",
"X  c #030308",
"o  c #0C0D0A",
"O  c #080807",
"+  c #150D04",
"@  c #130C0A",
"#  c #180A05",
"$  c #0D1208",
"%  c #131205",
"&  c #151A05",
"*  c #141B09",
"=  c #181608",
"-  c #0C0C14",
";  c #0C0B1B",
":  c #030319",
">  c #160E16",
",  c #0D111A",
"<  c #191917",
"1  c #24130B",
"2  c #281709",
"3  c #331C07",
"4  c #341B11",
"5  c #3C1F11",
"6  c #231310",
"7  c #1B250A",
"8  c #1B2614",
"9  c #232C0B",
"0  c #372404",
"q  c #3D2401",
"w  c #3B2A05",
"e  c #24330B",
"r  c #293B0D",
"t  c #252816",
"y  c #3D2214",
"u  c #3A2519",
"i  c #2C3B14",
"p  c #273712",
"a  c #333812",
"s  c #0C0C24",
"d  c #0D0F2C",
"f  c #130E27",
"g  c #161427",
"h  c #0C0D31",
"j  c #13133C",
"k  c #151433",
"l  c #101030",
"z  c #251A26",
"x  c #232324",
"c  c #2B2928",
"v  c #3C3C3B",
"b  c #383534",
"n  c #32292D",
"m  c #452B02",
"M  c #402303",
"N  c #4C3200",
"B  c #523601",
"V  c #573A01",
"C  c #482918",
"Z  c #522D1A",
"A  c #522C17",
"S  c #59341B",
"D  c #532C0D",
"F  c #64361C",
"G  c #573625",
"H  c #453931",
"J  c #6D3C24",
"K  c #633824",
"L  c #723D22",
"P  c #2D4C02",
"I  c #294406",
"U  c #334C0C",
"Y  c #314D01",
"T  c #2E5106",
"R  c #345305",
"E  c #3A5A06",
"W  c #35550A",
"Q  c #3B560B",
"!  c #3C5B0D",
"~  c #375807",
"^  c #2F4216",
"/  c #364918",
"(  c #365312",
")  c #3B5415",
"_  c #3D5C12",
"`  c #3D521A",
"'  c #3F5D19",
"]  c #3E600E",
"[  c #3F6113",
"{  c #3E611A",
"}  c #415F0F",
"|  c #425D13",
" . c #4A5D1A",
".. c #445A19",
"X. c #525E1C",
"o. c #6A4801",
"O. c #734B02",
"+. c #42620E",
"@. c #446314",
"#. c #496516",
"$. c #466915",
"%. c #496B16",
"&. c #45641A",
"*. c #4A661B",
"=. c #46691A",
"-. c #4B6B1C",
";. c #51641D",
":. c #516D1E",
">. c #4E711D",
",. c #4E7114",
"<. c #52721E",
"1. c #547819",
"2. c #485D23",
"3. c #534A33",
"4. c #784329",
"5. c #6B4F30",
"6. c #4A6622",
"7. c #4D6C22",
"8. c #4E6D29",
"9. c #466622",
"0. c #516D23",
"q. c #5A6D26",
"w. c #536D2A",
"e. c #576828",
"r. c #4F7023",
"t. c #557525",
"y. c #537224",
"u. c #587426",
"i. c #567823",
"p. c #597B25",
"a. c #55742A",
"s. c #5A752B",
"d. c #577829",
"f. c #5B7A2C",
"g. c #5D7C32",
"h. c #577533",
"j. c #5B6F30",
"k. c #62752D",
"l. c #607C2E",
"z. c #627D32",
"x. c #637735",
"c. c #606F2A",
"v. c #161642",
"b. c #191849",
"n. c #1B1B53",
"m. c #1E1F5C",
"M. c #201E5F",
"N. c #21215F",
"B. c #342C58",
"V. c #1C1E65",
"C. c #221F62",
"Z. c #1F2363",
"A. c #23236C",
"S. c #222365",
"D. c #262673",
"F. c #292A7D",
"G. c #28287C",
"H. c #322E73",
"J. c #464747",
"K. c #4D4C51",
"L. c #715E4D",
"P. c #835502",
"I. c #8A5A01",
"U. c #865800",
"Y. c #93550E",
"T. c #946200",
"R. c #9A6600",
"E. c #9D6901",
"W. c #8F6103",
"Q. c #A36D01",
"!. c #A56A07",
"~. c #AB7301",
"^. c #A67002",
"/. c #B67A00",
"(. c #BA7C00",
"). c #B27600",
"_. c #85492B",
"`. c #9A5633",
"'. c #92502F",
"]. c #A35B35",
"[. c #A65E38",
"{. c #C17D00",
"}. c #8D5E42",
"|. c #806C53",
" X c #D37C51",
".X c #5E8132",
"XX c #5E802C",
"oX c #62822D",
"OX c #65882A",
"+X c #638334",
"@X c #688437",
"#X c #678936",
"$X c #65843A",
"%X c #6A863A",
"&X c #6B8A3D",
"*X c #6D8C36",
"=X c #72833C",
"-X c #759243",
";X c #708B44",
":X c #BF8000",
">X c #C48201",
",X c #CC8901",
"<X c #CC8502",
"1X c #D48D00",
"2X c #DA9201",
"3X c #EA9C01",
"4X c #E49800",
"5X c #F29F01",
"6X c #F6A401",
"7X c #F8A601",
"8X c #EEA201",
"9X c #B88548",
"0X c #EF9D6B",
"qX c #2A2B83",
"wX c #2D2E8B",
"eX c #262C8E",
"rX c #302D8E",
"tX c #2E308D",
"yX c #2F2F93",
"uX c #2F3193",
"iX c #313194",
"pX c #34349B",
"aX c #31308F",
"sX c #3536A3",
"dX c #3839AB",
"fX c #3737A5",
"gX c #3C3BB5",
"hX c #FEC188",
/* pixels */
"| w.u.7.| *.s.*.0.0.@Xf.f.&.t.-...;.*. .%.w.-.d.+.%.@.[ @.-.@.@.7.=.@.@.-.=.@.=.r.r.7.=.[ -.r.d.=.-.@.=.-.u._ &.@.&.*.7.7.a.8.7.",
"0.*.0.q.*.7.| *.:.0.f.l.y.-.z.f.7.7.q.*.-.#.%.f.-.#.%.t.r.%.] >.=.t.=.-.-.7.s.[ r.=.7.-.[ W f.7._ _ _ 7.&.w.&.) ' 6._ ) 8.8.h.9.",
"0.*.w.l.u.u.:.k.z.*.:.%.@.-.d.p.} *.+Xk.p.y.-.-.-.-.$.=.-.y.>.=.&.t.=.[ =.r.7.@.%.-.-.-.=._ &.@.-._ @.8.7.a.w._ P { ' 9.9.9.9.' ",
"0.*.0.s.y.s.l.+X*.*.0.y.%.%.-.R s.&Xu.:.&.-.+X<.%.-.>.>.@.>.t.a.-.>.-.-.h.s.{ &.@.r.$.%.%.[ _ [ 7.{ @.7.&.7.y.! Q ' _ 8.8.{ ' ' ",
"q.*.*.0.0.u.l.s.u.k.l.#.| #.%.@.q.z.&Xz.>.t.>.y.-.%.>.y.>.r.d.d.t.>.=.9.r.&.@.7.] t.,.%.! W { a.7.9.-.a.7.7.s.y.w.&.T _ ) W ' 8.",
"0.y.<.y.:.:.<.;.%.1.l.#.#.:.} y.s.:.| +X-Xf.$.%.=.[ %.>.r.-.y.y.>.-.@.7.&.{ 7.=.i.d.r.>.! [ @.@.$.y.=.>.-.y.-.i.7.7.7.y.=.( _ ( ",
"-.i.s.:.%.#.:.<.#.:.} #.%.} %.0.%.:.p.#.-.oX<.oX>.=.d.d.d.r.d.8.+.,.=.7.&.7.g.&.=.@.%.<.t.y.a.7.-..Xd.>.y.+X#.-.7.y.d.@.=.{ =.W ",
"%.i.i.} @.$.:.p.u.<.} :.:.#.z.:.;.@.:.f.y.+.<.l.>.%.=.[ >.r.-.[ >.>.=.[ _ 9.g.7.%.%.i.d.,.{ 9.6.>.p.t.%.<.p.E ! %.<.f.f.r.a.7._ ",
"-.y.i.~ +.-.#.i.*X+.u.#.} l.l.<.] +.p.<.E ~ 1.y.r.r.i.9.>.$.=.t.p.t.-.@.-.8.7.r.>.@.%.#.7.@.&.6.p.%.t.t.i.<.E #.@.%.l.OX%.*.@.7.",
"oXg.7.@.-.7.&.g.*.;.p.| -.w.8.x.[ [ ] $.E +Xp.! i.r.r.=.=.[ [ =.d.! y.>.-._ g.7.! s.s.0.*.6.;Xx.-.y.>.g.h.&.=.-.,.+.p.@.0.s.*.7.",
"p.7.7.w.s.7.a.a.f.} -.&.0.g.a._ %.=.>.%.p.#Xp.i.] =.=.r.>.~ $.>.y.>.#X@.f.R y.7.*.*.*.&.0.w.6. .=.t.y.7.w.y.a.a.%.p.oX+.! 0.*.w.",
"! @.7.6.g.g.$X9.} @.7.@.6.8.9.8.d.>.>.%.1.<.-.-.-.7.[ { =.=.>.d.@.@.-.t.@.&.7.7.7.g.@.w.h.w.0...t.p.y.r._ z.y.f.#Xp.:.+.s.7...w.",
"-.f.&.&._ z.;X6.@.@.-.-.Q &.h.8.*.f.i.%.1.%.! i.@.-.a.@.=..X=.t.-.E +X@.a.@.-.| u.g.@.0.*.| 7.7.XX,.f.d.7.a.g.z.f.<.! @.*.7...6.",
"p.*.R r @._ $X+Xf.-.@...| ..t + % + = + + + . . O - o 7 ( f.r.d.] +X*Xf.g.f.7.-.-.! f.g.u.7.@.0.XX%.=.g.&.-.7.a.p.y.#.t.*.0.w.w.",
"p.-.P [ _ Q _ &.0.d.7.&.| 7 o.R.I.T.E.T.P.o.w % g D.b., p r.7._ @.r.-.y.p.&.f.t.&.! t.=.) &.s.s.>.%.t.-.&.R -.-.oXy.-.-.w.&.w.&.",
"-.@.@.t.&.&._ @.-.-.u.y.9 B <X6X3X6X6X4X2X(.O.B C B.G.n.- e 9.7.f.=.-.-.u._ f.t.| a.7.r.@.=.&Xy.] =.>.d.| -.y.7.a.&Xg.7.*.j.7...",
"f.@.@.y._ 6.y.a.&.g.g.u.3 /.6X7X6X4X1X1X1X>X~.I.V y F.wXj ; ^ &.0.7.z.@.-.7.&.-.-.r.@.f.d.-.-.@.E $.>.r.@.%.-.*.a.a.7.&.$Xw.&.0.",
"-.#.a.u.-.7._ W @.y..X7.q <X7X3X1X>X~.~.>X(.~.T.O.m H.F.S.S.g / 7.+.=.-.! @.a.=.[ r..X$X.Xr.! @.[ >.<.=.@.+Xy.y.| _ h.+X$Xw.| ) ",
"E *.y.y._ -.&.y.[ y.g.u.3 ).3X1X(.Q.R.R.^.~.Q.^.I.m u B.G.A.n.g 9 ! &.[ *.y.-.@.] t.f.d.a.f.d.r.-.%.@.! -.t.t.-.y.s.h.a.g.x.w.*.",
"@.<.s.-.&.&.-.-._ P Q 7.3 (.3X4X1X>X{./.^.E.E.^.T.V m n G.A.N.s % @.t.&.@.y.>.&.7.f.d.r.7.-.a.@.$.r.%.@.u.@.a.-.7.w.8.6.w.u.| Q ",
"-.s.&.7.| 7.*.s.%.&.-.R q {.5X3X3X3X4X1X(.^.Q.Q.T.V m n G.qXN.d * U g.t.r.t.g.a.r.d.=.[ [ ! 8.=.! f.>.y.y.%.0.w._ a.g.9.7.7.| _ ",
"f.t.7.*.a.&.| _ R @.-.Y q ).4X1X<X2X4X,X:X(.~.^.I.B m n A.wXF.N.l $ 2.u..Xa.-.-.W y.7.7.r.9.=.{ { g.d.f.>.-.7.g.h.6.2.9.w.*.#.+X",
"! 7.w.f.6.7.&.a.7.W %.-.q ~.2X1X(.>X<X{.(.~.Q.E.P.V q c A.qXtXwXG.N.< 7 p -.=.=.r.h.=.7.=.=.=.a.=.&.@.=.p.-._ 7.9.$Xx.8._ 0.k.&X",
"f.7.&._ &.h.a.7.&._ *.*.q (.4X,X/.~.~.).~.Q.R.P.o.B m z V.D.qXaXsXpXV.h - i a.f.g.@.' 7.9.{ 9.8.7.7.7.r.+Xp.-.*.9.....W *.:.:.<.",
"&.-.y.| R w.w.0.@.p.@.&.w U.R.T.E.R.!.R.Q.Q.U.o.o.m 0 c A.G.D.qXiXsXpXF.b.; ^ a.f._ [ @.{ 9.h.9.@.g.r.=.y.d.0.7.h.(  .) s.) :.l.",
"&.t.a.&.7.W [ 7.7.7.$Xy.2.& % y Y.!.~.W.I.R.O.N 0 & > n.F.iXqXF.iXsXfXfXpXA., e r.@.=.&.@.&..X8.y.7.@.r.>.y.-.*.0.q.X.e.e.k.X.q.",
"! -.y.@.@._ [ P ! ! a.y.a.) ` t Z 9X9X5.S o.N 3 # > l Z.iXpXpXiXtXuXsXfXdXpXm., r t.-.-.7.@.=.s.&.| @.=.[ r.=.-.q.k.X.X.X.x.j.j.",
"y.-.w.p.@.! -.! _ _ _ Q @.@.r.2.t J.5.u < 0 u < ; v.Z.wXpXpXfXsXiXiXiXpXsXsXqXb., p -.y.7.&.&.g.7._ 9.@.r.f.7.*.0.k.X.X.X.j.e.2.",
"y.&.-.f.&.! d.7.f.f.[ W ! ! r._ U 8 * * % @ x z b.A.pXdXpXtXpXfXfXsXiXtXqXqXqXA.k . / ) d.@.@.g.s.| -.7.=.d.=.|  .;.| X.e.e.e.6.",
"@.>.>.-.@.t.XX~ -.t.@.] P R ~ P h.u.| _ U O ; n.F.tXsXdXsXiXpXfXfXfXfXuXD.S.D.D.b.# @ a 7.W ' a.0.*.&.7.{ r.a.-.z.c...#. .| 6.e.",
"t.-.%.d.f.$.@.@.y.y.7.a.[ -._ -.u.f._ _ ` O j qXdXfXsXfXsXpXpXwXpXpXfXpXtXA.j l g 2 1 % p [ _ &.g.s.7.a.7..Xg.s.q.0. .#...*.w.w.",
">.<.f.%.%.%.>.r.-.=.%.[ [ @.@.-.y.>.%.y.( O n.fXgXdXiXF.D.G.wXwXpXsXpXsXsXqXb.s > 4 4 1 @ p &.@.&Xf.>.w.y.f.0.@.*.:.w.:.*.#.@.) ",
"-.$.XX%.+.[ <..Xr.f.t.#.t.R l.:.$.$.-.t.` X Z.dXgXfXqXS.j l n.D.tXiXaXiXpXwXG.v.> 4 4 4 4 # p / 7.:.t.-.d.f.*.[ t.u.+Xf.a.y.7.-.",
"<.i.<.! E #.=.d.#Xf.%.-.@.k.+X<.+.! t.p.` X m.yXsXsXpXD.n.f f j Z.F.wXaXtXiXqXn.f 1 3 3 A J 4 O t w.t.$.f.<.R %.-.! oX#X<.-.-.] ",
"@.p.i.~ %.-.%.y.+X-.0.} ! l.l.;.E %.-.*.T U 8 n.tXiXiXiXiXF.n.f d S.F.wXyXiXqXn.; 1 3 5 J `.L F y = & ` i.%.! -.#.i.+Xi.+.f.R %.",
"oXi.-.-.>.-.y.p.p.] u.:.#.u.c.;.! @.-.@.r..X2.< b.G.qXiXfXgXpXv.O j D.tXiXG.n.s # 1 2 C _.[.[.[.K < x p a :.:.y.=.y.f.=.+.:.E i.",
"@.%.u.u.a.:.+Xr.&.-.p.u.;.:.k.#.<.y.&.d.r.+X7.U < v.A.wXrXpXsXA.: ; m.G.A.b.g # # # 1 A _.`.].].4.b K.c * f.f.u..Xd.>.$.d.-.:.:.",
"@.@Xk.u.%.! ! ] =.-.*.z.q.| | ;.u.t.f.@.,.@.$.%.&.$ v.A.G.G.aXG.b.- l v.d g C C . # # C 4.'.'.'.G x J.c @ f.u.s..X.X] [ -.7.| @.",
"u.f.#.u.0.@.&.-.| 0.6.q.u.c.}  .| w.p.w.-.-.-.p.t.) < l b.D.qXwXA.; X : z K J 4     # 4 S 4.'.'.K x J.c =  .! s.g.{ ( { | 0.| *.",
"k.c.u.s.s.y.y.-.7.*.*.s.k.c.;.q.=.7.p.7.f.%.%.1.@.i...& l D.qXpXF.;   z K 4.F 2 * 7 % 5 K K G G G v J.c @ | *.w.g.( W { ' .. ...",
":.u.0.u.k.} | &Xu.s.*.0.k.c.=Xx.s.g.f.7.-.%.:.%.<.-.1.e ; D.iXdXiXv.X A `._.Z @ 8 g.i 4 C 4 > o < b b t 7  .a.) ' 8.{ 9.{ _ 8.w.",
"c.<.:.:.! u.&Xu.%.w.0.;.q.0.=X-Xk.*.;.;.#.:.:.@.-.y.y.r - n.G.yXrXV.: D [.'.C # = u.6.p . . . . . . o ^ | &.7._ _ r.8.! $Xa.a.=.",
"i.%.u.:.@.y.=X#Xl.q.s.w.s.q.0.q.e.c.q.X.;.*.0.s.%.0.@.| / ; k j j h X C `.J 5 6 # * ` &.` ..` ` ..| ) =.| a.@._ { ! ! a.+Xa.r.=.",
"+.} u.:.:.q.:.@.#Xz.@Xs.*.0.:.0.q.0.;.0.;.} 0.u.%.@.! t.7.e * H L.L.b G L G C Z C 1 9 ` 0.Q @.-.>.=.@._ a.r.&.-.{ W T T +Xf.d.7.",
"} :.z.0.#.;.:.:.:.k.7.k.:.*.*.g.q.k.k.q.q.:.k.! t.! +.+X-._ = }.hX0XL.G _.J J 4.4.S # 9 ..0.w.0.%.$.,.! #X=.8.{ _ [ ( _ _ a.y.-.",
"0.u.:.%.#.| *.u.-.@.*.-.Q *.w.! z.k.*.#.u.} :.:.7.%.<.0.@._ 7 J 0X9X3.G `.[.'._._.J 2   * e.! @.>.t.%.r.t.{ @.@.&.7.@.=.9.=._ _ ",
":.k.;.:.;.:.:.#.#.:.-.P :.s.| *.;.q.*. .*.| y.z.y.y.+X-.-.&.2.a Z Z C J `.`.`.`._.4.5 c x 7 ! -.f.XX>.f.r.@.7.r.9.r.9.! 8.&.[ a.",
"_ u.0.| } #.:.u.*.Q -.0.&Xs.| g.*.! q.%X#X:.y.l.i.! #.a.;.~ 0.U a a 1 4 Z _.].[.[._.C H B.% ) @.t.-.-.=.-.W ~ { { 8.a.=.P &.s..X",
"s.u.u. .:.0.0.y.u.| *.l.-.y.y.@.*.*.*.;.f.y.+.:.@.p.@.f.0.*.s.-.w.s.% X 1 S L 4._.4.u 3.v $ ( -.,.[ r.=.d.9.R @.&.&.d.@.=.8.r.=.",
":.:.f.u.@.q.:.:.| *.#.&.s.-.-.@.*.*. .%.@.%.+.-.y.:.! t.s.*.0.0.-.! % < c u y y 0 u B.K.n . ) %.=.d.>.&.a.-.[ _ ! _ ( W 7._ =.-.",
"#.w.u.:.:.0.-.u.u.<.l.u.f.&.a.-.| Q } *.w.-.-.f.y.-.y.&.7.-.*.u.-.*.= x J.J.v v v v v J.c . _ -.a.t.7.=.7.=._ _ 8.=.{ 9.g.7.7.8.",
"} 0.s.*.@.| :.*.@.;.p.y.#Xy.t.t.#.6.q.#.-.#.y.y.@.R t.y.7.6.| &.&.@.( t x c x x x t < < * ^ @.%.d.[ _ -.-.8.=.9.{ -.@.&.9._ @.-.",
"q.| -.g.w.@.-.0.u.y.z.l.-.-.f.f.7.0.0.:.0.@.:.p.! r.@.&.7.7.@.&.@.@.7.i o $ o o o O . O 7 %.] -.d.! [ -.@.7.@.[ { r.&.a.a.h.9.! ",
"-.-.y.r.u.f.7..X*.0.-.#.*.0.0.y.*.u.q.u.t.:.y.-.[ -.@.d.d.@._ Q @.<.p.-.a.&.*.a.7._ _ z.:.-.f.:.r.[ &.7.&.g.a.@._ r.8.h.9.r.8.=.",
"7.@.7.a.7.g.y.@Xu.:.u.*.*.%.#.P u.-X@X:.! y.f.i.%.r.%.[ d.&.| a.[ ,.p.@.=.&.@.&.R @.y.7.:.W -.<.y.@.@.r.@.-.@.( f.r._ &.{ { =.9.",
"s.7.r.7.7.+Xz.-.:.s.+X:.;.#.:.u.:.f.k.*X+Xy.<.-.@.7..Xr.a.g.g.7.$.%.i.-.,.7.9.9.w.a.+X-.R w.y.u.7.a.{ a.8.7.a.r.=.@._ &._ R W ' ",
"-.0.a.y.a.@.=.=.*.y.y.%.} ;.+.:.t.7.| f.&Xu.y.@.p.&.7.+Xf.7.-.-.>.,.%.>.r.=.{ -.&.*.s.@.7.-.y.%.9.+X7.@._ -.a.@._ _ _ @.9._ 9._ ",
"<.<.oX#.@.@.t.d.%.%.E %.<.} u.:.=.7.y.0.0.s.y..Xf.i.&.0.y.#.Q 0.XX,.,.>.$.=._ [ ,.+.@.%.-.y.w.w.g.f.a.-.&.7._ @.%.>.%.%.@.=.&.) ",
",.:.<.@.! %.[ i.p.1.%.%.+.<.z.:.7.W d.XX7.~ -.$Xf.7.%.s.*.Y y.#.,.OXOX,.a.@.@..Xi.+.$.%.<.+X@.| d.a.f.-.*.y._ @.@.@.p.l.a.a.&._ ",
":.p.d.P &.-.a.r.@X-.:.-.+.+Xk.q.~ $.r.[ R R +X+.y.y.l.y.@.! -.-.,.*X,.$.9.T g.g.0.} R y.y.R R a.y.@.a.f.y.7.~ -.-.r.oXoX~ 8._ 8.",
"#.%.>.@.a.=.{ a.t.W &.@.@.0.| | >.] =.=.[ >.>.%.-.@.t.%.@.@.@.-.1.] +X@.y.{ y.r.Q g.-.y.-.&.h.a.-.t.&.+Xg.&.y.7.0.%.s.@.&.a.&.7.",
"-.#.y.r.a.=.=.=.&.7.f.@.*.0.| &.~ <.$.,.%.p.$.] -.@.@.-.-.! y.7.%.i.r.f.h._ a.8.7.7.@.&.r.s.6.6.<.y.y.-.&.f.a.a.:.z.i.%.@.a.@.w.",
"r.t.$X9.7.{ r.! =.r.7.! &.9.&.9.,.>.>.r.>..XR t.%.>.-.@.7.r.>.f.=.[ -.8.' &.9.7.7.a.-.r.f.8.9._ f.-.z.&.@.+X0.f.@Xf.@.R d.&.9.9.",
"=.[ >..X=.=.{ W a.r.7.-.7.7.6.7.>.%.] ,.<.r.-.y.! y.y.! =.+X@.y.-.T ;X6.a.7.7._ s.g.-.&.@.U u.s.p.f.-.+Xa.-.f.f.-.>.~ -.-.6.| *."
};
