/* XPM */
static char *_b683c0467504c6aa53c975536020a39KLcqQk2F3CMZLatB[] = {
/* columns rows colors chars-per-pixel */
"64 64 231 2 ",
"   c #020102",
".  c #0C0402",
"X  c #0C0B06",
"o  c #0C0C0B",
"O  c #06060B",
"+  c #150B06",
"@  c #0E1507",
"#  c #121305",
"$  c #161908",
"%  c #0A0A12",
"&  c #0B0A1B",
"*  c #040614",
"=  c #120D14",
"-  c #131414",
";  c #181B17",
":  c #0D1017",
">  c #24130C",
",  c #291904",
"<  c #311C07",
"1  c #231617",
"2  c #351B10",
"3  c #381E14",
"4  c #1B240C",
"5  c #1C2B07",
"6  c #1E280E",
"7  c #25250B",
"8  c #382705",
"9  c #24330D",
"0  c #2C3D0D",
"q  c #233407",
"w  c #272815",
"e  c #3D2316",
"r  c #3A2518",
"t  c #2C3D12",
"y  c #283514",
"u  c #333C0F",
"i  c #0C0C23",
"p  c #0D0E2C",
"a  c #110E2A",
"s  c #0D102D",
"d  c #171625",
"f  c #141235",
"g  c #15153C",
"h  c #0C0F37",
"j  c #291F20",
"k  c #262626",
"l  c #382A25",
"z  c #383837",
"x  c #2E2A33",
"c  c #462B03",
"v  c #473206",
"b  c #5A3A01",
"n  c #523601",
"m  c #422314",
"M  c #492919",
"N  c #562D1A",
"B  c #5C331E",
"V  c #443410",
"C  c #673A05",
"Z  c #6A3515",
"A  c #5B3321",
"S  c #433A34",
"D  c #4F3326",
"F  c #6C3C24",
"G  c #633922",
"H  c #713E23",
"J  c #713F28",
"K  c #2D4D02",
"L  c #2C440A",
"P  c #294506",
"I  c #324C0C",
"U  c #314B06",
"Y  c #345405",
"T  c #3A5A05",
"R  c #35540A",
"E  c #3B560B",
"W  c #36590B",
"Q  c #3C5B0D",
"!  c #375705",
"~  c #2E4115",
"^  c #354917",
"/  c #3A5413",
"(  c #3D5C12",
")  c #3C531A",
"_  c #3E5D1A",
"`  c #355310",
"'  c #2E520C",
"]  c #3E610D",
"[  c #3E6214",
"{  c #3E601A",
"}  c #415E0E",
"|  c #425E13",
" . c #425C1B",
".. c #4A5E1B",
"X. c #475C15",
"o. c #525E1C",
"O. c #654201",
"+. c #6A4201",
"@. c #734C00",
"#. c #7D550F",
"$. c #42620E",
"%. c #446314",
"&. c #496517",
"*. c #466915",
"=. c #496B16",
"-. c #45641A",
";. c #4A661B",
":. c #46691A",
">. c #4B6B1C",
",. c #51641D",
"<. c #516D1E",
"1. c #4E711D",
"2. c #4E7114",
"3. c #52721E",
"4. c #547819",
"5. c #475B23",
"6. c #514B2F",
"7. c #754125",
"8. c #794224",
"9. c #7C4529",
"0. c #446321",
"q. c #4A6622",
"w. c #4D6C22",
"e. c #4E6D29",
"r. c #466A20",
"t. c #526D23",
"y. c #5A6D26",
"u. c #536D2A",
"i. c #576828",
"p. c #4E7022",
"a. c #557525",
"s. c #537224",
"d. c #597426",
"f. c #567824",
"g. c #597A26",
"h. c #55742A",
"j. c #5A752B",
"k. c #577829",
"l. c #5B7A2C",
"z. c #5D7C31",
"x. c #567531",
"c. c #5B6F30",
"v. c #62752D",
"b. c #607C2E",
"n. c #627D32",
"m. c #637835",
"M. c #606F2A",
"N. c #1A1A4D",
"B. c #171746",
"V. c #1C1C54",
"C. c #1C1D5B",
"Z. c #211E5B",
"A. c #231C45",
"S. c #1E205D",
"D. c #2F2953",
"F. c #191D6C",
"G. c #221F62",
"H. c #1F2167",
"J. c #222264",
"K. c #24246C",
"L. c #252572",
"P. c #2A2A7D",
"I. c #272778",
"U. c #342C65",
"Y. c #464546",
"T. c #504C4D",
"R. c #7C644A",
"E. c #865703",
"W. c #94581C",
"Q. c #9D6900",
"!. c #956302",
"~. c #A36D01",
"^. c #A36101",
"/. c #AB7201",
"(. c #A47100",
"). c #B57900",
"_. c #BB7D01",
"`. c #B27601",
"'. c #B07A1A",
"]. c #844A2C",
"[. c #874A2B",
"{. c #8E512F",
"}. c #945332",
"|. c #9B5733",
" X c #98542F",
".X c #A35B36",
"XX c #C07F01",
"oX c #CA693F",
"OX c #8E6948",
"+X c #A05E43",
"@X c #5E812E",
"#X c #5E8132",
"$X c #62822D",
"%X c #65882A",
"&X c #638234",
"*X c #66853A",
"=X c #6A863A",
"-X c #6C893D",
";X c #688737",
":X c #72833C",
">X c #759243",
",X c #708B44",
"<X c #BF8000",
"1X c #C58301",
"2X c #C98501",
"3X c #CD8901",
"4X c #D48E00",
"5X c #DB9201",
"6X c #E29601",
"7X c #E39900",
"8X c #EC9D00",
"9X c #F8A501",
"0X c #EEA000",
"qX c #B6875B",
"wX c #C58259",
"eX c #C6A073",
"rX c #2B2B84",
"tX c #2E2E8C",
"yX c #262680",
"uX c #302D8B",
"iX c #2F2F91",
"pX c #322F93",
"aX c #2F3293",
"sX c #313195",
"dX c #34339B",
"fX c #2D308F",
"gX c #3636A3",
"hX c #3836A3",
"jX c #3738A8",
"kX c #3B3CB4",
"lX c #FFCD8C",
/* pixels */
"| u.d.w.| ..j.>.,.w.;Xj.l.-.a.>.X.o.;.&.;.s.>.g.%.*.%.[ *.>.%.%.>.>.%.%.w.*.-.*.w.p.w.*.%.>.w.k.*.>.%.:.>.h.( ;.-.-.;.w.w.h.e.e.",
"t.;.t.y.>.>.| >.<.u.l.l.s.>.&Xl.w.w.u.;.<.&.=.l.*.>.=.f.1.*.[ >.>.s.:.*.>.w.h.{ p.>.>.>.[ / l.w.[ ( ( w.-.e. .( ( q._ ( e.e.x.-.",
"w.;.u.b.d.j.t.b.b.<.<.>.%.>.a.j.( >.n.j.j.s.>.>.1.>.%.>.>.s.p.*.*.s.*.( :.p.w.-.*.p.>.1.*.( :.-.r.( -.w.w.h.u.( K  .| 0.0.0.0._ ",
"i.;.t.j.t.j.b.n.;.;.<.s.>.=.>.! l.:Xd.<.%.>.&X3.%.>.1.>.%.p.a.h.>.p.p.w.h.h.-.*.[ p.*.*.*.[ ( [ w.[ -.w.;.w.s.( R _ ( e.e.0._ { ",
"t.<.;.t.t.d.b.d.s.v.b.&.} =.>.%.y.n.-Xn.3.s.1.s.1.*.1.f.1.p.k.k.f.>.:.:.e.:.-.w.] s.1.=.Q W { h.w.w.w.s.w.w.j.t.t.-.I ( ( ' _ e.",
"s.<.3.s.<.<.d.=.>.4.b.=.&.>.} <.d.<.| ;X>Xl.*.=.>.] =.p.p.:.s.p.1.>.%.w.;.{ w.;.g.g.1.1.Q ( %.;.%.p.*.1.>.s.>.f.p.w.p.w.;.W ( ( ",
">.f.j.<.=.=.<.<.&.<.} &.=.} <.<.<.<.g.&.>.$X3.@X1.>.f.f.s.s.k.s.%.=.>.w.-.w.z.{ >.] =.1.s.s.h.0.>.@Xh.p.s.&X>.>.w.s.k.-.;.{ -.R ",
"=.f.g.} $.&.>.b.3.3.} <.<.&.b.<.&.%.<.l.s.$.3.@X1.:.:.[ p.p.>.[ 1.1.:.[ ( r.l.w.=.*.f.g.1.%.;.0.3.g.f.=.3.g.T T *.3.l.l.p.s.w.( ",
">.f.f.! ] >.&.a.:X&.f.&.} n.b.t.] $.g.3.T T g.3.p.p.s.>.1.[ :.f.g.p.1.[ *.e.s.s.>.%.=.=.<.%.;.e.l.=.f.3.f.<.T =.%.=.b.$X<.;.%.>.",
"n.l.w.-.;.w.;.z.=.=.l.X.>.s.w.z.[ [ ] *.T %Xg.Q f.p.p.>.:.[ [ :.f.] g.w.>.( l.w.( j.l.w.;.q.,Xz.>.k.1.z.z.-.>.>.2.*.4.$.t.j.q.w.",
"j.w.w.u.j.e.s.h.l.Q >.%.p.m.h.) *.:.2.=.k.;X@Xs.Q *.:.p.p.W [ 4.3.1.;X%.j.Y s.>.;.w.;.-.u.u.q.;.=.p.p.e.w.u.h.a.*.b.$X*.Q t.;.u.",
"Q %.w.w.l.z.*X0.Q ;.w.%.>.e.q.w.k.1.1.*.3.3.=.=.>.e.[ [ r.:.p.g.*.%.>.f.-.;.>.p.w.z.X.t.x.u.t./ f.g.s.s.( n.s.h.;Xg.=.$.j.w.X.u.",
">.j.%.-.( z.,Xw.%.%.>.;./ 0.x.e.*.l.f.=.4.=.| s.-.>.h.%.*.@X>.p.*.Q &X;.a.%.:. .u.l.%.t.>.| t.t.@X=.@Xs.w.h.j.&Xg.s.T %.;.w.X.q.",
"g.>.R P -.( *X&Xl.<.%.-.( ;.^ , < , 8 , , , 7  .$ & p O q 0._ 5.` h.-Xl.z.l.>.w.>.Q l.z.h.q.| t.g.1.>.@X-.>.e.h.g.s.%.s.;.t.u.u.",
"l.>.K ( ( R W ;.w.l.w.%._ t 8 `.1X_.2X1X_./.@.# + D.rXB.: X o X X ~ >.>.l.%.k.s.;.Q a.-.( -.j.j.1.=.s.p.-.R >.;.&Xs.t.w.w.;.e.5.",
">.%.$.h.;.;.( -.>.>.s.h.4 8 ~.0X9X9X9X8X6X4X`.@.b M D.uXL.H.H.V.g & q t.a.%.l.a.[ h.t.p.%.;.-Xs.] >.>.f.%.>.s.>.j.-Xz.w.;.j.q.-.",
"l.%.%.s.( w.e.a.>.z.z.s.+ +.7X9X9X7X4XXX3X3X_./.E.v r dXjXaXfXP.H.f : 9 ;.>.-.>.>.p.%.l.a.>.>.%.W *.2.p.| >.>.;.s.s.e.-.*Xu.-.e.",
">.=.j.s.;.t.( R %.h.z.>., +.6X0X5X1X/.Q./._.).~.!.O.r U.rXL.J.S.S.C.g * q ( l.-.%.p.l.*X@Xp.Q %.%.1.p.*.%.&Xs.s.( -.x.n.=Xt.X./ ",
"T >.s.s.( >.;.p.%.e.l.h.# b 3X5X3X`.~.~.~.~.~.~.(.@.c e D.F.N.B.B.B.B.B.- t >.%.[ f.z.k.k.z.k.e.>.>.*.Q <.3.h.w.s.x.h.h.c.n.t.;.",
"%.<.k.>.-.-.>.>.( K E w., C 5X0X7X6X5X2X_./.Q.~.(.#.n c D.yXC.f f f h B.{.G y %.w.k.k.w.w.>.s.%.*.p.*.%.k.%.h.>.w.u.h.q.h.h.| / ",
"w.h.;.w.| w.;.h.>.%.>.R , O.5X0X7X7X8X5X1X)./.~.~.E.v c D.rXP.N.f * = A oXH + w.p.k.:.[ [ ( w.:.Q l.p.s.s.*.s.t.( u.z.0.t.q.| | ",
"j.s.w.>.h.-. .( ! %.q.K , b 2X5X2X2X4X4X1X_.`.~.Q.@.c 8 x I.iXrXJ.h > Z Z e q ;.R s.w.w.p.r.r.-.-.l.f.k.3.>.>.z.x.e.0.0.u.;.&.&X",
"Q p.t.z.w.t.-.h.>.R >.>., C 3X5X1X_._.1X<X`./.Q.E.@.n 8 N.L.P.tXtXtXG.= X 9  .:.p.k.:.w.:.{ :.e.-.:.-.>.j.>.Q w.q.n.n.e.} t.l.-X",
"l.w.-./ -.j.h.w.>.Q %.%., O.3X4X)././.~./.~.~.E.@.b n 8 Z.I.I.P.uXgXpXF.h - ~ z.z.-.{ w.r.r.0.h.r.p.w.w.&Xg.>.>.e.0. .R ..<.3.<.",
"-.>.s.-.Y u.w.t.( j.%.-.u 8 O.+.E.^.^.Q.Q.Q.Q.#.b c 8 w K.rXrXuXiXdXjXjXuXC.d ~ l.( [ { { r.x.0.-.z.s.-.s.k.s.w.x.I X./ j.} ,.b.",
"%.a.s.-.w.R %.w.p.t.;Xs.z.~ $ @ m W.'.'.#.E.E.b 8 < 1 N.K.rXsXhXsXsXdXjXhXdXJ.& ~ Q >.;.-.-.#Xh.s.w.%.p.1.s.>.;.i.y.o.i.i.m.o.i.",
"( >.t.%.-.Q %.K W ( h.p.h.>.q.e.1 6.qXOXD V b 8 > o f L.P.rXiXhXgXdXsXhXgXgXtXS.% ~ ;.>.>.-.;.h.-.| { *.[ 1.*.;.y.v.,.o.o.m.c.c.",
"p.>.t.l.%.Q >.T %.Q E ( %.%.s.s.I y l r = + 7 r - g H.tXtXtXsXhXhXhXsXsXsXdXdXI.f X 9 s.w.-.:.k.w.Q :.-.p.l.e.>.,.v.,.o.o.c.i.5.",
"s.-.>.z.*.Q j.p.l.z.[ ! Q Q w.( R 5.y 9 9 $ = d N.L.dXdXdXiXiXdXdXjXjXsXrXrXI.N.a O 4 [ h.[ ;.@Xj.| q.w.:.k.>.( X.,.} o.i.i.i.q.",
"%.3.>.>.%.s.l.W *.s.-.( K Y ! Y j.l.-.%.-.~   h L.hXhXjXjXhXpXiXdXgXhXgXfXL.V.a i * @ ) e.W ( e.t.>.-.e.{ p.h.>.m.M.X.;...| q.i.",
"a.>.*.g.l.>.*.*.s.s.p.s.[ >.( >.h.n.( Q w.t * C.hXkXgXhXhXdXsXiXfXdXjXjXhXiXL.V.f % . # ) %.Q ;.z.j.>.h.p.z.z.j.y.y.X.;...;.u.u.",
"1.3.@X*.*.*.>.p.>.>.*.%.[ %.%.>.3.<.>.3.>.0 & P.kXkXdXrXJ.C.K.yXfXdXdXsXhXdXP.J.g 1 2 > @ ^ ;.-.-Xl.1.t.s.l.p.%.-.t.u.>.;.&.%./ ",
">.*.@X*.%.%.1.@X1.@Xa.&.3.Y b.<.&.*.s.s.1.y i rXkXjXsXP.V.f a B.L.rXaXaXsXaXtXK.g j M 3 2 > 9 t h.>.h.>.s.l.>.| a.k.;Xl.h.s.w.>.",
"3.f.3.] ! *.=.l.;Xj.>.>.%.v.;Xd.$.T s.l.:.5 ; V.sXdXsXsXP.N.& & B.L.P.rXtXpXaXP.B.1 3 m F M # X ) u.l.=.g.3.Y =.<.Q #X&X1.=.>.] ",
"%.l.3.T %.1.*.s.&X>.s.} E b.b.&.T *.=.*.W [ 5.- V.uXsXgXgXtXB.O d V.H.P.tXaXtXK.a > , m [.8.l x $ 0 <.g.f.<.Q >.%.f.$Xg.$.g.! =.",
"$Xf.>.>.s.=.s.j.k.] d.<.;.y.d.,.Q %.>.%.1.@X*X` ; B.rXdXjXjXL.O O & g I.aXrXC.g 1 > > m [.Z D Y.; L 3.b.<.3.<.s.&.s.l.>.%.>.Q f.",
"$.,.3.d.a.>.&X3.%.>.l.s.,.<.v.X.s.s.%.k.3.$Xp.>.4 p I.rXsXdXJ.O y # i G.J.N.p 1 N 3 + 2 7.B l Y.1 t >.2.} b.l.j.;Xk.p.[ g.>.>.<.",
"%.;Xj.d.>.Q Q [ *.w.;.n.d.X.X.<.s.a.l.%.1.*.*.%.4 i S.I.rXrXN.o ` / o p p i 3 A H m + > N A l z w / s.>.&.b.s.j.z.#X[ ( >.w.X.| ",
"d.j.&.d.t.%.%.w.| >.w.y.d.M.X...%.u.k.s.>.>.>.a.4 % B.L.P.iXH.o ` E ) O a l F ].H 2 . + < S z o  .>.s.z.d.X.X.j.k.:.W :.| t.X.;.",
"v.v.d.b.j.s.s.;.t.;.>.j.v.y.,.y.-.w.l.t.g.%.=.3.Q 9 & L.tXgXI.% ) ;. .O M 9.{.].G 2     , S x . _ -.p.h.%.} ;.i.z.` ' { _ ;.../ ",
"<.d.d.d.v.} X.-Xd.j.>.i.v.y.:Xm.h.z.l.w.>.>.2.*.3.0 % K.sXkXyX% ) g.L + F |.[.9.J 2     + > ; L [ 1.w.s.E X.h. ._ e.{ r._ ( e.u.",
"g.d.<.=.Q d.-Xs.;.d.w.,.d.i.:X>Xv.q.,.,.&.<.<.&.>.^ - g F.I.C.O ) p.L X J .X}.].9.m X .     6 w.%.] s.p.-.;.w.W ( e.p.( *Xh.s.>.",
"3.&.3.<.} d.-X=Xv.s.j.u.j.s.<.y.i.M.y.,.;.,.t.j.>.>.L o i x i o / /  .$ A .X.X{.9.B m 2 .   4 5.4.f.=.p.%.s.[ ( { / W p.*Xh.p.:.",
"X.} v.<.<.y.<.%.;Xn.;Xj.&.i.<.<.y.,.,.y.<.E t.d.>.%.U # R.eXOX# L u.w.5.< F }.[.9.G M N m , + $ { *.*.Q s.h.>.-.{ W ' Y #Xl.k.w.",
"} <.n.<.&.;.<.<.<.v.w.v.,.;.;.l.y.j.v.y.y.<.v.} a.} L + qXlXwX+ ) ;.w.j.) r A 9.H N N A B B M $ 5 q ^ Q *X:.w.-.( ( ( ( ( p.s.w.",
"t.d.;.<.&.&.;.d.>.%.;.>.R >.s.Q m.b.,.&.d.} ;.t.>.;.0.7 9.oX].7 5.j.X.>.>.0 , B J 9.8.F A F 7.B 2 . @ / h.[ -.{ ;.r.%.:.r.>.( ( ",
"t.b.;.<.<.<.<.&.;.<.>.K i.j.| ;.,.y.,.X.;.| s.n.a.f.&XX.4 # w / %.t.&.b.X.-.5.> F }.|.{.7.7.9.9.8.m . @ ^ ;.w.e.0.p.w.` p.-.( h.",
"} d.y.| E &.<.y.;.! >.s.-Xj.| z.;.} t.=X=Xt.s.b.h.T ;.j. .L ..| t.u.| Q %.*X;X) , e 7.}.}.|.}.{.].M r x 4 W W -.{ w.h.:.K -.h.*X",
"j.d.d.%.<.t.t.t.j.} ;.b.>.s.s.%.>.;...>.j.d.$.>.%.l.%.l.w.>.y.;.t.j.Q ,.w.} j.-.I $ > M [..X.X.X}.N l Y.- >.Y -.-.:.h.-.:.w.p.:.",
"i.>.v.d.&.s.<.<.| ;.&.&.j.>.>.%.;.>.X.>.| >.%.>.s.<.E f.j.>.t.u.>.| | ;.| u.w.e.-.5   . m H H ].J N S Y.- w.( ( W ( ` R e.Q ;.w.",
"X.u.d.<.<.<.<.s.d.d.l.s.l.%.h.>.| Q } ;.<.>.1.l.s.>.s.%.w.>.;.s.t.>.t.k.w.j.h.p.a.q o x r m r e e z T.S o w.( ( e.:.( r.z.>.w.p.",
"} <.j.>.X.| t.;.%.;.j.a.;Xs.s.k.X.<.y.%.>.;.s.3.%.Y a.a.w.>.| -.%.;.w.h.h.j.u.s.z.5 - S Y.Y.z z z z Y.z o e.;.r.%.w.-.-.r.( -.r.",
"j.| >.z.s.&.>.<.d.s.b.b.>.>.l.l.>.w.y.<.<.%.3.j.Q w.%.;.w.w. .;.%.%.s.f.h.e.e.z.z./ w d k k k k k ; ; - 9 w.-.( [ h.:.h.h.z.r.` ",
">.>.p.s.h.j.t.z.;.u.>.&.;.s.t.s.;.d.d.u.a.>.s.>.%.>.%.l.h.-.| W &.>.g.>.s.-.*.s.w./ P $ o o @ o X X X @ ^ l.h.[ ( e.w.x.0.p.w.;.",
"w.%.w.s.w.z.s.;Xd.<.d.&.;.>.&.K d.>X;X<.} s.b.f.*.p.*.[ k.;.[ h.] 1.g.*.*.;.-.;.Y -.a.w.>.E <.t.s.;.{ p.-.*.;.( k.e.( { _ [ r.r.",
"j.w.e.w.w.&X&X>.<.j.&X<.,.&.<.d.<.v.b.=X&Xs.>.3.%.p.@Xp.p.z.z.w.*.=.f.>.>.w.:.r.t.h.m.>.Y t.3.f.u.s.%.h.>.e.s.p.*.-.( ;.( Y / _ ",
">.s.h.s.s.-.>.>.>.<.t.=.| &.&.<.a.w.| l.=Xl.s.%.j.>.>.;Xj.w.-.w.2.2.2.1.p.:.%.:.;.;.l.%.>.>.s.>.-.*Xw.-.( >.s.%.[ ( ( -.>.( -.( ",
"3.<.$X&.%.*.s.k.2.=.T 2.3.} 3.<.;.w.s.w.t.j.s.z.j.s.-.>.a.&.Q <.@X2.2.1.[ >.( -.=.$.%.=.>.s.u.t.z.l.s.>.-.s.( %.*.>.*.*.-.-.{ ( ",
"=.3.3.%.Q *.*.p.g.3.=.=.$.<.n.3.>.W k.l.w.R >.&Xl.p.>.j.&.K <.;.2.%X%X1.p.-.-.#Xf.$.*.$.3.&X%.%.h.h.l.>.-.s.Q -.=.*.g.$Xh.h.-._ ",
"<.g.k.K :.>.s.s.;X>.>.>.X.;Xv.y.W [ f.[ ! ! &X] s.s.b.s.%.} >.>.2.%X2.>.:.K z.z.s.| ! s.s.Y R u.w.*.h.l.s.w.W >.>.>.$Xn.T w.( e.",
"*.=.>.%.h.:.[ e.s.R =.%.$.u.} %.:.] 1.>.%.1.p.*.>.%.f.=.-.%.%.>.@X] &X-.h.{ p.p.T n.>.s.>.0.x.s.>.a.%.&Xz.-.s.w.>.>.a.%.-.h.-.;.",
">.=.s.s.h.:.:.r.-.w.l.-.;.t.|  .! 3.*.2.*.g.*.] 1.%.Q >.*.Q s.s.*.s.p.k.x.( s.e.w.t.%.-.t.h.w.w.s.f.s.w.;.h.h.h.<.n.f.>.;.h.-.u.",
"p.p.&Xw.p.{ p.W *.p.w.W -.r.;.0.=.4.1.p.1.$XY f.*.p.>.*.p.p.1.l.*.] w.p.( 5.w.w.e.s.>.e.j.e.w./ b.>.n.%.-.&Xs.l.;Xl.%.R h.;.-.0.",
":.:.:.#X:.r.[ / h.p.>.>.e.w.;.e.1.=.] 2.p.p.2.s.( s.p.Q *.&X-.s.>.K ,Xr.h.w.w._ j.z.;.%.-.R h.h.g.l.>.&Xs.>.l.j.3.>.T *.>.;.-.q."
};
