/* XPM */
static char *_e51b4c395dd4c1ab2949d8292b70914BJI0i9oBUILMIt0h[] = {
/* columns rows colors chars-per-pixel */
"64 64 234 2 ",
"   c #020102",
".  c #0A0602",
"X  c #0C0B04",
"o  c #080809",
"O  c #130C03",
"+  c #1A0E09",
"@  c #140C08",
"#  c #0E1507",
"$  c #181909",
"%  c #090817",
"&  c #140E17",
"*  c #161716",
"=  c #0E101D",
"-  c #24130B",
";  c #2B190C",
":  c #271705",
">  c #33170C",
",  c #261B15",
"<  c #361D12",
"1  c #1A240A",
"2  c #1F3005",
"3  c #1C2711",
"4  c #252809",
"5  c #27380C",
"6  c #282618",
"7  c #3D2313",
"8  c #2C3C13",
"9  c #293712",
"0  c #35320E",
"q  c #0D0C23",
"w  c #0A0C2B",
"e  c #13112C",
"r  c #181425",
"t  c #0B0E36",
"y  c #0E103D",
"u  c #121233",
"i  c #14143B",
"p  c #191A37",
"a  c #110F28",
"s  c #2C2B2B",
"d  c #272523",
"f  c #342A28",
"g  c #39342E",
"h  c #383738",
"j  c #332935",
"k  c #261920",
"l  c #411C0C",
"z  c #563803",
"x  c #432414",
"c  c #492919",
"v  c #532D1B",
"b  c #562C14",
"n  c #5B331D",
"m  c #493001",
"M  c #64361D",
"N  c #633B00",
"B  c #473625",
"V  c #583523",
"C  c #532D22",
"Z  c #613621",
"A  c #663821",
"S  c #6B3B23",
"D  c #723F24",
"F  c #2D4C02",
"G  c #2B4408",
"H  c #314C08",
"J  c #2E5106",
"K  c #335305",
"L  c #365904",
"P  c #35550A",
"I  c #3A550C",
"U  c #3B5B0D",
"Y  c #385908",
"T  c #354A14",
"R  c #344815",
"E  c #3B5414",
"W  c #3D5C12",
"Q  c #3D541A",
"!  c #3F5E19",
"~  c #355310",
"^  c #3E610D",
"/  c #3E6214",
"(  c #3E611A",
")  c #415E0E",
"_  c #425D13",
"`  c #415C1C",
"'  c #465A1A",
"]  c #525E1C",
"[  c #754D02",
"{  c #7C5100",
"}  c #6D4A0E",
"|  c #41620E",
" . c #436314",
".. c #496517",
"X. c #466815",
"o. c #496B16",
"O. c #45641A",
"+. c #4A661B",
"@. c #46691A",
"#. c #4B6B1C",
"$. c #52631D",
"%. c #516D1E",
"&. c #4E711D",
"*. c #4E7114",
"=. c #52721E",
"-. c #547819",
";. c #445A23",
":. c #564B30",
">. c #794226",
",. c #794328",
"<. c #6C4935",
"1. c #73573D",
"2. c #6F4C32",
"3. c #4A6623",
"4. c #4D6C22",
"5. c #486824",
"6. c #526D23",
"7. c #5A6C26",
"8. c #536D2A",
"9. c #566727",
"0. c #4F7023",
"q. c #557525",
"w. c #537224",
"e. c #597426",
"r. c #577825",
"t. c #597A25",
"y. c #557429",
"u. c #5A752B",
"i. c #567829",
"p. c #5B7A2C",
"a. c #5D7C31",
"s. c #5B7A35",
"d. c #5B6F30",
"f. c #607C2E",
"g. c #62752E",
"h. c #627D32",
"j. c #637735",
"k. c #606F2A",
"l. c #1A194D",
"z. c #171947",
"x. c #1C1C54",
"c. c #1E1E5B",
"v. c #171650",
"b. c #0D1347",
"n. c #1E205D",
"m. c #292849",
"M. c #23235C",
"N. c #201F61",
"B. c #1F2061",
"V. c #222163",
"C. c #24246B",
"Z. c #282672",
"A. c #26287A",
"S. c #2A2A7D",
"D. c #262676",
"F. c #322C72",
"G. c #463952",
"H. c #474848",
"J. c #585858",
"K. c #534750",
"L. c #795F45",
"P. c #614F41",
"I. c #706151",
"U. c #646565",
"Y. c #7E707D",
"T. c #504776",
"R. c #855700",
"E. c #825B10",
"W. c #946200",
"Q. c #9B6601",
"!. c #A56D02",
"~. c #BC7D00",
"^. c #B47801",
"/. c #AB7200",
"(. c #82492C",
"). c #874A2C",
"_. c #94512E",
"`. c #8B5633",
"'. c #955331",
"]. c #9B5732",
"[. c #8C552D",
"{. c #A55C35",
"}. c #A55B37",
"|. c #926D35",
" X c #AE6138",
".X c #B16D39",
"XX c #C07E03",
"oX c #917151",
"OX c #A77747",
"+X c #A87C55",
"@X c #97777C",
"#X c #5E8132",
"$X c #5E802C",
"%X c #62822D",
"&X c #65882A",
"*X c #638334",
"=X c #65843A",
"-X c #6A863A",
";X c #6B8A3D",
":X c #698837",
">X c #72833C",
",X c #759243",
"<X c #708B44",
"1X c #BD8001",
"2X c #C58301",
"3X c #CD8900",
"4X c #C98700",
"5X c #D38D01",
"6X c #DC9301",
"7X c #E99B01",
"8X c #F49F03",
"9X c #F6A400",
"0X c #EFA100",
"qX c #B58C66",
"wX c #C0966A",
"eX c #C89F73",
"rX c #CFA476",
"tX c #2B2C84",
"yX c #2D2E8B",
"uX c #2D308A",
"iX c #312F91",
"pX c #313294",
"aX c #33339A",
"sX c #302F90",
"dX c #3536A3",
"fX c #3936AA",
"gX c #3939AC",
"hX c #3737A6",
"jX c #3B3CB4",
"kX c #DDB185",
"lX c #E6B88A",
"zX c #E7B689",
"xX c #F5C896",
"cX c #F0C290",
/* pixels */
"_ 8.e.6._ +.u.+.6.6.:Xp.p...y.#._ $.+...+.e.#.t. .X. . . .#. . .4.X. .O.#.X. .@.4.w.4.X. .@.4.i.X.+. .@.+.y.! O.O.O.O.3.5.y.8.5.",
"6.+.6.8.+.#._ #.$.6.p.p.6.#.*Xp.6.%.8.+.#...#.p.X.o.#.w.&.o.^ &.@.w.X.X.4.4.y.( 0.@.5.#./ U p.0. .W W 5.O.8. .W W 3.! W 8.8.s.( ",
"6.$.7.f.e.e.%.f.h.#.%.#. .#.q.p.U 3.h.u.i.e.o.o.&.#. .#.#.w.#.o.@.w.X.W @.4.4. .o.#.#.&.o.W @. .X.! O.0.4.y.8.W F O.! O.5.5.5.! ",
"6.+.#.u.8.u.f.*X#.+.%.w.#.#.o.K u.>Xi.%...#.*X4. .#.&.&. .&.i.y.#.w.0.4.i.y.O.@. .=.X.X. ./ ! W 4./ O.4...4.e.U P Q W 8.5.( ! ( ",
"6.4.+.6.6.e.f.u.e.g.f...) ..o. .7.*X-Xh.=.w.#.w.&.X.&.q.&.0.y.i.r.#.o.5.8.@.O.4.^ w.&.o.U P O.y.4.4.4.w.4.4.i.8.8.O.H W W P ! 5.",
"w.6.=.q.%.%.=.$.o.-.f.o.X.%.) %.e.%._ :X,Xp.o.o.@.^ X.q.0.@.y.0.&.#./ 4.O.( 4.O.r.i.&.&.U W ( O. .0.@.#.#.w.#.q.0.4.0.4.O.~ W W ",
"#.e.t.#.o...%.%...%.) ..o.) %.%.#.%.t...o.*X=.$X&.&.w.r.q.0.i.w.^ &.+.0.O.4.a.O.&.| X.=.w.q.y.@.#.#Xi.&.w.:X .o.#.w.i...O.O.O.P ",
"o.q.t.)  .X.*.p.e.=.) %.%...f.%.$. .%.t.w. .-.$X&.X.@./ &.0.4./ &.&.@./ W 5.i.4.o.X.r.t.#. .3.3.&.t.r.o.=.t.Y | X.&.$Xp.0.y.5.W ",
"#.q.w.Y | +.o.w.>XX.e.o.) h.f.%.^ | t.=.L L t.q.&.0.q.@.&./ &.q.t.=.#. .O.0.4.w.#. .o.o.4. .O.4.t.o.r.w.q.=.L o.X.o.f.&X#.+. .4.",
"$Xp.4.O.+.4.+.a.+.o.p._ +.e.4.a.^ / ^ X.Y :Xt.U i.0.0.@.5.^ / @.r.^ q.0.4.W a.4.U u.u.6.+.3.<Xs.#.i.&.s.a.O.+.4.%.| t.| =.u.+.3.",
"p.4.4.8.u.4.e.y.p.U #. .8.s.8.! / &.#.o.t.:Xt.q./ X.@.0.&.L @.&.w.#.:X .p.J w.4.+.4.+.O.8.8.3.+.@.w.0.4.4.6.y.y.o.$X%X| ) 6.+.8.",
"U  .4.4.a.a.=X3.U +.#...4.4.5.4.i.&.&.X.-.&.o.o.#.4./ / 0.( &.q.o. .o.q.....4.4.4.a.' 6.u.8.6.E r.r.w.y.W h.w.u.:Xt.o.| e.6.` 8.",
"o.p. .O.W h.<X5. . .#.X.U ` ;.Q 4           a q 3 ! y.O.O.#X@.q.X.U *X .i. .+. .y.p. .4.+._ 6.6.&Xo.$Xy.4.y.a.h.p.=.L  .+.#.' 4.",
"p.+.L 5 O.W =X#Xp.4...' W Q $ @ O . . . . r tXpXz.1 ! U U a.0.y.| *X;Xp.a.p.4.#.#.U p.a.y.4._ 4.r.&.#.a.O.@.4.y.t.w.+.w.+.6.8.8.",
"t.+.F / W P U ..6.p.#...H 1 { Q.Q.Q.Q.!.W.} m.aXtXu $ Q 0.y.+.W / w.+.w.p. .p.w...W e...W O.u.u.&.X.0.&.X.P #.+.%Xw.4.4.4.O.8.;.",
"#.X. .q.O.O./ O.+.4.e.8 4 } 3X9X9X8X7X5X!.[ } m.tXC.w 3 9 5 w.4.p.X.#.#.w. .p.q./ y.4.0. .+.;Xy.^ #.&.q. .+.e.4.y.;Xa.6.+.u.3.O.",
"p.X. .q.W 4.4.y.+.a.a.O m ~.6X9X9X9X6XQ.} [.OX:.p C.C.f B g ;.+.0.+.h. .4.4.@.+.#.0.O.p.y.o.#. .L X.&.0.W #.#.+.w.y.8.O.=Xy.O.4.",
"o...y.6.+.6.W P O.y.a.X z 4X6X7X9X8X6XW.[.eXeX:.- m.F.@XkXqX1 3.w. .+.4.U  .p.X. .0.p.=X#X0.U X. .&.w.X. .:Xw.w. ._ d.#X=Xw._ E ",
"I +.q.e.W 4.o.6. .0.$XO z 2X4X6X0X8XXX[ |.cXcXqXoX1.m.T.Y.P.o ;. .U  . . .w.#.O.^ q.p.i.i.p.i.0.#.o.X.L #.w.y.4.4.y.d.8.s.h.8.O.",
" .=.i.#.O.O.@.4._ F U O z ^.~.2X7X7X~.[ oXkXcXkXlXrXoXM.w # # Q #. .i. . .w.0.X.0.i.p.4.0.+.y./ X.0.o. .t. .y.+.4.y.y.5.6.e._ E ",
"4.i.+.4._ 4.+.y.#. .#.O m ^.2X~.5X7X3XR.qXrXcXxXxXcXwX:.= & O ` o...p.y.w.i.p.w.0.i.@./ / ^ 4.@.W i.0.q.&.o.w.w.W y.s.3.8.+._ _ ",
"p.q.4.+.y.O. .E I ^ @.O z 4X6X2X2X7X5XW.|.rXrXwXrXzXwX:.m.c.% H  .w.i.p.*Xy.4.@.P w.4.4.4.4.5.( O.a.q.p.w.#.#.a.s.3.3.5.8.+.+.*X",
"U 4.4.s.3.4...y.4.I o.: N 3X7X2X~.4X2X!.E.|.qXv L.zXeX:.M.yXx.* H 6.q.t.y.+.O.@.0.i.@.4.@./ 5.0.O.O. .@.i.#.) 4.O.I.j.5.) 6.p.;X",
"p.#...E O.s.y.4.X._  .0 0 R.3X2X^.XX1X~.Q.R.} 2.oXwXI.j M.pXpXu # T e.p.@.w.i.a.a.O.! 4.5.( 5.8.4.0.4.4.*Xt.+.+.5./ ` P +.%.%.%.",
"..+.y.O.K 8.6.6./ i. .O.R 4 R./.^.~.~.1X!.[ } wXwX<.f p v.S.aXC.q # Q u.w.#X8.p.p.W / ( O.5.y.3.O.a.0...w.i.w.4.i.~ ' E u.E %.f.",
"..y.w.O.4.P _ 0.4.0.=X6.s.H + [ /.W.R.W.z ; `.OX1.B h p y x.S.aXC.a # T ! o.X. .w. .@.+.O./ s.y.w.4. .0.&.w.4.+.%.i.] 9.7.g.9.9.",
" .#.0. . .W / F W U q.w.y.4.Q 4 > : : : O   7 B 2.<.m.c.V.c.c.pXhXtXV.* 1 5 0.t.=.i.4.#.4./ @.y.O._  .X./ &.X.+.7.g.] ] ] j.9.d.",
"&.+.4.p. .U #.U W U I U  . .8.T #   o q u i i z.H.K.n.A.sXA.c.V.pXjXdXC.w o 8 +./ o.0.w.4.O.@.a.4.W 5.O.0.i.0.+.%.g.$.] ] k.9.3.",
"w...#.a.o.U i.0.p.p./ P U W #.W 2 o i n.S.uXtXtXA.D.tXyXpXaXtXv.V.dXgXjXC.q o 5 H G *X_ y./  .a.y._ 4.4.@.i.#._ ' $.) ] 9.9.9.3.",
" .0.#.#. .w.p.Y #.y. .^ J F Y K R % c.tXaXdXfXdXdXaXyXyXpXhXpXB.x.tXaXgXyXl.e + + 9 _ 4.4.Y ( y.6.+.O.4.( 0.0.4.h.k.' ..;.' 3.9.",
"q.@.o.i.p.X.O. .w.w.0.w./ #.U #.8 % C.aXhXhXfXhXdXpXsXyXpXpXaXsXC.l.B.uXyXx.e v >.v 4 $ T  .U O.g.i.4.y.0.a.a.u.e.7.]  .` +.9.8.",
"&.=.$Xo.X.o.&.&.&.o. . ./  . .#.8 % Z.gXhXpXuXdXaXsXsXaXaXpXaXtXD.V.V.c.x.b.r (. X_.n c 6 R 5...;Xp.0.6.w.p.4. .+.%.8.%.+... .U ",
"*.X.$XX.| / w.$X&.p.q...=.K f.%.5 % Z.jXfXtXS.uXpXyXyXpXhXgXaXS.S.pXS.x.i y r 1. X}. X}.M ; T 6.p.0.q.#.q.p.#._ q.e.*Xp.y.w.4.o.",
"=.q.=.U L o.o.i.:Xt.#.#...f.*Xe.5 % Z.gXjXaXS.V.V.A.A.yXaXhXfXaXhXpXZ.S.n.w e D }.}.}.}.].A : E %Xp.t.o.t.=.K o.%.U %X*X=.#.#.^ ",
" .p.e.U  .&.o.w.*X#.w._ I f.f.o.2 % C.jXjXhXtXl.e z.V.C.Z.yXsXhXgXaXaXdXZ.t a C ).'._.'.].].>.6 T o.=.e.e.#.U #.o.i.#Xr.| t.K o.",
"%Xq.#.o.w.o.w.t.p.^ e.%...7.k.$.2 % A.hXgXhXpXc.e u l.M.V.C.tXpXaXaXdXaXN.q k x S (.(.(.).].{.S 4 5 9 8 _ =.%.=...0.p.&.X.#.U t.",
"| $.e.e.e.#.*Xw. .#.p.e.$.%.g._ R * x.aXgXfXdXA.i q i x.c.C.A.iXiXiXyXS.b.& > c Z D ,.(.(.].{.}.c @ , * 9 ;.f.e.=Xi.0.X.q.=.#.%.",
" .:Xt.e.#.U U W X.4.+.a.e._ _ 7.8.Q # Z.gXfXhXyXz.o q e i N.S.yXtXA.A.V.u & > l v A ,.D ,._.}.'.b f J.J.f $ 8.s.$X#X^ / +.4._ _ ",
"u.f...e.6. . .4._ 6.#.7.e.7.) $.( Q o l.pXfXhXaXc.%     o u Z.yXZ.N.x.u * - @ @ ; c A A D )._.>.l f U.U.s . _ u.i.( U ( ` 4._ $.",
"g.u.7.p.i.w.w.#.4.+.+.u.g.k.] 7.O.3.R = c.aXfXaXtXx.i u q % i l.z.y y k < +   4 $ - c D ).).).V > 6 J.U.s o +.8.s.~ J ( ! O.] E ",
"%.e.%.u.f.) _ ;Xw.i.%.6.k.7.>Xj.y.h.t.5 r C.pXhXdXpXsXZ.l.q   % & r f A D < X ;.;.$ - c ,.).D c , g J.H., . y.W ! 8.( 5.( W 8.8.",
"e.=.%.%.I e.;Xe.$.8.$.%.e.8.>X,Xk.3.$.$.5 = C.yXaXhXdXuXx.%     - v D ]. XD + ` 4.;.X . < Z v > f H.h j & # 4.E W y.5.^ =Xi.y.O.",
"e.o.=.%.| w.>X:Xp.e.u.7.g.8.%.7.9.k.7.$...0 % x.uXaXaXpXx.      > A ).}.}._.n - T +.E Q 4 + @ . X * # @ 2 Q ( / ( ~ ^ 8.#Xi.0.O.",
") ) g.%.%.7.%. .-Xh.-Xu...6.6.%.u.$.$.8.%.I R = y x.sXsXz.6 L.1.c x D '._._.,.< $ 8 y.+.E 4 5 9 9 5 5 4 3.y.@.O./ P J J =Xp.i.&.",
") 6.h.%...%.%.%.%.g.4.u.+.+.+.f.e.k.g.7.7.6.h.4 1 * c.x.j oXxXxXoXB v D (.).>.v + $ #.4.6.6.4.6.o.X.o.^ #X@.4.O.W ! U W W 0.y.+.",
"%.e.#.$.+._ $.e.#. .+.#.I +.e.U j.f.+.$.e.U #.#.+.~ # o 7 +XlXxXkXI.+ b ).>.D A ; 1 8.O.E y.W  .&.r.#.&.y./ O. ...5.( O.5.@.U ! ",
"6.f...%.%.%.%.....%.#.F 6.u._ +.6.7.$._ %._ =.h.e.0.8.E 4 6 B `..XD O x D D S C < - $ # # 9 3.o.t.$X&.i.4.O.4.0.O.8.@.U 0.O./ y.",
"U e.7._ ) ..%.6.+.I #.6.;Xp.W p.] ) 6.-X*X6.w.f.w.U ..6.' 5 4 : l > - x A S Z v c ; * k d 3 5 E q.&.#.@.@.U U ( ( 4.y.4.F O.y.*X",
"u.e.e.' %.6.6.6.u.) +.f.#.e.0. .+.+.' $.p.6.| %. .t. .p.6.#.u.5 1 $ - x v M n n 7 , s H.J.h o E &. .#.@.i.5.K  .O.@.y.O.O.0.0.@.",
"6.%.f.e...e.%.%._ +.....e.#.#. .+.+...%. .#.| #.w.6.U w.i.3.%.8.3.G X < n A M v > 6 h H.U.H.X E @.i.4.X.y.#.W W U W U K 5.W O.4.",
" .7.e.%.%.%.#.e.e.w.p.q.i.o.y.#._ U _ +.%.#.&.p.w.o.e. .4.+...6.$.Q X < n A n x - , h H.U.:.X Q i.y.0...4.#.W W 5.@.( 5.a.4.4.0.",
"U %.u.+._ _ 6.+. .$.p.w.=Xw.q.e.+.#.7...#...w.w. .K q.y.4.o.` O. ._ 8 $ - 7 x < 6 g H.J.J.m.. ~ i.W / @.4.5.@.@.O.@.O.O.O.W ( 4.",
"u._ +.a.y. .#.%.e.e.f.f.+.+.a.p.%.6.6.#.%. .#.p.U 4. ...4.4.O... ...w.8 3 $ + + , s h s g d 1 / i.U ! @.O.4.O.W / y.5.8.y.a.5.P ",
"#.4.w.0.y.u.0.a.+.6.#...o.w.6.e.+.e.e.7.q.#.q.%./ 4. .p.y..._ U o.#.i.4.4.R X . . X @ # X 3 4.#.4. .@.4...p.y. .W 0.5.y.5.0.5.O.",
"6. .4.y.4.a.e.:Xe.#.e.+...+. .F u.,X*X%.| w.p.w.o.0. ./ y...! y.U &.r. ...@.O...K O.y.#.#.I #.w.w.O.O.4.O.@.O.U i.8.W O./ ( 4.5.",
"u.4.4.4.4.*X*X+.+.f.h.%.%...%.p.%.f.g.-X%Xw.=.#.O.4.*X4.y.a.a.#.| &.-.#.4.4.@.5.6.w.=X+.P %.e.=.0.0. .y.4.0.y.5.O.O.W ..! F U ! ",
"+.6.y.0.0.O.@.&.%.6.%.%.) $.| %.e.#._ p.-Xu.6.X.p.X.+.:Xp.4.@.+.-.X.o.&.&.@.O.@.+.+.p. .4.#.w.#.@.=X4.@.W 4.y. ./ W ! O.@.W O.! ",
"=.=.%Xo. .o.w.r.*.o.L =.=.) =.%.@.4.y.4.6.i.w.#Xp.y.X.#.e.+.U %.$X*.*.&.X.@.U O.o.| | o.#.w.6.8.a.i.y.+.O.4.U / X.&.o.o. .O.O.~ ",
"=.=.=. .U  ./ 0.t.=.o.X.) e.*X=.5.Y i.p.4.U o.=Xp.4.+.p. .F w.+.-.&X&X&.0.O.O.#Xt.| X.X.=.*X . .y.y.p.+.X.y.W ..X.X.t.%Xp.y.O.! ",
"#.t.p.F +.#.y.0.*X#.%.o.) h.f.7.Y X.w.^ K K *X| w.w.f.w. .) =.#.*.&Xo.&.5.F a.a.w.) K w.w.K P 8.4.o.y.p.w.4.Y +.o.#.%Xp.U 5.U 8.",
"X.o.%. .i.5./ y.w.P o. .| e._ _ @.U &.&. .&.&.#.+. .q.o... . .+.-.| *X/ 0.( w.4.I h.#.w.+.3.y.y.o.q. .=Xa...y.4.&.+.q. . .y.O.3.",
"#.X.w.w.q.@.@.@...4.i. .+.6._ ` L -.o.o.X.i.X.^ &. . .#.X.U 0.0.#.=.0.s.s.W y.4.4.4. . .w.y.5.3.e.w.q.+.O.p.y.q.0.f.e.o...y.O.4.",
"0.0.*X4.4.( 0.^ @.0.0.U O.O.O.3.*.&.&.&.&.%XJ -.O.&.o...4.0.&.p.o./ #.0.W 3.3.5.4.y.4.4.p.4.3.W $X#.a... .*Xw.p.:Xp. .Y p.O.3.3.",
"@.@.@.#X@.( ( P y.8.5.4.4.4.4.5.&.o.^ &.0.&.&.w.^ w.4.W ..*XO.w.#.J <X3.y.4.4./ y.a.4.O...H y.q.p.p.#.*Xy.+.p.p.#.#.U o.+.+.( O."
};
