/* XPM */
static char *bae0dfbfc1d24d929dbd90f2b24a253aEZkuLOqJQ49Of730[] = {
/* columns rows colors chars-per-pixel */
"64 65 232 2 ",
"   c #040302",
".  c #0A0503",
"X  c #0A0A05",
"o  c #04040B",
"O  c #0C0D0A",
"+  c #080807",
"@  c #130B04",
"#  c #120C0B",
"$  c #170A03",
"%  c #0F1405",
"&  c #151203",
"*  c #12110A",
"=  c #1D110B",
"-  c #191906",
";  c #070512",
":  c #0C0B14",
">  c #0B0B1B",
",  c #090717",
"<  c #1D1C1B",
"1  c #171616",
"2  c #110F10",
"3  c #220E07",
"4  c #24150C",
"5  c #291806",
"6  c #221817",
"7  c #331E12",
"8  c #321D06",
"9  c #1A240B",
"0  c #1D2B0C",
"q  c #1B2805",
"w  c #1F300A",
"e  c #382406",
"r  c #23330C",
"t  c #293A0D",
"y  c #27380C",
"u  c #242B15",
"i  c #3C2115",
"p  c #37231A",
"a  c #253511",
"s  c #2B3C12",
"d  c #2A3212",
"f  c #2B2E0C",
"g  c #0E0C22",
"h  c #090B2A",
"j  c #110F2D",
"k  c #110D25",
"l  c #16142B",
"z  c #121234",
"x  c #151737",
"c  c #0E112D",
"v  c #231E32",
"b  c #242422",
"n  c #2B2A29",
"m  c #342A28",
"M  c #322B37",
"N  c #333432",
"B  c #3B3A3C",
"V  c #3D342B",
"C  c #4A2E01",
"Z  c #432907",
"A  c #4E3401",
"S  c #5A3A01",
"D  c #533701",
"F  c #432414",
"G  c #4C2B1B",
"H  c #492816",
"J  c #532E1B",
"K  c #56301D",
"L  c #5E341E",
"P  c #613E01",
"I  c #63361F",
"U  c #5C3723",
"Y  c #453E3A",
"T  c #4F3930",
"R  c #6B3B23",
"E  c #653722",
"W  c #713E24",
"Q  c #2E4C02",
"!  c #2B430B",
"~  c #324C0A",
"^  c #2F5107",
"/  c #345305",
"(  c #3A5A06",
")  c #35540A",
"_  c #3B560B",
"`  c #3B5B0D",
"'  c #365808",
"]  c #354A13",
"[  c #364718",
"{  c #3C5514",
"}  c #3D5C12",
"|  c #3E5D19",
" . c #395516",
".. c #2F4B10",
"X. c #3E610D",
"o. c #3E6213",
"O. c #3E611A",
"+. c #3F5620",
"@. c #415E0E",
"#. c #40570F",
"$. c #425E13",
"%. c #405B1B",
"&. c #4A5E1A",
"*. c #465B17",
"=. c #525E1C",
"-. c #6B4500",
";. c #694502",
":. c #774A04",
">. c #7B5101",
",. c #72511B",
"<. c #42620E",
"1. c #446314",
"2. c #496516",
"3. c #466915",
"4. c #496B16",
"5. c #45641A",
"6. c #4A661B",
"7. c #46691A",
"8. c #4B6B1C",
"9. c #52641D",
"0. c #516D1E",
"q. c #4E711D",
"w. c #4E7114",
"e. c #52721D",
"r. c #547819",
"t. c #435A21",
"y. c #525E20",
"u. c #7C4529",
"i. c #774126",
"p. c #7D583B",
"a. c #456520",
"s. c #4A6522",
"d. c #4D6C22",
"f. c #4B6C26",
"g. c #516D22",
"h. c #5A6D26",
"j. c #536D2A",
"k. c #576828",
"l. c #4E7022",
"z. c #557525",
"x. c #537224",
"c. c #587426",
"v. c #567924",
"b. c #597A26",
"n. c #55742A",
"m. c #5A752B",
"M. c #57782A",
"N. c #5B7A2C",
"B. c #5D7C32",
"V. c #567531",
"C. c #5B6F30",
"Z. c #62752E",
"A. c #607D2E",
"S. c #627D32",
"D. c #637735",
"F. c #606F2A",
"G. c #19194C",
"H. c #171844",
"J. c #1E1D5B",
"K. c #1C1C54",
"L. c #070C44",
"P. c #201D5A",
"I. c #241F48",
"U. c #1E2053",
"Y. c #302952",
"T. c #1F2060",
"R. c #222265",
"E. c #24246B",
"W. c #262572",
"Q. c #27287A",
"!. c #29297C",
"~. c #272877",
"^. c #362F6F",
"/. c #473F41",
"(. c #474645",
"). c #855900",
"_. c #905F02",
"`. c #A05B0D",
"'. c #9A6600",
"]. c #9A6701",
"[. c #A36C01",
"{. c #AC6F04",
"}. c #AC7300",
"|. c #B27501",
" X c #B67A01",
".X c #BB7C00",
"XX c #854A2B",
"oX c #904F2F",
"OX c #90532E",
"+X c #AD7828",
"@X c #C07F01",
"#X c #967154",
"$X c #5E802C",
"%X c #5E8132",
"&X c #62822D",
"*X c #65882A",
"=X c #638234",
"-X c #678836",
";X c #65843A",
":X c #6A863A",
">X c #6B8A3D",
",X c #698736",
"<X c #72833C",
"1X c #759243",
"2X c #708B44",
"3X c #C48300",
"4X c #CC8801",
"5X c #D28D00",
"6X c #D98E01",
"7X c #DE9401",
"8X c #D69101",
"9X c #E49900",
"0X c #EB9C01",
"qX c #E19502",
"wX c #F5A401",
"eX c #C28B3B",
"rX c #EE9864",
"tX c #FDA16E",
"yX c #2B2B84",
"uX c #2E2E8B",
"iX c #232780",
"pX c #2F308D",
"aX c #2E2E94",
"sX c #312F92",
"dX c #2E3296",
"fX c #313194",
"gX c #33339B",
"hX c #34348E",
"jX c #3636A3",
"kX c #3737A8",
"lX c #3C3BB2",
"zX c #E6B283",
/* pixels */
"$.j.c.d.$.6.m.6.g.g.,XN.N.2.z.8.$.6.6.2.6.j.q.z.1.3.1.1.2.4.1.2.8.7.1.3.8.7.1.7.d.x.s.7.o.8.l.M.7.8.1.7.8.n.} 8.5.5.7.f.s.n.n.s.",
"g.6.g.h.6.0.$.6.0.g.N.N.x.8.B.N.g.d.h.6.8.2.4.N.6.4.7.z.l.3.o.8.7.z.6.7.7.l.n.1.l.7.8.q.} ` N.d.} } } 8.5.j.5.{ { s.}  .n.j.V.O.",
"g.6.j.A.c.n.0.A.S.6.0.8.<.8.v.N.} 9.S.b.m.x.4.7.q.8.3.4.4.z.8.7.7.z.7.} 8.l.d.5.7.q.8.8.5.} 7.5.a.} 5.f.s.n.g.} Q 5.| s.a.a.a.| ",
"g.6.g.m.h.m.A.S.6.6.g.x.8.8.8./ m.<Xm.0.2.8.=Xx.2.4.l.q.1.l.v.M.6.l.l.8.V.n.o.5.1.x.3.3.3.o.o.} d.1.7.8.6.d.n.} ) }  .l.f.a.| a.",
"h.6.6.g.g.c.A.m.h.A.A.2.@.4.8.1.h.S.>XS.q.x.q.z.8.3.q.z.q.l.n.M.v.q.7.8.l.5.5.d.X.z.q.4.( ) 5.n.d.d.d.z.s.d.m.x.f.5.^ }  ...| f.",
"x.g.e.x.0.0.e.4.8.r.A.4.2.0.@.0.c.0.$.,X1XN.3.4.7.o.3.z.l.7.l.n.w.7.1.s.5.O.d.7.v.v.q.q.` } 1.7.1.x.7.q.6.z.8.z.x.d.g.d.7.) } o.",
"8.z.b.0.8.4.0.0.2.0.@.2.4.@.4.0.0.0.b.2.6.&Xe.$Xq.w.n.v.z.l.M.l.1.4.8.l.5.s.B.5.4.1.3.x.z.n.n.a.8.%Xv.l.x.=X4.4.d.x.v.5.7.O.5.) ",
"4.z.b.@.<.2.8.A.e.e.@.0.0.2.S.0.2.1.0.N.z.<.e.$Xq.7.7.o.l.l.8.1.q.l.7.o.} f.M.d.4.3.v.b.w.O.s.s.q.v.v.4.e.b.( X.4.0.N.N.x.n.d.} ",
"8.z.z.' <.6.2.z.<X<.z.6.@.S.A.0.X.X.v.e.' ( b.e.q.l.z.7.q.o.l.l.$Xz.8.o.7.x.f.x.8.1.4.4.8.5.5.s.b.4.v.e.x.e.' 4.1.4.b.*X8.6.1.d.",
"&XN.g.5.8.d.5.B.6.0.m.1.6.c.g.B.o.o.X.3.( -Xb.X.v.l.l.5.q.o.o.3.v.( z.l.d.` N.d.` m.m.g.6.s.2XB.8.M.q.B.B.5.8.8.w.3.b.2.g.N.6.s.",
"N.8.d.j.m.f.n.n.N.` 4.1.x.B.n. .o.q.w.4.b.-Xb.z.X.5.5.l.7.X.o.v.x.q.-X2.N./ x.8.5.d.6.5.j.n.s.6.7.x.l.d.d.c.n.n.<.&X&X<.#.g.6.j.",
"` 1.d.d.N.B.:X5.` 6.x.1.d.f.s.f.n.l.q.3.r.q.4.6.8.l.o.O.7.7.q.M.3.1.6.z.6.5.8.f.d.B.&.g.C.j.g.{ v.b.z.n.{ B.x.m.,Xb.4.<.v.g.%.j.",
"6.N.5.5.$.S.;Xs.2.1.8.6.{ %.t.= 5 3 & 5 5 5 5 8 ] 6.n.5.7.B.7.z.3.` &X5.z.5.8.1.n.m.2.d.6.$.g.g.$Xq.N.n.f.n.N.S.N.e.( 1.6.g.*.s.",
"b.6./ ! 5.} >X;XN.d.1.$.} | d C -.P S -.;.S ;.S f  .5.)  .M.l.z.X.=X>XN.B.N.s.8.8.} N.B.n.d.1.d.b.w.4.B.5.8.d.m.b.x.6.x.6.g.j.j.",
"N.4.Q } } ) ` 7.8.M.d.5.] a D @X0X7X4X7X5X3X5X X8 r } s.l.n.d.} 1.q.8.x.m.2.M.z.2.` z.5.{ 5.N.n.q.4.z.d.5./ 8.6.=Xx.g.8.g.6.j.%.",
"8.2.<.n.5.5.o.1.s.d.n.x.- S 5XwXwX0XqXwX9X7X7X@Xe a a.l.7.} l.d.N.7.8.8.z.$.N.z.1.n.d.l.2.2.:Xx.X.7.q.n.1.8.x.8.n.>XB.f.6.m.s.5.",
"N.1.1.x.} s.x.n.5.B.B.z.@ S 7XwX0X5X6X0X5X3X3X{.:.7 u a.O.O.n.d.g.8.&X1.d.8.3.6.8.l.1.B.z.8.8.3.( 3.q.l.1.8.8.5.c.x.f.5.;Xj.5.g.",
"6.3.n.x.8.g.} ) 5.n.B.d.& S 6XwXqX X@X0X7X3X X[.].OXG s | %X;XB.x.1.5.6.` 1.N.5.1.l.N.-X%Xl.` o.o.q.l.4.1.=Xx.x.1.%.n.;X:Xj.$.{ ",
"( 3.x.x.} 8.5.x.o.g.B.m.@ P 0XwX3X[.|.9X0X4X X[.].eX#X* +.%XB.B.5.} 5.o.2.l.8.1.o.z.N.n.M.N.n.l.8.4.3.` 8.x.N.s.l.n.n.j.m.S.g.6.",
"2.x.N.8.5.5.6.8.} Q ` 6.& ;.qX9X X'.}.6XqX4X X[.[.+Xp.$ +.n.n.l.4.1.z.7.1.x.l.7.l.M.M.l.d.8.n.o.7.q.3.1.z.2.z.6.d.n.j.f.j.j.$.{ ",
"d.M.5.d.$.d.6.n.8.1.8.) & S 5X7X3X[.}.3X3X3X X[._.,.m X  .1.6.0.4.2.B.c.x.n.N.z.l.M.5.o.o.X.d.q.` N.l.v.q.2.x.g.} j.B.t.g.s.*.$.",
"N.z.8.6.n.5.1.{ ) o.8.Q X D 3X5X3X}.[.}..X X}.{.'.,.i % 0 r t t y %.v.m.=Xn.7.d.) z.d.d.d.d.a.O.5.B.z.N.x.8.d.N.B.f.a.f.n.6.2.=X",
"` d.x.B.s.d.5.n.q.' 8.6.d e ). X@X|.].[.|.|.[.'.].>.A 4 o o , : ; u 5.N.M.8.7.7.l.N.7.d.5.o.a.n.5.5.5.7.v.8.` d.a.D.S.f.#.g.N.>X",
"N.8.5.{ 5.N.m.f.6.` 6.2.| s 8 ].}.[.[.[.[.[.'.).-.C e b l H.R.W.R.z 9 j.3.l.N.V.B.5.o.s.f.O.f.f.7.l.d.l.=XN.8.8.f.a.%.) 6.0.0.e.",
"5.7.n.$.) x.f.d.1.n.1.2.9 & 5 ;.).'.[.[.[.].).;.A e - l K.yXkXlXjXR.g 9 5.=Xg.B.B.` | 5.o.a.n.a.O.B.x.7.z.M.g.d.V.] &.{ m._ 0.N.",
"6.c.n.5.s.) 1.g.d.x.;Xx.o l M C S -.>.).>.>.;.A e 5 : G.yXkXlXjXjXyXG.> 9 s ..1.z.1.8.5.5.5.B.n.c.g.o.q.7.z.8.6.h.h.=.k.k.Z.k.k.",
"o.4.x.1.1.` 1.Q } ` n.x.; K.fXM m H C A A C A C 8 1 G.!.jXkXuX~.yXpX!.J.l > 1 %.| f.w.f.7.1.7.n.5.$.5.7.o.l.7.6.h.Z.=.=.=.D.k.C.",
"g.6.x.m.1.` 8.` $.} ' ` O z !.uXhXY.Z Z e e e i v J.Q.pXkXfXW.J.E.yXpXpX!.!.J.: + y d.l.f.5.7.B.d._ 7.5.l.N.x.6.9.Z.9.=.y.C.k.s.",
"x.5.s.B.3.` N.8.b.N.o.) ! 9 z !.dXhX^.^.^.U.I.Y.E.~.yXfXgXsXE.G.z P.pXkXjXkXpXP.J.g [ o.n.o.5.B.m.1.6.f.q.n.7.} *.9.#.9.k.y.k.k.",
"1.q.q.4.1.z.N.' 8.n.1.} Q w , E.~.W.dXjXkXdXQ.Q.!.yXyXuXgXuXE.G.k g G.yXsXfXfXjXgXK.+ a a ..} l.g.6.5.x.O.l.n.8.S.Z.*.&.&.*.s.j.",
"v.3.6.v.N.7.3.3.x.n.l.z.( s g yXW.H.T.uXkXjXuXQ.~.uXaXfXuXuXQ.R.H.: o j T.~.yXgXjXJ.1 T G d ] 7.N.n.7.n.8.B.B.m.h.h.&.2.&.5.j.j.",
"8.v.$X4.3.3.8.x.8.4.1.1.} t > E.pXW.H.G.Q.aXuXQ.yXgXkXjXfXpXuX!.E.H.> o c G.J.E.W.L.(.zXrXE - 5.>XB.x.g.z.B.8.1.7.g.j.8.6.1.5._ ",
"q.4.N.4.1.<.l.$Xe.N.c.4.x.Q [ g yXgXJ.z > G.Q.pXuXfXjXkXjXsXpXuX~.R.H.j , ; > z H.h T tXrXU * 8.N.q.z.8.z.N.6.@.z.m.=XN.n.z.d.8.",
"q.z.e.X.( 7.4.N.,Xb.8.8.2.Z.S.s x W.W.H.: o H.!.gXgXgXkXkXjXgXfXyX~.E.K.j > > ; ; o = E U u ! 6.&X$XN.3.N.w./ 8.8.` %X-Xe.4.q.` ",
"1.b.z.' 1.q.3.x.%X4.g.@.#.A.A.4.w 1 H.z g   , W.jXgXsXfXjXjXkXjXuX!.W.E.J.G.z o   @ $ @ . u %.x.7.4.e.v.z.0.#.0.4.v.=Xb.<.$X/ 4.",
"*Xz.4.6.x.4.x.b.N.$.c.0.2.h.F.9.( y O + + . : K.gXjXyX!.sXjXkXjXfXyX!.!.R.H.z g = F U K G 4 u S.q.r.e.A.0.r.8.g.2.l.N.7.<.0.( z.",
"$.0.0.b.c.8.=Xl.2.d.M.n.4.0.Z.2.x.8.] |  .a.s > !.lXfX~.E.uXkXkXsXuXaXuXG.j l 7 G R u.u.W E 7 9 1.v.w.4.@.A.A.b.-XM.l.3.v.8.0.0.",
"1.,XN.c.8.` } X.2.7.6.A.F.*.*.9.z.x.N.1.q.1.2.y x uXlXpXW.R.!.gXgXfXsXE.z l p G E W u.u.W W E 7 0 } e.8.8.Z.m.C.N.%XX.o.s.d.$.1.",
"N.Z.2.h.g.1.2.8.$.d.d.h.h.h.$.&.$.g.m.d.4.8.8.b.s x !.fXyXT.K.E.W.~.R.x , = F G U W u.R R W u.E 4 w s.N.x.1.*.m.V.O.) a.$.g.*.6.",
"Z.b.c.Z.n.x.x.8.g.6.6.m.S.F.9.h.5.d.B.g.N.1.w.r.1.! k E.R.J.G.j g k k g o . = i K R W R XXXXXXW J = 9 j.2.#.2.g.B.} ^ O.%.5.&.{ ",
"0.h.h.v.A.` 2.>Xx.N.6.g.Z.F.<XD.V.=XN.d.8.8.4.4.e.3...> > , , . . . $ = . 0 s @ # i W XXOXOXoXu.J = - g._ &.n. . .f.O.a.| | f.C.",
"b.e.0.6._ c.>Xj.6.j.9.0.h.g.<X1XF.6.9.9.2.0.0.2.5.z.6.s y %   - 3 3 $ $ . s 6.[ % 4 I oXOXOXoXXXI 4 9 e.3.5.f.` o.n.l.` %XV.x.7.",
"h.2.c.0.<.c.<X,XZ.c.N.j.N.h.g.h.h.h.h.9.9.6.g.N.4.x.X.4.N.r # i F 7 4 3 @ 0 ] ! & 3 E oXu.R R E G = %  .1.n.5.} O.} ' n.=Xn.l.5.",
"@.<.b.0.0.g.0.1.,XS.,Xm.&.g.0.0.h.k.9.g.9.#.0.c.6.2.( z.z.y & i I K G F 5 @ . +   = L u.G i i p $ + + O  .n.7.7.O.) ^ ^ ;XN.M.l.",
"#.0.S.0.2.6.0.0.0.N.g.Z.s.6.6.Z.h.Z.Z.h.c.0.Z.#.x.` X.=X6.) t = I W K G F 4 3 1 + + 3 H t./.Y n < 1 < < - a.l.5.} o.` } } n.x.8.",
"g.c.8.0.6.2.9.c.0.1.6.6._ 6.c.` S.Z.9.2.c.@.6.e.0.4.x.d.5.<.] . L W R K G 7 6 6 +   . n (./.B N N n b b + o.5.o.5.a.5.7.7.7.} } ",
"g.A.2.0.0.0.0.2.6.8.8.Q g.m.$.6.9.g.6.&.6.$.c.S.z.z.=X8.4.6.t.9 7 E XXW I i 3 1 +   # N Y.n b b N n b < + 5.s.n.5.n.a.} l.5.} n.",
"#.c.h.$.#.2.0.g.2._ 8.g.>Xm.@.B.6.$.g.:X,Xg.z.N.x.` 2.z.8._ 6.{ - i W W W H 6 n O   2 b m b < < < 6 < 1 O ) ` o.o.f.n.8.Q 5.V.%X",
"N.c.c.1.0.g.g.x.N.#.6.A.8.x.g.1.6.6.2.9.N.g.<.0.<.N.1.N.g.8.m.6.4 4 H F F p n B 2 0 [ O < < < < < 1 2 X [ 8.^ 5.5.5.M.5.s.l.n.5.",
"0.0.Z.c.1.c.0.0.$.6.2.1.m.8.8.2.6.6.6.6.1.8.1.8.x.g.` c.m.8.g.g.] - = V /.t.Y.b a ) 5.r O 2 O . O # % t f.d.o.} } ` ) ) d.` 7.a.",
"*.h.c.0.0.0.8.c.c.e.A.c.N.7.z.8.$.` $.6.0.8.q.N.x.8.x.1.d.8.6.j.0.[ 1 N /.B b 0 a.1.Q 1.t 9 9 9 9 9 s 7.8.d.} } d.7.O.5.B.d.l.l.",
"` g.N.6.*.$.0.6.1.6.N.c.;Xl.z.n.*.0.h.1.8.6.x.e.1.Q z.n.8.6.$.5.1.2. .O # # 9 s.B.` n.8.5.1.3.2.l.{ } 5.d.x.5.7.5.7.5.5.7.} 5.a.",
"m.$.d.B.j.1.8.0.x.c.S.A.6.8.N.N.d.d.h.0.0.1.0.b.` l.1.5.8.d.5.6.1.4.x.x.V.l.d.m.B.6.s.5.2.z.X.4.N.` o.7.5.d.5.} O.l.5.n.n.V.a.` ",
"8.8.x.l.n.N.x.N.9.g.8.2.4.x.g.x.6.c.h.x.z.8.x.q.o.8.1.M.n.5.} _ 3.8.b.g.x.5.8.n.f.{ ` =Xg.8.N.8.l.o.5.d.5.B.z.o.} n.f.M.a.n.f.7.",
"d.1.l.x.d.N.c.;Xc.8.c.2.6.9.2.Q v.1X,X0.$.x.A.x.7.l.7.1.M.5.1.n.X.q.v.3.7.7.5.5./ 5.z.s.8._ 8.x.n.5.1.d.5.8.5.{ M.l.{ 5.5.o.7.a.",
"N.s.l.d.8.;X=X8.0.N.=X0.6.2.0.b.9.A.A.:X=Xe.8.e.1.q.%Xl.z.B.N.f.1.w.z.4.8.d.5.7.j.n.=X8./ g.x.z.l.l.5.n.a.l.n.l.7.5.} 5.} ^ { O.",
"8.x.n.x.x.5.8.8.6.g.x.2.1.2.2.0.c.8.$.N.:XN.x.1.N.6.8.;XN.d.5.d.q.3.w.l.l.8.5.7.2.6.N.1.8.8.x.8.5.;X8.5.` d.x.1.} } } 5.8.{ 5. .",
"e.0.&X4.1.3.x.v.w.4.( 4.e.@.e.0.s.7.x.d.g.m.x.%XM.z.6.8.c.6.( 0.$Xw.w.q.1.7.} O.4.<.1.4.8.x.x.g.B.M.n.8.5.d.} o.3.q.3.4.5.5.5.} ",
"4.r.0.1.( 7.o.x.b.r.8.4.<.0.S.e.d.` M.N.d.' 8.;XN.l.8.m.1.Q g.6.w.*X*Xq.z.5.1.%Xb.1.4.<.e.=X1.*.N.z.N.8.7.x.} 2.3.1.b.$XN.n.5.} ",
"0.v.N.Q 7.8.z.l.=X8.0.4.$.,XZ.h.' 3.l.3./ / =XX.x.x.N.c.1.@.e.4.w.*Xw.w.7.Q B.B.x.@./ x.x./ ) j.8.5.n.N.c.f._ 8.6.q.=X&X` f.) n.",
"2.4.8.5.n.7.O.l.x.' 3.1.@.c.$.*.w.` l.7.1.q.l.7.4.2.z.4.2.1.1.6.r.X.=X5.n.5.l.l.( S.8.x.6.6.m.n.6.z.2.=XB.5.x.8.8.6.v.<.1.n.5.6.",
"8.2.x.x.z.7.7.f.5.d.M.5.6.g.| 1.' r.3.4.3.v.3.X.8.1.o.8.7.` l.g.4.x.l.M.V. .n.d.d.f.1.5.f.n.f.f.z.z.x.8.8.n.n.z.e.=Xc.8.5.n.5.n.",
"n.l.%Xd.f.O.l.o.7.l.l.` 5.7.5.5.4.q.w.l.q.&X/ v.3.q.6.3.l.x.d.M.w.o.d.l.| 5.a.f.g.n.8.f.N.g.6. .&X8.B.5.1.;Xg.N.-XN.1.( n.5.5.a.",
"O.7.7.%X7.a.o.) n.l.8.s.l.s.s.j.q.4.o.w.q.x.w.x.} x.l.` 5.=X5.x.8.^ 2X8.n.f.s.1.m.B.6.5.5./ n.n.b.N.8.=Xn.8.N.N.8.0.' 6.8.8.%.s.",
"q.3.o.O.O.q.q.O.l.l.%X%Xd.O.7.f.7.o.v.q.q.v.%X$Xq.7.` O.o.n.l.l.o.B.;XN.%XV.l.s.8.} n.n.n.5.5.j.x.q.8.N.5.1.8.x.N.x.2.x.5.8.5.$."
};
