/* XPM */
static char *_e8522eb45fd478af268976df62d949bnHVhhRxlonCIPdln[] = {
/* columns rows colors chars-per-pixel */
"64 64 226 2 ",
"   c #030301",
".  c #0C0402",
"X  c #0B0B05",
"o  c #0C0B0B",
"O  c #050509",
"+  c #150D04",
"@  c #1B0C04",
"#  c #170C09",
"$  c #0E1306",
"%  c #151E06",
"&  c #191609",
"*  c #0A0A13",
"=  c #0D0C1C",
"-  c #040413",
";  c #130D14",
":  c #181716",
">  c #24140C",
",  c #2D190C",
"<  c #291606",
"1  c #331B0E",
"2  c #31170A",
"3  c #291913",
"4  c #371D12",
"5  c #1C2709",
"6  c #1B221B",
"7  c #23290C",
"8  c #3A2604",
"9  c #25350B",
"0  c #232C14",
"q  c #27231A",
"w  c #3C2214",
"e  c #352419",
"r  c #283712",
"t  c #303D18",
"y  c #0D0B22",
"u  c #0B0C2B",
"i  c #120E25",
"p  c #11112D",
"a  c #18162B",
"s  c #0C1035",
"d  c #121233",
"f  c #13143B",
"g  c #18173D",
"h  c #1E2223",
"j  c #272628",
"k  c #3A2A22",
"l  c #37302B",
"z  c #3D3C3B",
"x  c #393838",
"c  c #382B3D",
"v  c #442C02",
"b  c #492D01",
"n  c #4A3301",
"m  c #5C3C01",
"M  c #563901",
"N  c #422415",
"B  c #4D2917",
"V  c #492918",
"C  c #542E1A",
"Z  c #5B321E",
"A  c #6E391B",
"S  c #45362A",
"D  c #573623",
"F  c #453C38",
"G  c #492A27",
"H  c #673922",
"J  c #753F24",
"K  c #2D4D02",
"L  c #274304",
"P  c #324C0C",
"I  c #314808",
"U  c #345305",
"Y  c #395905",
"T  c #35540A",
"R  c #3B560A",
"E  c #3B5B0D",
"W  c #365908",
"Q  c #364915",
"!  c #365410",
"~  c #3B5514",
"^  c #3D5C12",
"/  c #3F5E19",
"(  c #3C541A",
")  c #2E520C",
"_  c #3E600D",
"`  c #3E6114",
"'  c #3E611A",
"]  c #3E403F",
"[  c #415E0E",
"{  c #40570F",
"}  c #425E13",
"|  c #425C1C",
" . c #4A5E1B",
".. c #455A18",
"X. c #525E1C",
"o. c #5F4508",
"O. c #684400",
"+. c #724D00",
"@. c #785102",
"#. c #42620E",
"$. c #446314",
"%. c #496517",
"&. c #466915",
"*. c #496B15",
"=. c #45641A",
"-. c #4A661B",
";. c #46691A",
":. c #4B6B1C",
">. c #51641D",
",. c #516D1E",
"<. c #4E711D",
"1. c #4E7114",
"2. c #52731E",
"3. c #547819",
"4. c #45413C",
"5. c #4B5F21",
"6. c #744226",
"7. c #7B4429",
"8. c #6A4F3C",
"9. c #4A6622",
"0. c #4D6C22",
"q. c #496925",
"w. c #516D23",
"e. c #5A6D26",
"r. c #536D2A",
"t. c #576828",
"y. c #4F7022",
"u. c #557525",
"i. c #537224",
"p. c #597426",
"a. c #567924",
"s. c #597A25",
"d. c #55742A",
"f. c #5A752A",
"g. c #577829",
"h. c #5B7A2C",
"j. c #5D7C31",
"k. c #547531",
"l. c #5B6F30",
"z. c #62752D",
"x. c #607C2E",
"c. c #627D33",
"v. c #637735",
"b. c #606F2A",
"n. c #151541",
"m. c #191948",
"M. c #1C1D56",
"N. c #211E5B",
"B. c #1E205D",
"V. c #22225E",
"C. c #362B4E",
"Z. c #1E1E61",
"A. c #211F62",
"S. c #1E2163",
"D. c #222163",
"F. c #24236C",
"G. c #28266F",
"H. c #252674",
"J. c #282775",
"K. c #2A2A7D",
"L. c #272879",
"P. c #3E4346",
"I. c #494949",
"U. c #745F4A",
"Y. c #8C5C01",
"T. c #845601",
"R. c #946201",
"E. c #996401",
"W. c #9D6901",
"Q. c #A46D00",
"!. c #A16506",
"~. c #AB7201",
"^. c #A97204",
"/. c #B67A02",
"(. c #8B4D2E",
"). c #814729",
"_. c #8A4E31",
"`. c #995533",
"'. c #8E5232",
"]. c #A45B35",
"[. c #A85C3A",
"{. c #8D6130",
"}. c #C07F00",
"|. c #8B6D4B",
" X c #937761",
".X c #D47B51",
"XX c #5E8132",
"oX c #5E802C",
"OX c #62822D",
"+X c #65882A",
"@X c #638334",
"#X c #65843A",
"$X c #6A863A",
"%X c #6B8A3D",
"&X c #698837",
"*X c #72833C",
"=X c #759243",
"-X c #708B44",
";X c #BF8000",
":X c #C48201",
">X c #CA8600",
",X c #D58D01",
"<X c #DA8F00",
"1X c #DC9301",
"2X c #D79000",
"3X c #EC9E01",
"4X c #E39802",
"5X c #F09E00",
"6X c #F5A301",
"7X c #E49761",
"8X c #2C2C84",
"9X c #2D2E8B",
"0X c #29278A",
"qX c #322F8E",
"wX c #2E308E",
"eX c #31328F",
"rX c #2E2E93",
"tX c #312F93",
"yX c #2C3196",
"uX c #323195",
"iX c #34349C",
"pX c #3636A4",
"aX c #3839AB",
"sX c #3837A7",
"dX c #3B3CB3",
"fX c #FEC188",
/* pixels */
"} r.p.0.} -.p.-.w.:.&Xf.h.%.d.:...>.-.%.-.i.:.u.$.&.$.$.$.:.$.$.0.;.$.$.:.;.$.;.0.y.0.;.$.:.0.g.;.:.$.;.9.d.` -.=.=.-.9.0.y.k.q.",
"w.-.w.e.-.w.} 0.>.r.h.h.i.:.XXh.0.w.r.-.,.%.:.s.:.&.:.i.<.&._ <.;.d.;.:.:.0.d.$.y.:.:.:.` E h.0.` ^ ^ :.$.r.=.^ ^ 9.~ / r.r.k.' ",
"w.-.r.c.p.p.w.z.x.:.w.:.$.,.u.h.^ -.c.f.u.i.:.:.<.:.&.*.:.u.<.&.&.i.;.^ q.y.0.$.;.:.<.:.$.^ ;.$.;./ $.r.9.d.w.^ K | ^ 9.q.' 9./ ",
"w.-.w.p.w.f.x.@X,.%.,.i.*.*.:.U h.*Xu.,.%.:.@X2.&.:.<.:.$.<.d.g.:.<.y.:.g.g.' -.$.y.&.&.&.` ` / 0.` ;.q.-.0.d.^ T / / q.q.9.' ' ",
"r.-.-.w.w.i.x.f.i.z.x.%.[ :.*.$.p.c.$Xc.<.d.:.a.:.&.:.a.<.y.g.g.i.<.;.q.0.-.' 0._ a.<.*.E W ' r.0.:.:.d.9.0.f.i.r.=.P / ~ ) / q.",
",.i.i.2.,.,.2.-.,.3.x.%.%.:.[ ,.f.,.} &X=Xs.&.*.:._ &.u.y.:.y.d.<.*.$.0.=.' 0.;.g.a.<.<.E ` $.-.$.y.;.0.:.i.:.u.y.:.0.0.q.E ^ ^ ",
",.a.f.,.:.%.,.2.%.,.[ %.*.[ ,.,.,.>.s.%.:.OX2.OX<.:.a.g.a.y.g.y.$.1.;.0.=.q.j.$.:.#.&.2.y.d.d.-.:.XXu.<.i.@X*.*.:.d.g.-.;.' $.T ",
"*.a.a.[ #.*.1.z.2.2.[ ,.,.%.x.,.%.%.,.s.i.$.<.oX<.;.;._ y.y.q.` <.<.;.` ^ 0.j.0.*.&.a.a.<.$.9.9.i.a.a.1.2.s.Y _ *.<.s.h.i.d.0.^ ",
":.u.2.W #.:.%.u.*X#.u.*.[ c.x.,.` #.u.i.Y Y s.i.<.y.a.<.<.' ;.a.s.i.<.` ;.r.0.y.<.$.&.*.:.=.=.q.a.*.a.2.u.2.Y *.$.*.x.+X:.%.$.0.",
"@Xh.w.=.-.q.%.j.*.:.f.#.-.p.0.j._ _ _ &._ +Xs.W a.y.y.;.<.` ` ' u._ u.y.:.` j.0.E f.f.w.-.9.-Xj.<.d.y.j.j.=.-.:.*.&.s.#.w.f.9.0.",
"f.0.0.r.h.0.d.d.z.^ :.$.w.c.l./ ' <.:.1.a.&XoXa.^ ;.;.y.<.W ` 3.2.:.&X$.f.U d.9.-.0.-.=.r.w.9.-.;.i.i.0.0.r.d.d.*.OXOX#.R w.-.t.",
"E $.0.9.j.j.#X-.E *.:.$.0.q.q.q.g.<.1.&.2.<.1.$.0.0.` ' ;.;.y.g.;.$.:.u.;.%.:.0.0.j.} r.f.r.r.~ a.a.y.d.^ c.i.d.&X3.*.$.p.0.=.r.",
"*.h.=.=.^ j.-Xq.$.$.q.%.~ ' t @ < < & < < < 2 7 ^ 9.i.$.;.h.;.g.*.W OX:.u.$.:.} d.h.=.0.-.} 0.r.OX<.h.d.q.d.j.@Xs.i.Y $.%.0. .9.",
"s.:.W 9 $.^ #X@Xh.0.$.=.^ r 8 R.!.Y.R.E.Y.Y.E.O.7 ~ q.! ^ j.y.g.$.@X%Xh.j.h.0.:.:.E h.j.d.0.$.0.a.1.;.XX-.-.0.d.s.i.%.i.-.r.r.r.",
"s.:.K ` / T ! ;.w.f.:.%.r n ^.3X6X4X4X6X1X1X4XE.. ~ ^ q.y.r.:.` #.i.:.0.d.%.h.i.%.^ p.%.R =.f.d.<.*.i.:.%.U 0.%.@Xi.0.:.r.=.0.9.",
":.$.$.u.%.:.` $.:.:.d.i.$ E.6X6X3X1X4X3X,X,X,XR.< t / 0.=.^ y.0.h.;.:.:.u.} h.u.} d.0.y.%.%.-Xi._ :.<.g.$.:.i.0.d.%Xj.0.-.f.9.| ",
"h.$.$.i.^ :.0.d.%.j.j.d.+ Y.3X6X1X:X1X3X>X:X/.E.6., 9 $.` ` d.0.0.:.@X$.0.0.$.:.:.i.$.h.u.;.:.` Y &.<.y.$.:.:.%.p.d.w.-.#Xw.=.r.",
":.%.d.i.-.w.^ T =.d.h.y.+ R.6X3X>X^.>X3X,X}.~.!.E.{.4.9 =.XX#Xj.i.$.;.:.W $.h.;.` y.h.#XXXd.E &.` <.<.:.$.@Xi.i.} / k.c.#Xr.} ~ ",
"Y :.i.p.^ :.:.0.$.0.h.d.+ W.6X1X~.E.:X3X4X>X~.!.^.7X8.$ r.j.j.j.$.} %.` %.y.;.$.$.i.j.g.u.h.g.y.:.*.&.W :.i.d.:.y.d.k.d.j.v.r.=.",
"$.2.f.:.=.=.:.0.E K E q.+ E.3X,X~.W./.,X,X>X~.W.E.{.G 5 d.d.i.i.*.$.d.%.%.y.y.;.y.g.g.y.0.:.g.` &.i.&.$.u.%.d.-.0.d.r.9.r.d.} R ",
"0.d.%.0.} 9.-.d.:.$.:.T @ T.4X,X/.^.^.;X:X/./.W.T.D : & 5.} -.-.%.$.XXd.y.g.h.g.<.g.;.` ` E q.;.E h.y.a.<.$.r.i./ d.j.9.r.-.} } ",
"h.u.9.9.d.-.=.^ R } :.K + @.}.>X;X~.!.^././.Q.Q.E.o.7 + % % % % 5 | u.h.@Xd.:.:.T d.0.0.y.y.q.' $.h.d.h.i.y.:.j.k.q.5.q.r.%.%.@X",
"E 0.w.j.9.0.=.d.:.W :.:.$ b R././.Q.W.Q.~.^.W.R.T.m w : * y f f d 0 -.h.g.:.;.;.r.g.;.0.;.' ;.r.=.;.$.:.u.:.E 0.=.v.c.q.^ i.x.=X",
"h.:.=.^ =.f.d.0.:.^ %.*.  @ m R.W.^.^.Q.^.!.Y.+.M 8 3 j m.Z.qXpX8Xg 0 9.;.i.k.h.j.=.` 0.q.' q.r.q.y.0.y.@Xs.:.:.q.9.| P -.,.>.*.",
"%.:.d./ T w.w.0.} g.$.-.  & b O.@.E.Q.W.E.Y.+.m v < * g H.pXdXdXpX8Xg 7 9.XXy.j.h.^ ` ` ' q.k.;.=.j.i.;.i.g.w.0.k.! ..~ f.{ ,.x.",
"%.d.d.%.0.T / i.:.i.#Xi.o V.C.v n m O.O.m O.m v 8 # u Z.qXaXdXaXsXtXF.p % | ;.$.2.` :.:.$.&.XXd.w.0.$.<.;.d.0.%.t.t.X.t.t.v.t.t.",
"_ :.0.$.$.E $.K ^ E d.y.- Z.8XC.C.w n n v v n 8 & y M.wXuXpXiXuXiXtX8XA.p 0 | u.i.u.:.0.9.$.9.g.=.} ` ;.&.<.;.:.e.z.X.X.X.v.t.l.",
"0.:.i.f.$.E :.E } ^ R ^ % y Z.yXK.c k N e 1 e q g M.8XaXaXpX8XF.8XtX9XK.D.y 5 ~ P &.<.d.y.$.;.k.0.^ q.=.y.g.y.:.>.x.>.X.X.l.t. .",
"d.%.:.h.;.E h.0.g.h.` T T % = M.F.G.H.G.V.M.B.V.L.8XiXpXpXsXH.n.V.wXpX9XG.g = X X L @X` g.` $.XXp.} :.0.:.g.:.^ ..>.{ >.t.t.t.9.",
"$.<.<.:.&.i.h.W ;.g.$._ K L 5 y F.G.H.0X9XL.H.K.9XiXiXrXuXpXJ.d d wXaXuXK.F.D.M.n.6 ~ w.0.T / r.r.-.-.0.' y.y.9.c.z... . ...9.r.",
"u.;.:.u.s.:.$.&.i.d.<.d.` 2.I 0 f S.D.F.8XwXL.H.8XiXpXuXuXiXK.f y D.aXpX9XK.8XwXJ.p 5 r t / E -.j.f.;.d.:.j.j.p.e.e. .-. .=.t.t.",
"<.2.oX&.;.&.:.<.:.:.$.$.` $.$./ 5 p g g F.wXwXL.8XuXpXpXpXuX9XF.d d D.8X9X9XwXpXrXn.3 D w Q | %.$Xj.y.i.d.h.i.$.;.,.w.0.-.$.$.^ ",
"<.*.h.&.#.` y.OX<.h.u.%.i.U x.,.^ 5 X - n.K.uXeX9XeXiXsXpXtXtX9XB.= * p N.K.tXsXyXn.U.7X7XG t :.h.0.u.:.a.h.-.$.p.u.&Xh.p.i.0.;.",
"2.u.2.#.Y *.;.s.&Xh.,.:.%.z.@Xp.$.T ( Q * H.pXpXiXwXuXsXpXpXsXuXK.m.y * = d g N.L.s U.fX7XV 9 :.OXoXs.:.u.2.U *.:.E XX&X<.:.:._ ",
"$.s.2.W &.<.&.i.@X:.i.[ E z.x.*.Y $.:.%.5 h J.pXsXiXuXuXiXpXpXtX9XL.V.n.y O   - u - 4. X_.4 q 9 9 9 =.a.a.,.E ,.*.u.@Xa.#.s.U *.",
"OXa.:.:.2.:.i.f.f._ i.,.%.i.b.>.E $.&.$.0.5 s wXpXaXiX9XiXpXpXuX9X8X9XJ.n.- o , 2 2 V F G D 3   o : 0 ..,.2.*.,.%.i.h.;.#.,.E a.",
"$.,.2.f.u.0.@Xy.&.:.h.p.>.,.z.[ p.i.%.d.y.0 * B.pXaXiX8X8XuXsXiXrX9XuXL.s y G `.`.(.6.6.(.(.N o j z q $ } h.z.s.&Xg.<.` u.:.,.,.",
" .OXf.f.:.E E _ %.:.-.j.p... .,.u.i.j.$.:.T 5 u K.sXpXK.A.L.tXuXtXuX0XM.i G 7.`.`.).H 7.].].J B k I.j o :.s.r.h.j.XX` ` 0.0.} $.",
"b.x.%.i.,.$.=.:.$.:.:.r.p.e.{ >.` y.f.i.:.<.^ 0 d H.uXK.F.m.N.K.9X9XZ.a N J J H Z B V H `.`.`.A w ] j # i.%.} f.g.;.W ;.} r.} -.",
"x.z.,.x.f.w.p.:.0.-.-.z.z.b.>.e.-.0.h.y.s.$.:.=.5 p B.L.H.d u M.F.S.d : V B 4 3 > 3 C J (.].].J 4 F h o -.{  .r.j.) ) ' | | 5.{ ",
",.p.i.f.z.{ %.*Xp.p.-.t.z.e.*Xv.d.j.f.:.<.:.<.*.:.5 y m.N.p = y p i ; @ @ . . o X + C 7.).(.[.).w x j o R =.p.~ ( k.' ;./ ! r.d.",
"b.,.,.:.Y u.%Xu.:.r.w.0.e.,.*X=Xe.t.>.>.%.,.>.$.%.=.5 - ; 3 2 3 # & @ @ .   5 | ( # , H 7.).`.J w z h $ =.-.0.W ^ r.y.` -Xr.r.;.",
"3.%.2.2.$.i.%X&Xx.e.h.e.z.r.w.e.e.b.e.>.:.>.,.f.;.w.T 7 . < 1 1 2 2 > @ @ # % I 0.Q & , N B C B S P.: o =.w.=./ ` E ^ y.XXg.y.;.",
"[ $.z.>.,.i.>.%.$Xc.c.f.%.w.,.,.e.0.>.t.,.{ w.u.:.$.E ;.7 # < 1 2 4 N w 1 , 3 & ( -.Q $ . q V x I.] :   d.d.;.q.' ) K ) #Xh.g.:.",
"{ ,.c.,.%.%.,.,.>.x.w.h.>.-.%.j.i.b.x.t.e.,.x.{ i.E _ @X| % + 1 w Z J 6.H B Z N # | 0.~ o l I.I.4.x : $ #X;.y.$.^ ` E ^ ` y.d.:.",
"w.i.,.,.%. .-.p.:.$.%.0.R -.r.E z.z.>.%.p.[ -.,.<.:.i.0.$.T 7 > H `.].`.(.6.H 4 . ( j.-.I : : : * o 9 / u.' =.` $.q.' -.q.;.^ ^ ",
",.z.%.,.,.,.,.%.%.0.:.K w.f.} %.,.e.>. .-.} i.c.i.i.@X:.-.;.5.7 w (.[.].'.(.D > X ( k.E ^ P r r Q Q ..g.0.$.0.i.q.y.;.^ y.=./ d.",
"} u.,. .{ %.,.i.%.R :.i.%Xf.$.c.-.{ w.$X$X,.u.x.i.^ $.p.:.R -.Q . Z [.[.'.`.D ; X ' =.0.` d.:.&.d.:.:.;.;.E W ' ' 0.d.q.K %.d.XX",
"z.u.p.%.>.i.w.i.u.} :.x.:.i.w.$.-.-. .:.h.i.#.,.$.f.$.h.>.:.f.( $ w ).'.7.7.D = X P <.d.d.d.$.1.:.` <.:.g.0.T ` ;.-.d.$.;.0.r.;.",
",.,.f.p.%.p.>.,.} :.%.%.u.0.:.$.%.-.$.>.$.:.$.:.i.2.W d.p.:.w.0.Q % e l e q x l X I :.` 1.&.<.*.;.g.y.$.y.:.^ ^ ! ^ ! T y.^ ;.q.",
" .w.p.>.w.,.:.p.i.e.h.u.h.$.u.:.} } { :.w.:.,.f.i.:.i.%.0.:.%.w.,.% 6 P.C.] I.z O P K &.<.<.<.<.g.d.0.;.0.q.^ ^ y.;.' ;.XX9.0.y.",
"E w.h.,.} } w.%.%.%.f.u.#Xi.u.f.} w.p.%.:.%.i.2.$.U u.i.9.:.| =.$.7 0 ] ] ] x q 0 P d.:.;.;.:.*.u.^ ` ;.0.y.=.;.$.0.' -.;.` ` q.",
"f.} :.j.d.} :.,.i.i.x.x.:.:.h.h.>.w.w.>.,.$.:.s.E :.$.;.<.0.$.%.$.$.t # & $ ; 0 k.%.:.=.%.d._ :.f.E ` q.$.0.$.^ ' d.=.d.d.j.q.E ",
":.:.i.y.d.h.i.h.,.i.>.%.:.,.w.p.-.f.u.p.u.,.i.,.$.:.` d.d.%.^ ^ &.<.u.<.d.$.:.d.0.^ ^ j.0.:.s.y.y.$.;.0.$.j.d.' ^ y.0.k.q.0.q.=.",
"0.$.y.d.0.j.p.#Xi.,.f.%.%.:.%.K u.=X@X,.} i.h.u.;.y.;.$.g.%./ d._ :.s.;.;.=.=.-.) =.i.:.w.R :.2.y.$.$.0.$.q.$.^ g.d.! ;.` ` ;.q.",
"f.9.y.0.0.@Xc.:.>.f.@X:.>.-.,.u.>.x.x.$X@X2.y.,.$.0.XXy.i.j.j.0.#.<.3.:.q.0.;.-.w.p.@Xq.U ,.i.i.y.d.=.d.0.y.d.y.;.' / =.^ P E / ",
":.i.d.i.d.$.:.:.:.i.2.:.[ *.%.,.u.w.} h.$Xu.i.$.f.;.0.@Xf.0.%.0.3.&.*.<.y.:.` :.$.:.f.$.,.:.i.:.;.@X9.=.^ 0.d.$.^ ^ / $.:.^ ' ~ ",
"2.,.OX%.$.&.i.g.1.*.Y ,.2.{ 2.,.;.9.p.0.i.f.i.j.g.p.%.:.p.-.E ,.oX1.1.<.&.;.^ ' *.$.$.*.:.i.w.r.j.h.d.:.$.0.E $.&.<.*.&.$.-.9.^ ",
"*.2.2.$.E &.&.y.s.2.*.*.%.,.c.,.0.W g.XX0.W :.@Xh.i.:.f.$.K 2.-.1.+X+X3.d.;.$.XXs.#.*.$.2.@X$.$.d.d.h.:.;.d.^ $.&.$.s.x.g.d.=.^ ",
",.s.f.K ;.:.y.y.@X:.,.*.[ @Xx.e.W &.y._ U U &X_ i.i.x.u.$.[ :.:.1.&X1.*.;.K j.j.i.E U i.i.U T r.:.:.d.h.i.0.R :.*.w.OXOXE y.! r.",
"*.*.:.$.y.q.;.y.i.W *.$.#.e.} $.;._ <.;.$.<.y.:.:.$.u.*.$.$.$.:.3._ @X$.y.' i.0.W c.:.i.-.-.f.d.:.u.$.&Xj.%.y.0.:.:.s.$.$.d.=.9.",
":.%.d.i.g.' ;.q.;.9.h.;.-.w./ | W <.&.1.&.u.&._ :.$.` :.:.E i.0.1.u.y.k.k./ d.0.0.w.$.%.w.d.q.q.i.i.i.:.:.d.d.d.w.OXu.:.;.d.=.0.",
"y.y.@X:.;.;.y.^ ;.y.y.! $.9.=.=.*.3.<.<.<.OXU 3.;.:.:.&.0.y.y.s.;.` <.y.^ 9.q.q.0.d.:.0.h.r.9.^ h.:.j.%.$.@Xi.h.&Xh.$.U d.-.9.9.",
";.;.;.XXq.;.` T d.y.:.9.y.0.9.0.<.*._ <.2.i.<.u.E i.i.W ;.#X$.d.:.K -X9.d.0.9.} f.j.9.$.=.) d.u.h.h.:.@Xd.:.h.f.:.,.T :.:.;./ -."
};
