/* XPM */
static char *_6e143b71ee54a95f78df62576a012c9C3IWZqfDC9W2Rl3A[] = {
/* columns rows colors chars-per-pixel */
"64 64 168 2 ",
"   c #234200",
".  c #2D4C02",
"X  c #2E4B09",
"o  c #324F04",
"O  c #314F0B",
"+  c #2F5001",
"@  c #2E520C",
"#  c #335304",
"$  c #395407",
"%  c #365903",
"&  c #3A5A06",
"*  c #35550A",
"=  c #3B560B",
"-  c #36590C",
";  c #3B5B0D",
":  c #355310",
">  c #3B5613",
",  c #3D5C12",
"<  c #3E5D19",
"1  c #3F610D",
"2  c #3F6113",
"3  c #3E611A",
"4  c #415E0E",
"5  c #425E13",
"6  c #495E15",
"7  c #425F1B",
"8  c #4B5D1B",
"9  c #525E1C",
"0  c #41630E",
"q  c #436314",
"w  c #496517",
"e  c #466815",
"r  c #496B16",
"t  c #45641A",
"y  c #4A661B",
"u  c #46691A",
"i  c #4B6B1C",
"p  c #51641D",
"a  c #516D1E",
"s  c #4E7114",
"d  c #4E711C",
"f  c #527517",
"g  c #51721E",
"h  c #597E1E",
"j  c #525E20",
"k  c #456421",
"l  c #4A6622",
"z  c #476823",
"x  c #4D6C22",
"c  c #4E6D29",
"v  c #536424",
"b  c #5A6427",
"n  c #516D23",
"m  c #5A6D26",
"M  c #536D2A",
"N  c #5C6D2D",
"B  c #4F7022",
"V  c #517022",
"C  c #507122",
"Z  c #527123",
"A  c #537222",
"S  c #517121",
"D  c #547121",
"F  c #547023",
"G  c #557222",
"H  c #547323",
"J  c #517422",
"K  c #547622",
"L  c #517125",
"P  c #527324",
"I  c #517126",
"U  c #557124",
"Y  c #547025",
"T  c #567225",
"R  c #557126",
"E  c #567026",
"W  c #567027",
"Q  c #577127",
"!  c #537425",
"~  c #557424",
"^  c #547524",
"/  c #557625",
"(  c #567527",
")  c #557627",
"_  c #577626",
"`  c #567726",
"'  c #537224",
"]  c #587525",
"[  c #587426",
"{  c #577827",
"}  c #567924",
"|  c #597B26",
" . c #527028",
".. c #537328",
"X. c #527229",
"o. c #577128",
"O. c #547228",
"+. c #557329",
"@. c #577328",
"#. c #557529",
"$. c #577628",
"%. c #57752B",
"&. c #56762B",
"*. c #54732F",
"=. c #57752D",
"-. c #557429",
";. c #597329",
":. c #587429",
">. c #5A7629",
",. c #59752A",
"<. c #5A742A",
"1. c #5B752C",
"2. c #5A762B",
"3. c #577829",
"4. c #577829",
"5. c #5A7929",
"6. c #5A792B",
"7. c #597A2B",
"8. c #5D7A2A",
"9. c #58782D",
"0. c #5B7A2C",
"q. c #5C782D",
"w. c #5E7A2D",
"e. c #5D7D2C",
"r. c #5E7D2F",
"t. c #5B7A2C",
"y. c #5B6F30",
"u. c #567331",
"i. c #587630",
"p. c #5F7E30",
"a. c #5D7C32",
"s. c #606F2A",
"d. c #62752D",
"f. c #607C2F",
"g. c #617E2E",
"h. c #607C2E",
"j. c #627332",
"k. c #607A31",
"l. c #627D30",
"z. c #627E33",
"x. c #647F32",
"c. c #657F35",
"v. c #627D32",
"b. c #687831",
"n. c #627D3A",
"m. c #5F812C",
"M. c #5E8132",
"N. c #61822D",
"B. c #65882A",
"V. c #628332",
"C. c #658134",
"Z. c #678434",
"A. c #668537",
"S. c #638334",
"D. c #688437",
"F. c #678836",
"G. c #6B8C35",
"H. c #65843A",
"J. c #6B873A",
"K. c #6A863B",
"L. c #6E883E",
"P. c #6B8A3C",
"I. c #72833C",
"U. c #6D8644",
"Y. c #6D8D42",
"T. c #778F45",
"R. c #749343",
"E. c #749243",
/* pixels */
"5 M Q n 5 y Q y v i A.6.0.u ( i 5 y y y y U i | q w q q q i q q x u q q i u q u x I i u q i x 3.u i q u i  .5 i t t t z x #. .x ",
"n y n M i x 5 a a U 8.r.V i l.w.n x m y i y u e.e u e } d e 2 i u ( u u x x $.q B u x i 2 - 0.x 2 , , z u M 7 > > l < >  .c u.k ",
"n y m f.@.@.a w.l.i a i q i ( 6.; p C.<.;.( i i d i e i i } d e u ( e , u B x t e x i d e , u q u < q B z %.n , . t < l z k k < ",
"n y a ;.U ;.f.C.y y n A r i u % <.L.;.a q i V.g e i d i q B ! ! u g n i a.%.2 t q J e e q q < 2 z q i z i l @., * < > x c 3 < k ",
"M a y n n A h.<.G h.d.w 4 w i q m c.J.x.d V d K i e d ) d B { e.} i u i c u q z 1 ! d u ; - t  .x i i #.z x ] n  .t X < > : < c ",
"g n A A g a g p r g N.r w a 0 a ;.a 5 Z.R.e.e i i 2 e J B i I I d u q x t < x u { | d d ; , 3 t q I u x i ~ a ~ V i B x t - , > ",
"i ] 8.a i w a g w a 4 w w 4 a a r a | w u V.g m.d d J 4.) B ) I 0 d i x u z a.t i 0 e g g $.-.i i V.{ d ~ V.r i x V 3.t t t t * ",
"i g | 4 0 w a | [ g 4 a a w g.a p q a h.A 0 g m.d e u 2 d B x 3 d d u , , z a.x r e } | i q y l g | K r g } & 4 r d e.e.B B x , ",
"i ~ ~ % 0 y w ( G.w ~ w 4 h.h.A 1 2 | d & % { g d B ) d d 2 B J | ~ i q u  .x B d q e r x q u z | r } g ~ ~ & w e r h.N.s y q x ",
"N.w.x t y x u a.y w 0.5 u @.l a.2 2 1 e 1 F.| ; ) B B u d 2 2 u } ; ( B i , a.x ; 1.2.n y y U.n.i { B a.r.q u z a 0 ] 0 n <.y l ",
"6.x n M 2.x  .%.h.5 y q  .a.*., 2 d r s } G.m.J 1 u u B u - e d g a F.e 8.# n x y x y t M M l t u J V x n I $.@.e | B.e ; n y M ",
"; q x z a.a.K.t 4 w i t z M l l 4.B d e f d e e i x 2 3 z u B 4.u q u ~ y w z n x a.5 M ;.M M , } | ! #.> z.I %.G.} i 0 Q x 8 M ",
"u w.t t 5 z.K.z q q y u ; t u.c u m.J r d i ; ( t x *.u u a.i ) w ; N.u U u i q U i.q x y 5 v M m.d e.! l 2.a.S.| A & e u a 7 l ",
"| u =   q , P.H.6.x t q , l u.7 u ) P.M.r s } 6.u t u * , a.B X.q N.P.a.a.2.i u i ; w.a.@.x q x | d i a.t y x $.| A w I y M M M ",
"8.i . 5 > * ; t i 0.x t t l l u.B e.F.d d e i i i u < y x  .x 2 1 V i V ;.q 6.( u ; $.u , t 2.2.d e J i u # x u V.A x x x 8 M 8 ",
"i q 5 @.u y < q i x @. .< l u.u.e.q i e d d g e V x z x u > B i e.u i i ( q r.I 5 ;.x V q y P.U 1 d i 3.5 i V x $.L.a.x t 1.l t ",
"r.q q U , z I $.i a.a. .y c l u.t , ; i g g e i t > u t 2 t I x I i l.5 i i w i i B q e.#.i i q & e d B q i i u U @.I u c.M t l ",
"w e | I y n ; * q I l.x t > < c t 5 - B K 0 m.V.i y u z t a.H.V.V 5 i i ; q 6.u 2 B e.F.M.B ; q q d d u q A.A I 5 7  .H.K.M 7 > ",
"; w ! I 5 z y V q I a.@.l l c 7 c 5 B q e s d e u u t x 9.H.a.a.q , u 4 u n i q q ! 9.3.3.e.3.B i i q ; i V ] z I %.%. .i.z.M y ",
"e a 6.i t t i i , . = x < > z < c  .@.x e 1 } 2 u %.u B $.$.x I i q ] u q V x u x 9.a.x x u #.2 e J e q ] e ;.y x  .*.l M Q 5 = ",
"x ;.u x 5 i u @.i u y # O O : X t t > * J 1 e g ~ V.B $.n q y a i e h.] I $.0.$.B 3.u < 2 , x x ; 7.B { B q I n , *.n.k M y q 5 ",
"r.@.y l *.y 5 , % , i . n k * l 7 < * B d # B.m.m.| i 3.i 4 a r q A ] 6.S.@.i z * ! i x B z u 3 t e.! e.V g x 0.i.z 8 z M y w C.",
"; i n a.z n t *.i ; i i H.M 7 u.c z %.x K g e m.g | g i q i g s w V V r.6.u u u x 9.u x u t u X.t u t u ] i 4 x t n.n.z 5 n h.L.",
"r.x t , t 2.@.x y ; y u x l z > l M I d d g 0 0 r } g e 0 ~ d.a g w J r.u B %.a.a.u 3 x z 3 z c z B x i V.6.i i z k 7 : 8 a a s ",
"q y  .t # M n x q 6.q u x t > : : M n.n.i g i | } s 1 0 g } g g.e.{ ;.6.B M.I 0.a.; 2 3 < z u.z t a.I u I 3.n x u.: 5 > 1.; a h.",
"u U U u x * 2 n x x H.I a.q i 2 > X , l a.d d | e 1 e s a e 0 a u V I i q d e q J 0 u i u q a.#.n x q d d ! x y p s.9 b b j.v b ",
"5 i x q q ; q . , ; $.x $.z x 0.l 7 < * u q e m.1 s r 0 r r i q z i x i i B d { V | i x y t u -.t 5 q u 2 d u i m b.9 9 j j.N y.",
"x i V 0.q ; i ; q ; ; > q u x ( < t i.l t i g B 0 s r 1 w r.| n e 4 u i i d i d 2 e B ! x t t a.x ; z t B 7.x y n d.9 9 j y.b k ",
"U u i a.q ; 3.x 0.0.2 * ; - V , * M n 7 z V B V { d i 1 r | r a 1 q ! V ! ! V e ; # F.1 $.2 t a.1.5 z x u 3.u 5 7 9 4 p b v M v ",
"q d d i e ! 8.- i #.q , + # - + u.a.t q u U S.B m.e.i e i d g d 1 1 d e d d d e e R.u ! z - < #.n y u I 3 B #.i c.s.6 8 8 5 l M ",
"( u w { e.w e e B ! B ! 2 i 2 i #.a., , z i i x 9.#.; ( | q 8.} d r d s } J e i J A.r.B x q ; t a.;.y $.x a.a.;.m m 8 w 8 y M M ",
"d g m.r q u d B i i e q q q q u g i i g u i x 0.I u * I V 4 ~ i d g g g } J q e u u #.$.I i u t L.r.x n J r.V 5 u n M i y q t = ",
"d r 8.r e 0 B m.d m.( w n # h.a w e V V B #.t M.x t z u q ~ ~ 0 d N.} s J m.i i u u i t 9.z u x r.g I i ( r.u 4 U ;.V.w.$.I x u ",
"d ~ g 0 % u u e.F.8.i u w f.Z.G 0 0 ~ w.t   i.a., * u $.U i w = 1 f G.i e q q i t t t B q , 2 u V.m.m.w | g # u i ; M.F.d i i 0 ",
"e | g = q i e J V.i A 5 ; f.g.y % w u r - 2 9.q , $ u n u i i % 0 d B.m.F.u M.x t t t B q B B V w r d } } g ; i w { V.| 0 8.% r ",
"N.] i i g i ~ | e.; Q a w m s.w 4 q u q B a.F.i ! 3.! x I @.z l { } 1 u q z #.M.u < u q d x V.F.d g f h.a g r A w J m.u 0 a & ] ",
"0 a A ] $.i V.V q x 6.U p a d.6 a V w { B V.B i e.3.B u 0.a.2.M.m.0 u ! q x  .i t t i.z J u e.( s } d d 0 | w.;.F.4.B 3 { i a a ",
"6 Z.;.;.i ; 2 ; u i y k.Q 6 6 a ( U r.q d q e r | e ( B u M K.H.e i - x 2 i < l z *.a.#.q V r r r d d u y 8.U 1.7.M.2 2 i l 5 q ",
"<.8.w ] n q q i 5 x i m Q m 6 w q x ;.B i u d | } J F.i 5 t @. .e ; #.x B l c 3 c t B %.3.{ r r m.d m.m.G 8 5 ;.7.u - t 5 c 5 y ",
"h.d.n f.;.U I i x y a <.b.m p b t x a.V e.q s f e K m.; u t t  .B e B z x c < c c < x 3.P.| e r B 2 z ) y 4 8 M a.: @ < < 8 8 5 ",
"a [ G [ h.4 w L.U 2.v n d.b I.b.u.z.0.i i i s r g i } 0 u n I %.! 3., I u t z c i.a.*.t i | e a u B B n = 7 ;., < c 3 k < > c u.",
"s.a a i = Q L.M i U i n G m J.T.1.p p p y a a w u J g u u y i u I V ; $.n t t M n 2.n 7 y 5 ;.l 0 0 V V y y x - < c B , P.X.I u ",
"] r m a q G G.D.w.U 1.m <.m n m b d.m p i p n ;.r g q i r.u i i i , I P.@.x q < M y y y y ;.l l } g r d q I q < 2 - - B H.%.V u ",
"0 4 ] a a m a q D.c.D.;.y n a n m p p n p = a ;.w 0 ; ! V q B u , I I 0.0.i I B n i @.y n ; y i s e e ; ( U z t 3 - X * H.e.3.i ",
"4 n g.a w y a n a 1.n k.p y y 1.m d.d.m G a g.4 ( ; q S.u ; u B V u x ;.2.n u n a n n n x n V n d e d 1 S.u x 2 , , ; < ,  .I i ",
"a ] p y w 6 p [ i q y y $ y Q ; k.f.p w ;.5 y a i i n g q q 5 y 2.2.w i n 5 # l.2.@.a.y q 0.> q d d i B ( < u t u z t t t u ; < ",
"n f.p a a a a w w a x . n 0.5 y p M y 8 y 5 m l.( A A.u y i U t t M y 1.5 y k.z i z w.; , i i i 4.m.s 7.x t x  .t B i - B t 2 #.",
"4 Q n 5 4 w a A y $ i n P.6.5 f.y 4 n J.D.n U h.A ; w ( i $ a 5 n n 4 = t H.K.x  .a.q x q ! i q 3.i i u u - - t < x #.z . t %.S.",
"<.Q G w a m a A ] 5 y h.i A V q y p 6 y w.n 0 a 0 6.q r.n i ;.y M 1.= y n , *.t u q B #.J ) e i d 2 d u #.x @ t t u %.t t B B z ",
"n a d.Q q M a a 5 y w q ] x i q y y q a q i q i A a ; ( ;.y n M i 5 5 i , U n x u , i 2 d q d r i ) x u #.u , ; > ; - # x > z u ",
"w n Q a n a a Q Q m 8.( e.q 6.i 5 ; 4 y n i i 8.B i V q x i y n a i n ;.n 2.$.n  .t + q g i d d 3.{ B u i x < , B u < z a.i B B ",
"= n <.a q 4 a y q i 6.~ F.V ( ( w p M w i y A A q # ( $.x i 5 t q y n $.U *. . .a.; $.i i u i e ( ; < u x x u u t u t t u < q z ",
";.5 i k.Q q i n Q A h.h.i i r.0.a n n a n q i | ; B q u z i q y w e V ( $.x x 0.a.y y u q ( 1 d 3.; < i t x t , 2  .t  .%.i.z - ",
"i x I I @.w.B l.a n a y y n n U y G Q Q ( i ~ a 2 i q 0.;.u < ; e i | i I u y @.x , > a.n i 8.i B q u x t e.#.2 > #.x 9.l B x l ",
"n q B I x a.V H.G a Q w w i w . Q T.Z.a 0 V r.J u B u 2 2.u 5 ;.1 s | e u y u t O q $.x i $ i g  .t t x q u t > 7. .> t 3 < u z ",
"2.z B x x S.V.i a <.C.a y y a ] a f.f.J.C.A a a q d V.B I a.a.z 0 d K i z x t i I  .S.i % V V ( B B 2 %.x B #.x u 3 , u < # - < ",
"i V $.I I u i i i n A i 4 p 0 a ;.i q 1.J.8.V e 6.u x S.2.x i i d s r d B z q u q y 2.5 n i V a t S.z t ; x I q 2 , , u t > t < ",
"g a N.w q q J { a r % f g 4 g a t i @.x V ;.I M.6.A u a U w ; a m.s s d e u , t r 0 e r i I n M a.a.U i u n , q e d i q q u t > ",
"s a g q ; q q J } h w r 0 a b.G i - 9.M.x * i H.0.I u ;.y o a y s B.B.s B t t M.| e r r g C.q 5 6.$.0.i u n , q e e | N.3.#.t < ",
"a | 6.. i i X. .V.i i w q A.w.m - e J 2 # % S.1 V V g.~ q ; a i s G.s u u . a.a.V ; # U V # =  .x u $.0.I n * i u a h.N.; x >  .",
"w r d q X.z t B ( % u q 4 U 5 5 r 1 d u q d d i i e A i q q q i } 0 V.q #.2 B B ; V.i V i t a. .u ] w A.a.u n x i i ] q q  .u l ",
"i w J I B u u u u z 2.t y n 7 7 % g e r e | e 1 i e 4 i u ; I V e K B 9.u.< u.x l x q q B %.l l A A I i u ;.$.$.a V.U u u @.t n ",
"B B S.x z u B , u x x ; y z t t s d d d d B.# g e d u w x V B 0.s 2 i  .< k l l n @.z x 0.c l > g.u l.u q A.i r.D.r.q % $.y k l ",
"u u u M.u z 2 - #.B i i B x z l d u 1 d B B d ~ , I V ; t S.u  .u + Y.y *.x x 2 2.a.y t t # @.@.| w.i S.( z 0.e.a i ; y i t t t "
};
