/* XPM */
static char *ce69dd9db6ca4465bfeb1b1d106d0ac7b9gq6G4npQ06dMyl[] = {
/* columns rows colors chars-per-pixel */
"64 64 252 2 ",
"   c #030302",
".  c #0C0403",
"X  c #030C02",
"o  c #0B0C04",
"O  c #060C09",
"+  c #0C090B",
"@  c #140403",
"#  c #1A0304",
"$  c #160B06",
"%  c #031402",
"&  c #0C1404",
"*  c #031C02",
"=  c #0B1C04",
"-  c #0C1209",
";  c #0D1C0A",
":  c #121504",
">  c #111409",
",  c #141D0B",
"<  c #171A06",
"1  c #101112",
"2  c #240506",
"3  c #2A0B06",
"4  c #230508",
"5  c #26090A",
"6  c #290A07",
"7  c #3A0A09",
"8  c #261507",
"9  c #311F09",
"0  c #022302",
"q  c #0A2403",
"w  c #042C02",
"e  c #0A2C03",
"r  c #07250A",
"t  c #142504",
"y  c #132B05",
"u  c #1B2A06",
"i  c #15220B",
"p  c #1A230B",
"a  c #1D2A0B",
"s  c #1A2306",
"d  c #033402",
"f  c #0C3404",
"g  c #033C02",
"h  c #0B3B03",
"j  c #083708",
"k  c #143404",
"l  c #1C3205",
"z  c #133C04",
"x  c #193E04",
"c  c #17380A",
"v  c #1A2913",
"b  c #20250E",
"n  c #212C0B",
"m  c #252A05",
"M  c #223405",
"N  c #23340B",
"B  c #263B08",
"V  c #242C12",
"C  c #253312",
"Z  c #2B3B13",
"A  c #2C3917",
"S  c #1F0920",
"D  c #480C09",
"F  c #471807",
"G  c #55140A",
"H  c #521612",
"J  c #65160A",
"K  c #6E2014",
"L  c #034301",
"P  c #0B4403",
"I  c #024B01",
"U  c #0A4C03",
"Y  c #0D470A",
"T  c #134403",
"R  c #1C4505",
"E  c #134B04",
"W  c #1B4B05",
"Q  c #19480B",
"!  c #035402",
"~  c #0C5203",
"^  c #045C01",
"/  c #0B5C02",
"(  c #03570A",
")  c #135305",
"_  c #1B5404",
"`  c #135B04",
"'  c #1D5A04",
"]  c #195A09",
"[  c #115212",
"{  c #2D4C02",
"}  c #254708",
"|  c #324E0B",
" . c #324E01",
".. c #255406",
"X. c #245B04",
"o. c #275A08",
"O. c #345405",
"+. c #395A05",
"@. c #35540A",
"#. c #3B560C",
"$. c #35590B",
"%. c #3C5A0D",
"&. c #375705",
"*. c #2F4412",
"=. c #244C10",
"-. c #334414",
";. c #394E16",
":. c #33441B",
">. c #364B1A",
",. c #3C4D1B",
"<. c #374916",
"1. c #355310",
"2. c #3C5514",
"3. c #3D5C12",
"4. c #3C5219",
"5. c #3F5E19",
"6. c #295E10",
"7. c #046302",
"8. c #0C6303",
"9. c #0C6D03",
"0. c #026E00",
"q. c #126404",
"w. c #1B6303",
"e. c #116C02",
"r. c #1C6A05",
"t. c #1D630A",
"y. c #047502",
"u. c #0D7302",
"i. c #0B7C02",
"p. c #067E02",
"a. c #1B7405",
"s. c #1B7B04",
"d. c #167505",
"f. c #236C04",
"g. c #23640B",
"h. c #29630A",
"j. c #286906",
"k. c #3D610D",
"l. c #356909",
"z. c #247304",
"x. c #227B04",
"c. c #2B7D04",
"v. c #2A7908",
"b. c #3C7B06",
"n. c #367707",
"m. c #3E6213",
"M. c #3E611A",
"N. c #3F6915",
"B. c #367512",
"V. c #297B15",
"C. c #3E5923",
"Z. c #317625",
"A. c #415D0E",
"S. c #425E13",
"D. c #435C1A",
"F. c #4A5E1B",
"G. c #425619",
"H. c #525E1C",
"J. c #404C1C",
"K. c #41620E",
"L. c #467704",
"P. c #446314",
"I. c #496516",
"U. c #466916",
"Y. c #496B16",
"T. c #45641A",
"R. c #4A661B",
"E. c #46691A",
"W. c #4B6B1C",
"Q. c #52641E",
"!. c #516D1E",
"~. c #4E711D",
"^. c #4E7114",
"/. c #52721E",
"(. c #547819",
"). c #445A23",
"_. c #525E20",
"`. c #456421",
"'. c #4B6622",
"]. c #4D6C22",
"[. c #4E6C29",
"{. c #536424",
"}. c #516D23",
"|. c #5A6C25",
" X c #536C2A",
".X c #5B6B2C",
"XX c #4E7022",
"oX c #46712A",
"OX c #517121",
"+X c #557125",
"@X c #557525",
"#X c #537224",
"$X c #587426",
"%X c #567924",
"&X c #597A25",
"*X c #55742A",
"=X c #5A752B",
"-X c #567829",
";X c #5B7A2C",
":X c #567331",
">X c #5D7C32",
",X c #5C7732",
"<X c #537732",
"1X c #607D2E",
"2X c #64772F",
"3X c #627E33",
"4X c #627735",
"5X c #098403",
"6X c #178605",
"7X c #099302",
"8X c #139404",
"9X c #189803",
"0X c #198815",
"qX c #2B8304",
"wX c #248A04",
"eX c #2A8C04",
"rX c #258307",
"tX c #328305",
"yX c #378609",
"uX c #269505",
"iX c #379906",
"pX c #3D871B",
"aX c #289918",
"sX c #328915",
"dX c #16A803",
"fX c #09AC03",
"gX c #2DA505",
"hX c #38A605",
"jX c #36A417",
"kX c #34AF13",
"lX c #438A04",
"zX c #429508",
"xX c #479B12",
"cX c #4B8B14",
"vX c #45B40D",
"bX c #50AB12",
"nX c #5E802C",
"mX c #5E8132",
"MX c #459128",
"NX c #62822D",
"BX c #65882A",
"VX c #638234",
"CX c #688437",
"ZX c #678836",
"AX c #64833A",
"SX c #6A863A",
"DX c #6C8A3E",
"FX c #6C8C35",
"GX c #24CE06",
"HX c #56C811",
"JX c #6C8A42",
"KX c #759243",
/* pixels */
"S. X+X}.S.R.+XR.}.}.SX;X;XE.@XW.S.R.I.R.Q.}.W.%XP.U.P.P.P.W.P.I.W.U.P.T.W.U.P.E.].*XW.E.m.W.XX-XU.W.P.E.W.*X5.T.T.T.T.].'.*X*XoX",
"}.R.}. XW.}.S.W.Q.}.;X;X}.W.3X;X}.{.+XR.].I.W.;XY.Y.W.#XOXU.k.!.E.*XE.U.].].*Xm.XXW.].W.m.$.-X].P.2.3.].T. XS.3.3.'.5.2.[.[.:XT.",
"}.R.|.1X+X@X!.=X3X!.!.W.P.].$X;XA.R.1X2X;XOXE.Y.~.W.U.U.E.%XW.U.U.*XU.3.E.XX].T.U.W.W.~.I.3.E.P.W.5.T.[.].*X}.3.{ D.5.T.'.`.`.5.",
"}.R.!.=X|.=X3XVXW.I.W.#XY.Y.Y.&.=XDX$X!.I.W.VX/.I.E.XXXXP.XX%X-XW.XXXXW.-X*XT.T.P.XXU.U.I.m.m.5.W.M.U.E.T.].*X3.@.5.3. XoX).5.T.",
" X!.I.}.}.+X1X=X$X2X1XI.S.U.W.P.+X3XDX3X/.#X~.&XW.U.~.@XW.XX*X;X%X~.E.'.[.E.T.].k.@XW.Y.+.$.M.*X].].].*X].].=X}. XT.| 3.2.@.5.[.",
"/.}.#X#X!././.Q.Y.(.1XI.I.W.A.!.$X!.S.CXKX;XU.E.W.k.U.XX~.W.XX*X~.E.m.].T.M.].T.%X&X/./.%.3.P.T.P.XXU.~.Y.*X!.%XOXW.].].E.@.$.3.",
"!.$X&X!.Y.U.!./.I.!.A.I.Y.A.!.!.Q.!.&XI.Y.VX/.NX~.~.@X%X@XXX-XXXK.~.E.XXT.'.>XT.E.P.U.(.#X*X*X].W.mX%XXXOXVXI.E.].OX@XE.U.M.T.1.",
"Y.#X$XK.P.I.!.&X/.$XA.!./.I.1X!.I.I.!.;X#XK./.&X~.E.E.N.XXXX].P.~.~.E.m.3.].;X].Y.U.%X&XE.T.T.'.~.&X%XY./.&X+.A.Y./.;X;X*X*X].3.",
"/.#X/.&.K.R.U.$XFXI.#XY.A.3X1X}.%.P.%X}.+.+.&X/.~.~.#XW.E.P.XX[.&X@XE.P.R.XXXX}.~.P.U.E.W.T.T.].;XY.(.~.#X!.+.U.P.Y.1XNX!.I.I.].",
">X;X].T.'.].Y.>XI.I.;XS.I.*X].>Xk.N.k.U.+.ZX&XA.*X*XXXU.~.k.N.^.@Xk.#X~.W.A.>X].%.=X,X}.F.'.JX,XE.*XXX>X>XT.W.Y.Y.U.&XK.!.=XR.].",
";X].].*X=X[.#X*X;XS.I.P.[.>X*X2.N.E.^.Y.&XZX1X/.%.E.T.[.].$.E.~./.!.ZXP.=X| *X].R.R.R.R.}.:X[.T.E.#X*X].].+X*X*XY.1XBXK.A.}.T. X",
"%.P.].[.;X;XAX'.S.T.].E.W.[.'.[.-XXX~.U././.Y.U.W.[.m.T.E.U.XX=XU.K.W.%XE.E.I.}.}.>XD.}.=X X'.3.&X&XXX*X3.VX*X=XZX&XY.K.+X].D. X",
"Y.;XT.T.S.3XAX'.S.P.Y.E.%.T.:X[.E.>X@XY.W.U.%.}.S.'.`.,   X o X C &.=XD.Z o X *.].*XT.].R.S.}.{.BXY.;X*X].*X,XVX;X/.+.P.I.}.D.'.",
";XI.O.} P.3.JXVX;X].T.S.3.'.*X).E.*XDXmX%.*.<.>.*.*.A + + % - X < C.).,.a X X C <.-.=X3X*X].P.}.%X~.E.mXT.W.].*X&X@XI.*XR.}. X:X",
";XW.{ S.2.@.%.T.].;X].T.T.'.[.[.].[.=XD.a X & X     . S C ` g.e   X % & & 0 0 - . > ).4.| 3.=X=X/.Y.#X~.T.@.].Y.VXOX].W.}.D.].).",
"W.I.A.*XE.E.5.P.W.].*X*X3.[.:X:X:.o > &   e r.d * * * p B.kXaXP w ! 9.6XW = d *     - > o p 4X@XK.E.~.@XS.Y.*XW.*XDX>X}.R.=X'.R.",
";XP.P.+X3.Y.}.*XW.;X>X*XT.[.`.A u a v k 7.9.) U [ [ 9.z.j.rX8X! wXkXaXvXyXy k d *   O ; - - I.P.+.P.~.@Xm.W.W.E.+X*X[.E.3X XT.{.",
"U.U.@X*XW.[.3.@.E.[.>X].T.1.C   T qXB.6.dX7Xd 9.V.Z.aXkX' d ( / hXHXMXcXn.} x k * X * c r & N =.} 4.W.I.I.VX+X*X5.S.*XAXJX}.D.3.",
"%.I.@X+X3.].Y.}.P.*X;X*X'.A X   h 9XhXC.aX7XL p.rX`.MXvXx.d T ' 6XsXcXl.X.k.j.f X X w I U 0 O O X < 3.$.}.~.@XW.OX*X*X*X,X3X}.T.",
"P./.=XW.T.T.R.].%.{ %.R.n % 0 X X U rXoX<XsX! I T g.hXgX9X8.T j.6X6XlXn.L.lXd.L X X L 0.^ j 1 + O o 3.P.$XU.*X'.].*X X'. X+XS.2.",
"W.*XE.].S.].R.*XW.P.W.O.= X %   X w q.pXpX0X8.r % ~ s.s.9.I z n.rX6XzXL.tXwXy.I % = 6X6Xe.E ; r w & a D.~.I.!.}.3. X>X`.}.].S.3.",
";X+X].W.*XT.P.3.&.P.I.M A ,     X g q.x.dXfX8.-   f ) ~ h d L $.V.tXL.@.` 7.L d 0 h iXeXw.X.h P L *   4.OX].W.>X:X[.`.'. XI.R.VX",
"%.}.}.,X'.[.T.*X].@.Y.& :.:.  X w 8.s.a.dX9XT : < x ' ` U I I I f.c.A.m d g % * d ~ qXw._ X.X.R j 0 X Z *XW.%.].T.JX4X[.S.!.1XDX",
";X].T.3.T.=X*X].I.3.R.  o ; d 7.8XdX8X9./ Q l l q.6Xh.r.8.I ! ! w.n.l.< = g w d L U W ..+.K.A.M q 0 * = >.*XY.].'.5.D.@.F.!.!.!.",
"T.W.}.T.O. X}.[.K.;XP.N - * I i.i.i.5Xi._ M T e.7X7XrXeXa.U g L ~ r.z.l = L L L P R R q.j.l.l.R w d g 0 - A }.W.:X1.F.2.=X#.!.1X",
"E.+X*XE.].@.m.}.].}.AX}.C % d U L ( V.a.+.| _ 5X5Xd.uXyXwX8.0 0 ~ z.c.} T I g g c M W / ) g.s.` q w L 0 o   ].W.!..XH.{.|.4X{.{.",
"3.W.W.P.T.%.m.{ %.%.@X].C   X d ( 0XaXg.;.A.X.9.0.d.yXn.9Xy.* 0 8.eXlXn.x.u.L d y t f f e Q 9.h @ o d %   o `.I.|.2XH.H.H.4X.X.X",
"OXW.}.;XP.%.W.%.S.3.%.%.s   % g 9.jXbXB.l.L...T ^ i.a.j.' h 0 L 9.yXxXzXuX6X/ k e e % X f g 0 X     % X , ).XXU.{.1XH.H._..X.X'.",
"+XE.W.>XY.3.;X].;X;XK.u & % L g ` tXb.g.c.yX' W w.i.i.t.u o d 6XiXiXxXGXdX8._ k f d X % g ! d X . X 0 % a -XW.3.S.Q.A._.{.{..X{.",
"P.W.W.W.I.OX;X+.E.*XP.  q h g ; k ..] ) z.b.j...W _ e.Q s = U gXgXyXhXGX9XW B y d d 0 d U ^ / h = r d 0 s >.XX].3X2XG.I.F.D.'. X",
"%XU.U.&X;XU.U.U.#X%XOX& f.v.v o a } ..} Q j.L.M y T T R k h r.uXqXrXhXiXn.X.W = 0 g d T E E ^ ! L g w w * & VX+X|.|.F.F.D.R. X X",
"W.%XnXU.U.U.W.XXW.E.P.% w.wXL r ! q.x N u } b.l.' _ W ) 8.9.c.yXzXeXwXiXn.` T & w ! I U ` 8.7.^ ! ( j *     ].P.I.}.}.!.R.I.P.%.",
"~.U.;XY.K.P.XXnX~.nX@XN c U ! L ! I & o y ' yXhXhXqXW T 8.9.z.b.zXiXwXuX5XL q @ w ! h P 8.y.9./ U T f = X o U.S.@X$XVX;X*X+X].Y.",
"/.#X@Xk.+.U.E.;XZX;XE.I.s X w w w * X X h d.aXiXgXx.W k P I ) h.tXiXeXa./ g q . = d y U y.p.' U g u y q %   O.Y.W.%.mXZX/.E.W.P.",
"P.&X#X+.I.~.U.OXZXE.}.A.u     * * * 0 w L u.5Xu.E R E j g U W _ x.wXr.W e g L = * g T / 5Xy.P * & i y %   o %.!.U.$XVX-XK.;XO.Y.",
"NX%XW.Y.OXY.OX;X;X3./.}.G.A   * w 0 0 w g ^ 9.8.w.f.P h g _ l.z.z.f._ u < q h d I 7.8.9.8.) j = . > , O , ;.!.$XU.OX;X^.K.!.+.%X",
"I.Y.$X%X@XW.VX/.P.].=X*X;.a % w d 0 * 0 0 h ~ 8.w...t q e U z.qXf.X.' W l e e L ^ ^ / ) T M f q : @ + X u ;X;X=XZX;XXXE.%XW.W.!.",
"S.CX=X$XW.%.%.m.U.Y.R.=XV o q 0 g I L L w e U ~ k > : & & f ` z.f.z.c.w.U h e L ( U j E x = w e r O     n +X+X=X>XmX$.m.].].S.S.",
"=X1XI.$X!.P.I.].S.W.W.{.v o i & P e.u.0.^ L h h e = = = : t P ) j.x.qXw.P g 0 h ~ ~ z ^ I * 0 j w -     b D.S.=X-XT.$.N.P.}.F.I.",
"2X=X|.2X=XOX*XW.].R.R.|.V O * 0 g _ _ ^ I g d d h u t f q = e I / q.e.` E h 0 q k x h I g 0 0 w r X     p #.F.}.>X1.| M.5.D.F.G.",
"Y.$X#X=X1XA.F.DX+X+X}.{.,.< X 0 0 t M U I h h ! / ] } U L e e g I U U P z f 0 0 e e f L w * r w %     i B D.*X2.4.oXM.`.M.2. X*X",
"2X/.!.Q.+.+XDX#XY.|.Q.].+XJ., X % & u [ ~ E W q.y.` R T P h e q d L f f d e w d e f e g d ; ; %     & 4.R.T.].$.3.*XXX3.AX-X*XT.",
"/.Y.$XY.A.$XDXCX1X}.2X}.1X|.G.:   X ; v c Y Y T T f t = e k h e w j d d d j f e w e y e e *       : 2.W.P.*XT.m.M.3.%.XXAX*XXXU.",
"A.A.2X!.!.|./.S.CXCX3X=XI.}.}.,.,   O + - r j h c b , - , c P j w d h U Y c m s q q < - % X     < @.P.$.@X*X'.U.M.$.{ | AX;X-XXX",
"A.}.1X!.I.Y.!.}.!.=X}.=XR.W.R.=XJ.A V     + * d t s i r , e U h r e R =.Q N 9 8 = = # 2 # # #   N U.].A.AXE.[.D.3.3.3.3.3.*X*XY.",
"!.$XW.Q.I.F.Q.$XQ.I.R.}.@.Q.+X%.2X2XF.b     X * % & = i = q f e & : n Z B t 8 3 : & 4 7 D D D 2 b T.U.OX*XP.U.P.T.].P.T.E.T.%.5.",
"}.1XI.!.!.!.!.I.I.}.}. .}.=XS.E.Q.}.R.G.n           X X o o o 8 3 # $ u m 8 @ 3 D 4 # 4 7 J J D 4 v P.;X].M.].*X'.oX].$.[.E.5.*X",
"A.|.|.S.A.I.!.}.I.+.I. XJX=XS.3XI.S.}.SX X>.>.4.;.B -.<.<.m . 7 D 4 # 8 F 7 . 2 D D 5 . @ 3 3 2 @   D.E.E.%.@.P.M.W.*XI.{ E.*XmX",
";X+X+XI.!.}.}.}.=XA.I.3XW.@XOXP.R.R.F.Q.;X}.K.!.P.;XI.&XG.n . 5 5 @ # 5 G D . . D H 7 . - N u N a M R.R.-X].@.m.T.T.*XT.T.].XXW.",
"}.!.1X+XI.+X!.!.F.I.I.I.*XW.W.I.R.I.I.W.P.W.P.W./.#X+.@X:.& & > > X   5 G G . o 5 D 7 @ a I.W.E.].*XW.E.XX[.3.3.3.3.$.@.[.3.E.'.",
"I. X|.!.}.!.!.=X$X#X1X+X;XE.*XW.S.S.S.I.}.].W.;X}.Y.*XT.).D.2.`.D.<.o F K F . <.:.. .   C XX~.^.%X#X].U.].E.3.3.].E.M.T.>XE.[.XX",
"#.}.=XW.S.A.}.I.P.I.=X@XAXOX@X@XS.}.|.I.Y.I.OX#XP.O.+X*XW.W.S.T.I.D.<.9 6 #   ).:XC >.*.3.W.Y.U.*X5.P.E.].].U.W.T.E.T.T.'.3.T.W.",
"=XS.W.;X+XT.W.!.|.$X3X3XY.W.>X;X!.}.}.!.!.P.W.;X%.XXP.I.W.].P.R.I.U.R.a + o o ).,XD.T.m.P.#XK.~.%X%.m.E.T.W.M.3.m.XXE.[.*X;XW.$.",
"W.W.].*X*X;XW.VXW.}.W.I.R.}.}.#XR.+X+X+X@X!.#X/.P.E.5.;X@XE.S.%.U.Y.@X[.#XE.E.*X].3.3.3X!.].;XW.XXT.T.].E.,X*XT.3.*X[.*X'.oX].'.",
"}.P.].*X].;X+XAX+XW.+XI.I.!.I. .$XKXCX!.A.OX;X#XU.XXU.K.*XE.S.*Xk.W.&XU.E.U.T.T.@.P.*X].].@.W.#X*XP.P.].P.W.T.$.<X*X3.T.m.M.'.E.",
"=X].XX].W.AXVXW.W.1XCX!.I.I.W.=XQ.1X1XSXZXOXW./.E.].mXXX*X3X=X[.K.^.%XE.E.].T.].}.[.AXY.O././.@X].*XT.*X].].*XXXT.P.5.T.3.| $.5.",
"W.}.*X*XXXT.W.W.I.+X}.Y.I.I.A./.+X}.S.;XSX&XW.I.;XY.W.AX;X].E.].(.Y.Y.~.XXE.T.E.I.R.;XP.!.W.+XW.T.AXW.E.%.].*XP.5.%.S.E.T.2.T.2.",
"/.^.NXI.P.I.@X%X!.Y.+.!./.A.|.!.R.].+X].}.=X*X>X-X+XI.W.+XI.#.}.nX^.^.~.U.E.3.P.Y.K.P.U.W.*X}. X>X=X*XW.T.XX%.m.U.~.U.U.E.T.T.3.",
"!././.P.%.U.m.#X&X(.Y.U.K.!.3X/.W.$.-X>X].$.W.ZX,XXXW.;XP. .}.I.^.BXnX(.XXE.T.mX&XP.Y.Y./.VXP.S.;X@X;XW.E.*X3.I.U.P.&XNX-X*XT.3.",
"!.%X;X{ E.W.*X#XZXU.!.Y.I.VX1X|.$.U.XXP.O.&.ZX%.*X#X;X@XP.A.}.W.^.FX^.E.E.{ >X>XOX%.O.OX/.O.@. X].E.@X*X*X].#.W.U./.NX3X%.XX2.[.",
"Y.U.W.E.*X].M.XX#X@.U.P.A.#XS.S.^.$.~.E.P.~.~.U.Y.I.@XY.P.I.P.Y.(.K.VXP.*XM.*X].+.3XW.}.W.T.*X XI.$XI.ZX>XE.}.!.W.W.$XP.E.*XT.T.",
"Y.I./.*X[.E.E.E.U.W.;XT.R.}.S.D.O.%XY.^.U.%XU.k.W.P.m.W.W.+.].XXE.~.@X-X:X3.*X].].].P.E.XX*X[.].#X#X*XW.T.;X*X*X/.VX#XW.I.*XT. X",
"OXoXVX].XXN.XX3.E.XX[.%.T.'.T.`.E.~.~.~.~.VXO.%XU.~.Y.I.].@XXX;XY.P.].*X3.T.'.oX[.+XW.[.;X[.].2.;XW.;XE.P.VX].;XVX1XP.@.*XR.T.'.",
"E.E.E.mX`.E.m.$.*X[.W.U.[.].W.[.^.^.k.Y.@X~.~.#X%.@X[.%.E.mXT.*XE. .JX'.*X[.W.3.=X>XR.P.T.@.*X@X;X;XW.3X*XW.;X;XW./.+.Y.W.T.M.'."
};
